<?xml version="1.0" encoding="UTF-8"?>
<svg width="26px" height="26px" viewBox="0 0 26 26" version="1.1" xmlns="http://www.w3.org/2000/svg" xmlns:xlink="http://www.w3.org/1999/xlink">
    <!-- Generator: Sketch 57.1 (83088) - https://sketch.com -->
    <title>telephone</title>
    <desc>Created with Sketch.</desc>
    <g id="Page-1" stroke="none" stroke-width="1" fill="none" fill-rule="evenodd">
        <g id="Desktop-HD" transform="translate(-489.000000, -3703.000000)" fill="#FFFFFF" fill-rule="nonzero">
            <g id="telephone" transform="translate(489.000000, 3703.000000)">
                <g id="Path">
                    <path d="M19.7485547,17.1837838 C18.8999061,16.3459459 17.8404466,16.3459459 16.9972034,17.1837838 C16.3539601,17.8216216 15.7107169,18.4594595 15.0782845,19.1081081 C14.9053115,19.2864865 14.7593655,19.3243243 14.5485547,19.2054054 C14.1323385,18.9783784 13.6890953,18.7945946 13.2890953,18.5459459 C11.4242304,17.372973 9.86206824,15.8648649 8.47828446,14.1675676 C7.79179797,13.3243243 7.18098716,12.4216216 6.75396013,11.4054054 C6.66747365,11.2 6.68368986,11.0648649 6.85125743,10.8972973 C7.49450067,10.2756757 8.1215277,9.63783784 8.75396013,9 C9.63504121,8.11351351 9.63504121,7.07567568 8.74855473,6.18378378 C8.24585203,5.67567568 7.74314932,5.17837838 7.24044662,4.67027027 C6.7215277,4.15135135 6.20801419,3.62702703 5.68368986,3.11351351 C4.83504121,2.28648649 3.77558175,2.28648649 2.93233851,3.11891892 C2.28368986,3.75675676 1.66206824,4.41081081 1.00260878,5.03783784 C0.391797971,5.61621622 0.083689863,6.32432432 0.0188249981,7.15135135 C-0.0838777046,8.4972973 0.245852025,9.76756757 0.71071689,11.0054054 C1.66206824,13.5675676 3.11071689,15.8432432 4.86747365,17.9297297 C7.24044662,20.7513514 10.0728791,22.9837838 13.3863926,24.5945946 C14.8782845,25.3189189 16.4242304,25.8756757 18.1053115,25.9675676 C19.2620682,26.0324324 20.2674736,25.7405405 21.0728791,24.8378378 C21.6242304,24.2216216 22.245852,23.6594595 22.8296358,23.0702703 C23.6945007,22.1945946 23.6999061,21.1351351 22.8404466,20.2702703 C21.8134196,19.2378378 20.7809872,18.2108108 19.7485547,17.1837838 Z"></path>
                    <path d="M18.7161223,12.8756757 L20.7107169,12.5351351 C20.3972034,10.7027027 19.5323385,9.04324324 18.218825,7.72432432 C16.8296358,6.33513514 15.0728791,5.45945946 13.1377439,5.18918919 L12.8566628,7.19459459 C14.3539601,7.40540541 15.7161223,8.08108108 16.791798,9.15675676 C17.8080142,10.172973 18.4728791,11.4594595 18.7161223,12.8756757 Z"></path>
                    <path d="M21.8350412,4.20540541 C19.5323385,1.9027027 16.618825,0.448648649 13.4026088,0 L13.1215277,2.00540541 C15.8999061,2.39459459 18.418825,3.65405405 20.4080142,5.63783784 C22.2945007,7.52432432 23.5323385,9.90810811 23.9809872,12.5297297 L25.9755818,12.1891892 C25.4512574,9.15135135 24.018825,6.39459459 21.8350412,4.20540541 Z"></path>
                </g>
            </g>
        </g>
    </g>
</svg>