<?xml version="1.0" encoding="UTF-8"?>
<svg width="34px" height="34px" viewBox="0 0 34 34" version="1.1" xmlns="http://www.w3.org/2000/svg" xmlns:xlink="http://www.w3.org/1999/xlink">
    <!-- Generator: Sketch 57.1 (83088) - https://sketch.com -->
    <title>Group 2</title>
    <desc>Created with Sketch.</desc>
    <g id="Symbols" stroke="none" stroke-width="1" fill="none" fill-rule="evenodd">
        <g id="menu" transform="translate(-1047.000000, -22.000000)">
            <g id="Group-2" transform="translate(1047.000000, 22.000000)">
                <rect id="Rectangle" stroke="#FFFFFF" stroke-width="2" x="1" y="1" width="32" height="32" rx="16"></rect>
                <g id="twitter-(1)" transform="translate(9.000000, 10.000000)" fill="#FFFFFF" fill-rule="nonzero">
                    <g id="Path" transform="translate(0.000000, 0.000578)">
                        <path d="M6.32982305,13.9680797 C5.59611812,13.9680797 4.840925,13.9083141 4.08120127,13.7885224 C2.74310887,13.5773245 1.3885767,12.873288 1.0052845,12.6624807 L0,12.1096161 L1.08838938,11.7495901 C2.27813567,11.3561005 3.00187319,11.1119599 3.89777504,10.7296682 C3.00070814,10.2926891 2.30933236,9.50662137 1.97652442,8.49047553 L1.72332632,7.71729843 L1.93095912,7.74919947 C1.73407042,7.5495901 1.57860472,7.34698593 1.45808967,7.16274113 C1.02949104,6.50792343 0.802570663,5.70779323 0.850854341,5.02211613 L0.898490793,4.34724637 L1.30016447,4.50375677 C1.13071851,4.18188177 1.00826175,3.83813177 0.936289283,3.47784533 C0.760888784,2.59919947 0.90768153,1.66573593 1.34974264,0.849459899 L1.69963753,0.203366132 L2.16758802,0.768730732 C3.6475542,2.557012 5.52207451,3.61781927 7.74687806,3.92836613 C7.65600634,3.29828803 7.72409541,2.6902151 7.94946242,2.14516303 C8.21185126,1.5105276 8.6786367,0.972376565 9.29894615,0.588782799 C9.98786247,0.162871365 10.8233126,-0.0435088679 11.6513843,0.00766303207 C12.5299403,0.0619598987 13.327592,0.393079699 13.961105,0.965866132 C14.270483,0.885006765 14.498439,0.798678665 14.8065226,0.682011999 C14.9918905,0.611829699 15.2021123,0.532142199 15.4651483,0.440996365 L16.4344466,0.105058865 L15.8023575,1.92094427 C15.8440394,1.91742867 15.8870157,1.91443387 15.9319338,1.91248073 L16.966991,1.86534533 L16.3552251,2.70636093 C16.320145,2.75453803 16.3112132,2.7682099 16.2987863,2.7870901 C16.249467,2.8618297 16.1881092,2.95479843 15.3483872,4.08266303 C15.1381655,4.3650849 15.0331841,4.73292343 15.0527306,5.11860053 C15.1271625,6.58422553 14.9483964,7.9102672 14.5210922,9.05974637 C14.1169591,10.1472464 13.490695,11.0803193 12.659905,11.8330537 C11.6318378,12.7643037 10.3209293,13.4019339 8.76342441,13.7279755 C7.9994289,13.8878714 7.17899459,13.9680797 6.32982305,13.9680797 Z"></path>
                    </g>
                </g>
            </g>
        </g>
    </g>
</svg>