<?xml version="1.0" encoding="UTF-8"?>
<svg width="24px" height="34px" viewBox="0 0 24 34" version="1.1" xmlns="http://www.w3.org/2000/svg" xmlns:xlink="http://www.w3.org/1999/xlink">
    <!-- Generator: Sketch 57.1 (83088) - https://sketch.com -->
    <title>mouse (2)</title>
    <desc>Created with Sketch.</desc>
    <g id="Page-1" stroke="none" stroke-width="1" fill="none" fill-rule="evenodd">
        <g id="Desktop-HD" transform="translate(-765.000000, -864.000000)" fill="#FFFFFF" fill-rule="nonzero">
            <g id="mouse-(2)" transform="translate(765.000000, 864.000000)">
                <g id="Shape" transform="translate(12.000000, 17.000000) scale(-1, 1) translate(-12.000000, -17.000000) ">
                    <path d="M14.7158203,0 L9.23863636,0 C4.13565341,0 0,4.02017209 0,8.99804688 L0,25.0019531 C0,29.9720459 4.127397,34 9.23863636,34 L14.7158203,34 C19.8190696,34 23.9544567,29.9798279 23.9544567,25.0019531 L23.9544567,8.99804688 C23.9544567,4.0279541 19.8270597,0 14.7158203,0 Z M11.9770951,11.7362671 C11.3330966,11.7362671 10.8089489,11.225769 10.8089489,10.5982818 L10.8089489,7.39755252 C10.8089489,6.77032471 11.3330966,6.25982666 11.9770951,6.25982666 C12.6213601,6.25982666 13.1455078,6.77032471 13.1455078,7.39755252 L13.1455078,10.5985412 C13.1455078,11.225769 12.6213601,11.7362671 11.9770951,11.7362671 Z M21.9090021,25.0019531 C21.9090021,28.871933 18.6954013,32.0078125 14.7158203,32.0078125 L9.23863636,32.0078125 C5.26518109,32.0078125 2.04545455,28.8778992 2.04545455,25.0019531 L2.04545455,8.99804688 C2.04545455,5.128067 5.25905536,1.9921875 9.23863636,1.9921875 L10.9543679,1.9921875 L10.9543679,4.43106076 C9.6826172,4.84817502 8.76349432,6.0201416 8.76349432,7.39755252 L8.76349432,10.5985412 C8.76349432,11.9759521 9.6826172,13.1479187 10.9543679,13.565033 L10.9543679,15.9330902 C10.9543679,16.4832764 11.4124645,16.929184 11.9770951,16.929184 C12.5419922,16.929184 12.9998224,16.4832764 12.9998224,15.9330902 L12.9998224,13.565033 C14.2718395,13.1479187 15.1909623,11.9759521 15.1909623,10.5985412 L15.1909623,7.39755252 C15.1909623,6.0201416 14.2718395,4.84817502 12.9998224,4.43106076 L12.9998224,1.9921875 L14.7158203,1.9921875 C18.6892756,1.9921875 21.9090021,5.1221008 21.9090021,8.99804688 L21.9090021,25.0019531 Z"></path>
                </g>
            </g>
        </g>
    </g>
</svg>