<?xml version="1.0" encoding="UTF-8"?>
<svg width="32px" height="28px" viewBox="0 0 32 28" version="1.1" xmlns="http://www.w3.org/2000/svg" xmlns:xlink="http://www.w3.org/1999/xlink">
    <!-- Generator: Sketch 57.1 (83088) - https://sketch.com -->
    <title>id-card</title>
    <desc>Created with Sketch.</desc>
    <g id="Page-1" stroke="none" stroke-width="1" fill="none" fill-rule="evenodd">
        <g id="Desktop-HD" transform="translate(-354.000000, -2438.000000)" fill="#3DA742">
            <g id="Search" transform="translate(-62.000000, 2115.000000)">
                <g id="id-card" transform="translate(416.000000, 323.000000)">
                    <g id="Shape">
                        <path d="M29.5,16.6801802 L29.5,7.5990991 C29.5,6.20818018 28.3785,5.07657658 27,5.07657658 L18.5,5.07657658 C17.809625,5.07657658 17.25,4.51190991 17.25,3.81531532 C17.25,3.11985586 16.68925,2.55405405 16,2.55405405 C15.31075,2.55405405 14.75,3.11985586 14.75,3.81531532 C14.75,4.51077477 15.31075,5.07657658 16,5.07657658 C16.690375,5.07657658 17.25,5.64124324 17.25,6.33783784 C17.25,7.03443243 16.690375,7.5990991 16,7.5990991 C14.3704375,7.5990991 12.9810625,6.54455856 12.465,5.07657658 L5,5.07657658 C3.6215,5.07657658 2.5,6.20818018 2.5,7.5990991 L2.5,22.9234234 C2.5,24.3143423 3.6215,25.4459459 5,25.4459459 L27,25.4459459 C28.3785,25.4459459 29.5,24.3143423 29.5,22.9234234 C29.5,22.2268288 30.059625,21.6621622 30.75,21.6621622 C31.440375,21.6621622 32,22.2268288 32,22.9234234 C32,25.7052613 29.757,27.9684685 27,27.9684685 L5,27.9684685 C2.243,27.9684685 0,25.7052613 0,22.9234234 L0,7.5990991 C0,4.81726126 2.243,2.55405405 5,2.55405405 L12.4641875,2.55405405 C12.9800625,1.08588288 14.3703125,0.0315315315 16,0.0315315315 C17.6296875,0.0315315315 19.019875,1.08588288 19.5358125,2.55405405 L27,2.55405405 C29.757,2.55405405 32,4.81726126 32,7.5990991 L32,16.6801802 C32,17.3767748 31.440375,17.9414414 30.75,17.9414414 C30.059625,17.9414414 29.5,17.3767748 29.5,16.6801802 Z M27.0625,13.527027 C27.0625,12.8304324 26.502875,12.2657658 25.8125,12.2657658 L20.4375,12.2657658 C19.747125,12.2657658 19.1875,12.8304324 19.1875,13.527027 C19.1875,14.2236216 19.747125,14.7882883 20.4375,14.7882883 L25.8125,14.7882883 C26.502875,14.7882883 27.0625,14.2236216 27.0625,13.527027 Z M20.4375,17.3738739 C19.747125,17.3738739 19.1875,17.9385405 19.1875,18.6351351 C19.1875,19.3317297 19.747125,19.8963964 20.4375,19.8963964 L23.9375,19.8963964 C24.627875,19.8963964 25.1875,19.3317297 25.1875,18.6351351 C25.1875,17.9385405 24.627875,17.3738739 23.9375,17.3738739 L20.4375,17.3738739 Z" fill-rule="nonzero"></path>
                    </g>
                    <g id="pet" transform="translate(5.687500, 10.216216)">
                        <path d="M7.51265591,5.29026512 C7.01313738,4.50495298 6.16239751,4.03603604 5.23687383,4.03603604 C4.31135015,4.03603604 3.46061028,4.50495298 2.96117641,5.29026512 L1.75752135,7.18257635 C1.55781557,7.49649638 1.46566973,7.85923701 1.4909929,8.23128088 C1.51631606,8.6034101 1.65682153,8.9499341 1.89726459,9.23363995 C2.13787703,9.51708975 2.45581407,9.71083594 2.81669039,9.79396755 C3.1775667,9.87709918 3.54750515,9.84159327 3.886446,9.69146132 L3.90914372,9.68130457 C4.7620009,9.31105308 5.73656176,9.31446711 6.58721694,9.69146132 C6.80665615,9.78867581 7.03913809,9.83783784 7.27373733,9.83783784 C7.4012848,9.83783784 7.52959448,9.82324286 7.6567185,9.79405289 C8.01759481,9.71100663 8.33553185,9.51726046 8.57622898,9.2337253 C8.81675673,8.9502755 8.95734689,8.60366616 8.98275475,8.23145159 C9.00816261,7.85923701 8.91601677,7.49658172 8.71631099,7.18249101 L7.51265591,5.29026512 Z" id="Path" fill-rule="nonzero"></path>
                        <path d="M2.0605345,5.27655291 C2.42198387,5.13781355 2.69657597,4.84675138 2.83370104,4.45693138 C2.96424343,4.08599153 2.95355725,3.66721056 2.80352327,3.27764685 C2.65340381,2.88833941 2.38035051,2.57053744 2.03463122,2.38267548 C1.67147206,2.18541614 1.27249281,2.15329422 0.911641872,2.29228985 C0.185665485,2.57122088 -0.147486875,3.46773001 0.169080544,4.29119594 C0.421958333,4.9466198 1.01175,5.36036036 1.60803888,5.36036036 C1.76029557,5.36036036 1.91297973,5.3333643 2.0605345,5.27655291 Z" id="Path" fill-rule="nonzero"></path>
                        <path d="M4.36180176,3.78378378 C5.25786451,3.78378378 5.98688616,2.93518134 5.98688616,1.89210749 C5.98688616,0.848774916 5.25786451,0 4.36180176,0 C3.46582344,0 2.73688616,0.848774916 2.73688616,1.89210749 C2.73688616,2.93518134 3.46582344,3.78378378 4.36180176,3.78378378 Z" id="Path" fill-rule="nonzero"></path>
                        <path d="M7.22644857,4.21968417 L7.22653389,4.21968417 C7.36587387,4.26610545 7.50802968,4.28828829 7.6495882,4.28828829 C8.31019455,4.28828829 8.95399138,3.80566131 9.19964958,3.06394882 C9.34112277,2.63699309 9.33182204,2.18554199 9.17345399,1.7928455 C9.00774778,1.38173466 8.7006537,1.08333671 8.30865865,0.95255209 C7.91657829,0.821767449 7.49258539,0.876325277 7.11466938,1.10603347 C6.75364825,1.32546387 6.47701615,1.68150298 6.33571362,2.10845873 C6.03749362,3.00913404 6.43708283,3.95623064 7.22644857,4.21968417 L7.22644857,4.21968417 Z" id="Path" fill-rule="nonzero"></path>
                        <path d="M10.6504516,3.97142737 L10.6501971,3.97116928 C10.0291566,3.50592505 9.1003528,3.70757677 8.57958136,4.42092831 C8.05931892,5.13462396 8.1406709,6.09410414 8.76077827,6.5596925 C8.98693508,6.72959954 9.2541496,6.81081081 9.52764156,6.81081081 C10.0043014,6.81081081 10.5002176,6.56407996 10.8317333,6.11036362 C11.3519109,5.39666796 11.2706438,4.43718778 10.6504516,3.97142737 Z" id="Path" fill-rule="nonzero"></path>
                    </g>
                </g>
            </g>
        </g>
    </g>
</svg>