<?xml version="1.0" encoding="UTF-8"?>
<svg width="24px" height="29px" viewBox="0 0 24 29" version="1.1" xmlns="http://www.w3.org/2000/svg" xmlns:xlink="http://www.w3.org/1999/xlink">
    <!-- Generator: Sketch 57.1 (83088) - https://sketch.com -->
    <title>place</title>
    <desc>Created with Sketch.</desc>
    <g id="Page-1" stroke="none" stroke-width="1" fill="none" fill-rule="evenodd">
        <g id="Desktop-HD" transform="translate(-874.000000, -2438.000000)" fill="#3DA742">
            <g id="Search" transform="translate(-62.000000, 2115.000000)">
                <g id="place" transform="translate(936.000000, 323.000000)">
                    <g id="Shape">
                        <path d="M21.8048654,5.04220508 C19.5498462,1.83804492 15.9759808,0 12.0003462,0 C8.02471154,0 4.45084615,1.83804492 2.19582692,5.04220508 C-0.0481153846,8.23016602 -0.56625,12.266207 0.807057692,15.8320176 C1.17438462,16.8057832 1.75828846,17.7518516 2.53840385,18.6383906 L11.2140577,28.6430508 C11.4102692,28.8695 11.69775,29 12.0003462,29 C12.3029423,29 12.5904231,28.8695566 12.7866346,28.6430508 L21.4598654,18.6411094 C22.2434423,17.7494727 22.8265962,16.8044238 23.1908654,15.8384746 C24.5669423,12.266207 24.0488077,8.23016602 21.8048654,5.04220508 Z M20.6459679,15.0681573 C20.3836001,15.7638 19.9552653,16.4515653 19.3735728,17.1131079 C19.3719563,17.1146939 19.3703397,17.11628 19.3690464,17.1181833 L12.0003305,25.6098037 L4.62708818,17.1128436 C4.04571897,16.4518825 3.61738421,15.7641701 3.35242986,15.0618659 C2.29164256,12.3092715 2.69422013,9.19447542 4.4296522,6.73022533 C6.1705267,4.25809784 8.93010403,2.84027246 12.0003305,2.84027246 C15.0705031,2.84027246 17.8297571,4.25804497 19.5706855,6.73022533 C21.3064409,9.19447542 21.7093417,12.3092715 20.6459679,15.0681573 Z" fill-rule="nonzero"></path>
                        <path d="M12.0003462,6.01631055 C8.81134615,6.01631055 6.21657692,8.56343945 6.21657692,11.6946465 C6.21657692,14.8258535 8.811,17.3729824 12.0003462,17.3729824 C15.1896923,17.3729824 17.7841154,14.8258535 17.7841154,11.6946465 C17.7841154,8.5637793 15.1893462,6.01631055 12.0003462,6.01631055 Z M12.0003462,14.8098242 C10.2507424,14.8098242 8.82726923,13.4122998 8.82726923,11.6945898 C8.82726923,9.97687993 10.2507424,8.57935547 12.0003462,8.57935547 C13.7499499,8.57935547 15.1734231,9.97687993 15.1734231,11.6945898 C15.1734231,13.4122998 13.7499499,14.8098242 12.0003462,14.8098242 Z" fill-rule="nonzero"></path>
                    </g>
                </g>
            </g>
        </g>
    </g>
</svg>