<?xml version="1.0" encoding="UTF-8"?>
<svg width="299px" height="575px" viewBox="0 0 299 575" version="1.1" xmlns="http://www.w3.org/2000/svg" xmlns:xlink="http://www.w3.org/1999/xlink">
    <!-- Generator: Sketch 57.1 (83088) - https://sketch.com -->
    <title>Group 9</title>
    <desc>Created with Sketch.</desc>
    <g id="Page-1" stroke="none" stroke-width="1" fill="none" fill-rule="evenodd">
        <g id="Desktop-HD" transform="translate(-652.000000, -1534.000000)">
            <g id="Group-9" transform="translate(642.000000, 1534.000000)">
                <path d="M56.9603611,160.550285 C91.1114771,164.102128 125.12469,165.878049 159,165.878049 C193.339905,165.878049 227.538098,164.053081 261.594579,160.403144 L261.594579,160.403145 C284.65846,157.931318 305.359241,174.624477 307.831067,197.688358 C308.185195,200.99262 308.145909,204.327234 307.714034,207.622236 C300.571345,262.117604 297,315.410192 297,367.5 C297,421.804901 300.444813,474.949636 307.334439,526.934207 L307.334439,526.934207 C310.382001,549.929095 294.211498,571.040673 271.216609,574.088235 C267.77312,574.544608 264.286314,574.572035 260.836072,574.169888 C222.756016,569.731426 185.977325,567.512195 150.5,567.512195 C118.392447,567.512195 87.324251,569.284618 57.2954106,572.829465 L57.2954106,572.829465 C34.2594033,575.548821 13.3805559,559.078921 10.6611997,536.042914 C10.2055899,532.183386 10.2878649,528.279299 10.9056698,524.442392 C19.6352233,470.227088 24,416.034909 24,361.865854 C24,310.981205 19.7318217,260.119169 11.195465,209.279746 L11.1954658,209.279746 C7.35444271,186.404015 22.7851222,164.745807 45.660853,160.904784 C49.3941679,160.27793 53.1950942,160.158683 56.9603611,160.550285 Z" id="Rectangle" fill="#F7E0E5"></path>
                <g id="Group-2-Copy-3" transform="translate(135.000000, 236.000000)">
                    <rect id="Rectangle" fill="#FFFFFF" x="0" y="0" width="46" height="46" rx="23"></rect>
                    <polygon id="" fill="#EB758F" fill-rule="nonzero" points="18.557377 28.6046512 34.8237705 12 37 14.216458 18.557377 33 10 24.2844365 12.1393443 22.0679785"></polygon>
                </g>
                <g id="Group-2-Copy-4" transform="translate(135.000000, 344.000000)">
                    <rect id="Rectangle" fill="#FFFFFF" x="0" y="0" width="46" height="46" rx="23"></rect>
                    <polygon id="" fill="#EB758F" fill-rule="nonzero" points="18.557377 28.6046512 34.8237705 12 37 14.216458 18.557377 33 10 24.2844365 12.1393443 22.0679785"></polygon>
                </g>
                <g id="Group-2-Copy-5" transform="translate(135.000000, 458.000000)">
                    <rect id="Rectangle" fill="#FFFFFF" x="0" y="0" width="46" height="46" rx="23"></rect>
                    <polygon id="" fill="#EB758F" fill-rule="nonzero" points="18.557377 28.6046512 34.8237705 12 37 14.216458 18.557377 33 10 24.2844365 12.1393443 22.0679785"></polygon>
                </g>
                <g id="38337-O1YXZF" transform="translate(61.000000, 0.000000)" fill="#F25360" fill-rule="nonzero">
                    <path d="M91,29.5107571 C91,45.5273987 82.4964095,58.5107571 72.002851,58.5107571 C61.5064414,58.5107571 53,45.5273987 53,29.5107571 C53,13.4949549 61.5068487,0.510757126 72.002851,0.510757126 C82.4964095,0.510757126 91,13.4949549 91,29.5107571 Z M121.001425,0.510757126 C110.505761,0.510757126 102,13.4949549 102,29.5107571 C102,45.5273987 110.505761,58.5107571 121.001425,58.5107571 C131.494239,58.5107571 140,45.5273987 140,29.5107571 C140,13.4949549 131.494239,0.510757126 121.001425,0.510757126 Z M174.331547,39.4025513 C164.233075,35.5453274 151.422833,44.5583921 145.720398,59.5296439 C140.016286,74.5008956 143.572706,89.7593294 153.673275,93.6194923 C163.768811,97.4754566 176.578634,88.4619721 182.27981,73.4911402 C187.983503,58.5194686 184.426663,43.2572561 174.331547,39.4025513 Z M11.7221628,73.4911499 C17.4228673,88.4619749 30.2308947,97.4754552 40.3263379,93.6194927 C50.4268138,89.7593316 53.9848788,74.5009049 48.2783028,59.5296601 C42.5763401,44.5579955 29.7687321,35.5453548 19.6682563,39.4025769 C9.57239366,43.2572799 6.01558683,58.5194853 11.7221628,73.4911499 Z M144.941246,110.629198 C136.443714,93.419797 123.375959,61.9471013 96.7646004,61.9471013 C70.1542761,61.9471013 55.5772514,90.1606307 44.6327159,111.768547 C32.1437388,136.42553 0.411827121,126.178703 0.411827121,168.318426 C0.411827121,195.201321 21.9828031,217 48.5874379,217 C65.6704303,217 81.683796,208.190426 97.3873424,208.190426 C113.091406,208.190426 127.859288,217 144.940728,217 C171.546398,217 193.116856,195.201321 193.116856,168.318426 C193.116856,129.333342 153.245334,127.447144 144.941246,110.629198 Z" id="Shape"></path>
                </g>
                <g id="login" transform="translate(136.000000, 78.000000)" fill="#FFFFFF">
                    <g>
                        <path d="M11.5576172,41.484375 L5.3343457,41.484375 C4.58393555,41.484375 4.13121094,41.0655762 3.92818359,40.8158789 C3.57767578,40.3846875 3.44188477,39.8235938 3.55587891,39.276123 C5.3812793,30.5080664 13.1191699,24.1047949 22.0520215,23.8970215 C22.2008203,23.9025586 22.3499707,23.90625 22.5,23.90625 C22.6513477,23.90625 22.8018164,23.9024707 22.9519336,23.8968457 C25.1362793,23.9466797 27.2699121,24.3573926 29.3008008,25.1200195 C30.2095898,25.4614746 31.2230566,25.0011914 31.5643359,24.0923145 C31.9056152,23.1835254 31.4455078,22.1700586 30.5366309,21.8287793 C30.245625,21.7194434 29.9525977,21.6171387 29.6581641,21.5201074 C32.5674316,19.3377832 34.453125,15.8615332 34.453125,11.953125 C34.453125,5.36220703 29.0910059,0 22.5,0 C15.9089941,0 10.546875,5.36220703 10.546875,11.953125 C10.546875,15.8650488 12.4358203,19.3440234 15.3494824,21.5259961 C12.6801562,22.4047266 10.1752734,23.77125 7.98310547,25.5744141 C3.96369141,28.8805957 1.1690332,33.4921289 0.114082031,38.5596387 C-0.2165625,40.1474707 0.179472656,41.7783691 1.20067383,43.0339746 C2.21668945,44.2834277 3.72339844,45 5.3343457,45 L11.5576172,45 C12.528457,45 13.3154297,44.2130273 13.3154297,43.2421875 C13.3154297,42.2713477 12.528457,41.484375 11.5576172,41.484375 Z M14.0625,11.953125 C14.0625,7.30063477 17.8475098,3.515625 22.5,3.515625 C27.1524902,3.515625 30.9375,7.30063477 30.9375,11.953125 C30.9375,16.4678027 27.3731836,20.1654492 22.9108008,20.3805176 C22.7739551,20.3780566 22.6371094,20.3759473 22.5,20.3759473 C22.3625391,20.3759473 22.225166,20.3779687 22.0878809,20.3805176 C17.6261133,20.1647461 14.0625,16.4673633 14.0625,11.953125 Z" id="Shape" fill-rule="nonzero"></path>
                        <path d="M43.6543066,30.2877246 C42.901875,28.6046191 41.2069922,27.5140723 39.3321973,27.5097656 L33.8502832,27.5097656 C33.8463281,27.5097656 33.8426367,27.5097656 33.8385938,27.5097656 C31.8610547,27.5097656 30.1357617,28.6751953 29.4415137,30.481084 C29.3491406,30.721377 29.2362012,31.0240723 29.1183398,31.3769531 L17.6094141,31.3769531 C17.1341895,31.3769531 16.6792676,31.5693457 16.3481836,31.9102734 L13.3286133,35.0205469 C12.6635449,35.7055664 12.6668848,36.7962012 13.336084,37.4770898 L16.4122559,40.6070508 C16.7427246,40.9433203 17.1944824,41.1327246 17.6659277,41.1327246 L23.3788184,41.1327246 C24.3496582,41.1327246 25.1366309,40.345752 25.1366309,39.3749121 C25.1366309,38.4040723 24.3496582,37.6170996 23.3788184,37.6170996 L18.4029785,37.6170996 L17.047002,36.2373926 L18.352793,34.8925781 L30.4369629,34.8925781 C31.2467871,34.8925781 31.9517578,34.3393066 32.1443262,33.5527734 C32.2865332,32.9720801 32.4649512,32.4137988 32.722998,31.7425781 C32.8931543,31.2999609 33.3204785,31.0253906 33.8428125,31.0253906 C33.8439551,31.0253906 33.8450977,31.0253906 33.8462402,31.0253906 L39.3280664,31.0253906 C39.8251758,31.0265332 40.2530273,31.2937207 40.4447168,31.7225391 C40.9166016,32.7782812 41.4800684,34.4126953 41.4842871,36.2037305 C41.4885059,38.0080371 40.9256543,39.6798926 40.4525391,40.7647266 C40.2618164,41.2022461 39.8303613,41.484375 39.3486328,41.484375 C39.347666,41.484375 39.3466992,41.484375 39.3457324,41.484375 L33.7976367,41.484375 C33.3113379,41.4832324 32.8558008,41.1703418 32.6641992,40.7058398 C32.458623,40.2074121 32.2804687,39.6383203 32.119541,38.9658691 C31.8935742,38.021748 30.944707,37.4395605 30.0009375,37.6654395 C29.0567285,37.8914062 28.474541,38.8400098 28.7005078,39.7841309 C28.904502,40.636582 29.1380273,41.3765332 29.4142676,42.0462598 C30.1524609,43.8360645 31.8698437,44.9954297 33.7935937,44.9999121 L39.3416895,44.9999121 C39.3454687,44.9999121 39.3489844,44.9999121 39.3527637,44.9999121 C41.2293164,44.9999121 42.9252539,43.8898535 43.6752246,42.1697461 C44.2827246,40.7765918 45.005625,38.609209 44.9999458,36.1953809 C44.9942871,33.7881445 44.2650586,31.6540723 43.6543066,30.2877246 Z" id="Path" fill-rule="nonzero"></path>
                        <circle id="Oval" fill-rule="nonzero" cx="37.8808594" cy="36.2109375" r="1.7578125"></circle>
                    </g>
                </g>
                <path d="M96.0546875,299.660156 L90.6933594,299.660156 L89.4892578,303 L87.7490234,303 L92.6357422,290.203125 L94.1123047,290.203125 L99.0078125,303 L97.2763672,303 L96.0546875,299.660156 Z M91.203125,298.271484 L95.5537109,298.271484 L93.3740234,292.286133 L91.203125,298.271484 Z M102.242188,303 L100.616211,303 L100.616211,289.5 L102.242188,289.5 L102.242188,303 Z M106.610352,303 L104.984375,303 L104.984375,289.5 L106.610352,289.5 L106.610352,303 Z M115.610352,297.990234 L115.610352,303 L113.922852,303 L113.922852,290.203125 L118.642578,290.203125 C120.042976,290.203125 121.140133,290.560543 121.934082,291.275391 C122.728031,291.990238 123.125,292.936518 123.125,294.114258 C123.125,295.356452 122.73682,296.312985 121.960449,296.983887 C121.184078,297.654789 120.072273,297.990234 118.625,297.990234 L115.610352,297.990234 Z M115.610352,296.610352 L118.642578,296.610352 C119.544926,296.610352 120.236326,296.397951 120.716797,295.973145 C121.197268,295.548338 121.4375,294.934574 121.4375,294.131836 C121.4375,293.370113 121.197268,292.760744 120.716797,292.303711 C120.236326,291.846677 119.577153,291.609375 118.739258,291.591797 L115.610352,291.591797 L115.610352,296.610352 Z M128.855469,303.175781 C127.5664,303.175781 126.517582,302.752446 125.708984,301.905762 C124.900387,301.059078 124.496094,299.926765 124.496094,298.508789 L124.496094,298.209961 C124.496094,297.266597 124.676268,296.42432 125.036621,295.683105 C125.396974,294.941891 125.900876,294.361819 126.54834,293.942871 C127.195804,293.523924 127.897457,293.314453 128.65332,293.314453 C129.889655,293.314453 130.850583,293.721676 131.536133,294.536133 C132.221683,295.35059 132.564453,296.516594 132.564453,298.03418 L132.564453,298.710938 L126.12207,298.710938 C126.145508,299.648442 126.419431,300.405759 126.943848,300.98291 C127.468264,301.560061 128.134762,301.848633 128.943359,301.848633 C129.517581,301.848633 130.003904,301.731446 130.402344,301.49707 C130.800783,301.262694 131.149413,300.95215 131.448242,300.56543 L132.441406,301.338867 C131.644527,302.563483 130.449227,303.175781 128.855469,303.175781 Z M128.65332,294.650391 C127.997067,294.650391 127.446291,294.889158 127.000977,295.366699 C126.555662,295.844241 126.280274,296.513668 126.174805,297.375 L130.938477,297.375 L130.938477,297.251953 C130.891601,296.425777 130.668947,295.785647 130.270508,295.331543 C129.872068,294.877439 129.333011,294.650391 128.65332,294.650391 Z M136.651367,291.1875 L136.651367,293.490234 L138.426758,293.490234 L138.426758,294.74707 L136.651367,294.74707 L136.651367,300.644531 C136.651367,301.025393 136.730468,301.311034 136.888672,301.501465 C137.046876,301.691895 137.316404,301.787109 137.697266,301.787109 C137.884767,301.787109 138.142576,301.751953 138.470703,301.681641 L138.470703,303 C138.042967,303.117188 137.626955,303.175781 137.222656,303.175781 C136.49609,303.175781 135.948244,302.956057 135.579102,302.516602 C135.209959,302.077146 135.025391,301.453129 135.025391,300.644531 L135.025391,294.74707 L133.293945,294.74707 L133.293945,293.490234 L135.025391,293.490234 L135.025391,291.1875 L136.651367,291.1875 Z M149.729492,297.823242 L146.723633,297.823242 L146.723633,303 L145.027344,303 L145.027344,290.203125 L149.263672,290.203125 C150.705085,290.203125 151.813961,290.531247 152.590332,291.1875 C153.366703,291.843753 153.754883,292.798822 153.754883,294.052734 C153.754883,294.849613 153.539553,295.543942 153.108887,296.135742 C152.678221,296.727542 152.079105,297.16992 151.311523,297.462891 L154.317383,302.894531 L154.317383,303 L152.506836,303 L149.729492,297.823242 Z M146.723633,296.443359 L149.316406,296.443359 C150.154301,296.443359 150.820798,296.226565 151.315918,295.792969 C151.811038,295.359373 152.058594,294.779301 152.058594,294.052734 C152.058594,293.261715 151.822756,292.655276 151.351074,292.233398 C150.879392,291.811521 150.198247,291.597656 149.307617,291.591797 L146.723633,291.591797 L146.723633,296.443359 Z M159.810547,303.175781 C158.521478,303.175781 157.47266,302.752446 156.664062,301.905762 C155.855465,301.059078 155.451172,299.926765 155.451172,298.508789 L155.451172,298.209961 C155.451172,297.266597 155.631346,296.42432 155.991699,295.683105 C156.352053,294.941891 156.855954,294.361819 157.503418,293.942871 C158.150882,293.523924 158.852535,293.314453 159.608398,293.314453 C160.844733,293.314453 161.805661,293.721676 162.491211,294.536133 C163.176761,295.35059 163.519531,296.516594 163.519531,298.03418 L163.519531,298.710938 L157.077148,298.710938 C157.100586,299.648442 157.374509,300.405759 157.898926,300.98291 C158.423342,301.560061 159.08984,301.848633 159.898438,301.848633 C160.472659,301.848633 160.958982,301.731446 161.357422,301.49707 C161.755861,301.262694 162.104491,300.95215 162.40332,300.56543 L163.396484,301.338867 C162.599605,302.563483 161.404305,303.175781 159.810547,303.175781 Z M159.608398,294.650391 C158.952145,294.650391 158.401369,294.889158 157.956055,295.366699 C157.51074,295.844241 157.235352,296.513668 157.129883,297.375 L161.893555,297.375 L161.893555,297.251953 C161.846679,296.425777 161.624025,295.785647 161.225586,295.331543 C160.827146,294.877439 160.288089,294.650391 159.608398,294.650391 Z M169.214844,301.848633 C169.794925,301.848633 170.301756,301.672853 170.735352,301.321289 C171.168947,300.969725 171.409179,300.530276 171.456055,300.00293 L172.994141,300.00293 C172.964844,300.547854 172.777345,301.066404 172.431641,301.558594 C172.085936,302.050784 171.624515,302.443358 171.047363,302.736328 C170.470212,303.029298 169.859378,303.175781 169.214844,303.175781 C167.919915,303.175781 166.890141,302.743657 166.125488,301.879395 C165.360836,301.015132 164.978516,299.833015 164.978516,298.333008 L164.978516,298.060547 C164.978516,297.134761 165.148436,296.311527 165.488281,295.59082 C165.828127,294.870114 166.315915,294.310549 166.95166,293.912109 C167.587406,293.51367 168.338863,293.314453 169.206055,293.314453 C170.272466,293.314453 171.158688,293.633786 171.864746,294.272461 C172.570804,294.911136 172.947265,295.740229 172.994141,296.759766 L171.456055,296.759766 C171.409179,296.144528 171.176272,295.639162 170.757324,295.243652 C170.338377,294.848143 169.821292,294.650391 169.206055,294.650391 C168.379879,294.650391 167.739748,294.947751 167.285645,295.54248 C166.831541,296.13721 166.604492,296.997065 166.604492,298.12207 L166.604492,298.429688 C166.604492,299.525396 166.830076,300.369138 167.28125,300.960938 C167.732424,301.552737 168.376949,301.848633 169.214844,301.848633 Z M174.391602,298.157227 C174.391602,297.225581 174.574705,296.387699 174.940918,295.643555 C175.307131,294.89941 175.816891,294.325197 176.470215,293.920898 C177.123538,293.5166 177.869136,293.314453 178.707031,293.314453 C180.00196,293.314453 181.049312,293.762691 181.849121,294.65918 C182.64893,295.555669 183.048828,296.748039 183.048828,298.236328 L183.048828,298.350586 C183.048828,299.276372 182.871584,300.10693 182.51709,300.842285 C182.162596,301.57764 181.655765,302.150389 180.996582,302.560547 C180.337399,302.970705 179.580082,303.175781 178.724609,303.175781 C177.43554,303.175781 176.391117,302.727544 175.591309,301.831055 C174.7915,300.934566 174.391602,299.748054 174.391602,298.271484 L174.391602,298.157227 Z M176.026367,298.350586 C176.026367,299.405279 176.270994,300.25195 176.760254,300.890625 C177.249514,301.5293 177.904293,301.848633 178.724609,301.848633 C179.550785,301.848633 180.207029,301.524906 180.693359,300.877441 C181.17969,300.229977 181.422852,299.323248 181.422852,298.157227 C181.422852,297.114253 181.175295,296.269046 180.680176,295.621582 C180.185056,294.974118 179.527348,294.650391 178.707031,294.650391 C177.904293,294.650391 177.256838,294.969723 176.764648,295.608398 C176.272458,296.247074 176.026367,297.161127 176.026367,298.350586 Z M189.68457,294.949219 C189.438475,294.908203 189.171876,294.887695 188.884766,294.887695 C187.818354,294.887695 187.094728,295.341792 186.713867,296.25 L186.713867,303 L185.087891,303 L185.087891,293.490234 L186.669922,293.490234 L186.696289,294.588867 C187.229495,293.739254 187.985347,293.314453 188.963867,293.314453 C189.280275,293.314453 189.520507,293.355468 189.68457,293.4375 L189.68457,294.949219 Z M190.616211,298.166016 C190.616211,296.707024 190.961911,295.533696 191.65332,294.645996 C192.34473,293.758296 193.249994,293.314453 194.369141,293.314453 C195.482427,293.314453 196.364255,293.695309 197.014648,294.457031 L197.014648,289.5 L198.640625,289.5 L198.640625,303 L197.146484,303 L197.067383,301.980469 C196.416989,302.777348 195.511725,303.175781 194.351562,303.175781 C193.249994,303.175781 192.352054,302.724614 191.657715,301.822266 C190.963375,300.919917 190.616211,299.742195 190.616211,298.289062 L190.616211,298.166016 Z M192.242188,298.350586 C192.242188,299.428716 192.464842,300.272458 192.910156,300.881836 C193.355471,301.491214 193.970699,301.795898 194.755859,301.795898 C195.787115,301.795898 196.540037,301.333012 197.014648,300.407227 L197.014648,296.039062 C196.528318,295.142574 195.781255,294.694336 194.773438,294.694336 C193.976559,294.694336 193.355471,295.00195 192.910156,295.617188 C192.464842,296.232425 192.242188,297.143549 192.242188,298.350586 Z M206.700195,300.477539 C206.700195,300.038084 206.53467,299.696779 206.203613,299.453613 C205.872557,299.210448 205.295414,299.000977 204.472168,298.825195 C203.648922,298.649413 202.995608,298.438478 202.512207,298.192383 C202.028806,297.946288 201.671388,297.653322 201.439941,297.313477 C201.208495,296.973631 201.092773,296.569338 201.092773,296.100586 C201.092773,295.321285 201.42236,294.662112 202.081543,294.123047 C202.740726,293.583982 203.583003,293.314453 204.608398,293.314453 C205.686529,293.314453 206.561032,293.592771 207.231934,294.149414 C207.902835,294.706057 208.238281,295.417964 208.238281,296.285156 L206.603516,296.285156 C206.603516,295.839842 206.414553,295.456056 206.036621,295.133789 C205.65869,294.811522 205.18262,294.650391 204.608398,294.650391 C204.016599,294.650391 203.553713,294.779296 203.219727,295.037109 C202.885741,295.294923 202.71875,295.631834 202.71875,296.047852 C202.71875,296.440432 202.874022,296.736327 203.18457,296.935547 C203.495119,297.134767 204.056148,297.325194 204.867676,297.506836 C205.679203,297.688477 206.336912,297.905272 206.84082,298.157227 C207.344729,298.409181 207.718261,298.712401 207.961426,299.066895 C208.204591,299.421388 208.326172,299.853513 208.326172,300.363281 C208.326172,301.212895 207.986332,301.89404 207.306641,302.406738 C206.62695,302.919436 205.745123,303.175781 204.661133,303.175781 C203.89941,303.175781 203.225589,303.041017 202.639648,302.771484 C202.053708,302.501952 201.595216,302.125491 201.26416,301.64209 C200.933104,301.158689 200.767578,300.635745 200.767578,300.073242 L202.393555,300.073242 C202.422852,300.618167 202.641111,301.050291 203.04834,301.369629 C203.455568,301.688966 203.993161,301.848633 204.661133,301.848633 C205.27637,301.848633 205.770018,301.724122 206.14209,301.475098 C206.514162,301.226073 206.700195,300.893557 206.700195,300.477539 Z M216.96582,303 L215.27832,303 L215.27832,290.203125 L216.96582,290.203125 L216.96582,303 Z M221.333984,293.490234 L221.386719,294.685547 C222.113285,293.77148 223.062494,293.314453 224.234375,293.314453 C226.244151,293.314453 227.257812,294.448231 227.275391,296.71582 L227.275391,303 L225.649414,303 L225.649414,296.707031 C225.643555,296.021481 225.486818,295.51465 225.179199,295.186523 C224.87158,294.858397 224.392581,294.694336 223.742188,294.694336 C223.214841,294.694336 222.751955,294.83496 222.353516,295.116211 C221.955076,295.397462 221.644532,295.766599 221.421875,296.223633 L221.421875,303 L219.795898,303 L219.795898,293.490234 L221.333984,293.490234 Z M135.209961,323.014648 C135.209961,324.268561 134.999026,325.362788 134.577148,326.297363 C134.155271,327.231938 133.557621,327.94531 132.78418,328.4375 C132.010738,328.92969 131.108404,329.175781 130.077148,329.175781 C129.069331,329.175781 128.175785,328.928225 127.396484,328.433105 C126.617184,327.937986 126.012209,327.231938 125.581543,326.314941 C125.150877,325.397945 124.929688,324.335944 124.917969,323.128906 L124.917969,322.206055 C124.917969,320.97558 125.131834,319.888677 125.55957,318.945312 C125.987307,318.001948 126.592281,317.279788 127.374512,316.778809 C128.156742,316.27783 129.051753,316.027344 130.05957,316.027344 C131.084966,316.027344 131.988766,316.2749 132.770996,316.77002 C133.553227,317.265139 134.155271,317.982905 134.577148,318.92334 C134.999026,319.863774 135.209961,320.958002 135.209961,322.206055 L135.209961,323.014648 Z M133.53125,322.188477 C133.53125,320.670891 133.226566,319.506352 132.617188,318.694824 C132.007809,317.883297 131.155279,317.477539 130.05957,317.477539 C128.993159,317.477539 128.153812,317.883297 127.541504,318.694824 C126.929196,319.506352 126.614258,320.632805 126.59668,322.074219 L126.59668,323.014648 C126.59668,324.485359 126.905759,325.641109 127.523926,326.481934 C128.142093,327.322758 128.993159,327.743164 130.077148,327.743164 C131.166998,327.743164 132.010739,327.346195 132.608398,326.552246 C133.206058,325.758297 133.513672,324.620125 133.53125,323.137695 L133.53125,322.188477 Z M139.024414,319.490234 L139.077148,320.685547 C139.803715,319.77148 140.752924,319.314453 141.924805,319.314453 C143.93458,319.314453 144.948242,320.448231 144.96582,322.71582 L144.96582,329 L143.339844,329 L143.339844,322.707031 C143.333984,322.021481 143.177248,321.51465 142.869629,321.186523 C142.56201,320.858397 142.083011,320.694336 141.432617,320.694336 C140.905271,320.694336 140.442385,320.83496 140.043945,321.116211 C139.645506,321.397462 139.334962,321.766599 139.112305,322.223633 L139.112305,329 L137.486328,329 L137.486328,319.490234 L139.024414,319.490234 Z M151.364258,329.175781 C150.075189,329.175781 149.026371,328.752446 148.217773,327.905762 C147.409176,327.059078 147.004883,325.926765 147.004883,324.508789 L147.004883,324.209961 C147.004883,323.266597 147.185057,322.42432 147.54541,321.683105 C147.905764,320.941891 148.409665,320.361819 149.057129,319.942871 C149.704593,319.523924 150.406246,319.314453 151.162109,319.314453 C152.398444,319.314453 153.359372,319.721676 154.044922,320.536133 C154.730472,321.35059 155.073242,322.516594 155.073242,324.03418 L155.073242,324.710938 L148.630859,324.710938 C148.654297,325.648442 148.92822,326.405759 149.452637,326.98291 C149.977053,327.560061 150.643551,327.848633 151.452148,327.848633 C152.02637,327.848633 152.512693,327.731446 152.911133,327.49707 C153.309572,327.262694 153.658202,326.95215 153.957031,326.56543 L154.950195,327.338867 C154.153316,328.563483 152.958016,329.175781 151.364258,329.175781 Z M151.162109,320.650391 C150.505856,320.650391 149.95508,320.889158 149.509766,321.366699 C149.064451,321.844241 148.789063,322.513668 148.683594,323.375 L153.447266,323.375 L153.447266,323.251953 C153.40039,322.425777 153.177736,321.785647 152.779297,321.331543 C152.380857,320.877439 151.8418,320.650391 151.162109,320.650391 Z M168.731445,325.660156 L163.370117,325.660156 L162.166016,329 L160.425781,329 L165.3125,316.203125 L166.789062,316.203125 L171.68457,329 L169.953125,329 L168.731445,325.660156 Z M163.879883,324.271484 L168.230469,324.271484 L166.050781,318.286133 L163.879883,324.271484 Z M181.185547,324.350586 C181.185547,325.797859 180.854495,326.963863 180.192383,327.848633 C179.53027,328.733403 178.633795,329.175781 177.50293,329.175781 C176.348627,329.175781 175.440433,328.809574 174.77832,328.077148 L174.77832,332.65625 L173.152344,332.65625 L173.152344,319.490234 L174.637695,319.490234 L174.716797,320.544922 C175.37891,319.724605 176.298822,319.314453 177.476562,319.314453 C178.619146,319.314453 179.522946,319.745113 180.187988,320.606445 C180.853031,321.467778 181.185547,322.666008 181.185547,324.201172 L181.185547,324.350586 Z M179.55957,324.166016 C179.55957,323.093745 179.331057,322.247073 178.874023,321.625977 C178.41699,321.00488 177.790043,320.694336 176.993164,320.694336 C176.008784,320.694336 175.27051,321.130855 174.77832,322.003906 L174.77832,326.547852 C175.264651,327.415043 176.008784,327.848633 177.010742,327.848633 C177.790043,327.848633 178.409666,327.539554 178.869629,326.921387 C179.329592,326.30322 179.55957,325.384772 179.55957,324.166016 Z M191.28418,324.350586 C191.28418,325.797859 190.953128,326.963863 190.291016,327.848633 C189.628903,328.733403 188.732428,329.175781 187.601562,329.175781 C186.44726,329.175781 185.539066,328.809574 184.876953,328.077148 L184.876953,332.65625 L183.250977,332.65625 L183.250977,319.490234 L184.736328,319.490234 L184.81543,320.544922 C185.477542,319.724605 186.397455,319.314453 187.575195,319.314453 C188.717779,319.314453 189.621579,319.745113 190.286621,320.606445 C190.951663,321.467778 191.28418,322.666008 191.28418,324.201172 L191.28418,324.350586 Z M189.658203,324.166016 C189.658203,323.093745 189.42969,322.247073 188.972656,321.625977 C188.515623,321.00488 187.888676,320.694336 187.091797,320.694336 C186.107417,320.694336 185.369143,321.130855 184.876953,322.003906 L184.876953,326.547852 C185.363284,327.415043 186.107417,327.848633 187.109375,327.848633 C187.888676,327.848633 188.508298,327.539554 188.968262,326.921387 C189.428225,326.30322 189.658203,325.384772 189.658203,324.166016 Z" id="AllPetRecordsInOneApp" fill="#505050" fill-rule="nonzero"></path>
                <path d="M118.112305,142.070312 L112.975586,142.070312 L111.999023,145 L108.883789,145 L114.176758,130.78125 L116.891602,130.78125 L122.213867,145 L119.098633,145 L118.112305,142.070312 Z M113.766602,139.697266 L117.321289,139.697266 L115.53418,134.375 L113.766602,139.697266 Z M127.750977,142.919922 C128.271813,142.919922 128.694985,142.776694 129.020508,142.490234 C129.34603,142.203775 129.515299,141.822919 129.52832,141.347656 L132.174805,141.347656 C132.168294,142.063806 131.972984,142.719724 131.588867,143.31543 C131.204751,143.911136 130.67904,144.373371 130.011719,144.702148 C129.344398,145.030926 128.6071,145.195312 127.799805,145.195312 C126.28938,145.195312 125.097986,144.715174 124.225586,143.754883 C123.353186,142.794592 122.916992,141.468107 122.916992,139.775391 L122.916992,139.589844 C122.916992,137.962231 123.349931,136.663416 124.21582,135.693359 C125.08171,134.723302 126.269849,134.238281 127.780273,134.238281 C129.101895,134.238281 130.161454,134.614254 130.958984,135.366211 C131.756514,136.118168 132.161784,137.119134 132.174805,138.369141 L129.52832,138.369141 C129.515299,137.822263 129.34603,137.377931 129.020508,137.036133 C128.694985,136.694334 128.265302,136.523438 127.731445,136.523438 C127.07389,136.523438 126.577476,136.762693 126.242188,137.241211 C125.906899,137.719729 125.739258,138.496088 125.739258,139.570312 L125.739258,139.863281 C125.739258,140.950526 125.905272,141.731768 126.237305,142.207031 C126.569338,142.682294 127.07389,142.919922 127.750977,142.919922 Z M138.180664,142.919922 C138.7015,142.919922 139.124673,142.776694 139.450195,142.490234 C139.775718,142.203775 139.944987,141.822919 139.958008,141.347656 L142.604492,141.347656 C142.597982,142.063806 142.402671,142.719724 142.018555,143.31543 C141.634438,143.911136 141.108727,144.373371 140.441406,144.702148 C139.774085,145.030926 139.036788,145.195312 138.229492,145.195312 C136.719068,145.195312 135.527674,144.715174 134.655273,143.754883 C133.782873,142.794592 133.34668,141.468107 133.34668,139.775391 L133.34668,139.589844 C133.34668,137.962231 133.779618,136.663416 134.645508,135.693359 C135.511398,134.723302 136.699537,134.238281 138.209961,134.238281 C139.531582,134.238281 140.591142,134.614254 141.388672,135.366211 C142.186202,136.118168 142.591471,137.119134 142.604492,138.369141 L139.958008,138.369141 C139.944987,137.822263 139.775718,137.377931 139.450195,137.036133 C139.124673,136.694334 138.69499,136.523438 138.161133,136.523438 C137.503577,136.523438 137.007163,136.762693 136.671875,137.241211 C136.336587,137.719729 136.168945,138.496088 136.168945,139.570312 L136.168945,139.863281 C136.168945,140.950526 136.334959,141.731768 136.666992,142.207031 C136.999025,142.682294 137.503577,142.919922 138.180664,142.919922 Z M149.079102,145.195312 C147.529615,145.195312 146.268234,144.720057 145.294922,143.769531 C144.32161,142.819006 143.834961,141.552742 143.834961,139.970703 L143.834961,139.697266 C143.834961,138.636062 144.040037,137.687179 144.450195,136.850586 C144.860354,136.013993 145.441402,135.369468 146.193359,134.916992 C146.945316,134.464516 147.803055,134.238281 148.766602,134.238281 C150.211921,134.238281 151.349605,134.694006 152.179688,135.605469 C153.00977,136.516932 153.424805,137.809236 153.424805,139.482422 L153.424805,140.634766 L146.696289,140.634766 C146.787435,141.324873 147.062498,141.878253 147.521484,142.294922 C147.980471,142.711591 148.56152,142.919922 149.264648,142.919922 C150.351893,142.919922 151.201494,142.526046 151.813477,141.738281 L153.200195,143.291016 C152.777016,143.889977 152.204105,144.357095 151.481445,144.692383 C150.758785,145.027671 149.958012,145.195312 149.079102,145.195312 Z M148.756836,136.523438 C148.196937,136.523438 147.74284,136.712238 147.394531,137.089844 C147.046222,137.46745 146.823243,138.007809 146.725586,138.710938 L150.651367,138.710938 L150.651367,138.486328 C150.638346,137.861325 150.469077,137.377931 150.143555,137.036133 C149.818032,136.694334 149.355797,136.523438 148.756836,136.523438 Z M160.749023,142.080078 C160.749023,141.735024 160.578127,141.463217 160.236328,141.264648 C159.89453,141.06608 159.346032,140.888673 158.59082,140.732422 C156.077787,140.205075 154.821289,139.137378 154.821289,137.529297 C154.821289,136.591792 155.210283,135.808922 155.988281,135.180664 C156.76628,134.552406 157.783522,134.238281 159.040039,134.238281 C160.381192,134.238281 161.453772,134.554033 162.257812,135.185547 C163.061853,135.81706 163.463867,136.637365 163.463867,137.646484 L160.641602,137.646484 C160.641602,137.242837 160.511395,136.909181 160.250977,136.645508 C159.990559,136.381835 159.583662,136.25 159.030273,136.25 C158.555011,136.25 158.187176,136.357421 157.926758,136.572266 C157.66634,136.78711 157.536133,137.060545 157.536133,137.392578 C157.536133,137.70508 157.684243,137.957356 157.980469,138.149414 C158.276694,138.341472 158.776364,138.507486 159.479492,138.647461 C160.182621,138.787436 160.775063,138.945312 161.256836,139.121094 C162.747729,139.667971 163.493164,140.615228 163.493164,141.962891 C163.493164,142.926437 163.079757,143.706052 162.25293,144.301758 C161.426103,144.897464 160.358405,145.195312 159.049805,145.195312 C158.164384,145.195312 157.378259,145.037436 156.691406,144.72168 C156.004554,144.405923 155.465822,143.972985 155.075195,143.422852 C154.684568,142.872719 154.489258,142.278649 154.489258,141.640625 L157.165039,141.640625 C157.191081,142.14193 157.376626,142.52604 157.72168,142.792969 C158.066733,143.059897 158.528968,143.193359 159.108398,143.193359 C159.648766,143.193359 160.05729,143.090821 160.333984,142.885742 C160.610678,142.680663 160.749023,142.412111 160.749023,142.080078 Z M171.032227,142.080078 C171.032227,141.735024 170.86133,141.463217 170.519531,141.264648 C170.177733,141.06608 169.629236,140.888673 168.874023,140.732422 C166.36099,140.205075 165.104492,139.137378 165.104492,137.529297 C165.104492,136.591792 165.493486,135.808922 166.271484,135.180664 C167.049483,134.552406 168.066725,134.238281 169.323242,134.238281 C170.664395,134.238281 171.736975,134.554033 172.541016,135.185547 C173.345056,135.81706 173.74707,136.637365 173.74707,137.646484 L170.924805,137.646484 C170.924805,137.242837 170.794598,136.909181 170.53418,136.645508 C170.273762,136.381835 169.866865,136.25 169.313477,136.25 C168.838214,136.25 168.470379,136.357421 168.209961,136.572266 C167.949543,136.78711 167.819336,137.060545 167.819336,137.392578 C167.819336,137.70508 167.967446,137.957356 168.263672,138.149414 C168.559897,138.341472 169.059567,138.507486 169.762695,138.647461 C170.465824,138.787436 171.058266,138.945312 171.540039,139.121094 C173.030932,139.667971 173.776367,140.615228 173.776367,141.962891 C173.776367,142.926437 173.36296,143.706052 172.536133,144.301758 C171.709306,144.897464 170.641608,145.195312 169.333008,145.195312 C168.447587,145.195312 167.661462,145.037436 166.974609,144.72168 C166.287757,144.405923 165.749025,143.972985 165.358398,143.422852 C164.967771,142.872719 164.772461,142.278649 164.772461,141.640625 L167.448242,141.640625 C167.474284,142.14193 167.659829,142.52604 168.004883,142.792969 C168.349937,143.059897 168.812172,143.193359 169.391602,143.193359 C169.931969,143.193359 170.340493,143.090821 170.617188,142.885742 C170.893882,142.680663 171.032227,142.412111 171.032227,142.080078 Z M178.571289,145 L175.739258,145 L175.739258,134.433594 L178.571289,134.433594 L178.571289,145 Z M175.573242,131.699219 C175.573242,131.27604 175.714842,130.927736 175.998047,130.654297 C176.281251,130.380858 176.66699,130.244141 177.155273,130.244141 C177.637047,130.244141 178.021157,130.380858 178.307617,130.654297 C178.594077,130.927736 178.737305,131.27604 178.737305,131.699219 C178.737305,132.128908 178.592449,132.480467 178.302734,132.753906 C178.013019,133.027345 177.630536,133.164062 177.155273,133.164062 C176.680011,133.164062 176.297527,133.027345 176.007812,132.753906 C175.718098,132.480467 175.573242,132.128908 175.573242,131.699219 Z M190.416992,139.814453 C190.416992,141.50717 190.055668,142.827144 189.333008,143.774414 C188.610348,144.721684 187.601243,145.195312 186.305664,145.195312 C185.159825,145.195312 184.245121,144.755864 183.561523,143.876953 L183.43457,145 L180.895508,145 L180.895508,130 L183.717773,130 L183.717773,135.380859 C184.368818,134.619137 185.22493,134.238281 186.286133,134.238281 C187.575202,134.238281 188.585934,134.711909 189.318359,135.65918 C190.050785,136.60645 190.416992,137.939445 190.416992,139.658203 L190.416992,139.814453 Z M187.594727,139.609375 C187.594727,138.541661 187.425457,137.762047 187.086914,137.270508 C186.748371,136.778969 186.243818,136.533203 185.573242,136.533203 C184.6748,136.533203 184.056317,136.901038 183.717773,137.636719 L183.717773,141.806641 C184.062827,142.548832 184.687821,142.919922 185.592773,142.919922 C186.504236,142.919922 187.103189,142.470708 187.389648,141.572266 C187.526368,141.142576 187.594727,140.488286 187.594727,139.609375 Z M195.133789,145 L192.301758,145 L192.301758,130 L195.133789,130 L195.133789,145 Z M202.321289,145.195312 C200.771802,145.195312 199.510422,144.720057 198.537109,143.769531 C197.563797,142.819006 197.077148,141.552742 197.077148,139.970703 L197.077148,139.697266 C197.077148,138.636062 197.282225,137.687179 197.692383,136.850586 C198.102541,136.013993 198.68359,135.369468 199.435547,134.916992 C200.187504,134.464516 201.045243,134.238281 202.008789,134.238281 C203.454109,134.238281 204.591793,134.694006 205.421875,135.605469 C206.251957,136.516932 206.666992,137.809236 206.666992,139.482422 L206.666992,140.634766 L199.938477,140.634766 C200.029623,141.324873 200.304685,141.878253 200.763672,142.294922 C201.222659,142.711591 201.803707,142.919922 202.506836,142.919922 C203.594081,142.919922 204.443682,142.526046 205.055664,141.738281 L206.442383,143.291016 C206.019204,143.889977 205.446293,144.357095 204.723633,144.692383 C204.000973,145.027671 203.2002,145.195312 202.321289,145.195312 Z M201.999023,136.523438 C201.439125,136.523438 200.985028,136.712238 200.636719,137.089844 C200.28841,137.46745 200.06543,138.007809 199.967773,138.710938 L203.893555,138.710938 L203.893555,138.486328 C203.880534,137.861325 203.711265,137.377931 203.385742,137.036133 C203.06022,136.694334 202.597985,136.523438 201.999023,136.523438 Z M130.089844,166.070312 L124.953125,166.070312 L123.976562,169 L120.861328,169 L126.154297,154.78125 L128.869141,154.78125 L134.191406,169 L131.076172,169 L130.089844,166.070312 Z M125.744141,163.697266 L129.298828,163.697266 L127.511719,158.375 L125.744141,163.697266 Z M137.462891,158.433594 L137.550781,159.654297 C138.305993,158.710282 139.318353,158.238281 140.587891,158.238281 C141.707688,158.238281 142.541013,158.567054 143.087891,159.224609 C143.634768,159.882165 143.914713,160.865228 143.927734,162.173828 L143.927734,169 L141.105469,169 L141.105469,162.242188 C141.105469,161.643226 140.975262,161.20866 140.714844,160.938477 C140.454426,160.668293 140.021487,160.533203 139.416016,160.533203 C138.621741,160.533203 138.026044,160.871741 137.628906,161.548828 L137.628906,169 L134.806641,169 L134.806641,158.433594 L137.462891,158.433594 Z M150.011719,165.005859 L151.964844,158.433594 L154.992188,158.433594 L150.744141,170.640625 L150.509766,171.197266 C149.878252,172.577481 148.836596,173.267578 147.384766,173.267578 C146.974607,173.267578 146.557945,173.20573 146.134766,173.082031 L146.134766,170.943359 L146.564453,170.953125 C147.09831,170.953125 147.497069,170.871746 147.760742,170.708984 C148.024415,170.546223 148.231119,170.276044 148.380859,169.898438 L148.712891,169.029297 L145.011719,158.433594 L148.048828,158.433594 L150.011719,165.005859 Z M159.484375,155.835938 L159.484375,158.433594 L161.291016,158.433594 L161.291016,160.503906 L159.484375,160.503906 L159.484375,165.777344 C159.484375,166.167971 159.559244,166.447916 159.708984,166.617188 C159.858725,166.786459 160.14518,166.871094 160.568359,166.871094 C160.880861,166.871094 161.157551,166.848308 161.398438,166.802734 L161.398438,168.941406 C160.845049,169.110678 160.275394,169.195312 159.689453,169.195312 C157.710277,169.195312 156.701172,168.195974 156.662109,166.197266 L156.662109,160.503906 L155.119141,160.503906 L155.119141,158.433594 L156.662109,158.433594 L156.662109,155.835938 L159.484375,155.835938 Z M165.841797,169 L163.009766,169 L163.009766,158.433594 L165.841797,158.433594 L165.841797,169 Z M162.84375,155.699219 C162.84375,155.27604 162.98535,154.927736 163.268555,154.654297 C163.551759,154.380858 163.937498,154.244141 164.425781,154.244141 C164.907554,154.244141 165.291665,154.380858 165.578125,154.654297 C165.864585,154.927736 166.007812,155.27604 166.007812,155.699219 C166.007812,156.128908 165.862957,156.480467 165.573242,156.753906 C165.283527,157.027345 164.901044,157.164062 164.425781,157.164062 C163.950518,157.164062 163.568035,157.027345 163.27832,156.753906 C162.988605,156.480467 162.84375,156.128908 162.84375,155.699219 Z M170.8125,158.433594 L170.900391,159.615234 C171.649092,158.697261 172.661452,158.238281 173.9375,158.238281 C175.298184,158.238281 176.232419,158.775385 176.740234,159.849609 C177.482426,158.775385 178.540358,158.238281 179.914062,158.238281 C181.059902,158.238281 181.912758,158.571937 182.472656,159.239258 C183.032555,159.906579 183.3125,160.910801 183.3125,162.251953 L183.3125,169 L180.480469,169 L180.480469,162.261719 C180.480469,161.662757 180.363282,161.224936 180.128906,160.948242 C179.89453,160.671548 179.481123,160.533203 178.888672,160.533203 C178.042313,160.533203 177.456382,160.936845 177.130859,161.744141 L177.140625,169 L174.318359,169 L174.318359,162.271484 C174.318359,161.659502 174.197918,161.216798 173.957031,160.943359 C173.716145,160.669921 173.305992,160.533203 172.726562,160.533203 C171.925777,160.533203 171.346356,160.865231 170.988281,161.529297 L170.988281,169 L168.166016,169 L168.166016,158.433594 L170.8125,158.433594 Z M190.34375,169.195312 C188.794263,169.195312 187.532882,168.720057 186.55957,167.769531 C185.586258,166.819006 185.099609,165.552742 185.099609,163.970703 L185.099609,163.697266 C185.099609,162.636062 185.304685,161.687179 185.714844,160.850586 C186.125002,160.013993 186.706051,159.369468 187.458008,158.916992 C188.209965,158.464516 189.067704,158.238281 190.03125,158.238281 C191.47657,158.238281 192.614254,158.694006 193.444336,159.605469 C194.274418,160.516932 194.689453,161.809236 194.689453,163.482422 L194.689453,164.634766 L187.960938,164.634766 C188.052084,165.324873 188.327146,165.878253 188.786133,166.294922 C189.245119,166.711591 189.826168,166.919922 190.529297,166.919922 C191.616542,166.919922 192.466143,166.526046 193.078125,165.738281 L194.464844,167.291016 C194.041665,167.889977 193.468754,168.357095 192.746094,168.692383 C192.023434,169.027671 191.222661,169.195312 190.34375,169.195312 Z M190.021484,160.523438 C189.461586,160.523438 189.007489,160.712238 188.65918,161.089844 C188.310871,161.46745 188.087891,162.007809 187.990234,162.710938 L191.916016,162.710938 L191.916016,162.486328 C191.902995,161.861325 191.733726,161.377931 191.408203,161.036133 C191.082681,160.694334 190.620446,160.523438 190.021484,160.523438 Z M122.873047,190.070312 L117.736328,190.070312 L116.759766,193 L113.644531,193 L118.9375,178.78125 L121.652344,178.78125 L126.974609,193 L123.859375,193 L122.873047,190.070312 Z M118.527344,187.697266 L122.082031,187.697266 L120.294922,182.375 L118.527344,187.697266 Z M130.246094,182.433594 L130.333984,183.654297 C131.089196,182.710282 132.101556,182.238281 133.371094,182.238281 C134.490891,182.238281 135.324216,182.567054 135.871094,183.224609 C136.417971,183.882165 136.697917,184.865228 136.710938,186.173828 L136.710938,193 L133.888672,193 L133.888672,186.242188 C133.888672,185.643226 133.758465,185.20866 133.498047,184.938477 C133.237629,184.668293 132.804691,184.533203 132.199219,184.533203 C131.404944,184.533203 130.809247,184.871741 130.412109,185.548828 L130.412109,193 L127.589844,193 L127.589844,182.433594 L130.246094,182.433594 Z M142.794922,189.005859 L144.748047,182.433594 L147.775391,182.433594 L143.527344,194.640625 L143.292969,195.197266 C142.661455,196.577481 141.619799,197.267578 140.167969,197.267578 C139.75781,197.267578 139.341148,197.20573 138.917969,197.082031 L138.917969,194.943359 L139.347656,194.953125 C139.881513,194.953125 140.280272,194.871746 140.543945,194.708984 C140.807619,194.546223 141.014322,194.276044 141.164062,193.898438 L141.496094,193.029297 L137.794922,182.433594 L140.832031,182.433594 L142.794922,189.005859 Z M158.078125,189.162109 L159.464844,182.433594 L162.189453,182.433594 L159.494141,193 L157.130859,193 L155.128906,186.349609 L153.126953,193 L150.773438,193 L148.078125,182.433594 L150.802734,182.433594 L152.179688,189.152344 L154.113281,182.433594 L156.154297,182.433594 L158.078125,189.162109 Z M166.339844,183.585938 C167.088545,182.687496 168.029291,182.238281 169.162109,182.238281 C171.453787,182.238281 172.615885,183.569648 172.648438,186.232422 L172.648438,193 L169.826172,193 L169.826172,186.310547 C169.826172,185.705075 169.695965,185.257488 169.435547,184.967773 C169.175129,184.678058 168.742191,184.533203 168.136719,184.533203 C167.309892,184.533203 166.710939,184.85221 166.339844,185.490234 L166.339844,193 L163.517578,193 L163.517578,178 L166.339844,178 L166.339844,183.585938 Z M179.640625,193.195312 C178.091138,193.195312 176.829757,192.720057 175.856445,191.769531 C174.883133,190.819006 174.396484,189.552742 174.396484,187.970703 L174.396484,187.697266 C174.396484,186.636062 174.60156,185.687179 175.011719,184.850586 C175.421877,184.013993 176.002926,183.369468 176.754883,182.916992 C177.50684,182.464516 178.364579,182.238281 179.328125,182.238281 C180.773445,182.238281 181.911129,182.694006 182.741211,183.605469 C183.571293,184.516932 183.986328,185.809236 183.986328,187.482422 L183.986328,188.634766 L177.257812,188.634766 C177.348959,189.324873 177.624021,189.878253 178.083008,190.294922 C178.541994,190.711591 179.123043,190.919922 179.826172,190.919922 C180.913417,190.919922 181.763018,190.526046 182.375,189.738281 L183.761719,191.291016 C183.33854,191.889977 182.765629,192.357095 182.042969,192.692383 C181.320309,193.027671 180.519536,193.195312 179.640625,193.195312 Z M179.318359,184.523438 C178.758461,184.523438 178.304364,184.712238 177.956055,185.089844 C177.607746,185.46745 177.384766,186.007809 177.287109,186.710938 L181.212891,186.710938 L181.212891,186.486328 C181.19987,185.861325 181.030601,185.377931 180.705078,185.036133 C180.379556,184.694334 179.917321,184.523438 179.318359,184.523438 Z M191.525391,185.080078 C191.141274,185.027995 190.802736,185.001953 190.509766,185.001953 C189.442052,185.001953 188.742189,185.363278 188.410156,186.085938 L188.410156,193 L185.587891,193 L185.587891,182.433594 L188.253906,182.433594 L188.332031,183.693359 C188.89844,182.723302 189.682938,182.238281 190.685547,182.238281 C190.998048,182.238281 191.291014,182.280599 191.564453,182.365234 L191.525391,185.080078 Z M197.560547,193.195312 C196.01106,193.195312 194.749679,192.720057 193.776367,191.769531 C192.803055,190.819006 192.316406,189.552742 192.316406,187.970703 L192.316406,187.697266 C192.316406,186.636062 192.521482,185.687179 192.931641,184.850586 C193.341799,184.013993 193.922848,183.369468 194.674805,182.916992 C195.426762,182.464516 196.2845,182.238281 197.248047,182.238281 C198.693367,182.238281 199.831051,182.694006 200.661133,183.605469 C201.491215,184.516932 201.90625,185.809236 201.90625,187.482422 L201.90625,188.634766 L195.177734,188.634766 C195.268881,189.324873 195.543943,189.878253 196.00293,190.294922 C196.461916,190.711591 197.042965,190.919922 197.746094,190.919922 C198.833339,190.919922 199.68294,190.526046 200.294922,189.738281 L201.681641,191.291016 C201.258461,191.889977 200.68555,192.357095 199.962891,192.692383 C199.240231,193.027671 198.439458,193.195312 197.560547,193.195312 Z M197.238281,184.523438 C196.678383,184.523438 196.224286,184.712238 195.875977,185.089844 C195.527668,185.46745 195.304688,186.007809 195.207031,186.710938 L199.132812,186.710938 L199.132812,186.486328 C199.119792,185.861325 198.950522,185.377931 198.625,185.036133 C198.299478,184.694334 197.837243,184.523438 197.238281,184.523438 Z" id="AccessibleAnytimeAnywhere" fill="#FFFFFF" fill-rule="nonzero"></path>
                <path d="M87.0854492,407.939453 C86.9272453,409.292976 86.4277386,410.337399 85.5869141,411.072754 C84.7460895,411.808109 83.6284249,412.175781 82.2338867,412.175781 C80.7221604,412.175781 79.5107467,411.633794 78.5996094,410.549805 C77.688472,409.465815 77.2329102,408.015634 77.2329102,406.199219 L77.2329102,404.96875 C77.2329102,403.779291 77.4453104,402.733403 77.8701172,401.831055 C78.294924,400.928706 78.8969688,400.235842 79.6762695,399.752441 C80.4555703,399.269041 81.357905,399.027344 82.3833008,399.027344 C83.7426826,399.027344 84.8325154,399.406734 85.652832,400.165527 C86.4731486,400.92432 86.9506829,401.974603 87.0854492,403.316406 L85.3891602,403.316406 C85.242675,402.29687 84.9248071,401.558596 84.4355469,401.101562 C83.9462866,400.644529 83.2622114,400.416016 82.3833008,400.416016 C81.3051704,400.416016 80.459964,400.814449 79.8476562,401.611328 C79.2353485,402.408207 78.9291992,403.541985 78.9291992,405.012695 L78.9291992,406.251953 C78.9291992,407.640632 79.2192354,408.745113 79.7993164,409.56543 C80.3793974,410.385746 81.1909128,410.795898 82.2338867,410.795898 C83.1713914,410.795898 83.8906225,410.583498 84.3916016,410.158691 C84.8925806,409.733885 85.2250968,408.994146 85.3891602,407.939453 L87.0854492,407.939453 Z M88.7026367,407.157227 C88.7026367,406.225581 88.8857404,405.387699 89.2519531,404.643555 C89.6181659,403.89941 90.1279264,403.325197 90.78125,402.920898 C91.4345736,402.5166 92.1801716,402.314453 93.0180664,402.314453 C94.3129948,402.314453 95.3603476,402.762691 96.1601562,403.65918 C96.9599649,404.555669 97.3598633,405.748039 97.3598633,407.236328 L97.3598633,407.350586 C97.3598633,408.276372 97.182619,409.10693 96.828125,409.842285 C96.473631,410.57764 95.9668002,411.150389 95.3076172,411.560547 C94.6484342,411.970705 93.8911176,412.175781 93.0356445,412.175781 C91.7465756,412.175781 90.7021524,411.727544 89.9023438,410.831055 C89.1025351,409.934566 88.7026367,408.748054 88.7026367,407.271484 L88.7026367,407.157227 Z M90.3374023,407.350586 C90.3374023,408.405279 90.5820288,409.25195 91.0712891,409.890625 C91.5605493,410.5293 92.2153279,410.848633 93.0356445,410.848633 C93.8618205,410.848633 94.518064,410.524906 95.0043945,409.877441 C95.4907251,409.229977 95.7338867,408.323248 95.7338867,407.157227 C95.7338867,406.114253 95.4863306,405.269046 94.9912109,404.621582 C94.4960913,403.974118 93.838383,403.650391 93.0180664,403.650391 C92.215328,403.650391 91.5678736,403.969723 91.0756836,404.608398 C90.5834936,405.247074 90.3374023,406.161127 90.3374023,407.350586 Z M100.937012,402.490234 L100.989746,403.685547 C101.716312,402.77148 102.665521,402.314453 103.837402,402.314453 C105.847178,402.314453 106.86084,403.448231 106.878418,405.71582 L106.878418,412 L105.252441,412 L105.252441,405.707031 C105.246582,405.021481 105.089845,404.51465 104.782227,404.186523 C104.474608,403.858397 103.995609,403.694336 103.345215,403.694336 C102.817868,403.694336 102.354982,403.83496 101.956543,404.116211 C101.558103,404.397462 101.24756,404.766599 101.024902,405.223633 L101.024902,412 L99.3989258,412 L99.3989258,402.490234 L100.937012,402.490234 Z M112.468262,409.793945 L114.82373,402.490234 L116.484863,402.490234 L113.074707,412 L111.835449,412 L108.390137,402.490234 L110.05127,402.490234 L112.468262,409.793945 Z M121.881348,412.175781 C120.592279,412.175781 119.543461,411.752446 118.734863,410.905762 C117.926265,410.059078 117.521973,408.926765 117.521973,407.508789 L117.521973,407.209961 C117.521973,406.266597 117.702147,405.42432 118.0625,404.683105 C118.422853,403.941891 118.926755,403.361819 119.574219,402.942871 C120.221683,402.523924 120.923336,402.314453 121.679199,402.314453 C122.915534,402.314453 123.876461,402.721676 124.562012,403.536133 C125.247562,404.35059 125.590332,405.516594 125.590332,407.03418 L125.590332,407.710938 L119.147949,407.710938 C119.171387,408.648442 119.44531,409.405759 119.969727,409.98291 C120.494143,410.560061 121.16064,410.848633 121.969238,410.848633 C122.54346,410.848633 123.029783,410.731446 123.428223,410.49707 C123.826662,410.262694 124.175291,409.95215 124.474121,409.56543 L125.467285,410.338867 C124.670406,411.563483 123.475106,412.175781 121.881348,412.175781 Z M121.679199,403.650391 C121.022946,403.650391 120.47217,403.889158 120.026855,404.366699 C119.581541,404.844241 119.306153,405.513668 119.200684,406.375 L123.964355,406.375 L123.964355,406.251953 C123.91748,405.425777 123.694826,404.785647 123.296387,404.331543 C122.897947,403.877439 122.35889,403.650391 121.679199,403.650391 Z M129.009277,402.490234 L129.062012,403.685547 C129.788578,402.77148 130.737787,402.314453 131.909668,402.314453 C133.919444,402.314453 134.933105,403.448231 134.950684,405.71582 L134.950684,412 L133.324707,412 L133.324707,405.707031 C133.318848,405.021481 133.162111,404.51465 132.854492,404.186523 C132.546873,403.858397 132.067874,403.694336 131.41748,403.694336 C130.890134,403.694336 130.427248,403.83496 130.028809,404.116211 C129.630369,404.397462 129.319825,404.766599 129.097168,405.223633 L129.097168,412 L127.471191,412 L127.471191,402.490234 L129.009277,402.490234 Z M139.169434,412 L137.543457,412 L137.543457,402.490234 L139.169434,402.490234 L139.169434,412 Z M137.411621,399.967773 C137.411621,399.7041 137.492187,399.481446 137.65332,399.299805 C137.814454,399.118163 138.053221,399.027344 138.369629,399.027344 C138.686037,399.027344 138.926269,399.118163 139.090332,399.299805 C139.254395,399.481446 139.336426,399.7041 139.336426,399.967773 C139.336426,400.231447 139.254395,400.451171 139.090332,400.626953 C138.926269,400.802735 138.686037,400.890625 138.369629,400.890625 C138.053221,400.890625 137.814454,400.802735 137.65332,400.626953 C137.492187,400.451171 137.411621,400.231447 137.411621,399.967773 Z M145.717285,412.175781 C144.428216,412.175781 143.379399,411.752446 142.570801,410.905762 C141.762203,410.059078 141.35791,408.926765 141.35791,407.508789 L141.35791,407.209961 C141.35791,406.266597 141.538084,405.42432 141.898438,404.683105 C142.258791,403.941891 142.762692,403.361819 143.410156,402.942871 C144.05762,402.523924 144.759274,402.314453 145.515137,402.314453 C146.751471,402.314453 147.712399,402.721676 148.397949,403.536133 C149.0835,404.35059 149.42627,405.516594 149.42627,407.03418 L149.42627,407.710938 L142.983887,407.710938 C143.007324,408.648442 143.281247,409.405759 143.805664,409.98291 C144.330081,410.560061 144.996578,410.848633 145.805176,410.848633 C146.379397,410.848633 146.865721,410.731446 147.26416,410.49707 C147.6626,410.262694 148.011229,409.95215 148.310059,409.56543 L149.303223,410.338867 C148.506344,411.563483 147.311043,412.175781 145.717285,412.175781 Z M145.515137,403.650391 C144.858883,403.650391 144.308108,403.889158 143.862793,404.366699 C143.417478,404.844241 143.14209,405.513668 143.036621,406.375 L147.800293,406.375 L147.800293,406.251953 C147.753418,405.425777 147.530764,404.785647 147.132324,404.331543 C146.733885,403.877439 146.194828,403.650391 145.515137,403.650391 Z M152.845215,402.490234 L152.897949,403.685547 C153.624515,402.77148 154.573725,402.314453 155.745605,402.314453 C157.755381,402.314453 158.769043,403.448231 158.786621,405.71582 L158.786621,412 L157.160645,412 L157.160645,405.707031 C157.154785,405.021481 156.998048,404.51465 156.69043,404.186523 C156.382811,403.858397 155.903812,403.694336 155.253418,403.694336 C154.726072,403.694336 154.263186,403.83496 153.864746,404.116211 C153.466307,404.397462 153.155763,404.766599 152.933105,405.223633 L152.933105,412 L151.307129,412 L151.307129,402.490234 L152.845215,402.490234 Z M163.444824,400.1875 L163.444824,402.490234 L165.220215,402.490234 L165.220215,403.74707 L163.444824,403.74707 L163.444824,409.644531 C163.444824,410.025393 163.523925,410.311034 163.682129,410.501465 C163.840333,410.691895 164.109861,410.787109 164.490723,410.787109 C164.678224,410.787109 164.936034,410.751953 165.26416,410.681641 L165.26416,412 C164.836424,412.117188 164.420412,412.175781 164.016113,412.175781 C163.289547,412.175781 162.741701,411.956057 162.372559,411.516602 C162.003416,411.077146 161.818848,410.453129 161.818848,409.644531 L161.818848,403.74707 L160.087402,403.74707 L160.087402,402.490234 L161.818848,402.490234 L161.818848,400.1875 L163.444824,400.1875 Z M176.065918,409.758789 L179.722168,399.203125 L181.567871,399.203125 L176.821777,412 L175.327637,412 L170.590332,399.203125 L172.427246,399.203125 L176.065918,409.758789 Z M186.586426,412.175781 C185.297357,412.175781 184.248539,411.752446 183.439941,410.905762 C182.631344,410.059078 182.227051,408.926765 182.227051,407.508789 L182.227051,407.209961 C182.227051,406.266597 182.407225,405.42432 182.767578,404.683105 C183.127931,403.941891 183.631833,403.361819 184.279297,402.942871 C184.926761,402.523924 185.628414,402.314453 186.384277,402.314453 C187.620612,402.314453 188.58154,402.721676 189.26709,403.536133 C189.95264,404.35059 190.29541,405.516594 190.29541,407.03418 L190.29541,407.710938 L183.853027,407.710938 C183.876465,408.648442 184.150388,409.405759 184.674805,409.98291 C185.199221,410.560061 185.865719,410.848633 186.674316,410.848633 C187.248538,410.848633 187.734861,410.731446 188.133301,410.49707 C188.53174,410.262694 188.88037,409.95215 189.179199,409.56543 L190.172363,410.338867 C189.375484,411.563483 188.180184,412.175781 186.586426,412.175781 Z M186.384277,403.650391 C185.728024,403.650391 185.177248,403.889158 184.731934,404.366699 C184.286619,404.844241 184.011231,405.513668 183.905762,406.375 L188.669434,406.375 L188.669434,406.251953 C188.622558,405.425777 188.399904,404.785647 188.001465,404.331543 C187.603025,403.877439 187.063968,403.650391 186.384277,403.650391 Z M194.382324,400.1875 L194.382324,402.490234 L196.157715,402.490234 L196.157715,403.74707 L194.382324,403.74707 L194.382324,409.644531 C194.382324,410.025393 194.461425,410.311034 194.619629,410.501465 C194.777833,410.691895 195.047361,410.787109 195.428223,410.787109 C195.615724,410.787109 195.873534,410.751953 196.20166,410.681641 L196.20166,412 C195.773924,412.117188 195.357912,412.175781 194.953613,412.175781 C194.227047,412.175781 193.679201,411.956057 193.310059,411.516602 C192.940916,411.077146 192.756348,410.453129 192.756348,409.644531 L192.756348,403.74707 L191.024902,403.74707 L191.024902,402.490234 L192.756348,402.490234 L192.756348,400.1875 L194.382324,400.1875 Z M202.837402,413.098633 L201.439941,413.098633 L206.783691,399.203125 L208.172363,399.203125 L202.837402,413.098633 Z M216.328613,406.990234 L216.328613,412 L214.641113,412 L214.641113,399.203125 L219.36084,399.203125 C220.761237,399.203125 221.858394,399.560543 222.652344,400.275391 C223.446293,400.990238 223.843262,401.936518 223.843262,403.114258 C223.843262,404.356452 223.455082,405.312985 222.678711,405.983887 C221.90234,406.654789 220.790535,406.990234 219.343262,406.990234 L216.328613,406.990234 Z M216.328613,405.610352 L219.36084,405.610352 C220.263188,405.610352 220.954587,405.397951 221.435059,404.973145 C221.91553,404.548338 222.155762,403.934574 222.155762,403.131836 C222.155762,402.370113 221.91553,401.760744 221.435059,401.303711 C220.954587,400.846677 220.295414,400.609375 219.45752,400.591797 L216.328613,400.591797 L216.328613,405.610352 Z M229.57373,412.175781 C228.284662,412.175781 227.235844,411.752446 226.427246,410.905762 C225.618648,410.059078 225.214355,408.926765 225.214355,407.508789 L225.214355,407.209961 C225.214355,406.266597 225.394529,405.42432 225.754883,404.683105 C226.115236,403.941891 226.619137,403.361819 227.266602,402.942871 C227.914066,402.523924 228.615719,402.314453 229.371582,402.314453 C230.607916,402.314453 231.568844,402.721676 232.254395,403.536133 C232.939945,404.35059 233.282715,405.516594 233.282715,407.03418 L233.282715,407.710938 L226.840332,407.710938 C226.86377,408.648442 227.137693,409.405759 227.662109,409.98291 C228.186526,410.560061 228.853023,410.848633 229.661621,410.848633 C230.235843,410.848633 230.722166,410.731446 231.120605,410.49707 C231.519045,410.262694 231.867674,409.95215 232.166504,409.56543 L233.159668,410.338867 C232.362789,411.563483 231.167488,412.175781 229.57373,412.175781 Z M229.371582,403.650391 C228.715329,403.650391 228.164553,403.889158 227.719238,404.366699 C227.273924,404.844241 226.998536,405.513668 226.893066,406.375 L231.656738,406.375 L231.656738,406.251953 C231.609863,405.425777 231.387209,404.785647 230.98877,404.331543 C230.59033,403.877439 230.051273,403.650391 229.371582,403.650391 Z M237.369629,400.1875 L237.369629,402.490234 L239.14502,402.490234 L239.14502,403.74707 L237.369629,403.74707 L237.369629,409.644531 C237.369629,410.025393 237.44873,410.311034 237.606934,410.501465 C237.765138,410.691895 238.034666,410.787109 238.415527,410.787109 C238.603028,410.787109 238.860838,410.751953 239.188965,410.681641 L239.188965,412 C238.761228,412.117188 238.345217,412.175781 237.940918,412.175781 C237.214352,412.175781 236.666506,411.956057 236.297363,411.516602 C235.928221,411.077146 235.743652,410.453129 235.743652,409.644531 L235.743652,403.74707 L234.012207,403.74707 L234.012207,402.490234 L235.743652,402.490234 L235.743652,400.1875 L237.369629,400.1875 Z M98.5683594,432.295898 C97.1210865,431.879881 96.0678744,431.368655 95.4086914,430.762207 C94.7495084,430.155759 94.4199219,429.407231 94.4199219,428.516602 C94.4199219,427.508784 94.8227499,426.675296 95.628418,426.016113 C96.4340861,425.35693 97.4814389,425.027344 98.7705078,425.027344 C99.6494185,425.027344 100.433102,425.197264 101.121582,425.537109 C101.810062,425.876955 102.34326,426.3457 102.721191,426.943359 C103.099123,427.541019 103.288086,428.194332 103.288086,428.90332 L101.591797,428.90332 C101.591797,428.129879 101.345706,427.521975 100.853516,427.07959 C100.361326,426.637205 99.6669967,426.416016 98.7705078,426.416016 C97.9384724,426.416016 97.2895531,426.599119 96.8237305,426.965332 C96.3579078,427.331545 96.125,427.83984 96.125,428.490234 C96.125,429.011721 96.3461892,429.452635 96.7885742,429.812988 C97.2309592,430.173342 97.9838814,430.502928 99.0473633,430.801758 C100.110845,431.100587 100.942868,431.430174 101.543457,431.790527 C102.144046,432.150881 102.589354,432.571287 102.879395,433.051758 C103.169435,433.532229 103.314453,434.097653 103.314453,434.748047 C103.314453,435.785161 102.91016,436.61572 102.101562,437.239746 C101.292965,437.863773 100.211921,438.175781 98.8583984,438.175781 C97.9794878,438.175781 97.1591835,438.007326 96.3974609,437.67041 C95.6357384,437.333494 95.0483419,436.872073 94.6352539,436.286133 C94.2221659,435.700192 94.015625,435.03516 94.015625,434.291016 L95.7119141,434.291016 C95.7119141,435.064457 95.9975557,435.675291 96.5688477,436.123535 C97.1401396,436.57178 97.9033155,436.795898 98.8583984,436.795898 C99.7490279,436.795898 100.431638,436.61426 100.90625,436.250977 C101.380862,435.887693 101.618164,435.392581 101.618164,434.765625 C101.618164,434.138669 101.39844,433.65381 100.958984,433.311035 C100.519529,432.96826 99.722662,432.629884 98.5683594,432.295898 Z M109.167969,438.175781 C107.8789,438.175781 106.830082,437.752446 106.021484,436.905762 C105.212887,436.059078 104.808594,434.926765 104.808594,433.508789 L104.808594,433.209961 C104.808594,432.266597 104.988768,431.42432 105.349121,430.683105 C105.709474,429.941891 106.213376,429.361819 106.86084,428.942871 C107.508304,428.523924 108.209957,428.314453 108.96582,428.314453 C110.202155,428.314453 111.163083,428.721676 111.848633,429.536133 C112.534183,430.35059 112.876953,431.516594 112.876953,433.03418 L112.876953,433.710938 L106.43457,433.710938 C106.458008,434.648442 106.731931,435.405759 107.256348,435.98291 C107.780764,436.560061 108.447262,436.848633 109.255859,436.848633 C109.830081,436.848633 110.316404,436.731446 110.714844,436.49707 C111.113283,436.262694 111.461913,435.95215 111.760742,435.56543 L112.753906,436.338867 C111.957027,437.563483 110.761727,438.175781 109.167969,438.175781 Z M108.96582,429.650391 C108.309567,429.650391 107.758791,429.889158 107.313477,430.366699 C106.868162,430.844241 106.592774,431.513668 106.487305,432.375 L111.250977,432.375 L111.250977,432.251953 C111.204101,431.425777 110.981447,430.785647 110.583008,430.331543 C110.184568,429.877439 109.645511,429.650391 108.96582,429.650391 Z M119.354492,429.949219 C119.108397,429.908203 118.841798,429.887695 118.554688,429.887695 C117.488276,429.887695 116.76465,430.341792 116.383789,431.25 L116.383789,438 L114.757812,438 L114.757812,428.490234 L116.339844,428.490234 L116.366211,429.588867 C116.899417,428.739254 117.655269,428.314453 118.633789,428.314453 C118.950197,428.314453 119.190429,428.355468 119.354492,428.4375 L119.354492,429.949219 Z M124.144531,435.793945 L126.5,428.490234 L128.161133,428.490234 L124.750977,438 L123.511719,438 L120.066406,428.490234 L121.727539,428.490234 L124.144531,435.793945 Z M131.492188,438 L129.866211,438 L129.866211,428.490234 L131.492188,428.490234 L131.492188,438 Z M129.734375,425.967773 C129.734375,425.7041 129.814941,425.481446 129.976074,425.299805 C130.137208,425.118163 130.375975,425.027344 130.692383,425.027344 C131.008791,425.027344 131.249023,425.118163 131.413086,425.299805 C131.577149,425.481446 131.65918,425.7041 131.65918,425.967773 C131.65918,426.231447 131.577149,426.451171 131.413086,426.626953 C131.249023,426.802735 131.008791,426.890625 130.692383,426.890625 C130.375975,426.890625 130.137208,426.802735 129.976074,426.626953 C129.814941,426.451171 129.734375,426.231447 129.734375,425.967773 Z M137.908203,436.848633 C138.488284,436.848633 138.995115,436.672853 139.428711,436.321289 C139.862307,435.969725 140.102539,435.530276 140.149414,435.00293 L141.6875,435.00293 C141.658203,435.547854 141.470705,436.066404 141.125,436.558594 C140.779295,437.050784 140.317874,437.443358 139.740723,437.736328 C139.163571,438.029298 138.552738,438.175781 137.908203,438.175781 C136.613275,438.175781 135.5835,437.743657 134.818848,436.879395 C134.054195,436.015132 133.671875,434.833015 133.671875,433.333008 L133.671875,433.060547 C133.671875,432.134761 133.841795,431.311527 134.181641,430.59082 C134.521486,429.870114 135.009274,429.310549 135.64502,428.912109 C136.280765,428.51367 137.032222,428.314453 137.899414,428.314453 C138.965826,428.314453 139.852047,428.633786 140.558105,429.272461 C141.264164,429.911136 141.640625,430.740229 141.6875,431.759766 L140.149414,431.759766 C140.102539,431.144528 139.869631,430.639162 139.450684,430.243652 C139.031736,429.848143 138.514652,429.650391 137.899414,429.650391 C137.073238,429.650391 136.433108,429.947751 135.979004,430.54248 C135.5249,431.13721 135.297852,431.997065 135.297852,433.12207 L135.297852,433.429688 C135.297852,434.525396 135.523435,435.369138 135.974609,435.960938 C136.425784,436.552737 137.070308,436.848633 137.908203,436.848633 Z M147.461914,438.175781 C146.172845,438.175781 145.124027,437.752446 144.31543,436.905762 C143.506832,436.059078 143.102539,434.926765 143.102539,433.508789 L143.102539,433.209961 C143.102539,432.266597 143.282713,431.42432 143.643066,430.683105 C144.00342,429.941891 144.507321,429.361819 145.154785,428.942871 C145.802249,428.523924 146.503902,428.314453 147.259766,428.314453 C148.4961,428.314453 149.457028,428.721676 150.142578,429.536133 C150.828128,430.35059 151.170898,431.516594 151.170898,433.03418 L151.170898,433.710938 L144.728516,433.710938 C144.751953,434.648442 145.025876,435.405759 145.550293,435.98291 C146.07471,436.560061 146.741207,436.848633 147.549805,436.848633 C148.124026,436.848633 148.61035,436.731446 149.008789,436.49707 C149.407229,436.262694 149.755858,435.95215 150.054688,435.56543 L151.047852,436.338867 C150.250973,437.563483 149.055672,438.175781 147.461914,438.175781 Z M147.259766,429.650391 C146.603512,429.650391 146.052737,429.889158 145.607422,430.366699 C145.162107,430.844241 144.886719,431.513668 144.78125,432.375 L149.544922,432.375 L149.544922,432.251953 C149.498047,431.425777 149.275393,430.785647 148.876953,430.331543 C148.478514,429.877439 147.939457,429.650391 147.259766,429.650391 Z M158.588867,435.477539 C158.588867,435.038084 158.423341,434.696779 158.092285,434.453613 C157.761229,434.210448 157.184086,434.000977 156.36084,433.825195 C155.537594,433.649413 154.88428,433.438478 154.400879,433.192383 C153.917478,432.946288 153.56006,432.653322 153.328613,432.313477 C153.097167,431.973631 152.981445,431.569338 152.981445,431.100586 C152.981445,430.321285 153.311032,429.662112 153.970215,429.123047 C154.629398,428.583982 155.471675,428.314453 156.49707,428.314453 C157.575201,428.314453 158.449704,428.592771 159.120605,429.149414 C159.791507,429.706057 160.126953,430.417964 160.126953,431.285156 L158.492188,431.285156 C158.492188,430.839842 158.303225,430.456056 157.925293,430.133789 C157.547361,429.811522 157.071292,429.650391 156.49707,429.650391 C155.90527,429.650391 155.442384,429.779296 155.108398,430.037109 C154.774412,430.294923 154.607422,430.631834 154.607422,431.047852 C154.607422,431.440432 154.762694,431.736327 155.073242,431.935547 C155.383791,432.134767 155.94482,432.325194 156.756348,432.506836 C157.567875,432.688477 158.225583,432.905272 158.729492,433.157227 C159.233401,433.409181 159.606932,433.712401 159.850098,434.066895 C160.093263,434.421388 160.214844,434.853513 160.214844,435.363281 C160.214844,436.212895 159.875003,436.89404 159.195312,437.406738 C158.515622,437.919436 157.633794,438.175781 156.549805,438.175781 C155.788082,438.175781 155.114261,438.041017 154.52832,437.771484 C153.94238,437.501952 153.483888,437.125491 153.152832,436.64209 C152.821776,436.158689 152.65625,435.635745 152.65625,435.073242 L154.282227,435.073242 C154.311524,435.618167 154.529783,436.050291 154.937012,436.369629 C155.34424,436.688966 155.881833,436.848633 156.549805,436.848633 C157.165042,436.848633 157.65869,436.724122 158.030762,436.475098 C158.402834,436.226073 158.588867,435.893557 158.588867,435.477539 Z M176.052734,425.203125 L176.052734,433.904297 C176.046875,435.111334 175.667484,436.098629 174.914551,436.866211 C174.161617,437.633793 173.140631,438.064453 171.851562,438.158203 L171.40332,438.175781 C170.002923,438.175781 168.886723,437.797855 168.054688,437.041992 C167.222652,436.286129 166.800781,435.2461 166.789062,433.921875 L166.789062,425.203125 L168.458984,425.203125 L168.458984,433.869141 C168.458984,434.794927 168.713865,435.514158 169.223633,436.026855 C169.733401,436.539553 170.459956,436.795898 171.40332,436.795898 C172.358403,436.795898 173.089353,436.541018 173.596191,436.03125 C174.10303,435.521482 174.356445,434.803716 174.356445,433.87793 L174.356445,425.203125 L176.052734,425.203125 Z M186.494141,433.350586 C186.494141,434.797859 186.163089,435.963863 185.500977,436.848633 C184.838864,437.733403 183.942388,438.175781 182.811523,438.175781 C181.657221,438.175781 180.749027,437.809574 180.086914,437.077148 L180.086914,441.65625 L178.460938,441.65625 L178.460938,428.490234 L179.946289,428.490234 L180.025391,429.544922 C180.687503,428.724605 181.607416,428.314453 182.785156,428.314453 C183.92774,428.314453 184.83154,428.745113 185.496582,429.606445 C186.161624,430.467778 186.494141,431.666008 186.494141,433.201172 L186.494141,433.350586 Z M184.868164,433.166016 C184.868164,432.093745 184.639651,431.247073 184.182617,430.625977 C183.725584,430.00488 183.098637,429.694336 182.301758,429.694336 C181.317378,429.694336 180.579104,430.130855 180.086914,431.003906 L180.086914,435.547852 C180.573245,436.415043 181.317378,436.848633 182.319336,436.848633 C183.098637,436.848633 183.718259,436.539554 184.178223,435.921387 C184.638186,435.30322 184.868164,434.384772 184.868164,433.166016 Z M188.164062,433.166016 C188.164062,431.707024 188.509762,430.533696 189.201172,429.645996 C189.892582,428.758296 190.797846,428.314453 191.916992,428.314453 C193.030279,428.314453 193.912106,428.695309 194.5625,429.457031 L194.5625,424.5 L196.188477,424.5 L196.188477,438 L194.694336,438 L194.615234,436.980469 C193.96484,437.777348 193.059576,438.175781 191.899414,438.175781 C190.797846,438.175781 189.899906,437.724614 189.205566,436.822266 C188.511227,435.919917 188.164062,434.742195 188.164062,433.289062 L188.164062,433.166016 Z M189.790039,433.350586 C189.790039,434.428716 190.012693,435.272458 190.458008,435.881836 C190.903323,436.491214 191.518551,436.795898 192.303711,436.795898 C193.334966,436.795898 194.087888,436.333012 194.5625,435.407227 L194.5625,431.039062 C194.076169,430.142574 193.329107,429.694336 192.321289,429.694336 C191.52441,429.694336 190.903323,430.00195 190.458008,430.617188 C190.012693,431.232425 189.790039,432.143549 189.790039,433.350586 Z M204.582031,438 C204.488281,437.812499 204.41211,437.478518 204.353516,436.998047 C203.597652,437.783207 202.695318,438.175781 201.646484,438.175781 C200.70898,438.175781 199.939944,437.910647 199.339355,437.380371 C198.738767,436.850095 198.438477,436.177738 198.438477,435.363281 C198.438477,434.373042 198.814938,433.604007 199.567871,433.056152 C200.320805,432.508298 201.379876,432.234375 202.745117,432.234375 L204.327148,432.234375 L204.327148,431.487305 C204.327148,430.918942 204.157228,430.46631 203.817383,430.129395 C203.477537,429.792479 202.976566,429.624023 202.314453,429.624023 C201.734372,429.624023 201.248049,429.770506 200.855469,430.063477 C200.462889,430.356447 200.266602,430.710935 200.266602,431.126953 L198.631836,431.126953 C198.631836,430.652341 198.800291,430.19385 199.137207,429.751465 C199.474123,429.30908 199.931149,428.958986 200.508301,428.701172 C201.085452,428.443358 201.719723,428.314453 202.411133,428.314453 C203.506841,428.314453 204.365231,428.588376 204.986328,429.13623 C205.607425,429.684085 205.929687,430.438472 205.953125,431.399414 L205.953125,435.776367 C205.953125,436.649418 206.064452,437.343747 206.287109,437.859375 L206.287109,438 L204.582031,438 Z M201.883789,436.760742 C202.393557,436.760742 202.876951,436.628908 203.333984,436.365234 C203.791018,436.101561 204.122069,435.758791 204.327148,435.336914 L204.327148,433.385742 L203.052734,433.385742 C201.060537,433.385742 200.064453,433.968744 200.064453,435.134766 C200.064453,435.644534 200.234373,436.042967 200.574219,436.330078 C200.914064,436.617189 201.350583,436.760742 201.883789,436.760742 Z M210.708008,426.1875 L210.708008,428.490234 L212.483398,428.490234 L212.483398,429.74707 L210.708008,429.74707 L210.708008,435.644531 C210.708008,436.025393 210.787109,436.311034 210.945312,436.501465 C211.103516,436.691895 211.373045,436.787109 211.753906,436.787109 C211.941407,436.787109 212.199217,436.751953 212.527344,436.681641 L212.527344,438 C212.099607,438.117188 211.683596,438.175781 211.279297,438.175781 C210.552731,438.175781 210.004885,437.956057 209.635742,437.516602 C209.2666,437.077146 209.082031,436.453129 209.082031,435.644531 L209.082031,429.74707 L207.350586,429.74707 L207.350586,428.490234 L209.082031,428.490234 L209.082031,426.1875 L210.708008,426.1875 Z M218.328125,438.175781 C217.039056,438.175781 215.990238,437.752446 215.181641,436.905762 C214.373043,436.059078 213.96875,434.926765 213.96875,433.508789 L213.96875,433.209961 C213.96875,432.266597 214.148924,431.42432 214.509277,430.683105 C214.869631,429.941891 215.373532,429.361819 216.020996,428.942871 C216.66846,428.523924 217.370113,428.314453 218.125977,428.314453 C219.362311,428.314453 220.323239,428.721676 221.008789,429.536133 C221.694339,430.35059 222.037109,431.516594 222.037109,433.03418 L222.037109,433.710938 L215.594727,433.710938 C215.618164,434.648442 215.892087,435.405759 216.416504,435.98291 C216.940921,436.560061 217.607418,436.848633 218.416016,436.848633 C218.990237,436.848633 219.476561,436.731446 219.875,436.49707 C220.273439,436.262694 220.622069,435.95215 220.920898,435.56543 L221.914062,436.338867 C221.117184,437.563483 219.921883,438.175781 218.328125,438.175781 Z M218.125977,429.650391 C217.469723,429.650391 216.918948,429.889158 216.473633,430.366699 C216.028318,430.844241 215.75293,431.513668 215.647461,432.375 L220.411133,432.375 L220.411133,432.251953 C220.364258,431.425777 220.141604,430.785647 219.743164,430.331543 C219.344725,429.877439 218.805667,429.650391 218.125977,429.650391 Z" id="ConvenientVet/PetServicesUpdate" fill="#505050" fill-rule="nonzero"></path>
                <path d="M89.0849609,523.084961 L83.5390625,523.084961 L83.5390625,527.620117 L89.9814453,527.620117 L89.9814453,529 L81.8515625,529 L81.8515625,516.203125 L89.8935547,516.203125 L89.8935547,517.591797 L83.5390625,517.591797 L83.5390625,521.705078 L89.0849609,521.705078 L89.0849609,523.084961 Z M97.6982422,529 C97.6044917,528.812499 97.5283206,528.478518 97.4697266,527.998047 C96.7138634,528.783207 95.8115287,529.175781 94.7626953,529.175781 C93.8251906,529.175781 93.0561553,528.910647 92.4555664,528.380371 C91.8549775,527.850095 91.5546875,527.177738 91.5546875,526.363281 C91.5546875,525.373042 91.9311486,524.604007 92.684082,524.056152 C93.4370155,523.508298 94.4960869,523.234375 95.8613281,523.234375 L97.4433594,523.234375 L97.4433594,522.487305 C97.4433594,521.918942 97.2734392,521.46631 96.9335938,521.129395 C96.5937483,520.792479 96.0927767,520.624023 95.4306641,520.624023 C94.850583,520.624023 94.3642598,520.770506 93.9716797,521.063477 C93.5790996,521.356447 93.3828125,521.710935 93.3828125,522.126953 L91.7480469,522.126953 C91.7480469,521.652341 91.9165022,521.19385 92.253418,520.751465 C92.5903337,520.30908 93.0473604,519.958986 93.6245117,519.701172 C94.201663,519.443358 94.835934,519.314453 95.5273438,519.314453 C96.6230524,519.314453 97.4814422,519.588376 98.1025391,520.13623 C98.7236359,520.684085 99.0458983,521.438472 99.0693359,522.399414 L99.0693359,526.776367 C99.0693359,527.649418 99.1806629,528.343747 99.4033203,528.859375 L99.4033203,529 L97.6982422,529 Z M95,527.760742 C95.5097682,527.760742 95.9931618,527.628908 96.4501953,527.365234 C96.9072288,527.101561 97.2382802,526.758791 97.4433594,526.336914 L97.4433594,524.385742 L96.1689453,524.385742 C94.1767479,524.385742 93.1806641,524.968744 93.1806641,526.134766 C93.1806641,526.644534 93.3505842,527.042967 93.6904297,527.330078 C94.0302751,527.617189 94.4667942,527.760742 95,527.760742 Z M107.155273,526.477539 C107.155273,526.038084 106.989748,525.696779 106.658691,525.453613 C106.327635,525.210448 105.750492,525.000977 104.927246,524.825195 C104.104,524.649413 103.450686,524.438478 102.967285,524.192383 C102.483884,523.946288 102.126466,523.653322 101.89502,523.313477 C101.663573,522.973631 101.547852,522.569338 101.547852,522.100586 C101.547852,521.321285 101.877438,520.662112 102.536621,520.123047 C103.195804,519.583982 104.038081,519.314453 105.063477,519.314453 C106.141607,519.314453 107.01611,519.592771 107.687012,520.149414 C108.357914,520.706057 108.693359,521.417964 108.693359,522.285156 L107.058594,522.285156 C107.058594,521.839842 106.869631,521.456056 106.491699,521.133789 C106.113768,520.811522 105.637698,520.650391 105.063477,520.650391 C104.471677,520.650391 104.008791,520.779296 103.674805,521.037109 C103.340819,521.294923 103.173828,521.631834 103.173828,522.047852 C103.173828,522.440432 103.3291,522.736327 103.639648,522.935547 C103.950197,523.134767 104.511226,523.325194 105.322754,523.506836 C106.134281,523.688477 106.79199,523.905272 107.295898,524.157227 C107.799807,524.409181 108.173339,524.712401 108.416504,525.066895 C108.659669,525.421388 108.78125,525.853513 108.78125,526.363281 C108.78125,527.212895 108.44141,527.89404 107.761719,528.406738 C107.082028,528.919436 106.200201,529.175781 105.116211,529.175781 C104.354488,529.175781 103.680667,529.041017 103.094727,528.771484 C102.508786,528.501952 102.050295,528.125491 101.719238,527.64209 C101.388182,527.158689 101.222656,526.635745 101.222656,526.073242 L102.848633,526.073242 C102.87793,526.618167 103.096189,527.050291 103.503418,527.369629 C103.910647,527.688966 104.448239,527.848633 105.116211,527.848633 C105.731448,527.848633 106.225096,527.724122 106.597168,527.475098 C106.96924,527.226073 107.155273,526.893557 107.155273,526.477539 Z M114.010742,526.618164 L116.225586,519.490234 L117.96582,519.490234 L114.142578,530.467773 C113.550778,532.049813 112.610358,532.84082 111.321289,532.84082 L111.013672,532.814453 L110.407227,532.700195 L110.407227,531.381836 L110.84668,531.416992 C111.397464,531.416992 111.826659,531.305665 112.134277,531.083008 C112.441896,530.86035 112.695312,530.453128 112.894531,529.861328 L113.254883,528.894531 L109.862305,519.490234 L111.637695,519.490234 L114.010742,526.618164 Z M125.814453,523.990234 L125.814453,529 L124.126953,529 L124.126953,516.203125 L128.84668,516.203125 C130.247077,516.203125 131.344234,516.560543 132.138184,517.275391 C132.932133,517.990238 133.329102,518.936518 133.329102,520.114258 C133.329102,521.356452 132.940922,522.312985 132.164551,522.983887 C131.38818,523.654789 130.276374,523.990234 128.829102,523.990234 L125.814453,523.990234 Z M125.814453,522.610352 L128.84668,522.610352 C129.749028,522.610352 130.440427,522.397951 130.920898,521.973145 C131.40137,521.548338 131.641602,520.934574 131.641602,520.131836 C131.641602,519.370113 131.40137,518.760744 130.920898,518.303711 C130.440427,517.846677 129.781254,517.609375 128.943359,517.591797 L125.814453,517.591797 L125.814453,522.610352 Z M139.824219,520.949219 C139.578124,520.908203 139.311525,520.887695 139.024414,520.887695 C137.958002,520.887695 137.234377,521.341792 136.853516,522.25 L136.853516,529 L135.227539,529 L135.227539,519.490234 L136.80957,519.490234 L136.835938,520.588867 C137.369143,519.739254 138.124995,519.314453 139.103516,519.314453 C139.419923,519.314453 139.660155,519.355468 139.824219,519.4375 L139.824219,520.949219 Z M140.711914,524.157227 C140.711914,523.225581 140.895018,522.387699 141.26123,521.643555 C141.627443,520.89941 142.137204,520.325197 142.790527,519.920898 C143.443851,519.5166 144.189449,519.314453 145.027344,519.314453 C146.322272,519.314453 147.369625,519.762691 148.169434,520.65918 C148.969242,521.555669 149.369141,522.748039 149.369141,524.236328 L149.369141,524.350586 C149.369141,525.276372 149.191896,526.10693 148.837402,526.842285 C148.482908,527.57764 147.976078,528.150389 147.316895,528.560547 C146.657712,528.970705 145.900395,529.175781 145.044922,529.175781 C143.755853,529.175781 142.71143,528.727544 141.911621,527.831055 C141.111812,526.934566 140.711914,525.748054 140.711914,524.271484 L140.711914,524.157227 Z M142.34668,524.350586 C142.34668,525.405279 142.591306,526.25195 143.080566,526.890625 C143.569827,527.5293 144.224605,527.848633 145.044922,527.848633 C145.871098,527.848633 146.527341,527.524906 147.013672,526.877441 C147.500002,526.229977 147.743164,525.323248 147.743164,524.157227 C147.743164,523.114253 147.495608,522.269046 147.000488,521.621582 C146.505369,520.974118 145.84766,520.650391 145.027344,520.650391 C144.224605,520.650391 143.577151,520.969723 143.084961,521.608398 C142.592771,522.247074 142.34668,523.161127 142.34668,524.350586 Z M151.953125,529 L151.953125,520.74707 L150.450195,520.74707 L150.450195,519.490234 L151.953125,519.490234 L151.953125,518.681641 C151.953125,517.621088 152.256345,516.794925 152.862793,516.203125 C153.469241,515.611325 154.326166,515.31543 155.433594,515.31543 C156.089847,515.31543 156.91894,515.494139 157.920898,515.851562 L157.648438,517.222656 C156.916012,516.929686 156.218753,516.783203 155.556641,516.783203 C154.859372,516.783203 154.356935,516.93994 154.049316,517.253418 C153.741698,517.566896 153.587891,518.037106 153.587891,518.664062 L153.587891,519.490234 L155.530273,519.490234 L155.530273,520.74707 L153.587891,520.74707 L153.587891,529 L151.953125,529 Z M158.729492,529 L157.094727,529 L157.094727,519.490234 L158.729492,519.490234 L158.729492,529 Z M163.141602,529 L161.515625,529 L161.515625,515.5 L163.141602,515.5 L163.141602,529 Z M169.689453,529.175781 C168.400384,529.175781 167.351567,528.752446 166.542969,527.905762 C165.734371,527.059078 165.330078,525.926765 165.330078,524.508789 L165.330078,524.209961 C165.330078,523.266597 165.510252,522.42432 165.870605,521.683105 C166.230959,520.941891 166.73486,520.361819 167.382324,519.942871 C168.029788,519.523924 168.731442,519.314453 169.487305,519.314453 C170.723639,519.314453 171.684567,519.721676 172.370117,520.536133 C173.055667,521.35059 173.398438,522.516594 173.398438,524.03418 L173.398438,524.710938 L166.956055,524.710938 C166.979492,525.648442 167.253415,526.405759 167.777832,526.98291 C168.302249,527.560061 168.968746,527.848633 169.777344,527.848633 C170.351565,527.848633 170.837889,527.731446 171.236328,527.49707 C171.634768,527.262694 171.983397,526.95215 172.282227,526.56543 L173.275391,527.338867 C172.478512,528.563483 171.283211,529.175781 169.689453,529.175781 Z M169.487305,520.650391 C168.831051,520.650391 168.280276,520.889158 167.834961,521.366699 C167.389646,521.844241 167.114258,522.513668 167.008789,523.375 L171.772461,523.375 L171.772461,523.251953 C171.725586,522.425777 171.502932,521.785647 171.104492,521.331543 C170.706053,520.877439 170.166996,520.650391 169.487305,520.650391 Z M188.999023,516.203125 L188.999023,524.904297 C188.993164,526.111334 188.613773,527.098629 187.86084,527.866211 C187.107906,528.633793 186.086921,529.064453 184.797852,529.158203 L184.349609,529.175781 C182.949212,529.175781 181.833012,528.797855 181.000977,528.041992 C180.168941,527.286129 179.74707,526.2461 179.735352,524.921875 L179.735352,516.203125 L181.405273,516.203125 L181.405273,524.869141 C181.405273,525.794927 181.660154,526.514158 182.169922,527.026855 C182.67969,527.539553 183.406245,527.795898 184.349609,527.795898 C185.304692,527.795898 186.035642,527.541018 186.54248,527.03125 C187.049319,526.521482 187.302734,525.803716 187.302734,524.87793 L187.302734,516.203125 L188.999023,516.203125 Z M199.44043,524.350586 C199.44043,525.797859 199.109378,526.963863 198.447266,527.848633 C197.785153,528.733403 196.888678,529.175781 195.757812,529.175781 C194.60351,529.175781 193.695316,528.809574 193.033203,528.077148 L193.033203,532.65625 L191.407227,532.65625 L191.407227,519.490234 L192.892578,519.490234 L192.97168,520.544922 C193.633792,519.724605 194.553705,519.314453 195.731445,519.314453 C196.874029,519.314453 197.777829,519.745113 198.442871,520.606445 C199.107913,521.467778 199.44043,522.666008 199.44043,524.201172 L199.44043,524.350586 Z M197.814453,524.166016 C197.814453,523.093745 197.58594,522.247073 197.128906,521.625977 C196.671873,521.00488 196.044926,520.694336 195.248047,520.694336 C194.263667,520.694336 193.525393,521.130855 193.033203,522.003906 L193.033203,526.547852 C193.519534,527.415043 194.263667,527.848633 195.265625,527.848633 C196.044926,527.848633 196.664548,527.539554 197.124512,526.921387 C197.584475,526.30322 197.814453,525.384772 197.814453,524.166016 Z M201.110352,524.166016 C201.110352,522.707024 201.456051,521.533696 202.147461,520.645996 C202.838871,519.758296 203.744135,519.314453 204.863281,519.314453 C205.976568,519.314453 206.858395,519.695309 207.508789,520.457031 L207.508789,515.5 L209.134766,515.5 L209.134766,529 L207.640625,529 L207.561523,527.980469 C206.91113,528.777348 206.005865,529.175781 204.845703,529.175781 C203.744135,529.175781 202.846195,528.724614 202.151855,527.822266 C201.457516,526.919917 201.110352,525.742195 201.110352,524.289062 L201.110352,524.166016 Z M202.736328,524.350586 C202.736328,525.428716 202.958982,526.272458 203.404297,526.881836 C203.849612,527.491214 204.46484,527.795898 205.25,527.795898 C206.281255,527.795898 207.034177,527.333012 207.508789,526.407227 L207.508789,522.039062 C207.022459,521.142574 206.275396,520.694336 205.267578,520.694336 C204.470699,520.694336 203.849612,521.00195 203.404297,521.617188 C202.958982,522.232425 202.736328,523.143549 202.736328,524.350586 Z M217.52832,529 C217.43457,528.812499 217.358399,528.478518 217.299805,527.998047 C216.543942,528.783207 215.641607,529.175781 214.592773,529.175781 C213.655269,529.175781 212.886233,528.910647 212.285645,528.380371 C211.685056,527.850095 211.384766,527.177738 211.384766,526.363281 C211.384766,525.373042 211.761227,524.604007 212.51416,524.056152 C213.267094,523.508298 214.326165,523.234375 215.691406,523.234375 L217.273438,523.234375 L217.273438,522.487305 C217.273438,521.918942 217.103517,521.46631 216.763672,521.129395 C216.423826,520.792479 215.922855,520.624023 215.260742,520.624023 C214.680661,520.624023 214.194338,520.770506 213.801758,521.063477 C213.409178,521.356447 213.212891,521.710935 213.212891,522.126953 L211.578125,522.126953 C211.578125,521.652341 211.74658,521.19385 212.083496,520.751465 C212.420412,520.30908 212.877439,519.958986 213.45459,519.701172 C214.031741,519.443358 214.666012,519.314453 215.357422,519.314453 C216.45313,519.314453 217.31152,519.588376 217.932617,520.13623 C218.553714,520.684085 218.875976,521.438472 218.899414,522.399414 L218.899414,526.776367 C218.899414,527.649418 219.010741,528.343747 219.233398,528.859375 L219.233398,529 L217.52832,529 Z M214.830078,527.760742 C215.339846,527.760742 215.82324,527.628908 216.280273,527.365234 C216.737307,527.101561 217.068358,526.758791 217.273438,526.336914 L217.273438,524.385742 L215.999023,524.385742 C214.006826,524.385742 213.010742,524.968744 213.010742,526.134766 C213.010742,526.644534 213.180662,527.042967 213.520508,527.330078 C213.860353,527.617189 214.296872,527.760742 214.830078,527.760742 Z M223.654297,517.1875 L223.654297,519.490234 L225.429688,519.490234 L225.429688,520.74707 L223.654297,520.74707 L223.654297,526.644531 C223.654297,527.025393 223.733398,527.311034 223.891602,527.501465 C224.049805,527.691895 224.319334,527.787109 224.700195,527.787109 C224.887696,527.787109 225.145506,527.751953 225.473633,527.681641 L225.473633,529 C225.045896,529.117188 224.629885,529.175781 224.225586,529.175781 C223.49902,529.175781 222.951174,528.956057 222.582031,528.516602 C222.212889,528.077146 222.02832,527.453129 222.02832,526.644531 L222.02832,520.74707 L220.296875,520.74707 L220.296875,519.490234 L222.02832,519.490234 L222.02832,517.1875 L223.654297,517.1875 Z M231.274414,529.175781 C229.985345,529.175781 228.936527,528.752446 228.12793,527.905762 C227.319332,527.059078 226.915039,525.926765 226.915039,524.508789 L226.915039,524.209961 C226.915039,523.266597 227.095213,522.42432 227.455566,521.683105 C227.81592,520.941891 228.319821,520.361819 228.967285,519.942871 C229.614749,519.523924 230.316402,519.314453 231.072266,519.314453 C232.3086,519.314453 233.269528,519.721676 233.955078,520.536133 C234.640628,521.35059 234.983398,522.516594 234.983398,524.03418 L234.983398,524.710938 L228.541016,524.710938 C228.564453,525.648442 228.838376,526.405759 229.362793,526.98291 C229.88721,527.560061 230.553707,527.848633 231.362305,527.848633 C231.936526,527.848633 232.42285,527.731446 232.821289,527.49707 C233.219729,527.262694 233.568358,526.95215 233.867188,526.56543 L234.860352,527.338867 C234.063473,528.563483 232.868172,529.175781 231.274414,529.175781 Z M231.072266,520.650391 C230.416012,520.650391 229.865237,520.889158 229.419922,521.366699 C228.974607,521.844241 228.699219,522.513668 228.59375,523.375 L233.357422,523.375 L233.357422,523.251953 C233.310547,522.425777 233.087893,521.785647 232.689453,521.331543 C232.291014,520.877439 231.751957,520.650391 231.072266,520.650391 Z" id="EasyProfleUpdate" fill="#505050" fill-rule="nonzero"></path>
            </g>
        </g>
    </g>
</svg>