<?xml version="1.0" encoding="UTF-8"?>
<svg width="153px" height="158px" viewBox="0 0 153 158" version="1.1" xmlns="http://www.w3.org/2000/svg" xmlns:xlink="http://www.w3.org/1999/xlink">
    <!-- Generator: Sketch 57.1 (83088) - https://sketch.com -->
    <title>Group 7</title>
    <desc>Created with Sketch.</desc>
    <defs>
        <path d="M17.0230938,11.4612994 L4.0681875,0.708484076 C2.78728125,-0.339159236 1.39221875,0.0627770701 1.09525,1.62282803 C0.06215625,6.89080255 -1.83665625,18.3700382 7.77196875,22.8488153 C14.9309062,26.1837452 17.7494688,20.0507516 18.7886562,16.1732484 C19.1989687,14.6327643 18.3035938,12.5060892 17.0230938,11.4612994 Z" id="path-1"></path>
        <path d="M1.76475,12.182828 L14.2260625,0.858089172 C15.458625,-0.246216561 16.87075,0.0921273885 17.2367812,1.63750318 C18.5042812,6.85329936 20.91375,18.2359236 11.5151562,23.1427261 C4.512625,26.7964331 1.42228125,20.7963312 0.21084375,16.9693758 C-0.2673125,15.4488662 0.53178125,13.2842803 1.76475,12.182828 Z" id="path-3"></path>
        <path d="M0.1438125,10.3867516 C0.02925,10.0280255 0.3615625,8.92861146 0.87059375,8.47164331 L9.43840625,0.680356688 C10.655125,-0.432917197 11.9238437,-0.0721528662 12.1123437,1.49890446 C12.7473125,6.68208917 12.1103125,12.1824204 6.950125,14.8785732 C6.0100625,15.3640764 5.17765625,15.6245605 4.496375,15.640051 C2.0856875,15.6942675 0.64553125,11.9826752 0.1438125,10.3867516 Z" id="path-5"></path>
        <path d="M12.7570625,10.1507261 C12.855375,9.78751592 12.4743125,8.704 11.9457813,8.27026752 L3.0379375,0.872356688 C1.772875,-0.185070064 0.52121875,0.232356688 0.40340625,1.81034395 C0.0008125,7.01676433 0.88278125,12.4828535 6.1579375,14.9442038 C7.11871875,15.3873121 7.9616875,15.6094777 8.643375,15.5943949 C11.0540625,15.5401783 12.32725,11.7674395 12.7570625,10.1507261 Z" id="path-7"></path>
        <path d="M7.74271875,0.364025478 C13.6394375,2.42221656 14.7383438,17.507465 14.7242603,17.4805605 C14.4994688,17.053758 12.757875,16.1573503 12.757875,16.1573503 C13.3335313,17.2510573 13.1909375,19.9484331 11.0853438,24.7602548 C10.9106563,23.2625732 10.4613438,22.0526879 9.25803125,21.6344459 C8.25215625,24.8805096 5.458375,29.8203312 3.394625,30.4750064 C3.394625,30.4750064 4.29771875,26.1490955 3.13909375,24.7472102 C1.98046875,23.3453248 0.38553125,24.2087134 0.38553125,24.2087134 L7.74271875,0.364025478 Z" id="path-9"></path>
        <path d="M73.1018438,31.6763312 C72.736625,15.3330955 56.0625,-0.0440254777 35.9259062,0.409273885 C15.793375,0.862573248 -0.1795625,16.9742675 0.18565625,33.3175032 C0.550875,49.6635924 17.1364375,60.9500127 37.2689687,60.4967134 C57.4055625,60.043414 73.4670625,48.0224204 73.1018438,31.6763312 Z" id="path-11"></path>
        <path d="M9.29784375,9.32035669 C14.3840938,9.20580892 18.3129375,7.12438217 18.2560625,4.57905732 C18.1991875,2.03821656 14.181375,0.135745223 9.095125,0.250292994 C4.012125,0.364840764 0.08328125,2.44626752 0.13975,4.98710828 C0.196625,7.53202548 4.2144375,9.43490446 9.29784375,9.32035669 Z" id="path-13"></path>
        <path d="M15.2871875,2.05044586 C17.4988125,4.71847134 16.1691562,9.46873885 12.3276563,12.6593631 C8.48615625,15.8467261 3.58475,16.2645605 1.379625,13.5896051 C-0.82265625,10.9183185 0.507,6.16805096 4.3485,2.9806879 C8.18959375,-0.209528662 13.0849063,-0.624101911 15.2871875,2.05044586 Z" id="path-15"></path>
        <path d="M1.15659375,2.01171975 C-0.9303125,4.77676433 0.6101875,9.46221656 4.59021875,12.4767389 C8.57025,15.488 13.4850625,15.6848917 15.5683125,12.9137325 C17.6466875,10.1458344 16.108625,5.46038217 12.1294062,2.44912102 C8.14896875,-0.565401274 3.237,-0.759031847 1.15659375,2.01171975 Z" id="path-17"></path>
        <path d="M0.6199375,2.2889172 L2.15028125,4.29126115 C3.0298125,5.43918471 4.41796875,5.40779618 5.24834375,4.22155414 L6.6844375,2.15235669 C7.51765625,0.956738854 7.01878125,0.0232356688 5.5648125,0.0558471338 L1.64775,0.144305732 C0.1974375,0.177324841 -0.25959375,1.13202548 0.6199375,2.2889172 Z" id="path-19"></path>
        <path d="M1.3349375,7.71750318 C1.9849375,7.86547771 2.6901875,7.59684076 3.0688125,7.00290446 C4.07428125,5.40901911 5.83496875,4.25457325 7.8983125,3.82695541 C9.96084375,3.40463694 12.0327188,3.77070064 13.5845938,4.83220382 C14.3255938,5.34094268 15.3355313,5.15261146 15.8409063,4.40947771 C16.3475,3.66634395 16.1581875,2.65335032 15.4188125,2.14461146 C13.144625,0.584152866 10.1655938,0.0338343949 7.24709375,0.634292994 C4.32371875,1.23434395 1.80375,2.91791083 0.3258125,5.25207643 C-0.1519375,6.01273885 0.069875,7.02247134 0.82834375,7.50145223 C0.988,7.60499363 1.16065625,7.67755414 1.3349375,7.71750318 Z" id="path-21"></path>
        <path d="M15.1905,7.12968153 C14.5478125,7.30659873 13.8311875,7.07016561 13.4261562,6.49375796 C12.3504062,4.94634395 10.53975,3.87261146 8.45975,3.53793631 C6.3805625,3.20896815 4.3265625,3.66797452 2.82384375,4.79796178 C2.10640625,5.33971975 1.08915625,5.19704459 0.550875,4.4771465 C0.01178125,3.75765605 0.15559375,2.7369172 0.87140625,2.19556688 C3.07328125,0.534420382 6.0246875,-0.149197452 8.9675625,0.319592357 C11.9145,0.787159236 14.5071875,2.35617834 16.0879062,4.62104459 C16.5989687,5.35969427 16.4226562,6.37798726 15.6865312,6.89121019 C15.53175,7.00168153 15.36275,7.0823949 15.1905,7.12968153 Z" id="path-23"></path>
        <path d="M0.7320625,3.87301911 C0.81046875,3.87138854 0.8880625,3.85385987 0.962,3.81757962 C5.78703125,1.52784713 11.3372187,0.753324841 16.599375,1.6546242 C16.91625,1.7006879 17.2059062,1.49686624 17.2615625,1.18461146 C17.3139687,0.872764331 17.1039375,0.576 16.7931562,0.523414013 C11.301875,-0.413757962 5.50509375,0.388076433 0.476125,2.78298089 C0.1885,2.91831847 0.06784375,3.25992357 0.2023125,3.54568153 C0.30103125,3.75684076 0.5135,3.87750318 0.7320625,3.87301911 Z" id="path-25"></path>
        <path d="M0.9815,4.70420382 C1.07534375,4.70216561 1.17203125,4.67811465 1.25815625,4.62593631 C5.22559375,2.31133758 9.9409375,1.13528662 14.5238438,1.31424204 C14.8366563,1.31016561 15.1035625,1.08147771 15.1185938,0.76433121 C15.130375,0.447184713 14.883375,0.179363057 14.5673125,0.167541401 C9.7621875,-0.0191592357 4.8351875,1.20907006 0.6825,3.63414013 C0.41071875,3.79434395 0.3185,4.1477707 0.47490625,4.41722293 C0.58215625,4.60596178 0.781625,4.70828025 0.9815,4.70420382 Z" id="path-27"></path>
        <path d="M16.1740312,2.96071338 C16.4023437,2.95582166 16.6148125,2.81273885 16.6972812,2.58201274 C16.8033125,2.28443312 16.6521875,1.95546497 16.355625,1.84580892 C11.3481875,0.0281273885 5.9466875,-0.380738854 0.73125,0.672203822 C0.42290625,0.735388535 0.2201875,1.03541401 0.2835625,1.34766879 C0.34653125,1.65707006 0.6361875,1.86048408 0.95671875,1.79689172 C5.967,0.786343949 11.1580625,1.17808917 15.964,2.92810191 C16.0330625,2.95133758 16.1017187,2.96234395 16.1740312,2.96071338 Z" id="path-29"></path>
        <path d="M16.76025,3.46782166 C16.68225,3.46985987 16.6034375,3.45559236 16.527875,3.42298089 C11.6053438,1.35256051 6.0263125,0.82833121 0.80965625,1.96606369 C0.4948125,2.0263949 0.196625,1.83561783 0.12715625,1.52621656 C0.0609375,1.21681529 0.25715625,0.911082803 0.5655,0.844636943 C6.00925,-0.338751592 11.8360937,0.201783439 16.9674375,2.368 C17.26075,2.48988535 17.3968437,2.82578344 17.2749687,3.11765605 C17.186,3.33289172 16.9792187,3.46292994 16.76025,3.46782166 Z" id="path-31"></path>
        <path d="M14.6668438,4.06298089 C14.573,4.06501911 14.4755,4.04545223 14.3869375,3.99694268 C10.3199688,1.86333758 5.5566875,0.900076433 0.986375,1.28529936 C0.67396875,1.29549045 0.39690625,1.07903185 0.3680625,0.762700637 C0.3420625,0.446369427 0.576875,0.167949045 0.892125,0.141859873 C5.68425,-0.261299363 10.6612188,0.744356688 14.9179063,2.98028025 C15.1965938,3.12784713 15.30425,3.47678981 15.1604375,3.75317197 C15.0613125,3.94761783 14.8667187,4.05849682 14.6668438,4.06298089 Z" id="path-33"></path>
        <path d="M0.70809375,3.38343949 C0.47978125,3.38873885 0.26121875,3.25543949 0.1681875,3.02838217 C0.04915625,2.73610191 0.18565625,2.40020382 0.4769375,2.27750318 C5.39825,0.236433121 10.7757812,-0.414980892 16.0330625,0.401936306 C16.3438437,0.451261146 16.5599687,0.741503185 16.5104062,1.05661146 C16.4608437,1.36805096 16.1813437,1.5849172 15.8579688,1.53559236 C10.807875,0.751694268 5.63915625,1.37661146 0.9165,3.34063694 C0.84865625,3.3675414 0.78,3.38180892 0.70809375,3.38343949 Z" id="path-35"></path>
        <path d="M6.31921875,0.182624204 C0.52040625,2.50456051 0.0966875,17.6236433 0.1096875,17.5963312 C0.31525,17.1597452 2.01459375,16.1858854 2.01459375,16.1858854 C1.4885,17.304051 1.75134375,19.992051 4.0698125,24.7044076 C4.17746875,23.2006115 4.57234375,21.9719745 5.75575,21.4995159 C6.90584375,24.6974777 9.91696875,29.5064459 12.0083437,30.0677707 C12.0083437,30.0677707 10.9126875,25.7867006 12.0075312,24.3342675 C13.1027812,22.8818344 14.7342813,23.6726624 14.7342813,23.6726624 L6.31921875,0.182624204 Z" id="path-37"></path>
    </defs>
    <g id="Page-1" stroke="none" stroke-width="1" fill="none" fill-rule="evenodd">
        <g id="Desktop-HD" transform="translate(-1423.000000, -3710.000000)">
            <g id="Group-7" transform="translate(1416.000000, 3699.000000)">
                <g id="38337-O1YXZF-head" transform="translate(121.552537, 137.000000) rotate(1.000000) translate(-121.552537, -137.000000) translate(82.552537, 105.000000)">
                    <g>
                        <g id="Group" transform="translate(0.812500, 0.000000)">
                            <path d="M17.0230938,13.0918726 L4.0681875,2.33905732 C2.78728125,1.29141401 1.39221875,1.69335032 1.09525,3.25340127 C0.06215625,8.5213758 -1.83665625,20.0006115 7.77196875,24.4793885 C14.9309062,27.8143185 17.7494688,21.6813248 18.7886562,17.8038217 C19.1989687,16.2633376 18.3035938,14.1366624 17.0230938,13.0918726 Z" id="Path" fill="#DF9348"></path>
                            <g id="Clipped" transform="translate(0.000000, 1.630573)">
                                <mask id="mask-2" fill="white">
                                    <use xlink:href="#path-1"></use>
                                </mask>
                                <g id="SVGID_1_"></g>
                                <g id="Group" mask="url(#mask-2)" fill="#C3762A">
                                    <g transform="translate(20.718750, -2.038217)" id="Path">
                                        <path d="M30.2424688,2.69615287 C30.1872188,3.52611465 26.6918438,23.6221146 26.6918438,23.6221146 C26.6918438,23.6221146 24.142625,0.385630573 25.3625938,0.325299363 C26.583375,0.26456051 30.2424688,2.69615287 30.2424688,2.69615287 Z"></path>
                                        <path d="M21.1128125,0.681171975 C21.1733438,1.90614013 18.239,26.676586 18.239,26.676586 C18.239,26.676586 12.1590625,0.285350318 13.2157188,0.101503185 C14.2719688,-0.0815286624 21.1128125,0.681171975 21.1128125,0.681171975 Z"></path>
                                        <path d="M7.81909375,0.625324841 C7.74759375,1.54578344 10.5685938,22.2173758 10.5685938,22.2173758 C10.5685938,22.2173758 -0.3891875,3.35042038 0.38025,3.20896815 C1.15009375,3.06670064 7.81909375,0.625324841 7.81909375,0.625324841 Z"></path>
                                    </g>
                                </g>
                            </g>
                            <path d="M57.421,12.182828 L69.8823125,0.858089172 C71.114875,-0.246216561 72.527,0.0921273885 72.8930312,1.63750318 C74.1605312,6.85329936 76.57,18.2359236 67.1714062,23.1427261 C60.168875,26.7964331 57.0785312,20.7963312 55.8670938,16.9693758 C55.3889375,15.4488662 56.1880312,13.2842803 57.421,12.182828 Z" id="Path" fill="#DF9348"></path>
                            <g id="Clipped" transform="translate(55.656250, 0.000000)">
                                <mask id="mask-4" fill="white">
                                    <use xlink:href="#path-3"></use>
                                </mask>
                                <g id="SVGID_3_"></g>
                                <g id="Group" mask="url(#mask-4)" fill="#C3762A">
                                    <g transform="translate(-34.937500, -0.407643)" id="Path">
                                        <path d="M30.2424688,2.69615287 C30.1872188,3.52611465 26.6918438,23.6221146 26.6918438,23.6221146 C26.6918438,23.6221146 24.142625,0.385630573 25.3625938,0.325299363 C26.583375,0.26456051 30.2424688,2.69615287 30.2424688,2.69615287 Z"></path>
                                        <path d="M21.1128125,0.681171975 C21.1733438,1.90614013 18.239,26.676586 18.239,26.676586 C18.239,26.676586 12.1590625,0.285350318 13.2157188,0.101503185 C14.2719688,-0.0815286624 21.1128125,0.681171975 21.1128125,0.681171975 Z"></path>
                                        <path d="M7.81909375,0.625324841 C7.74759375,1.54578344 10.5685938,22.2173758 10.5685938,22.2173758 C10.5685938,22.2173758 -0.3891875,3.35042038 0.38025,3.20896815 C1.15009375,3.06670064 7.81909375,0.625324841 7.81909375,0.625324841 Z"></path>
                                    </g>
                                </g>
                            </g>
                        </g>
                        <path d="M59.8625625,15.2784713 C59.748,14.9197452 60.0803125,13.8203312 60.5893438,13.3633631 L69.1571563,5.57207643 C70.373875,4.45880255 71.6425938,4.81956688 71.8310938,6.3906242 C72.4660625,11.5738089 71.8290625,17.0741401 66.668875,19.770293 C65.7288125,20.2557962 64.8964063,20.5162803 64.215125,20.5317707 C61.8044375,20.5859873 60.3642813,16.8743949 59.8625625,15.2784713 Z" id="Path" fill="#E2883A"></path>
                        <g id="Clipped" transform="translate(59.718750, 4.891720)">
                            <mask id="mask-6" fill="white">
                                <use xlink:href="#path-5"></use>
                            </mask>
                            <g id="SVGID_5_"></g>
                            <g id="Group" mask="url(#mask-6)" fill="#C3762A">
                                <g transform="translate(-38.187500, -5.299363)" id="Path">
                                    <path d="M30.2424688,2.69615287 C30.1872188,3.52611465 26.6918438,23.6221146 26.6918438,23.6221146 C26.6918438,23.6221146 24.142625,0.385630573 25.3625938,0.325299363 C26.583375,0.26456051 30.2424688,2.69615287 30.2424688,2.69615287 Z"></path>
                                    <path d="M21.1128125,0.681171975 C21.1733438,1.90614013 18.239,26.676586 18.239,26.676586 C18.239,26.676586 12.1590625,0.285350318 13.2157188,0.101503185 C14.2719688,-0.0815286624 21.1128125,0.681171975 21.1128125,0.681171975 Z"></path>
                                    <path d="M7.81909375,0.625324841 C7.74759375,1.54578344 10.5685938,22.2173758 10.5685938,22.2173758 C10.5685938,22.2173758 -0.3891875,3.35042038 0.38025,3.20896815 C1.15009375,3.06670064 7.81909375,0.625324841 7.81909375,0.625324841 Z"></path>
                                </g>
                            </g>
                        </g>
                        <path d="M16.0070625,16.2653758 C16.105375,15.9021656 15.7243125,14.8186497 15.1957812,14.3849172 L6.2879375,6.98700637 C5.022875,5.92957962 3.77121875,6.34700637 3.65340625,7.92499363 C3.2508125,13.131414 4.13278125,18.5975032 9.4079375,21.0588535 C10.3687188,21.5019618 11.2116875,21.7241274 11.893375,21.7090446 C14.3040625,21.654828 15.57725,17.8820892 16.0070625,16.2653758 Z" id="Path" fill="#E2883A"></path>
                        <g id="Clipped" transform="translate(3.250000, 6.114650)">
                            <mask id="mask-8" fill="white">
                                <use xlink:href="#path-7"></use>
                            </mask>
                            <g id="SVGID_7_"></g>
                            <g id="Group" mask="url(#mask-8)" fill="#C3762A">
                                <g transform="translate(18.281250, -6.522293)" id="Path">
                                    <path d="M30.2424688,2.69615287 C30.1872188,3.52611465 26.6918438,23.6221146 26.6918438,23.6221146 C26.6918438,23.6221146 24.142625,0.385630573 25.3625938,0.325299363 C26.583375,0.26456051 30.2424688,2.69615287 30.2424688,2.69615287 Z"></path>
                                    <path d="M21.1128125,0.681171975 C21.1733438,1.90614013 18.239,26.676586 18.239,26.676586 C18.239,26.676586 12.1590625,0.285350318 13.2157188,0.101503185 C14.2719688,-0.0815286624 21.1128125,0.681171975 21.1128125,0.681171975 Z"></path>
                                    <path d="M7.81909375,0.625324841 C7.74759375,1.54578344 10.5685938,22.2173758 10.5685938,22.2173758 C10.5685938,22.2173758 -0.3891875,3.35042038 0.38025,3.20896815 C1.15009375,3.06670064 7.81909375,0.625324841 7.81909375,0.625324841 Z"></path>
                                </g>
                            </g>
                        </g>
                        <path d="M70.7114687,26.4531975 C76.6081875,28.5113885 77.7070937,43.5966369 77.6930103,43.5697325 C77.4682187,43.1429299 75.726625,42.2465223 75.726625,42.2465223 C76.3022812,43.3402293 76.1596875,46.0376051 74.0540937,50.8494268 C73.8794062,49.3517452 73.4300937,48.1418599 72.2267812,47.7236178 C71.2209062,50.9696815 68.427125,55.9095032 66.363375,56.5641783 C66.363375,56.5641783 67.2664688,52.2382675 66.1078438,50.8363822 C64.9492188,49.4344968 63.3542813,50.2978854 63.3542813,50.2978854 L70.7114687,26.4531975 Z" id="Path" fill="#F9A654"></path>
                        <g id="Clipped" transform="translate(62.968750, 26.089172)">
                            <mask id="mask-10" fill="white">
                                <use xlink:href="#path-9"></use>
                            </mask>
                            <g id="SVGID_9_"></g>
                            <g id="Group" mask="url(#mask-10)" fill="#C3762A">
                                <g transform="translate(-41.437500, -26.496815)" id="Path">
                                    <path d="M30.2424688,2.69615287 C30.1872188,3.52611465 26.6918438,23.6221146 26.6918438,23.6221146 C26.6918438,23.6221146 24.142625,0.385630573 25.3625938,0.325299363 C26.583375,0.26456051 30.2424688,2.69615287 30.2424688,2.69615287 Z"></path>
                                    <path d="M21.1128125,0.681171975 C21.1733438,1.90614013 18.239,26.676586 18.239,26.676586 C18.239,26.676586 12.1590625,0.285350318 13.2157188,0.101503185 C14.2719688,-0.0815286624 21.1128125,0.681171975 21.1128125,0.681171975 Z"></path>
                                    <path d="M7.81909375,0.625324841 C7.74759375,1.54578344 10.5685938,22.2173758 10.5685938,22.2173758 C10.5685938,22.2173758 -0.3891875,3.35042038 0.38025,3.20896815 C1.15009375,3.06670064 7.81909375,0.625324841 7.81909375,0.625324841 Z"></path>
                                </g>
                            </g>
                        </g>
                        <path d="M75.1330938,34.9374777 C74.767875,18.594242 58.09375,3.21712102 37.9571562,3.67042038 C17.824625,4.12371975 1.8516875,20.235414 2.21690625,36.5786497 C2.582125,52.9247389 19.1676875,64.2111592 39.3002187,63.7578599 C59.4368125,63.3045605 75.4983125,51.2835669 75.1330938,34.9374777 Z" id="Path" fill="#F9A654"></path>
                        <g id="Clipped" transform="translate(2.031250, 3.261146)">
                            <mask id="mask-12" fill="white">
                                <use xlink:href="#path-11"></use>
                            </mask>
                            <g id="SVGID_11_"></g>
                            <g id="Group" mask="url(#mask-12)" fill="#C3762A">
                                <g transform="translate(19.500000, -3.668790)" id="Path">
                                    <path d="M30.2424688,2.69615287 C30.1872188,3.52611465 26.6918438,23.6221146 26.6918438,23.6221146 C26.6918438,23.6221146 24.142625,0.385630573 25.3625938,0.325299363 C26.583375,0.26456051 30.2424688,2.69615287 30.2424688,2.69615287 Z"></path>
                                    <path d="M21.1128125,0.681171975 C21.1733438,1.90614013 18.239,26.676586 18.239,26.676586 C18.239,26.676586 12.1590625,0.285350318 13.2157188,0.101503185 C14.2719688,-0.0815286624 21.1128125,0.681171975 21.1128125,0.681171975 Z"></path>
                                    <path d="M7.81909375,0.625324841 C7.74759375,1.54578344 10.5685938,22.2173758 10.5685938,22.2173758 C10.5685938,22.2173758 -0.3891875,3.35042038 0.38025,3.20896815 C1.15009375,3.06670064 7.81909375,0.625324841 7.81909375,0.625324841 Z"></path>
                                </g>
                            </g>
                        </g>
                        <path d="M39.7665937,51.7152611 C44.8528438,51.6007134 48.7816875,49.5192866 48.7248125,46.9739618 C48.6679375,44.433121 44.650125,42.5306497 39.563875,42.6451975 C34.480875,42.7597452 30.5520312,44.841172 30.6085,47.3820127 C30.665375,49.9269299 34.6831875,51.8298089 39.7665937,51.7152611 Z" id="Path" fill="#542F0F"></path>
                        <g id="Clipped" transform="translate(30.468750, 42.394904)">
                            <mask id="mask-14" fill="white">
                                <use xlink:href="#path-13"></use>
                            </mask>
                            <g id="SVGID_13_"></g>
                            <g id="Group" mask="url(#mask-14)" fill="#C3762A">
                                <g transform="translate(-8.937500, -42.802548)" id="Path">
                                    <path d="M30.2424688,2.69615287 C30.1872188,3.52611465 26.6918438,23.6221146 26.6918438,23.6221146 C26.6918438,23.6221146 24.142625,0.385630573 25.3625938,0.325299363 C26.583375,0.26456051 30.2424688,2.69615287 30.2424688,2.69615287 Z"></path>
                                    <path d="M21.1128125,0.681171975 C21.1733438,1.90614013 18.239,26.676586 18.239,26.676586 C18.239,26.676586 12.1590625,0.285350318 13.2157188,0.101503185 C14.2719688,-0.0815286624 21.1128125,0.681171975 21.1128125,0.681171975 Z"></path>
                                    <path d="M7.81909375,0.625324841 C7.74759375,1.54578344 10.5685938,22.2173758 10.5685938,22.2173758 C10.5685938,22.2173758 -0.3891875,3.35042038 0.38025,3.20896815 C1.15009375,3.06670064 7.81909375,0.625324841 7.81909375,0.625324841 Z"></path>
                                </g>
                            </g>
                        </g>
                        <path d="M38.4434375,38.7383439 C40.6550625,41.4063694 39.3254063,46.1566369 35.4839063,49.3472611 C31.6424063,52.5346242 26.741,52.9524586 24.535875,50.2775032 C22.3335938,47.6062166 23.66325,42.855949 27.50475,39.668586 C31.3458438,36.4783694 36.2411563,36.0637962 38.4434375,38.7383439 Z" id="Path" fill="#FFFFFF"></path>
                        <g id="Clipped" transform="translate(23.156250, 36.687898)">
                            <mask id="mask-16" fill="white">
                                <use xlink:href="#path-15"></use>
                            </mask>
                            <g id="SVGID_15_"></g>
                            <g id="Group" mask="url(#mask-16)" fill="#C3762A">
                                <g transform="translate(-1.625000, -37.095541)" id="Path">
                                    <path d="M30.2424688,2.69615287 C30.1872188,3.52611465 26.6918438,23.6221146 26.6918438,23.6221146 C26.6918438,23.6221146 24.142625,0.385630573 25.3625938,0.325299363 C26.583375,0.26456051 30.2424688,2.69615287 30.2424688,2.69615287 Z"></path>
                                    <path d="M21.1128125,0.681171975 C21.1733438,1.90614013 18.239,26.676586 18.239,26.676586 C18.239,26.676586 12.1590625,0.285350318 13.2157188,0.101503185 C14.2719688,-0.0815286624 21.1128125,0.681171975 21.1128125,0.681171975 Z"></path>
                                    <path d="M7.81909375,0.625324841 C7.74759375,1.54578344 10.5685938,22.2173758 10.5685938,22.2173758 C10.5685938,22.2173758 -0.3891875,3.35042038 0.38025,3.20896815 C1.15009375,3.06670064 7.81909375,0.625324841 7.81909375,0.625324841 Z"></path>
                                </g>
                            </g>
                        </g>
                        <path d="M40.1565937,38.6996178 C38.0696875,41.4646624 39.6101875,46.1501146 43.5902187,49.1646369 C47.57025,52.1758981 52.4850625,52.3727898 54.5683125,49.6016306 C56.6466875,46.8337325 55.108625,42.1482803 51.1294063,39.1370191 C47.1489687,36.1224968 42.237,35.9288662 40.1565937,38.6996178 Z" id="Path" fill="#FFFFFF"></path>
                        <g id="Clipped" transform="translate(39.000000, 36.687898)">
                            <mask id="mask-18" fill="white">
                                <use xlink:href="#path-17"></use>
                            </mask>
                            <g id="SVGID_17_"></g>
                            <g id="Group" mask="url(#mask-18)" fill="#C3762A">
                                <g transform="translate(-17.468750, -37.095541)" id="Path">
                                    <path d="M30.2424688,2.69615287 C30.1872188,3.52611465 26.6918438,23.6221146 26.6918438,23.6221146 C26.6918438,23.6221146 24.142625,0.385630573 25.3625938,0.325299363 C26.583375,0.26456051 30.2424688,2.69615287 30.2424688,2.69615287 Z"></path>
                                    <path d="M21.1128125,0.681171975 C21.1733438,1.90614013 18.239,26.676586 18.239,26.676586 C18.239,26.676586 12.1590625,0.285350318 13.2157188,0.101503185 C14.2719688,-0.0815286624 21.1128125,0.681171975 21.1128125,0.681171975 Z"></path>
                                    <path d="M7.81909375,0.625324841 C7.74759375,1.54578344 10.5685938,22.2173758 10.5685938,22.2173758 C10.5685938,22.2173758 -0.3891875,3.35042038 0.38025,3.20896815 C1.15009375,3.06670064 7.81909375,0.625324841 7.81909375,0.625324841 Z"></path>
                                </g>
                            </g>
                        </g>
                        <path d="M36.3699375,38.1615287 L37.9002813,40.1638726 C38.7798125,41.3117962 40.1679688,41.2804076 40.9983438,40.0941656 L42.4344375,38.0249682 C43.2676562,36.8293503 42.7687813,35.8958471 41.3148125,35.9284586 L37.39775,36.0169172 C35.9474375,36.0499363 35.4904063,37.0046369 36.3699375,38.1615287 Z" id="Path" fill="#703517"></path>
                        <g id="Clipped" transform="translate(35.750000, 35.872611)">
                            <mask id="mask-20" fill="white">
                                <use xlink:href="#path-19"></use>
                            </mask>
                            <g id="SVGID_19_"></g>
                            <g id="Group" mask="url(#mask-20)" fill="#C3762A">
                                <g transform="translate(-14.218750, -36.280255)" id="Path">
                                    <path d="M30.2424688,2.69615287 C30.1872188,3.52611465 26.6918438,23.6221146 26.6918438,23.6221146 C26.6918438,23.6221146 24.142625,0.385630573 25.3625938,0.325299363 C26.583375,0.26456051 30.2424688,2.69615287 30.2424688,2.69615287 Z"></path>
                                    <path d="M21.1128125,0.681171975 C21.1733438,1.90614013 18.239,26.676586 18.239,26.676586 C18.239,26.676586 12.1590625,0.285350318 13.2157188,0.101503185 C14.2719688,-0.0815286624 21.1128125,0.681171975 21.1128125,0.681171975 Z"></path>
                                    <path d="M7.81909375,0.625324841 C7.74759375,1.54578344 10.5685938,22.2173758 10.5685938,22.2173758 C10.5685938,22.2173758 -0.3891875,3.35042038 0.38025,3.20896815 C1.15009375,3.06670064 7.81909375,0.625324841 7.81909375,0.625324841 Z"></path>
                                </g>
                            </g>
                        </g>
                        <path d="M43.5849375,34.6219618 C44.2349375,34.7699363 44.9401875,34.5012994 45.3188125,33.9073631 C46.3242813,32.3134777 48.0849688,31.1590318 50.1483125,30.731414 C52.2108438,30.3090955 54.2827188,30.6751592 55.8345938,31.7366624 C56.5755938,32.2454013 57.5855313,32.0570701 58.0909063,31.3139363 C58.5975,30.5708025 58.4081875,29.5578089 57.6688125,29.0490701 C55.394625,27.4886115 52.4155938,26.938293 49.4970938,27.5387516 C46.5737188,28.1388025 44.05375,29.8223694 42.5758125,32.156535 C42.0980625,32.9171975 42.319875,33.9269299 43.0783438,34.4059108 C43.238,34.5094522 43.4106563,34.5820127 43.5849375,34.6219618 Z" id="Path" fill="#703517"></path>
                        <g id="Clipped" transform="translate(42.250000, 26.904459)">
                            <mask id="mask-22" fill="white">
                                <use xlink:href="#path-21"></use>
                            </mask>
                            <g id="SVGID_21_"></g>
                            <g id="Group" mask="url(#mask-22)" fill="#C3762A">
                                <g transform="translate(-20.718750, -27.312102)" id="Path">
                                    <path d="M30.2424688,2.69615287 C30.1872188,3.52611465 26.6918438,23.6221146 26.6918438,23.6221146 C26.6918438,23.6221146 24.142625,0.385630573 25.3625938,0.325299363 C26.583375,0.26456051 30.2424688,2.69615287 30.2424688,2.69615287 Z"></path>
                                    <path d="M21.1128125,0.681171975 C21.1733438,1.90614013 18.239,26.676586 18.239,26.676586 C18.239,26.676586 12.1590625,0.285350318 13.2157188,0.101503185 C14.2719688,-0.0815286624 21.1128125,0.681171975 21.1128125,0.681171975 Z"></path>
                                    <path d="M7.81909375,0.625324841 C7.74759375,1.54578344 10.5685938,22.2173758 10.5685938,22.2173758 C10.5685938,22.2173758 -0.3891875,3.35042038 0.38025,3.20896815 C1.15009375,3.06670064 7.81909375,0.625324841 7.81909375,0.625324841 Z"></path>
                                </g>
                            </g>
                        </g>
                        <path d="M33.47175,34.8494268 C32.8290625,35.0263439 32.1124375,34.7899108 31.7074062,34.2135032 C30.6316562,32.6660892 28.821,31.5923567 26.741,31.2576815 C24.6618125,30.9287134 22.6078125,31.3877197 21.1050937,32.517707 C20.3876562,33.059465 19.3704062,32.9167898 18.832125,32.1968917 C18.2930312,31.4774013 18.4368438,30.4566624 19.1526562,29.9153121 C21.3545313,28.2541656 24.3059375,27.5705478 27.2488125,28.0393376 C30.19575,28.5069045 32.7884375,30.0759236 34.3691562,32.3407898 C34.8802187,33.0794395 34.7039062,34.0977325 33.9677812,34.6109554 C33.813,34.7214268 33.644,34.8021401 33.47175,34.8494268 Z" id="Path" fill="#703517"></path>
                        <g id="Clipped" transform="translate(18.281250, 27.719745)">
                            <mask id="mask-24" fill="white">
                                <use xlink:href="#path-23"></use>
                            </mask>
                            <g id="SVGID_23_"></g>
                            <g id="Group" mask="url(#mask-24)" fill="#C3762A">
                                <g transform="translate(3.250000, -28.127389)" id="Path">
                                    <path d="M30.2424688,2.69615287 C30.1872188,3.52611465 26.6918438,23.6221146 26.6918438,23.6221146 C26.6918438,23.6221146 24.142625,0.385630573 25.3625938,0.325299363 C26.583375,0.26456051 30.2424688,2.69615287 30.2424688,2.69615287 Z"></path>
                                    <path d="M21.1128125,0.681171975 C21.1733438,1.90614013 18.239,26.676586 18.239,26.676586 C18.239,26.676586 12.1590625,0.285350318 13.2157188,0.101503185 C14.2719688,-0.0815286624 21.1128125,0.681171975 21.1128125,0.681171975 Z"></path>
                                    <path d="M7.81909375,0.625324841 C7.74759375,1.54578344 10.5685938,22.2173758 10.5685938,22.2173758 C10.5685938,22.2173758 -0.3891875,3.35042038 0.38025,3.20896815 C1.15009375,3.06670064 7.81909375,0.625324841 7.81909375,0.625324841 Z"></path>
                                </g>
                            </g>
                        </g>
                        <g id="Group" transform="translate(10.968750, 39.133758)">
                            <g transform="translate(0.000000, 0.815287)">
                                <path d="M0.7320625,7.94945223 C0.81046875,7.94782166 0.8880625,7.93029299 0.962,7.89401274 C5.78703125,5.60428025 11.3372187,4.82975796 16.599375,5.73105732 C16.91625,5.77712102 17.2059062,5.57329936 17.2615625,5.26104459 C17.3139687,4.94919745 17.1039375,4.65243312 16.7931562,4.59984713 C11.301875,3.66267516 5.50509375,4.46450955 0.476125,6.85941401 C0.1885,6.99475159 0.06784375,7.33635669 0.2023125,7.62211465 C0.30103125,7.83327389 0.5135,7.95393631 0.7320625,7.94945223 Z" id="Path" fill="#703517"></path>
                                <g id="Clipped" transform="translate(0.000000, 4.076433)">
                                    <mask id="mask-26" fill="white">
                                        <use xlink:href="#path-25"></use>
                                    </mask>
                                    <g id="SVGID_25_"></g>
                                    <g id="Group" mask="url(#mask-26)" fill="#C3762A">
                                        <g transform="translate(10.562500, -44.433121)" id="Path">
                                            <path d="M30.2424688,2.69615287 C30.1872188,3.52611465 26.6918438,23.6221146 26.6918438,23.6221146 C26.6918438,23.6221146 24.142625,0.385630573 25.3625938,0.325299363 C26.583375,0.26456051 30.2424688,2.69615287 30.2424688,2.69615287 Z"></path>
                                            <path d="M21.1128125,0.681171975 C21.1733438,1.90614013 18.239,26.676586 18.239,26.676586 C18.239,26.676586 12.1590625,0.285350318 13.2157188,0.101503185 C14.2719688,-0.0815286624 21.1128125,0.681171975 21.1128125,0.681171975 Z"></path>
                                            <path d="M7.81909375,0.625324841 C7.74759375,1.54578344 10.5685938,22.2173758 10.5685938,22.2173758 C10.5685938,22.2173758 -0.3891875,3.35042038 0.38025,3.20896815 C1.15009375,3.06670064 7.81909375,0.625324841 7.81909375,0.625324841 Z"></path>
                                        </g>
                                    </g>
                                </g>
                                <path d="M4.63775,12.0417834 C4.73159375,12.0397452 4.82828125,12.0156943 4.91440625,11.9635159 C8.88184375,9.6489172 13.5971875,8.47286624 18.1800938,8.65182166 C18.4929063,8.64774522 18.7598125,8.41905732 18.7748438,8.10191083 C18.786625,7.78476433 18.539625,7.51694268 18.2235625,7.50512102 C13.4184375,7.31842038 8.4914375,8.54664968 4.33875,10.9717197 C4.06696875,11.1319236 3.97475,11.4853503 4.13115625,11.7548025 C4.23840625,11.9435414 4.437875,12.0458599 4.63775,12.0417834 Z" id="Path" fill="#703517"></path>
                                <g id="Clipped" transform="translate(3.656250, 7.337580)">
                                    <mask id="mask-28" fill="white">
                                        <use xlink:href="#path-27"></use>
                                    </mask>
                                    <g id="SVGID_27_"></g>
                                    <g id="Group" mask="url(#mask-28)" fill="#C3762A">
                                        <g transform="translate(6.906250, -47.694268)" id="Path">
                                            <path d="M30.2424688,2.69615287 C30.1872188,3.52611465 26.6918438,23.6221146 26.6918438,23.6221146 C26.6918438,23.6221146 24.142625,0.385630573 25.3625938,0.325299363 C26.583375,0.26456051 30.2424688,2.69615287 30.2424688,2.69615287 Z"></path>
                                            <path d="M21.1128125,0.681171975 C21.1733438,1.90614013 18.239,26.676586 18.239,26.676586 C18.239,26.676586 12.1590625,0.285350318 13.2157188,0.101503185 C14.2719688,-0.0815286624 21.1128125,0.681171975 21.1128125,0.681171975 Z"></path>
                                            <path d="M7.81909375,0.625324841 C7.74759375,1.54578344 10.5685938,22.2173758 10.5685938,22.2173758 C10.5685938,22.2173758 -0.3891875,3.35042038 0.38025,3.20896815 C1.15009375,3.06670064 7.81909375,0.625324841 7.81909375,0.625324841 Z"></path>
                                        </g>
                                    </g>
                                </g>
                                <path d="M19.0177812,2.96071338 C19.2460937,2.95582166 19.4585625,2.81273885 19.5410312,2.58201274 C19.6470625,2.28443312 19.4959375,1.95546497 19.199375,1.84580892 C14.1919375,0.0281273885 8.7904375,-0.380738854 3.575,0.672203822 C3.26665625,0.735388535 3.0639375,1.03541401 3.1273125,1.34766879 C3.19028125,1.65707006 3.4799375,1.86048408 3.80046875,1.79689172 C8.81075,0.786343949 14.0018125,1.17808917 18.80775,2.92810191 C18.8768125,2.95133758 18.9454687,2.96234395 19.0177812,2.96071338 Z" id="Path" fill="#703517"></path>
                                <g id="Clipped" transform="translate(2.843750, 0.000000)">
                                    <mask id="mask-30" fill="white">
                                        <use xlink:href="#path-29"></use>
                                    </mask>
                                    <g id="SVGID_29_"></g>
                                    <g id="Group" mask="url(#mask-30)" fill="#C3762A">
                                        <g transform="translate(7.718750, -40.356688)" id="Path">
                                            <path d="M30.2424688,2.69615287 C30.1872188,3.52611465 26.6918438,23.6221146 26.6918438,23.6221146 C26.6918438,23.6221146 24.142625,0.385630573 25.3625938,0.325299363 C26.583375,0.26456051 30.2424688,2.69615287 30.2424688,2.69615287 Z"></path>
                                            <path d="M21.1128125,0.681171975 C21.1733438,1.90614013 18.239,26.676586 18.239,26.676586 C18.239,26.676586 12.1590625,0.285350318 13.2157188,0.101503185 C14.2719688,-0.0815286624 21.1128125,0.681171975 21.1128125,0.681171975 Z"></path>
                                            <path d="M7.81909375,0.625324841 C7.74759375,1.54578344 10.5685938,22.2173758 10.5685938,22.2173758 C10.5685938,22.2173758 -0.3891875,3.35042038 0.38025,3.20896815 C1.15009375,3.06670064 7.81909375,0.625324841 7.81909375,0.625324841 Z"></path>
                                        </g>
                                    </g>
                                </g>
                            </g>
                            <g transform="translate(35.750000, 0.000000)">
                                <path d="M19.19775,7.54425478 C19.11975,7.54629299 19.0409375,7.53202548 18.965375,7.49941401 C14.0428438,5.42899363 8.4638125,4.90476433 3.24715625,6.04249682 C2.9323125,6.10282803 2.634125,5.91205096 2.56465625,5.60264968 C2.4984375,5.29324841 2.69465625,4.98751592 3.003,4.92107006 C8.44675,3.73768153 14.2735937,4.27821656 19.4049375,6.44443312 C19.69825,6.56631847 19.8343437,6.90221656 19.7124687,7.19408917 C19.6235,7.40932484 19.4167187,7.53936306 19.19775,7.54425478 Z" id="Path" fill="#703517"></path>
                                <g id="Clipped" transform="translate(2.437500, 4.076433)">
                                    <mask id="mask-32" fill="white">
                                        <use xlink:href="#path-31"></use>
                                    </mask>
                                    <g id="SVGID_31_"></g>
                                    <g id="Group" mask="url(#mask-32)" fill="#C3762A">
                                        <g transform="translate(-27.625000, -43.617834)" id="Path">
                                            <path d="M30.2424688,2.69615287 C30.1872188,3.52611465 26.6918438,23.6221146 26.6918438,23.6221146 C26.6918438,23.6221146 24.142625,0.385630573 25.3625938,0.325299363 C26.583375,0.26456051 30.2424688,2.69615287 30.2424688,2.69615287 Z"></path>
                                            <path d="M21.1128125,0.681171975 C21.1733438,1.90614013 18.239,26.676586 18.239,26.676586 C18.239,26.676586 12.1590625,0.285350318 13.2157188,0.101503185 C14.2719688,-0.0815286624 21.1128125,0.681171975 21.1128125,0.681171975 Z"></path>
                                            <path d="M7.81909375,0.625324841 C7.74759375,1.54578344 10.5685938,22.2173758 10.5685938,22.2173758 C10.5685938,22.2173758 -0.3891875,3.35042038 0.38025,3.20896815 C1.15009375,3.06670064 7.81909375,0.625324841 7.81909375,0.625324841 Z"></path>
                                        </g>
                                    </g>
                                </g>
                                <path d="M15.4793438,11.8082038 C15.3855,11.810242 15.288,11.7906752 15.1994375,11.7421656 C11.1324688,9.60856051 6.3691875,8.64529936 1.798875,9.03052229 C1.48646875,9.04071338 1.20940625,8.82425478 1.1805625,8.50792357 C1.1545625,8.19159236 1.389375,7.91317197 1.704625,7.8870828 C6.49675,7.48392357 11.4737188,8.48957962 15.7304063,10.7255032 C16.0090938,10.8730701 16.11675,11.2220127 15.9729375,11.4983949 C15.8738125,11.6928408 15.6792188,11.8037197 15.4793438,11.8082038 Z" id="Path" fill="#703517"></path>
                                <g id="Clipped" transform="translate(0.812500, 7.745223)">
                                    <mask id="mask-34" fill="white">
                                        <use xlink:href="#path-33"></use>
                                    </mask>
                                    <g id="SVGID_33_"></g>
                                    <g id="Group" mask="url(#mask-34)" fill="#C3762A">
                                        <g transform="translate(-26.000000, -47.286624)" id="Path">
                                            <path d="M30.2424688,2.69615287 C30.1872188,3.52611465 26.6918438,23.6221146 26.6918438,23.6221146 C26.6918438,23.6221146 24.142625,0.385630573 25.3625938,0.325299363 C26.583375,0.26456051 30.2424688,2.69615287 30.2424688,2.69615287 Z"></path>
                                            <path d="M21.1128125,0.681171975 C21.1733438,1.90614013 18.239,26.676586 18.239,26.676586 C18.239,26.676586 12.1590625,0.285350318 13.2157188,0.101503185 C14.2719688,-0.0815286624 21.1128125,0.681171975 21.1128125,0.681171975 Z"></path>
                                            <path d="M7.81909375,0.625324841 C7.74759375,1.54578344 10.5685938,22.2173758 10.5685938,22.2173758 C10.5685938,22.2173758 -0.3891875,3.35042038 0.38025,3.20896815 C1.15009375,3.06670064 7.81909375,0.625324841 7.81909375,0.625324841 Z"></path>
                                        </g>
                                    </g>
                                </g>
                                <path d="M0.70809375,3.38343949 C0.47978125,3.38873885 0.26121875,3.25543949 0.1681875,3.02838217 C0.04915625,2.73610191 0.18565625,2.40020382 0.4769375,2.27750318 C5.39825,0.236433121 10.7757812,-0.414980892 16.0330625,0.401936306 C16.3438437,0.451261146 16.5599687,0.741503185 16.5104062,1.05661146 C16.4608437,1.36805096 16.1813437,1.5849172 15.8579688,1.53559236 C10.807875,0.751694268 5.63915625,1.37661146 0.9165,3.34063694 C0.84865625,3.3675414 0.78,3.38180892 0.70809375,3.38343949 Z" id="Path" fill="#703517"></path>
                                <g id="Clipped">
                                    <mask id="mask-36" fill="white">
                                        <use xlink:href="#path-35"></use>
                                    </mask>
                                    <g id="SVGID_35_"></g>
                                    <g id="Group" mask="url(#mask-36)" fill="#C3762A">
                                        <g transform="translate(-25.187500, -39.541401)" id="Path">
                                            <path d="M30.2424688,2.69615287 C30.1872188,3.52611465 26.6918438,23.6221146 26.6918438,23.6221146 C26.6918438,23.6221146 24.142625,0.385630573 25.3625938,0.325299363 C26.583375,0.26456051 30.2424688,2.69615287 30.2424688,2.69615287 Z"></path>
                                            <path d="M21.1128125,0.681171975 C21.1733438,1.90614013 18.239,26.676586 18.239,26.676586 C18.239,26.676586 12.1590625,0.285350318 13.2157188,0.101503185 C14.2719688,-0.0815286624 21.1128125,0.681171975 21.1128125,0.681171975 Z"></path>
                                            <path d="M7.81909375,0.625324841 C7.74759375,1.54578344 10.5685938,22.2173758 10.5685938,22.2173758 C10.5685938,22.2173758 -0.3891875,3.35042038 0.38025,3.20896815 C1.15009375,3.06670064 7.81909375,0.625324841 7.81909375,0.625324841 Z"></path>
                                        </g>
                                    </g>
                                </g>
                            </g>
                        </g>
                        <path d="M6.31921875,27.9023694 C0.52040625,30.2243057 0.0966875,45.3433885 0.1096875,45.3160764 C0.31525,44.8794904 2.01459375,43.9056306 2.01459375,43.9056306 C1.4885,45.0237962 1.75134375,47.7117962 4.0698125,52.4241529 C4.17746875,50.9203567 4.57234375,49.6917197 5.75575,49.2192611 C6.90584375,52.4172229 9.91696875,57.2261911 12.0083437,57.7875159 C12.0083437,57.7875159 10.9126875,53.5064459 12.0075312,52.0540127 C13.1027812,50.6015796 14.7342813,51.3924076 14.7342813,51.3924076 L6.31921875,27.9023694 Z" id="Path" fill="#F9A654"></path>
                        <g id="Clipped" transform="translate(0.000000, 27.719745)">
                            <mask id="mask-38" fill="white">
                                <use xlink:href="#path-37"></use>
                            </mask>
                            <g id="SVGID_37_"></g>
                            <g id="Group" mask="url(#mask-38)" fill="#C3762A">
                                <g transform="translate(21.531250, -28.127389)" id="Path">
                                    <path d="M30.2424688,2.69615287 C30.1872188,3.52611465 26.6918438,23.6221146 26.6918438,23.6221146 C26.6918438,23.6221146 24.142625,0.385630573 25.3625938,0.325299363 C26.583375,0.26456051 30.2424688,2.69615287 30.2424688,2.69615287 Z"></path>
                                    <path d="M21.1128125,0.681171975 C21.1733438,1.90614013 18.239,26.676586 18.239,26.676586 C18.239,26.676586 12.1590625,0.285350318 13.2157188,0.101503185 C14.2719688,-0.0815286624 21.1128125,0.681171975 21.1128125,0.681171975 Z"></path>
                                    <path d="M7.81909375,0.625324841 C7.74759375,1.54578344 10.5685938,22.2173758 10.5685938,22.2173758 C10.5685938,22.2173758 -0.3891875,3.35042038 0.38025,3.20896815 C1.15009375,3.06670064 7.81909375,0.625324841 7.81909375,0.625324841 Z"></path>
                                </g>
                            </g>
                        </g>
                    </g>
                </g>
                <path d="M75,12 C110.898509,12 140,29.90861 140,52 C140,65.5588933 129.037297,77.5421088 112.268873,84.7761193 C109.601487,98.260648 100.512293,110.335298 85,121 C94.3492063,108.936508 98.2411187,98.5102041 96.675737,89.7210884 C89.8956275,91.1973016 82.6001415,92 75,92 C39.1014913,92 10,74.09139 10,52 C10,29.90861 39.1014913,12 75,12 Z" id="Combined-Shape" fill="#FFFFFF" transform="translate(75.000000, 66.500000) scale(-1, 1) rotate(11.000000) translate(-75.000000, -66.500000) "></path>
                <path d="M45.8029412,42.377451 L45.8254902,42.377451 C46.3666694,42.2421562 46.6447712,41.9715707 46.6598039,41.5656863 C46.6598039,41.4153587 46.5959157,41.2725497 46.4681373,41.1372549 C46.3403588,41.0019601 45.863076,40.6787607 45.0362745,40.1676471 C44.3447678,39.7316972 43.841178,39.3634002 43.5254902,39.0627451 C43.0895403,38.641828 42.6911783,38.0705918 42.3303922,37.3490196 C41.8643768,36.401956 41.6313725,35.4398742 41.6313725,34.4627451 C41.6313725,33.0496661 42.1875761,31.7869337 43.3,30.6745098 C44.5326859,29.4418239 46.0058738,28.8254902 47.7196078,28.8254902 C48.7117697,28.8254902 49.6062052,29.0584944 50.4029412,29.5245098 C50.8990221,29.8251649 51.4326769,30.3813685 52.0039216,31.1931373 C52.2444456,31.5539234 52.3722221,31.8921553 52.3872549,32.2078431 C52.4022877,32.583662 52.2218973,33.0421542 51.8460784,33.5833333 L51.8686275,33.6058824 C51.3875793,34.2823563 50.8839896,34.6205882 50.3578431,34.6205882 C50.1774501,34.6205882 49.9294133,34.5830069 49.6137255,34.5078431 C49.1326773,34.3875811 48.8545755,33.9666703 48.7794118,33.245098 C48.7493463,32.9594757 48.5313746,32.8166667 48.1254902,32.8166667 C47.9150316,32.8166667 47.727125,32.8692805 47.5617647,32.9745098 C47.3964044,33.2751649 47.3137255,33.5758155 47.3137255,33.8764706 C47.3137255,34.3875843 47.554246,34.8160113 48.0352941,35.1617647 C49.8091592,36.4245161 50.85392,37.2062076 51.1696078,37.5068627 C52.2970645,38.5741883 52.8983656,39.6941118 52.9735294,40.8666667 C52.9885622,41.152289 53.011111,41.5356185 53.0411765,42.0166667 C53.071242,43.955892 51.906221,45.4666613 49.5460784,46.5490196 C48.6591459,46.954904 47.8173242,47.1578431 47.0205882,47.1578431 C46.9003262,47.1578431 46.7349684,47.1428106 46.5245098,47.1127451 L46.4794118,47.0901961 C43.5931228,46.6241807 42.037256,45.5343223 41.8117647,43.8205882 C41.7516337,43.4297366 41.7102942,43.1553929 41.6877451,42.997549 C41.665196,42.8397051 41.6539216,42.7908494 41.6539216,42.8509804 C41.6539216,42.445096 41.7741818,42.0918316 42.0147059,41.7911765 C42.25523,41.4905214 42.5258155,41.3401961 42.8264706,41.3401961 C42.9617654,41.3401961 43.3601274,41.5168283 44.0215686,41.870098 C44.6830098,42.2233678 45.141502,42.4 45.3970588,42.4 C45.5022881,42.4 45.6300646,42.3849675 45.7803922,42.354902 L45.8029412,42.377451 Z M65.6235294,31.6666667 L65.6009804,31.6892157 C66.3977164,32.9219016 66.7960784,34.1846341 66.7960784,35.477451 C66.7960784,36.8754972 66.3375863,38.1833272 65.4205882,39.4009804 C64.6539177,40.4232077 62.9702744,41.1372529 60.3696078,41.5431373 C60.3395423,41.8287596 60.3696074,42.2872517 60.4598039,42.9186275 C60.580066,43.5951014 60.6401961,43.9784309 60.6401961,44.0686275 C60.6401961,44.6098066 60.4898708,45.1960753 60.1892157,45.827451 C60.0388881,46.1431388 59.7269632,46.4062081 59.2534314,46.6166667 C58.7798996,46.8271252 58.2500029,46.9323529 57.6637255,46.9323529 C56.7918257,46.9323529 56.0965712,46.6955906 55.5779412,46.2220588 C55.0593111,45.748527 54.7774512,45.0908539 54.7323529,44.2490196 C54.3865996,42.7758096 54.2212418,41.2274591 54.2362745,39.6039216 L54.2362745,34.7784314 C54.2362745,34.6431366 54.2663396,34.086933 54.3264706,33.1098039 C54.3866016,32.2228714 54.5369269,31.4787612 54.777451,30.877451 C55.0931388,30.0957477 55.5441147,29.6297393 56.1303922,29.4794118 C57.4833401,29.1336584 58.7084912,28.9607843 59.8058824,28.9607843 C62.46668,28.9607843 64.39836,29.8627361 65.6009804,31.6666667 L65.6235294,31.6666667 Z M61.2715686,35.7480392 C61.4519617,35.3872531 61.5421569,35.0415049 61.5421569,34.7107843 C61.5421569,33.86895 60.9934695,33.4029416 59.8960784,33.3127451 C59.8209147,33.9441208 59.7833333,34.4251617 59.7833333,34.7558824 C59.7833333,35.2218978 59.7908496,35.5676459 59.8058824,35.7931373 C59.8359479,36.1388906 59.8735292,36.6424804 59.9186275,37.3039216 C60.0539222,37.1836595 60.2267963,37.0107854 60.4372549,36.7852941 C60.8281065,36.3944425 61.0986921,36.041178 61.2490196,35.7254902 L61.2715686,35.7480392 Z M77.3490196,36.0411765 C77.4091506,36.2666678 77.4316994,36.499672 77.4166667,36.7401961 C77.4166667,37.5369321 77.0934673,38.2058796 76.4470588,38.7470588 C75.8607814,39.2581725 75.2294151,39.4761442 74.5529412,39.4009804 C74.4326791,39.3558821 74.2071912,39.3483659 73.8764706,39.3784314 C73.9065361,39.5588244 73.8539222,40.0398654 73.7186275,40.8215686 C73.7186275,41.1823547 73.876469,41.4529403 74.1921569,41.6333333 C74.8084998,41.467973 75.3120895,41.467973 75.7029412,41.6333333 C76.3192841,41.8738574 76.657516,42.2797357 76.7176471,42.8509804 C76.7928108,43.4973889 76.6049042,44.155062 76.1539216,44.8240196 C75.7029389,45.4929772 75.079089,46.0529389 74.2823529,46.5039216 C73.5758135,46.909806 72.7415081,47.1127451 71.7794118,47.1127451 C70.9375775,47.1127451 70.1784348,46.9549035 69.5019608,46.6392157 C69.2163384,46.5039209 68.7879114,46.0830101 68.2166667,45.3764706 C67.6003237,44.3542433 67.2846406,42.1970753 67.2696078,38.904902 C67.2545751,37.0107748 67.4124166,34.8460906 67.7431373,32.4107843 C67.9385631,30.9977054 68.3444414,30.0807211 68.9607843,29.6598039 L72.7264706,29.2764706 C73.372879,29.1411758 73.9892128,29.0735294 74.5754902,29.0735294 C75.7480451,29.0735294 76.4395414,29.3666637 76.65,29.9529412 C76.7401965,30.1934653 76.7852941,30.4640508 76.7852941,30.7647059 C76.7852941,31.4111143 76.5447736,31.9372529 76.0637255,32.3431373 C75.5826773,32.7490216 74.9137298,32.9519608 74.0568627,32.9519608 C73.8464042,32.9519608 73.6810464,32.9444445 73.5607843,32.9294118 C73.455555,33.1549031 73.3954249,33.5156838 73.3803922,34.0117647 C73.3503266,34.6431404 73.3277779,35.0039211 73.3127451,35.0941176 C73.3578434,35.3045762 73.5156849,35.439869 73.7862745,35.5 C74.2222244,35.1542466 74.7709117,34.9813725 75.4323529,34.9813725 C76.1990234,34.9813725 76.8379059,35.334637 77.3490196,36.0411765 Z M91.8705882,45.0156863 L91.8705882,45.0382353 C91.7352934,45.7598075 91.2918338,46.2107834 90.5401961,46.3911765 C90.1643772,46.481373 89.7735314,46.5264706 89.3676471,46.5264706 C88.6310421,46.5264706 88.0297409,46.3535965 87.5637255,46.0078431 C87.2330049,45.5718932 87.037582,45.2862752 86.977451,45.1509804 C86.7820252,44.7601288 86.6843137,44.256539 86.6843137,43.6401961 C86.0830035,43.6101306 85.3990234,43.6401956 84.6323529,43.7303922 C84.6624185,43.865687 84.6924835,44.0686261 84.722549,44.3392157 C84.722549,44.9555586 84.5496749,45.5944411 84.2039216,46.2558824 C83.7679717,46.8722253 83.1290892,47.1803922 82.2872549,47.1803922 C81.8813705,47.1803922 81.3777808,47.1052295 80.7764706,46.954902 L80.7313725,46.9098039 C79.4535884,46.2784282 78.8147059,44.7075289 78.8147059,42.1970588 C78.8147059,42.0316985 78.8297384,41.6408528 78.8598039,41.0245098 C78.980066,38.6643673 79.1980376,36.8153662 79.5137255,35.477451 C79.9647081,33.5833239 80.7614322,31.884648 81.9039216,30.3813725 C82.7908541,29.2238504 84.0761354,28.645098 85.7598039,28.645098 C87.5637345,28.645098 88.9241784,29.2088179 89.8411765,30.3362745 C90.3823556,30.9977157 90.7656851,31.771891 90.9911765,32.6588235 C91.817978,35.8307348 92.2313725,38.619269 92.2313725,41.0245098 C92.2313725,42.4375888 92.1111123,43.7679676 91.8705882,45.0156863 Z M86.1656863,39.1078431 C86.2709156,37.89019 86.1957529,35.988575 85.9401961,33.4029412 C85.8349668,33.2977119 85.6771252,33.3352932 85.4666667,33.5156863 C85.2712409,34.7934704 85.1284318,35.830715 85.0382353,36.627451 C84.8879077,38.0254972 84.8352939,38.8222212 84.8803922,39.0176471 C84.9555559,39.1830074 85.0833324,39.2656863 85.2637255,39.2656863 C85.3238565,39.2656863 85.4779399,39.2393793 85.7259804,39.1867647 C85.9740208,39.1341501 86.120588,39.1078431 86.1656863,39.1078431 Z M95.2529412,29.772549 L95.2754902,29.772549 C95.7415056,29.1411733 96.4555507,28.8254902 97.4176471,28.8254902 C98.5751692,28.8254902 99.3343119,29.2539173 99.695098,30.1107843 C99.7251635,30.5016359 99.7401961,30.8173191 99.7401961,31.0578431 C99.7401961,31.3584982 99.710131,31.9447669 99.65,32.8166667 C99.589869,33.6885665 99.5598039,34.2071887 99.5598039,34.372549 C99.6199349,34.5078438 99.7176464,34.5754902 99.8529412,34.5754902 C99.9732032,34.5754902 100.055882,34.5153601 100.10098,34.395098 C100.085948,34.3800653 100.078431,34.3274514 100.078431,34.2372549 C100.078431,33.5607809 100.349017,32.5836665 100.890196,31.3058824 C101.536605,29.7725414 102.258166,28.8931384 103.054902,28.6676471 C104.753603,28.5624178 105.896076,29.0359425 106.482353,30.0882353 C106.692812,30.4640542 106.798039,30.9075138 106.798039,31.4186275 C106.798039,32.8016409 106.309482,34.2447637 105.332353,35.7480392 C105.001632,36.2441201 104.513075,36.9882303 103.866667,37.9803922 C104.077125,38.3261455 104.445422,38.9575118 104.971569,39.8745098 C105.978763,41.6934731 106.482353,43.1215634 106.482353,44.1588235 C106.482353,44.9555595 106.256865,45.6545722 105.805882,46.2558824 C105.475162,46.706865 104.911442,46.9699343 104.114706,47.045098 C103.393134,47.1202618 102.528763,46.3160215 101.521569,44.6323529 C100.784964,43.4146998 100.296406,42.4000041 100.055882,41.5882353 C99.9957513,41.5281043 99.845426,41.4604579 99.604902,41.3852941 L99.4470588,41.5431373 C99.6124191,42.5052336 99.695098,43.2643763 99.695098,43.8205882 C99.695098,44.7826845 99.5147077,45.5418273 99.1539216,46.0980392 C98.5676441,46.5490219 97.8460827,46.7745098 96.9892157,46.7745098 C96.2826762,46.7745098 95.7039238,46.6016357 95.2529412,46.2558824 C94.1856156,45.4441136 93.659477,43.099039 93.6745098,39.2205882 C93.6745098,37.1009698 93.8361095,35.0527877 94.1593137,33.0759804 C94.482518,31.0991731 94.8470568,29.9980403 95.2529412,29.772549 Z M44.6980673,67.7437536 C44.69911,67.8303523 44.7291657,67.0393047 44.7882353,65.3705882 L44.9009804,62.4843137 C44.9611114,61.5823484 45.0588229,60.8006569 45.1941176,60.1392157 C45.1039211,60.1692812 44.9686284,60.1843137 44.7882353,60.1843137 C44.2771216,60.1843137 43.7660156,60.1016348 43.254902,59.9362745 C42.5633952,59.7107832 42.0898706,59.3800675 41.8343137,58.9441176 C41.4735276,58.3277747 41.2931373,57.7490223 41.2931373,57.2078431 C41.2931373,56.3058778 41.7892107,55.6068652 42.7813725,55.1107843 C44.0591567,54.4643759 45.599991,54.1411765 47.4039216,54.1411765 C48.3509851,54.1411765 49.3431321,54.2313716 50.3803922,54.4117647 C50.8764731,54.5921578 51.6280995,54.8702596 52.6352941,55.2460784 C53.4771284,55.6820283 53.9732019,56.2758132 54.1235294,57.027451 L54.1460784,57.027451 C54.1911767,57.2529423 54.2137255,57.5460766 54.2137255,57.9068627 C54.1986927,58.6585005 54.0183024,59.2297366 53.672549,59.6205882 C53.5372542,59.7709158 52.9321949,59.947548 51.8573529,60.1504902 C50.782511,60.3534324 50.2300655,60.484967 50.2,60.545098 C50.1699345,60.7104583 50.3428086,62.2813577 50.7186275,65.2578431 C50.7937912,65.8591533 50.8313725,66.4604545 50.8313725,67.0617647 C50.8313725,68.4297454 50.6509822,69.5571851 50.2901961,70.4441176 C49.8392134,71.5565415 49.1777821,72.0977126 48.3058824,72.0676471 C46.8928034,72.0225488 45.9081727,71.5790892 45.3519608,70.7372549 C44.9315228,70.1065979 44.7135685,69.1084913 44.6980913,67.7429053 L44.6980673,67.7437536 Z M67.8784314,68.0313725 L67.9009804,68.0539216 C67.5101288,69.2715747 66.8223905,70.2336566 65.8377451,70.9401961 C64.8530997,71.6467356 63.7143855,72 62.4215686,72 C60.0313606,72 58.1748432,71.0980482 56.8519608,69.2941176 C55.7245042,67.7607766 55.1607843,65.896743 55.1607843,63.7019608 C55.1607843,62.6947662 55.2509795,61.7627494 55.4313725,60.9058824 C56.2581741,56.9823333 58.0094637,54.7725515 60.6852941,54.2764706 C60.9258182,54.2313723 61.1813712,54.2088235 61.4519608,54.2088235 C62.6545812,54.2088235 63.8233603,54.6071856 64.9583333,55.4039216 C66.0933063,56.2006576 66.8562072,57.1702557 67.2470588,58.3127451 C68.0888931,60.7931497 68.5098039,62.7248297 68.5098039,64.1078431 C68.5098039,65.280398 68.2918322,66.5882281 67.8558824,68.0313725 L67.8784314,68.0313725 Z M62.2862745,66.4078431 L62.2862745,66.3852941 C62.7222244,66.3101303 62.9401961,65.475825 62.9401961,63.8823529 C62.9401961,62.9653549 62.8575172,62.1197751 62.6921569,61.3455882 C62.5267966,60.5714014 62.3464062,60.1692812 62.1509804,60.1392157 C61.8202598,60.0490192 61.5196092,60.4097999 61.2490196,61.2215686 C60.97843,62.0333374 60.8431373,62.9277729 60.8431373,63.904902 C60.8431373,65.7238653 61.3241782,66.5581707 62.2862745,66.4078431 Z M89.7509804,56.7794118 L89.7735294,56.7568627 C89.8336604,57.4634022 89.8637255,58.25261 89.8637255,59.1245098 C89.8637255,62.5670107 89.3150382,65.7539069 88.2176471,68.6852941 C87.9320247,69.4519646 87.484807,70.1472191 86.8759804,70.7710784 C86.2671538,71.3949378 85.6320295,71.8045742 84.9705882,72 C84.3542453,72.0901965 83.7529441,72.1352941 83.1666667,72.1352941 C81.4980309,72.1352941 80.1000056,71.7444484 78.972549,70.9627451 C77.8901907,70.2261401 77.1310479,69.1813793 76.695098,67.8284314 C76.3643774,66.806204 76.1990196,65.3931463 76.1990196,63.5892157 C76.1990196,60.8833198 76.4620889,58.6284404 76.9882353,56.8245098 C77.1535956,56.2682979 77.5106182,55.7722244 78.0593137,55.3362745 C78.6080093,54.9003246 79.1604547,54.6522879 79.7166667,54.5921569 C80.1977148,54.5470586 80.6749976,54.671077 81.1485294,54.9642157 C81.6220612,55.2573544 81.9715675,55.6369258 82.1970588,56.1029412 C82.2421571,56.4637273 82.2647059,56.8470568 82.2647059,57.2529412 C82.2647059,57.7490221 82.1294131,58.8088154 81.8588235,60.4323529 C81.5882339,62.0558905 81.4529412,63.1006513 81.4529412,63.5666667 C81.4529412,64.0176493 81.4830062,64.4160113 81.5431373,64.7617647 C81.6333338,65.0173215 81.8813705,65.2728745 82.2872549,65.5284314 C82.7833358,65.5885624 83.1366003,65.5284323 83.3470588,65.3480392 C83.7379105,64.9271221 83.9784309,64.3709185 84.0686275,63.6794118 C84.0535947,62.6421517 84.0761435,61.3268054 84.1362745,59.7333333 C84.2866021,58.4405164 84.3843135,57.6437924 84.4294118,57.3431373 C84.5496738,56.4862702 84.6924828,55.8323552 84.8578431,55.3813725 C85.3990223,54.5094728 86.015356,54.0810457 86.7068627,54.0960784 C87.3532712,54.1111112 87.9470561,54.3591479 88.4882353,54.8401961 C89.0294145,55.3212442 89.4503253,55.967643 89.7509804,56.7794118 Z M95.3882353,67.377451 L95.4107843,67.377451 C95.9519635,67.2421562 96.2300653,66.9715707 96.245098,66.5656863 C96.245098,66.4153587 96.1812098,66.2725497 96.0534314,66.1372549 C95.925653,66.0019601 95.4483701,65.6787607 94.6215686,65.1676471 C93.9300619,64.7316972 93.4264722,64.3634002 93.1107843,64.0627451 C92.6748344,63.641828 92.2764724,63.0705918 91.9156863,62.3490196 C91.4496709,61.401956 91.2166667,60.4398742 91.2166667,59.4627451 C91.2166667,58.0496661 91.7728703,56.7869337 92.8852941,55.6745098 C94.11798,54.4418239 95.5911679,53.8254902 97.304902,53.8254902 C98.2970638,53.8254902 99.1914993,54.0584944 99.9882353,54.5245098 C100.484316,54.8251649 101.017971,55.3813685 101.589216,56.1931373 C101.82974,56.5539234 101.957516,56.8921553 101.972549,57.2078431 C101.987582,57.583662 101.807191,58.0421542 101.431373,58.5833333 L101.453922,58.6058824 C100.972873,59.2823563 100.469284,59.6205882 99.9431373,59.6205882 C99.7627442,59.6205882 99.5147075,59.5830069 99.1990196,59.5078431 C98.7179715,59.3875811 98.4398697,58.9666703 98.3647059,58.245098 C98.3346404,57.9594757 98.1166687,57.8166667 97.7107843,57.8166667 C97.5003257,57.8166667 97.3124191,57.8692805 97.1470588,57.9745098 C96.9816985,58.2751649 96.8990196,58.5758155 96.8990196,58.8764706 C96.8990196,59.3875843 97.1395401,59.8160113 97.6205882,60.1617647 C99.3944533,61.4245161 100.439214,62.2062076 100.754902,62.5068627 C101.882359,63.5741883 102.48366,64.6941118 102.558824,65.8666667 C102.573856,66.152289 102.596405,66.5356185 102.626471,67.0166667 C102.656536,68.955892 101.491515,70.4666613 99.1313725,71.5490196 C98.24444,71.954904 97.4026184,72.1578431 96.6058824,72.1578431 C96.4856203,72.1578431 96.3202625,72.1428106 96.1098039,72.1127451 L96.0647059,72.0901961 C93.1784169,71.6241807 91.6225501,70.5343223 91.3970588,68.8205882 C91.3369278,68.4297366 91.2955883,68.1553929 91.2730392,67.997549 C91.2504901,67.8397051 91.2392157,67.7908494 91.2392157,67.8509804 C91.2392157,67.445096 91.3594759,67.0918316 91.6,66.7911765 C91.8405241,66.4905214 92.1111096,66.3401961 92.4117647,66.3401961 C92.5470595,66.3401961 92.9454215,66.5168283 93.6068627,66.870098 C94.268304,67.2233678 94.7267961,67.4 94.9823529,67.4 C95.0875822,67.4 95.2153587,67.3849675 95.3656863,67.354902 L95.3882353,67.377451 Z" id="SPEAKTOUS" fill="#FA6400" fill-rule="nonzero" transform="translate(74.045588, 50.401471) rotate(-17.000000) translate(-74.045588, -50.401471) "></path>
            </g>
        </g>
    </g>
</svg>