<?xml version="1.0" encoding="UTF-8"?>
<svg width="29px" height="29px" viewBox="0 0 29 29" version="1.1" xmlns="http://www.w3.org/2000/svg" xmlns:xlink="http://www.w3.org/1999/xlink">
    <!-- Generator: Sketch 57.1 (83088) - https://sketch.com -->
    <title>telephone</title>
    <desc>Created with Sketch.</desc>
    <g id="Symbols" stroke="none" stroke-width="1" fill="none" fill-rule="evenodd">
        <g id="menu" transform="translate(-429.000000, -22.000000)" fill="#FFFFFF" fill-rule="nonzero">
            <g id="telephone" transform="translate(429.000000, 22.000000)">
                <g id="Path">
                    <path d="M22.0272341,19.1665281 C21.0806645,18.2320166 19.8989597,18.2320166 18.9584192,19.1665281 C18.2409555,19.8779626 17.5234919,20.5893971 16.8180865,21.3128898 C16.6251551,21.5118503 16.4623693,21.5540541 16.2272341,21.4214137 C15.762993,21.1681913 15.2686063,20.9632017 14.8224524,20.6858628 C12.7424108,19.3775468 11,17.6954262 9.45654805,15.8022869 C8.69085158,14.8617464 8.0095626,13.8548857 7.53326323,12.7214137 C7.43679753,12.4923077 7.45488485,12.34158 7.64178713,12.1546778 C8.35925075,11.4613306 9.05862705,10.749896 9.76403246,10.0384615 C10.7467767,9.04968815 10.7467767,7.89209979 9.75800335,6.8972973 C9.19729649,6.33056133 8.63658963,5.77588358 8.07588277,5.20914761 C7.49708859,4.63035343 6.92432352,4.04553015 6.33950023,3.47276507 C5.39293059,2.55031185 4.2112258,2.55031185 3.27068526,3.47879418 C2.54719254,4.19022869 1.85384535,4.91975052 1.11829441,5.61912682 C0.437005429,6.26424116 0.0933463856,7.05405405 0.0209971133,7.97650728 C-0.0935559013,9.47775468 0.274219567,10.8945946 0.792722685,12.2752599 C1.85384535,15.1330561 3.46964576,17.6713098 5.42910522,19.9985447 C8.07588277,23.145738 11.2351343,25.6357588 14.9309763,27.4324324 C16.5950096,28.2403326 18.3193339,28.8613306 20.1943859,28.9638254 C21.4846146,29.0361746 22.6060283,28.7106029 23.5043651,27.7037422 C24.1193339,27.0164241 24.8126811,26.3893971 25.4638246,25.7322245 C26.4284815,24.7555094 26.4345106,23.5738046 25.4758828,22.6091476 C24.3303526,21.4575884 23.1787934,20.3120582 22.0272341,19.1665281 Z"></path>
                    <path d="M20.8756749,14.3613306 L23.100415,13.9814969 C22.7507268,11.9376299 21.7860699,10.0866944 20.3209971,8.61559252 C18.7715169,7.06611227 16.8120574,6.08939709 14.6536374,5.78794179 L14.3401239,8.02474012 C16.0101863,8.25987526 17.529521,9.01351351 18.7293131,10.2133056 C19.8627851,11.3467775 20.6043651,12.7817048 20.8756749,14.3613306 Z"></path>
                    <path d="M24.354469,4.69064449 C21.7860699,2.12224532 18.5363817,0.5004158 14.9490636,0 L14.6355501,2.23679834 C17.7345106,2.67089397 20.544074,4.07567568 22.7627851,6.28835759 C24.8669431,8.39251559 26.2476083,11.0513514 26.7480241,13.9754678 L28.9727643,13.5956341 C28.387941,10.2072765 26.7902279,7.13243243 24.354469,4.69064449 Z"></path>
                </g>
            </g>
        </g>
    </g>
</svg>