<?xml version="1.0" encoding="UTF-8"?>
<svg width="34px" height="34px" viewBox="0 0 34 34" version="1.1" xmlns="http://www.w3.org/2000/svg" xmlns:xlink="http://www.w3.org/1999/xlink">
    <!-- Generator: Sketch 57.1 (83088) - https://sketch.com -->
    <title>Group</title>
    <desc>Created with Sketch.</desc>
    <g id="Symbols" stroke="none" stroke-width="1" fill="none" fill-rule="evenodd">
        <g id="menu" transform="translate(-1003.000000, -22.000000)">
            <g id="Group" transform="translate(1003.000000, 22.000000)">
                <rect id="Rectangle" stroke="#FFFFFF" stroke-width="2" x="1" y="1" width="32" height="32" rx="16"></rect>
                <g id="facebook" transform="translate(11.000000, 7.000000)" fill="#FFFFFF" fill-rule="nonzero">
                    <g id="Path">
                        <path d="M7.8195742,4.70303345 C7.84600515,4.67375181 7.96959567,4.57807924 8.4549506,4.57807924 L10.0462709,4.57749937 C10.5639632,4.57749937 10.9849388,4.16407778 10.9849388,3.65585327 L10.9849388,0.925415039 C10.9849388,0.418060303 10.5645538,0.00463867187 10.0477475,0.00376890234 L7.68402331,0 C6.22515304,0 4.98496564,0.472419748 4.09753546,1.36637877 C3.21409204,2.25627898 2.74704682,3.49857331 2.74704682,4.95874023 L2.74704682,6.43137361 L0.938815526,6.43137361 C0.421123282,6.43137361 -5.68434189e-14,6.84479524 -5.68434189e-14,7.35301971 L-5.68434189e-14,10.2936478 C-5.68434189e-14,10.8018722 0.421123282,11.2152939 0.938815526,11.2152939 L2.74704682,11.2152939 L2.74704682,18.0783539 C2.74704682,18.5865784 3.1681701,19 3.68586231,19 L6.78522337,19 C7.30291557,19 7.72403889,18.5865784 7.72403889,18.0783539 L7.72403889,11.2154388 L9.93434548,11.2154388 C10.4520377,11.2154388 10.8730133,10.8018722 10.8730133,10.2939377 L10.8741946,7.35316469 C10.8741946,7.01932527 10.689178,6.7104187 10.3912022,6.54705047 C10.2531411,6.47138215 10.0924882,6.43137361 9.92681486,6.43137361 L7.72403889,6.43137361 L7.72403889,5.2679367 C7.72403889,4.88872527 7.77601484,4.75144957 7.8195742,4.70303345 L7.8195742,4.70303345 Z"></path>
                    </g>
                </g>
            </g>
        </g>
    </g>
</svg>