<?xml version="1.0" encoding="UTF-8"?>
<svg width="33px" height="28px" viewBox="0 0 33 28" version="1.1" xmlns="http://www.w3.org/2000/svg" xmlns:xlink="http://www.w3.org/1999/xlink">
    <!-- Generator: Sketch 57.1 (83088) - https://sketch.com -->
    <title>hospital (1)</title>
    <desc>Created with Sketch.</desc>
    <g id="Page-1" stroke="none" stroke-width="1" fill="none" fill-rule="evenodd">
        <g id="Desktop-HD" transform="translate(-610.000000, -2438.000000)" fill="#3DA742">
            <g id="Search" transform="translate(-62.000000, 2115.000000)">
                <g id="hospital-(1)" transform="translate(672.000000, 323.000000)">
                    <g>
                        <path d="M0.966796875,27.9996889 L32.0332031,27.9996889 C32.5671328,27.9996889 33,27.5818044 33,27.0663556 C33,26.5509067 32.5671328,26.1330222 32.0332031,26.1330222 L31.0664062,26.1330222 L31.0664062,12.1330222 C31.0664062,11.6175733 30.6335391,11.1996889 30.0996094,11.1996889 L25.265625,11.1996889 L25.265625,0.933022222 C25.265625,0.417573333 24.8327578,0.000311111111 24.2988281,0.000311111111 L8.70117188,0.000311111111 C8.16724219,0.000311111111 7.734375,0.417573333 7.734375,0.933022222 L7.734375,11.1996889 L2.90039062,11.1996889 C2.36646094,11.1996889 1.93359375,11.6175733 1.93359375,12.1330222 L1.93359375,26.1330222 L0.966796875,26.1330222 C0.432867187,26.1330222 0,26.5509067 0,27.0663556 C0,27.5818044 0.432867188,27.9996889 0.966796875,27.9996889 Z M19.4648438,26.1330222 L13.5351562,26.1330222 L13.5351562,24.2663556 L19.4648438,24.2663556 L19.4648438,26.1330222 Z M29.1328125,13.0663556 L29.1328125,14.9330222 L28.1660156,14.9330222 C27.6320859,14.9330222 27.1992188,15.3509067 27.1992188,15.8663556 C27.1992188,16.3818044 27.6320859,16.7996889 28.1660156,16.7996889 L29.1328125,16.7996889 L29.1328125,18.6663556 L28.1660156,18.6663556 C27.6320859,18.6663556 27.1992188,19.08424 27.1992188,19.5996889 C27.1992188,20.1151378 27.6320859,20.5330222 28.1660156,20.5330222 L29.1328125,20.5330222 L29.1328125,22.3996889 L28.1660156,22.3996889 C27.6320859,22.3996889 27.1992188,22.8175733 27.1992188,23.3330222 C27.1992188,23.8484711 27.6320859,24.2663556 28.1660156,24.2663556 L29.1328125,24.2663556 L29.1328125,26.1330222 L25.265625,26.1330222 L25.265625,13.0663556 L29.1328125,13.0663556 Z M9.66796875,1.86635556 L23.3320312,1.86635556 L23.3320312,26.1330222 L21.3984375,26.1330222 L21.3984375,23.3330222 C21.3984375,22.8175733 20.9655703,22.3996889 20.4316406,22.3996889 L12.5683594,22.3996889 C12.0344297,22.3996889 11.6015625,22.8175733 11.6015625,23.3330222 L11.6015625,26.1330222 L9.66796875,26.1330222 L9.66796875,1.86635556 Z M3.8671875,24.2663556 L4.83398438,24.2663556 C5.36791406,24.2663556 5.80078125,23.8484711 5.80078125,23.3330222 C5.80078125,22.8175733 5.36791406,22.3996889 4.83398438,22.3996889 L3.8671875,22.3996889 L3.8671875,20.5330222 L4.83398438,20.5330222 C5.36791406,20.5330222 5.80078125,20.1151378 5.80078125,19.5996889 C5.80078125,19.08424 5.36791406,18.6663556 4.83398438,18.6663556 L3.8671875,18.6663556 L3.8671875,16.7996889 L4.83398438,16.7996889 C5.36791406,16.7996889 5.80078125,16.3818044 5.80078125,15.8663556 C5.80078125,15.3509067 5.36791406,14.9330222 4.83398438,14.9330222 L3.8671875,14.9330222 L3.8671875,13.0663556 L7.734375,13.0663556 L7.734375,26.1330222 L3.8671875,26.1330222 L3.8671875,24.2663556 Z" id="Shape" fill-rule="nonzero"></path>
                        <path d="M14.5664062,7.46635556 L15.5332031,7.46635556 L15.5332031,8.39968889 C15.5332031,8.91513778 15.9660703,9.33302222 16.5,9.33302222 C17.0339297,9.33302222 17.4667969,8.91513778 17.4667969,8.39968889 L17.4667969,7.46635556 L18.4335938,7.46635556 C18.9675234,7.46635556 19.4003906,7.04847111 19.4003906,6.53302222 C19.4003906,6.01757333 18.9675234,5.60031111 18.4335938,5.60031111 L17.4667969,5.60031111 L17.4667969,4.66635556 C17.4667969,4.15090667 17.0339297,3.73302222 16.5,3.73302222 C15.9660703,3.73302222 15.5332031,4.15090667 15.5332031,4.66635556 L15.5332031,5.60031111 L14.5664062,5.60031111 C14.0324766,5.60031111 13.5996094,6.01757333 13.5996094,6.53302222 C13.5996094,7.04847111 14.0324766,7.46635556 14.5664062,7.46635556 Z" id="Path" fill-rule="nonzero"></path>
                        <path d="M12.5683594,13.0663556 L20.4316406,13.0663556 C20.9655703,13.0663556 21.3984375,12.6484711 21.3984375,12.1330222 C21.3984375,11.6175733 20.9655703,11.1996889 20.4316406,11.1996889 L12.5683594,11.1996889 C12.0344297,11.1996889 11.6015625,11.6175733 11.6015625,12.1330222 C11.6015625,12.6484711 12.0344297,13.0663556 12.5683594,13.0663556 Z" id="Path" fill-rule="nonzero"></path>
                        <path d="M12.5683594,16.7996889 L20.4316406,16.7996889 C20.9655703,16.7996889 21.3984375,16.3818044 21.3984375,15.8663556 C21.3984375,15.3509067 20.9655703,14.9330222 20.4316406,14.9330222 L12.5683594,14.9330222 C12.0344297,14.9330222 11.6015625,15.3509067 11.6015625,15.8663556 C11.6015625,16.3818044 12.0344297,16.7996889 12.5683594,16.7996889 Z" id="Path" fill-rule="nonzero"></path>
                        <path d="M12.5683594,20.5330222 L20.4316406,20.5330222 C20.9655703,20.5330222 21.3984375,20.1151378 21.3984375,19.5996889 C21.3984375,19.08424 20.9655703,18.6663556 20.4316406,18.6663556 L12.5683594,18.6663556 C12.0344297,18.6663556 11.6015625,19.08424 11.6015625,19.5996889 C11.6015625,20.1151378 12.0344297,20.5330222 12.5683594,20.5330222 Z" id="Path" fill-rule="nonzero"></path>
                    </g>
                </g>
            </g>
        </g>
    </g>
</svg>