<?xml version="1.0" encoding="UTF-8"?>
<svg width="24px" height="18px" viewBox="0 0 24 18" version="1.1" xmlns="http://www.w3.org/2000/svg" xmlns:xlink="http://www.w3.org/1999/xlink">
    <!-- Generator: Sketch 57.1 (83088) - https://sketch.com -->
    <title>mail (1)</title>
    <desc>Created with Sketch.</desc>
    <g id="Page-1" stroke="none" stroke-width="1" fill="none" fill-rule="evenodd">
        <g id="Desktop-HD" transform="translate(-490.000000, -3661.000000)" fill="#FFFFFF">
            <g id="mail-(1)" transform="translate(490.000000, 3661.000000)">
                <g id="Path">
                    <path d="M21.890625,0 L2.109375,0 C1.78467187,0 1.4806875,0.0786 1.20567187,0.208153846 L11.953125,10.7902615 L14.3619844,8.51086154 C14.3619844,8.51086154 14.3621719,8.51063077 14.3622187,8.51053846 C14.3622656,8.51044615 14.3624531,8.51035385 14.3624531,8.51035385 L22.7946562,0.208338462 C22.5195937,0.0786923077 22.2154219,0 21.890625,0 Z" fill-rule="nonzero"></path>
                    <path d="M23.788875,1.18744615 L15.8537344,9.00009231 L23.7885938,16.8128769 C23.9201719,16.5420923 24,16.2427846 24,15.9230769 L24,2.07692308 C24,1.7574 23.9203594,1.45813846 23.788875,1.18744615 Z" fill-rule="nonzero"></path>
                    <path d="M0.21140625,1.18712308 C0.079828125,1.45790769 0,1.75721538 0,2.07692308 L0,15.9230769 C0,16.2426 0.079734375,16.5419538 0.21121875,16.8126462 L8.14635937,9 L0.21140625,1.18712308 Z" fill-rule="nonzero"></path>
                    <path d="M14.8594688,9.97906154 L12.4502812,12.2587385 C12.3129375,12.3939692 12.1330313,12.4615846 11.9531719,12.4615846 C11.7733125,12.4615846 11.5933594,12.3939692 11.4560625,12.2587385 L9.140625,9.97896923 L1.20534375,17.7916615 C1.48040625,17.9213077 1.78457812,18 2.109375,18 L21.890625,18 C22.2153281,18 22.5193125,17.9214 22.7943281,17.7918462 L14.8594688,9.97906154 Z" fill-rule="nonzero"></path>
                </g>
            </g>
        </g>
    </g>
</svg>