<?xml version="1.0" encoding="UTF-8"?>
<svg width="299px" height="575px" viewBox="0 0 299 575" version="1.1" xmlns="http://www.w3.org/2000/svg" xmlns:xlink="http://www.w3.org/1999/xlink">
    <!-- Generator: Sketch 57.1 (83088) - https://sketch.com -->
    <title>Group 10</title>
    <desc>Created with Sketch.</desc>
    <g id="Page-1" stroke="none" stroke-width="1" fill="none" fill-rule="evenodd">
        <g id="Desktop-HD" transform="translate(-999.000000, -1534.000000)">
            <g id="Group-10" transform="translate(989.000000, 1534.000000)">
                <path d="M56.9603611,160.550285 C91.1114771,164.102128 125.12469,165.878049 159,165.878049 C193.339905,165.878049 227.538098,164.053081 261.594579,160.403144 L261.594579,160.403145 C284.65846,157.931318 305.359241,174.624477 307.831067,197.688358 C308.185195,200.99262 308.145909,204.327234 307.714034,207.622236 C300.571345,262.117604 297,315.410192 297,367.5 C297,421.804901 300.444813,474.949636 307.334439,526.934207 L307.334439,526.934207 C310.382001,549.929095 294.211498,571.040673 271.216609,574.088235 C267.77312,574.544608 264.286314,574.572035 260.836072,574.169888 C222.756016,569.731426 185.977325,567.512195 150.5,567.512195 C118.392447,567.512195 87.324251,569.284618 57.2954106,572.829465 L57.2954106,572.829465 C34.2594033,575.548821 13.3805559,559.078921 10.6611997,536.042914 C10.2055899,532.183386 10.2878649,528.279299 10.9056698,524.442392 C19.6352233,470.227088 24,416.034909 24,361.865854 C24,310.981205 19.7318217,260.119169 11.195465,209.279746 L11.1954658,209.279746 C7.35444271,186.404015 22.7851222,164.745807 45.660853,160.904784 C49.3941679,160.27793 53.1950942,160.158683 56.9603611,160.550285 Z" id="Rectangle" fill="#FFEED3"></path>
                <g id="Group-2" transform="translate(135.000000, 236.000000)">
                    <rect id="Rectangle" fill="#FFFFFF" x="0" y="0" width="46" height="46" rx="23"></rect>
                    <polygon id="" fill="#E1B063" fill-rule="nonzero" points="18.557377 28.6046512 34.8237705 12 37 14.216458 18.557377 33 10 24.2844365 12.1393443 22.0679785"></polygon>
                </g>
                <g id="Group-2-Copy" transform="translate(135.000000, 344.000000)">
                    <rect id="Rectangle" fill="#FFFFFF" x="0" y="0" width="46" height="46" rx="23"></rect>
                    <polygon id="" fill="#E1B063" fill-rule="nonzero" points="18.557377 28.6046512 34.8237705 12 37 14.216458 18.557377 33 10 24.2844365 12.1393443 22.0679785"></polygon>
                </g>
                <g id="Group-2-Copy-2" transform="translate(135.000000, 458.000000)">
                    <rect id="Rectangle" fill="#FFFFFF" x="0" y="0" width="46" height="46" rx="23"></rect>
                    <polygon id="" fill="#E1B063" fill-rule="nonzero" points="18.557377 28.6046512 34.8237705 12 37 14.216458 18.557377 33 10 24.2844365 12.1393443 22.0679785"></polygon>
                </g>
                <g id="38337-O1YXZF-Copy" transform="translate(63.000000, 0.000000)" fill="#FFBA3C" fill-rule="nonzero">
                    <path d="M92,28.5107571 C92,43.9751007 83.4964095,56.5107571 73.002851,56.5107571 C62.5064414,56.5107571 54,43.9751007 54,28.5107571 C54,13.0472239 62.5068487,0.510757126 73.002851,0.510757126 C83.4964095,0.510757126 92,13.0472239 92,28.5107571 Z M120.001425,0.510757126 C109.505761,0.510757126 101,13.0472239 101,28.5107571 C101,43.9751007 109.505761,56.5107571 120.001425,56.5107571 C130.494239,56.5107571 139,43.9751007 139,28.5107571 C139,13.0472239 130.494239,0.510757126 120.001425,0.510757126 Z M170.839568,37.3707015 C161.221976,33.6512356 149.021745,42.3424052 143.590855,56.7789694 C138.158368,71.2155335 141.545435,85.9290232 151.165024,89.6513232 C160.77982,93.3695745 172.979651,84.6780001 178.409343,70.2418408 C183.841431,55.8048717 180.453965,41.0877383 170.839568,37.3707015 Z M15.592536,70.2418502 C21.0217784,84.6780028 33.2198997,93.3695732 42.8346076,89.6513236 C52.4541084,85.9290254 55.8427417,71.2155425 50.4079074,56.778985 C44.9774668,42.3420227 32.7797449,33.651262 23.1602441,37.3707262 C13.5451368,41.0877612 10.1577017,55.8048878 15.592536,70.2418502 Z M144.941246,108.629198 C136.443714,91.419797 123.375959,59.9471013 96.7646004,59.9471013 C70.1542761,59.9471013 55.5772514,88.1606307 44.6327159,109.768547 C32.1437388,134.42553 0.411827121,124.178703 0.411827121,166.318426 C0.411827121,193.201321 21.9828031,215 48.5874379,215 C65.6704303,215 81.683796,206.190426 97.3873424,206.190426 C113.091406,206.190426 127.859288,215 144.940728,215 C171.546398,215 193.116856,193.201321 193.116856,166.318426 C193.116856,127.333342 153.245334,125.447144 144.941246,108.629198 Z" id="Shape"></path>
                </g>
                <path d="M105.810547,146.837891 L100.185547,146.837891 L100.185547,150.646484 L106.787109,150.646484 L106.787109,153 L97.2558594,153 L97.2558594,138.78125 L106.767578,138.78125 L106.767578,141.154297 L100.185547,141.154297 L100.185547,144.542969 L105.810547,144.542969 L105.810547,146.837891 Z M114.443359,153 C114.31315,152.746092 114.21875,152.43034 114.160156,152.052734 C113.476559,152.814457 112.587896,153.195312 111.494141,153.195312 C110.458979,153.195312 109.60124,152.895836 108.920898,152.296875 C108.240556,151.697914 107.900391,150.942713 107.900391,150.03125 C107.900391,148.911453 108.315426,148.052086 109.145508,147.453125 C109.97559,146.854164 111.175122,146.551432 112.744141,146.544922 L114.042969,146.544922 L114.042969,145.939453 C114.042969,145.451169 113.917644,145.060548 113.666992,144.767578 C113.41634,144.474608 113.020836,144.328125 112.480469,144.328125 C112.005206,144.328125 111.632488,144.442056 111.362305,144.669922 C111.092121,144.897788 110.957031,145.210284 110.957031,145.607422 L108.134766,145.607422 C108.134766,144.99544 108.323566,144.429039 108.701172,143.908203 C109.078778,143.387367 109.612627,142.978843 110.302734,142.682617 C110.992842,142.386392 111.767574,142.238281 112.626953,142.238281 C113.929043,142.238281 114.962561,142.565426 115.727539,143.219727 C116.492517,143.874027 116.875,144.793614 116.875,145.978516 L116.875,150.558594 C116.88151,151.561203 117.021483,152.319659 117.294922,152.833984 L117.294922,153 L114.443359,153 Z M112.109375,151.037109 C112.526044,151.037109 112.910154,150.944337 113.261719,150.758789 C113.613283,150.573241 113.873697,150.32422 114.042969,150.011719 L114.042969,148.195312 L112.988281,148.195312 C111.575514,148.195312 110.823568,148.683589 110.732422,149.660156 L110.722656,149.826172 C110.722656,150.177736 110.846353,150.467447 111.09375,150.695312 C111.341147,150.923178 111.679685,151.037109 112.109375,151.037109 Z M124.765625,150.080078 C124.765625,149.735024 124.594728,149.463217 124.25293,149.264648 C123.911131,149.06608 123.362634,148.888673 122.607422,148.732422 C120.094388,148.205075 118.837891,147.137378 118.837891,145.529297 C118.837891,144.591792 119.226884,143.808922 120.004883,143.180664 C120.782881,142.552406 121.800124,142.238281 123.056641,142.238281 C124.397793,142.238281 125.470374,142.554033 126.274414,143.185547 C127.078455,143.81706 127.480469,144.637365 127.480469,145.646484 L124.658203,145.646484 C124.658203,145.242837 124.527996,144.909181 124.267578,144.645508 C124.00716,144.381835 123.600263,144.25 123.046875,144.25 C122.571612,144.25 122.203777,144.357421 121.943359,144.572266 C121.682941,144.78711 121.552734,145.060545 121.552734,145.392578 C121.552734,145.70508 121.700845,145.957356 121.99707,146.149414 C122.293296,146.341472 122.792965,146.507486 123.496094,146.647461 C124.199222,146.787436 124.791664,146.945312 125.273438,147.121094 C126.76433,147.667971 127.509766,148.615228 127.509766,149.962891 C127.509766,150.926437 127.096358,151.706052 126.269531,152.301758 C125.442704,152.897464 124.375007,153.195312 123.066406,153.195312 C122.180985,153.195312 121.39486,153.037436 120.708008,152.72168 C120.021155,152.405923 119.482424,151.972985 119.091797,151.422852 C118.70117,150.872719 118.505859,150.278649 118.505859,149.640625 L121.181641,149.640625 C121.207682,150.14193 121.393227,150.52604 121.738281,150.792969 C122.083335,151.059897 122.54557,151.193359 123.125,151.193359 C123.665367,151.193359 124.073892,151.090821 124.350586,150.885742 C124.62728,150.680663 124.765625,150.412111 124.765625,150.080078 Z M133.271484,149.005859 L135.224609,142.433594 L138.251953,142.433594 L134.003906,154.640625 L133.769531,155.197266 C133.138018,156.577481 132.096361,157.267578 130.644531,157.267578 C130.234373,157.267578 129.81771,157.20573 129.394531,157.082031 L129.394531,154.943359 L129.824219,154.953125 C130.358076,154.953125 130.756835,154.871746 131.020508,154.708984 C131.284181,154.546223 131.490885,154.276044 131.640625,153.898438 L131.972656,153.029297 L128.271484,142.433594 L131.308594,142.433594 L133.271484,149.005859 Z M143.955078,149.171875 C143.955078,148.51432 144.138996,147.905602 144.506836,147.345703 C144.874676,146.785804 145.550125,146.164066 146.533203,145.480469 C146.110024,144.91406 145.777996,144.381838 145.537109,143.883789 C145.296223,143.38574 145.175781,142.866539 145.175781,142.326172 C145.175781,141.219396 145.525713,140.319339 146.225586,139.625977 C146.925459,138.932614 147.867833,138.585938 149.052734,138.585938 C150.113938,138.585938 150.984697,138.90169 151.665039,139.533203 C152.345381,140.164717 152.685547,140.952469 152.685547,141.896484 C152.685547,143.029303 152.112636,144.028642 150.966797,144.894531 L149.873047,145.685547 L152.324219,148.537109 C152.708335,147.781897 152.900391,146.948572 152.900391,146.037109 L155.302734,146.037109 C155.302734,147.886077 154.876306,149.383458 154.023438,150.529297 L156.152344,153 L152.949219,153 L152.216797,152.160156 C151.168615,152.850264 149.9642,153.195312 148.603516,153.195312 C147.197259,153.195312 146.070968,152.82585 145.224609,152.086914 C144.378251,151.347978 143.955078,150.376308 143.955078,149.171875 Z M148.740234,150.929688 C149.417321,150.929688 150.058591,150.740887 150.664062,150.363281 L147.861328,147.121094 L147.65625,147.267578 C147.07682,147.762372 146.787109,148.345049 146.787109,149.015625 C146.787109,149.582034 146.967772,150.042641 147.329102,150.397461 C147.690431,150.75228 148.160804,150.929688 148.740234,150.929688 Z M147.705078,142.287109 C147.705078,142.775393 147.991534,143.390621 148.564453,144.132812 L149.316406,143.634766 C149.700523,143.387369 149.96582,143.146486 150.112305,142.912109 C150.25879,142.677733 150.332031,142.397788 150.332031,142.072266 C150.332031,141.746743 150.21159,141.463543 149.970703,141.222656 C149.729817,140.98177 149.420575,140.861328 149.042969,140.861328 C148.639321,140.861328 148.315431,140.991535 148.071289,141.251953 C147.827147,141.512371 147.705078,141.85742 147.705078,142.287109 Z M170.009766,149.269531 C170.009766,148.716143 169.814455,148.291343 169.423828,147.995117 C169.033201,147.698892 168.330083,147.386395 167.314453,147.057617 C166.298823,146.72884 165.494795,146.40495 164.902344,146.085938 C163.287752,145.213537 162.480469,144.038419 162.480469,142.560547 C162.480469,141.792314 162.696938,141.107099 163.129883,140.504883 C163.562828,139.902666 164.184566,139.432293 164.995117,139.09375 C165.805668,138.755207 166.71549,138.585938 167.724609,138.585938 C168.740239,138.585938 169.645178,138.769855 170.439453,139.137695 C171.233728,139.505536 171.850584,140.024736 172.290039,140.695312 C172.729494,141.365889 172.949219,142.1276 172.949219,142.980469 L170.019531,142.980469 C170.019531,142.329424 169.814455,141.823244 169.404297,141.461914 C168.994139,141.100584 168.417972,140.919922 167.675781,140.919922 C166.959632,140.919922 166.402997,141.071288 166.005859,141.374023 C165.608722,141.676759 165.410156,142.075518 165.410156,142.570312 C165.410156,143.032554 165.642901,143.41992 166.108398,143.732422 C166.573896,144.044923 167.25911,144.337889 168.164062,144.611328 C169.830737,145.112633 171.044918,145.734371 171.806641,146.476562 C172.568363,147.218754 172.949219,148.143224 172.949219,149.25 C172.949219,150.480475 172.483729,151.445635 171.552734,152.145508 C170.62174,152.845381 169.368497,153.195312 167.792969,153.195312 C166.699213,153.195312 165.703129,152.995119 164.804688,152.594727 C163.906246,152.194334 163.221031,151.645837 162.749023,150.949219 C162.277016,150.252601 162.041016,149.445317 162.041016,148.527344 L164.980469,148.527344 C164.980469,150.096362 165.917959,150.880859 167.792969,150.880859 C168.489587,150.880859 169.033201,150.739259 169.423828,150.456055 C169.814455,150.17285 170.009766,149.777346 170.009766,149.269531 Z M179.609375,153.195312 C178.059888,153.195312 176.798507,152.720057 175.825195,151.769531 C174.851883,150.819006 174.365234,149.552742 174.365234,147.970703 L174.365234,147.697266 C174.365234,146.636062 174.57031,145.687179 174.980469,144.850586 C175.390627,144.013993 175.971676,143.369468 176.723633,142.916992 C177.47559,142.464516 178.333329,142.238281 179.296875,142.238281 C180.742195,142.238281 181.879879,142.694006 182.709961,143.605469 C183.540043,144.516932 183.955078,145.809236 183.955078,147.482422 L183.955078,148.634766 L177.226562,148.634766 C177.317709,149.324873 177.592771,149.878253 178.051758,150.294922 C178.510744,150.711591 179.091793,150.919922 179.794922,150.919922 C180.882167,150.919922 181.731768,150.526046 182.34375,149.738281 L183.730469,151.291016 C183.30729,151.889977 182.734379,152.357095 182.011719,152.692383 C181.289059,153.027671 180.488286,153.195312 179.609375,153.195312 Z M179.287109,144.523438 C178.727211,144.523438 178.273114,144.712238 177.924805,145.089844 C177.576496,145.46745 177.353516,146.007809 177.255859,146.710938 L181.181641,146.710938 L181.181641,146.486328 C181.16862,145.861325 180.999351,145.377931 180.673828,145.036133 C180.348306,144.694334 179.886071,144.523438 179.287109,144.523438 Z M189.951172,150.919922 C190.472008,150.919922 190.895181,150.776694 191.220703,150.490234 C191.546226,150.203775 191.715495,149.822919 191.728516,149.347656 L194.375,149.347656 C194.36849,150.063806 194.173179,150.719724 193.789062,151.31543 C193.404946,151.911136 192.879235,152.373371 192.211914,152.702148 C191.544593,153.030926 190.807296,153.195312 190,153.195312 C188.489576,153.195312 187.298181,152.715174 186.425781,151.754883 C185.553381,150.794592 185.117188,149.468107 185.117188,147.775391 L185.117188,147.589844 C185.117188,145.962231 185.550126,144.663416 186.416016,143.693359 C187.281905,142.723302 188.470045,142.238281 189.980469,142.238281 C191.30209,142.238281 192.36165,142.614254 193.15918,143.366211 C193.95671,144.118168 194.361979,145.119134 194.375,146.369141 L191.728516,146.369141 C191.715495,145.822263 191.546226,145.377931 191.220703,145.036133 C190.895181,144.694334 190.465497,144.523438 189.931641,144.523438 C189.274085,144.523438 188.777671,144.762693 188.442383,145.241211 C188.107095,145.719729 187.939453,146.496088 187.939453,147.570312 L187.939453,147.863281 C187.939453,148.950526 188.105467,149.731768 188.4375,150.207031 C188.769533,150.682294 189.274085,150.919922 189.951172,150.919922 Z M202.314453,151.925781 C201.617835,152.77214 200.654303,153.195312 199.423828,153.195312 C198.29101,153.195312 197.426761,152.869795 196.831055,152.21875 C196.235349,151.567705 195.93099,150.613939 195.917969,149.357422 L195.917969,142.433594 L198.740234,142.433594 L198.740234,149.259766 C198.740234,150.360032 199.241531,150.910156 200.244141,150.910156 C201.201177,150.910156 201.858722,150.578128 202.216797,149.914062 L202.216797,142.433594 L205.048828,142.433594 L205.048828,153 L202.392578,153 L202.314453,151.925781 Z M213.115234,145.080078 C212.731118,145.027995 212.39258,145.001953 212.099609,145.001953 C211.031896,145.001953 210.332033,145.363278 210,146.085938 L210,153 L207.177734,153 L207.177734,142.433594 L209.84375,142.433594 L209.921875,143.693359 C210.488284,142.723302 211.272781,142.238281 212.275391,142.238281 C212.587892,142.238281 212.880858,142.280599 213.154297,142.365234 L213.115234,145.080078 Z M219.150391,153.195312 C217.600904,153.195312 216.339523,152.720057 215.366211,151.769531 C214.392899,150.819006 213.90625,149.552742 213.90625,147.970703 L213.90625,147.697266 C213.90625,146.636062 214.111326,145.687179 214.521484,144.850586 C214.931643,144.013993 215.512692,143.369468 216.264648,142.916992 C217.016605,142.464516 217.874344,142.238281 218.837891,142.238281 C220.28321,142.238281 221.420894,142.694006 222.250977,143.605469 C223.081059,144.516932 223.496094,145.809236 223.496094,147.482422 L223.496094,148.634766 L216.767578,148.634766 C216.858724,149.324873 217.133787,149.878253 217.592773,150.294922 C218.05176,150.711591 218.632809,150.919922 219.335938,150.919922 C220.423183,150.919922 221.272783,150.526046 221.884766,149.738281 L223.271484,151.291016 C222.848305,151.889977 222.275394,152.357095 221.552734,152.692383 C220.830075,153.027671 220.029301,153.195312 219.150391,153.195312 Z M218.828125,144.523438 C218.268226,144.523438 217.814129,144.712238 217.46582,145.089844 C217.117511,145.46745 216.894532,146.007809 216.796875,146.710938 L220.722656,146.710938 L220.722656,146.486328 C220.709635,145.861325 220.540366,145.377931 220.214844,145.036133 C219.889321,144.694334 219.427086,144.523438 218.828125,144.523438 Z M119.716797,165.154297 L115.361328,165.154297 L115.361328,177 L112.431641,177 L112.431641,165.154297 L108.134766,165.154297 L108.134766,162.78125 L119.716797,162.78125 L119.716797,165.154297 Z M125.195312,177.195312 C123.645826,177.195312 122.384445,176.720057 121.411133,175.769531 C120.437821,174.819006 119.951172,173.552742 119.951172,171.970703 L119.951172,171.697266 C119.951172,170.636062 120.156248,169.687179 120.566406,168.850586 C120.976565,168.013993 121.557613,167.369468 122.30957,166.916992 C123.061527,166.464516 123.919266,166.238281 124.882812,166.238281 C126.328132,166.238281 127.465816,166.694006 128.295898,167.605469 C129.125981,168.516932 129.541016,169.809236 129.541016,171.482422 L129.541016,172.634766 L122.8125,172.634766 C122.903646,173.324873 123.178709,173.878253 123.637695,174.294922 C124.096682,174.711591 124.677731,174.919922 125.380859,174.919922 C126.468104,174.919922 127.317705,174.526046 127.929688,173.738281 L129.316406,175.291016 C128.893227,175.889977 128.320316,176.357095 127.597656,176.692383 C126.874996,177.027671 126.074223,177.195312 125.195312,177.195312 Z M124.873047,168.523438 C124.313148,168.523438 123.859051,168.712238 123.510742,169.089844 C123.162433,169.46745 122.939454,170.007809 122.841797,170.710938 L126.767578,170.710938 L126.767578,170.486328 C126.754557,169.861325 126.585288,169.377931 126.259766,169.036133 C125.934243,168.694334 125.472008,168.523438 124.873047,168.523438 Z M135.537109,174.919922 C136.057945,174.919922 136.481118,174.776694 136.806641,174.490234 C137.132163,174.203775 137.301432,173.822919 137.314453,173.347656 L139.960938,173.347656 C139.954427,174.063806 139.759117,174.719724 139.375,175.31543 C138.990883,175.911136 138.465173,176.373371 137.797852,176.702148 C137.130531,177.030926 136.393233,177.195312 135.585938,177.195312 C134.075513,177.195312 132.884119,176.715174 132.011719,175.754883 C131.139319,174.794592 130.703125,173.468107 130.703125,171.775391 L130.703125,171.589844 C130.703125,169.962231 131.136063,168.663416 132.001953,167.693359 C132.867843,166.723302 134.055982,166.238281 135.566406,166.238281 C136.888027,166.238281 137.947587,166.614254 138.745117,167.366211 C139.542647,168.118168 139.947917,169.119134 139.960938,170.369141 L137.314453,170.369141 C137.301432,169.822263 137.132163,169.377931 136.806641,169.036133 C136.481118,168.694334 136.051435,168.523438 135.517578,168.523438 C134.860023,168.523438 134.363608,168.762693 134.02832,169.241211 C133.693032,169.719729 133.525391,170.496088 133.525391,171.570312 L133.525391,171.863281 C133.525391,172.950526 133.691405,173.731768 134.023438,174.207031 C134.35547,174.682294 134.860023,174.919922 135.537109,174.919922 Z M144.326172,167.585938 C145.074874,166.687496 146.015619,166.238281 147.148438,166.238281 C149.440116,166.238281 150.602213,167.569648 150.634766,170.232422 L150.634766,177 L147.8125,177 L147.8125,170.310547 C147.8125,169.705075 147.682293,169.257488 147.421875,168.967773 C147.161457,168.678058 146.728519,168.533203 146.123047,168.533203 C145.29622,168.533203 144.697267,168.85221 144.326172,169.490234 L144.326172,177 L141.503906,177 L141.503906,162 L144.326172,162 L144.326172,167.585938 Z M155.361328,166.433594 L155.449219,167.654297 C156.204431,166.710282 157.216791,166.238281 158.486328,166.238281 C159.606125,166.238281 160.43945,166.567054 160.986328,167.224609 C161.533206,167.882165 161.813151,168.865228 161.826172,170.173828 L161.826172,177 L159.003906,177 L159.003906,170.242188 C159.003906,169.643226 158.873699,169.20866 158.613281,168.938477 C158.352863,168.668293 157.919925,168.533203 157.314453,168.533203 C156.520178,168.533203 155.924481,168.871741 155.527344,169.548828 L155.527344,177 L152.705078,177 L152.705078,166.433594 L155.361328,166.433594 Z M163.525391,171.619141 C163.525391,170.570958 163.727212,169.636723 164.130859,168.816406 C164.534507,167.99609 165.115556,167.36133 165.874023,166.912109 C166.632491,166.462888 167.513016,166.238281 168.515625,166.238281 C169.941413,166.238281 171.105139,166.674475 172.006836,167.546875 C172.908533,168.419275 173.411458,169.604159 173.515625,171.101562 L173.535156,171.824219 C173.535156,173.445321 173.082687,174.745763 172.177734,175.725586 C171.272782,176.705409 170.058601,177.195312 168.535156,177.195312 C167.011711,177.195312 165.795903,176.707036 164.887695,175.730469 C163.979488,174.753901 163.525391,173.42579 163.525391,171.746094 L163.525391,171.619141 Z M166.347656,171.824219 C166.347656,172.826828 166.536456,173.593422 166.914062,174.124023 C167.291669,174.654625 167.832028,174.919922 168.535156,174.919922 C169.218753,174.919922 169.752602,174.65788 170.136719,174.133789 C170.520835,173.609698 170.712891,172.77149 170.712891,171.619141 C170.712891,170.636063 170.520835,169.874352 170.136719,169.333984 C169.752602,168.793617 169.212243,168.523438 168.515625,168.523438 C167.825517,168.523438 167.291669,168.79199 166.914062,169.329102 C166.536456,169.866214 166.347656,170.697911 166.347656,171.824219 Z M178.251953,177 L175.419922,177 L175.419922,162 L178.251953,162 L178.251953,177 Z M180.136719,171.619141 C180.136719,170.570958 180.33854,169.636723 180.742188,168.816406 C181.145835,167.99609 181.726884,167.36133 182.485352,166.912109 C183.243819,166.462888 184.124344,166.238281 185.126953,166.238281 C186.552742,166.238281 187.716467,166.674475 188.618164,167.546875 C189.519861,168.419275 190.022786,169.604159 190.126953,171.101562 L190.146484,171.824219 C190.146484,173.445321 189.694015,174.745763 188.789062,175.725586 C187.88411,176.705409 186.669929,177.195312 185.146484,177.195312 C183.623039,177.195312 182.407231,176.707036 181.499023,175.730469 C180.590816,174.753901 180.136719,173.42579 180.136719,171.746094 L180.136719,171.619141 Z M182.958984,171.824219 C182.958984,172.826828 183.147785,173.593422 183.525391,174.124023 C183.902997,174.654625 184.443356,174.919922 185.146484,174.919922 C185.830082,174.919922 186.36393,174.65788 186.748047,174.133789 C187.132163,173.609698 187.324219,172.77149 187.324219,171.619141 C187.324219,170.636063 187.132163,169.874352 186.748047,169.333984 C186.36393,168.793617 185.823571,168.523438 185.126953,168.523438 C184.436846,168.523438 183.902997,168.79199 183.525391,169.329102 C183.147785,169.866214 182.958984,170.697911 182.958984,171.824219 Z M191.474609,171.638672 C191.474609,170.01757 191.860348,168.712245 192.631836,167.722656 C193.403324,166.733068 194.443353,166.238281 195.751953,166.238281 C196.910813,166.238281 197.812497,166.635413 198.457031,167.429688 L198.574219,166.433594 L201.132812,166.433594 L201.132812,176.648438 C201.132812,177.572921 200.922854,178.37695 200.50293,179.060547 C200.083006,179.744144 199.492191,180.264972 198.730469,180.623047 C197.968746,180.981122 197.076828,181.160156 196.054688,181.160156 C195.279944,181.160156 194.524743,181.005535 193.789062,180.696289 C193.053382,180.387043 192.496747,179.988284 192.119141,179.5 L193.369141,177.78125 C194.072269,178.569014 194.925125,178.962891 195.927734,178.962891 C196.676436,178.962891 197.259112,178.762697 197.675781,178.362305 C198.09245,177.961912 198.300781,177.393884 198.300781,176.658203 L198.300781,176.091797 C197.649736,176.827478 196.793625,177.195312 195.732422,177.195312 C194.462884,177.195312 193.435876,176.698898 192.651367,175.706055 C191.866858,174.713211 191.474609,173.396493 191.474609,171.755859 L191.474609,171.638672 Z M194.296875,171.84375 C194.296875,172.800786 194.48893,173.551104 194.873047,174.094727 C195.257163,174.638349 195.784502,174.910156 196.455078,174.910156 C197.314457,174.910156 197.929686,174.587894 198.300781,173.943359 L198.300781,169.5 C197.923175,168.855466 197.314457,168.533203 196.474609,168.533203 C195.797523,168.533203 195.265301,168.809893 194.87793,169.363281 C194.490558,169.916669 194.296875,170.743484 194.296875,171.84375 Z M207.246094,173.005859 L209.199219,166.433594 L212.226562,166.433594 L207.978516,178.640625 L207.744141,179.197266 C207.112627,180.577481 206.070971,181.267578 204.619141,181.267578 C204.208982,181.267578 203.79232,181.20573 203.369141,181.082031 L203.369141,178.943359 L203.798828,178.953125 C204.332685,178.953125 204.731444,178.871746 204.995117,178.708984 C205.25879,178.546223 205.465494,178.276044 205.615234,177.898438 L205.947266,177.029297 L202.246094,166.433594 L205.283203,166.433594 L207.246094,173.005859 Z" id="Easy&amp;SecureTechnology" fill="#FFFFFF" fill-rule="nonzero"></path>
                <path d="M70.6279297,298.939453 C70.4697258,300.292976 69.970219,301.337399 69.1293945,302.072754 C68.28857,302.808109 67.1709054,303.175781 65.7763672,303.175781 C64.2646409,303.175781 63.0532272,302.633794 62.1420898,301.549805 C61.2309525,300.465815 60.7753906,299.015634 60.7753906,297.199219 L60.7753906,295.96875 C60.7753906,294.779291 60.9877908,293.733403 61.4125977,292.831055 C61.8374045,291.928706 62.4394492,291.235842 63.21875,290.752441 C63.9980508,290.269041 64.9003855,290.027344 65.9257812,290.027344 C67.285163,290.027344 68.3749959,290.406734 69.1953125,291.165527 C70.0156291,291.92432 70.4931634,292.974603 70.6279297,294.316406 L68.9316406,294.316406 C68.7851555,293.29687 68.4672876,292.558596 67.9780273,292.101562 C67.4887671,291.644529 66.8046919,291.416016 65.9257812,291.416016 C64.8476509,291.416016 64.0024445,291.814449 63.3901367,292.611328 C62.777829,293.408207 62.4716797,294.541985 62.4716797,296.012695 L62.4716797,297.251953 C62.4716797,298.640632 62.7617158,299.745113 63.3417969,300.56543 C63.9218779,301.385746 64.7333932,301.795898 65.7763672,301.795898 C66.7138719,301.795898 67.433103,301.583498 67.934082,301.158691 C68.4350611,300.733885 68.7675773,299.994146 68.9316406,298.939453 L70.6279297,298.939453 Z M74.4423828,303 L72.8164062,303 L72.8164062,289.5 L74.4423828,289.5 L74.4423828,303 Z M76.6132812,298.157227 C76.6132812,297.225581 76.7963849,296.387699 77.1625977,295.643555 C77.5288104,294.89941 78.038571,294.325197 78.6918945,293.920898 C79.3452181,293.5166 80.0908161,293.314453 80.9287109,293.314453 C82.2236393,293.314453 83.2709921,293.762691 84.0708008,294.65918 C84.8706095,295.555669 85.2705078,296.748039 85.2705078,298.236328 L85.2705078,298.350586 C85.2705078,299.276372 85.0932635,300.10693 84.7387695,300.842285 C84.3842756,301.57764 83.8774447,302.150389 83.2182617,302.560547 C82.5590787,302.970705 81.8017621,303.175781 80.9462891,303.175781 C79.6572201,303.175781 78.612797,302.727544 77.8129883,301.831055 C77.0131796,300.934566 76.6132812,299.748054 76.6132812,298.271484 L76.6132812,298.157227 Z M78.2480469,298.350586 C78.2480469,299.405279 78.4926733,300.25195 78.9819336,300.890625 C79.4711939,301.5293 80.1259725,301.848633 80.9462891,301.848633 C81.7724651,301.848633 82.4287085,301.524906 82.9150391,300.877441 C83.4013696,300.229977 83.6445312,299.323248 83.6445312,298.157227 C83.6445312,297.114253 83.3969751,296.269046 82.9018555,295.621582 C82.4067358,294.974118 81.7490275,294.650391 80.9287109,294.650391 C80.1259725,294.650391 79.4785181,294.969723 78.9863281,295.608398 C78.4941382,296.247074 78.2480469,297.161127 78.2480469,298.350586 Z M93.1806641,302.05957 C92.5478484,302.803715 91.6191467,303.175781 90.3945312,303.175781 C89.3808543,303.175781 88.6088894,302.881351 88.0786133,302.29248 C87.5483372,301.70361 87.2802735,300.832037 87.2744141,299.677734 L87.2744141,293.490234 L88.9003906,293.490234 L88.9003906,299.633789 C88.9003906,301.075203 89.4863223,301.795898 90.6582031,301.795898 C91.9003968,301.795898 92.7265604,301.333012 93.1367188,300.407227 L93.1367188,293.490234 L94.7626953,293.490234 L94.7626953,303 L93.2158203,303 L93.1806641,302.05957 Z M96.8369141,298.166016 C96.8369141,296.707024 97.1826137,295.533696 97.8740234,294.645996 C98.5654331,293.758296 99.4706975,293.314453 100.589844,293.314453 C101.703131,293.314453 102.584958,293.695309 103.235352,294.457031 L103.235352,289.5 L104.861328,289.5 L104.861328,303 L103.367188,303 L103.288086,301.980469 C102.637692,302.777348 101.732428,303.175781 100.572266,303.175781 C99.4706976,303.175781 98.5727574,302.724614 97.878418,301.822266 C97.1840786,300.919917 96.8369141,299.742195 96.8369141,298.289062 L96.8369141,298.166016 Z M98.4628906,298.350586 C98.4628906,299.428716 98.6855446,300.272458 99.1308594,300.881836 C99.5761741,301.491214 100.191402,301.795898 100.976562,301.795898 C102.007818,301.795898 102.76074,301.333012 103.235352,300.407227 L103.235352,296.039062 C102.749021,295.142574 102.001958,294.694336 100.994141,294.694336 C100.197262,294.694336 99.5761741,295.00195 99.1308594,295.617188 C98.6855446,296.232425 98.4628906,297.143549 98.4628906,298.350586 Z M110.767578,298.227539 L106.478516,298.227539 L106.478516,296.900391 L110.767578,296.900391 L110.767578,298.227539 Z M120.400391,298.350586 C120.400391,299.803718 120.06641,300.971187 119.398438,301.853027 C118.730465,302.734868 117.83399,303.175781 116.708984,303.175781 C115.507806,303.175781 114.579105,302.750981 113.922852,301.901367 L113.84375,303 L112.349609,303 L112.349609,289.5 L113.975586,289.5 L113.975586,294.536133 C114.631839,293.721676 115.537104,293.314453 116.691406,293.314453 C117.845709,293.314453 118.752438,293.750972 119.411621,294.624023 C120.070804,295.497075 120.400391,296.692375 120.400391,298.209961 L120.400391,298.350586 Z M118.774414,298.166016 C118.774414,297.058588 118.560549,296.203128 118.132812,295.599609 C117.705076,294.996091 117.089848,294.694336 116.287109,294.694336 C115.214838,294.694336 114.444338,295.192378 113.975586,296.188477 L113.975586,300.301758 C114.473635,301.297857 115.249995,301.795898 116.304688,301.795898 C117.083988,301.795898 117.690428,301.494144 118.124023,300.890625 C118.557619,300.287106 118.774414,299.378912 118.774414,298.166016 Z M128.319336,303 C128.225585,302.812499 128.149414,302.478518 128.09082,301.998047 C127.334957,302.783207 126.432622,303.175781 125.383789,303.175781 C124.446284,303.175781 123.677249,302.910647 123.07666,302.380371 C122.476071,301.850095 122.175781,301.177738 122.175781,300.363281 C122.175781,299.373042 122.552242,298.604007 123.305176,298.056152 C124.058109,297.508298 125.117181,297.234375 126.482422,297.234375 L128.064453,297.234375 L128.064453,296.487305 C128.064453,295.918942 127.894533,295.46631 127.554688,295.129395 C127.214842,294.792479 126.71387,294.624023 126.051758,294.624023 C125.471677,294.624023 124.985354,294.770506 124.592773,295.063477 C124.200193,295.356447 124.003906,295.710935 124.003906,296.126953 L122.369141,296.126953 C122.369141,295.652341 122.537596,295.19385 122.874512,294.751465 C123.211427,294.30908 123.668454,293.958986 124.245605,293.701172 C124.822757,293.443358 125.457028,293.314453 126.148438,293.314453 C127.244146,293.314453 128.102536,293.588376 128.723633,294.13623 C129.34473,294.684085 129.666992,295.438472 129.69043,296.399414 L129.69043,300.776367 C129.69043,301.649418 129.801757,302.343747 130.024414,302.859375 L130.024414,303 L128.319336,303 Z M125.621094,301.760742 C126.130862,301.760742 126.614256,301.628908 127.071289,301.365234 C127.528323,301.101561 127.859374,300.758791 128.064453,300.336914 L128.064453,298.385742 L126.790039,298.385742 C124.797842,298.385742 123.801758,298.968744 123.801758,300.134766 C123.801758,300.644534 123.971678,301.042967 124.311523,301.330078 C124.651369,301.617189 125.087888,301.760742 125.621094,301.760742 Z M137.776367,300.477539 C137.776367,300.038084 137.610841,299.696779 137.279785,299.453613 C136.948729,299.210448 136.371586,299.000977 135.54834,298.825195 C134.725094,298.649413 134.07178,298.438478 133.588379,298.192383 C133.104978,297.946288 132.74756,297.653322 132.516113,297.313477 C132.284667,296.973631 132.168945,296.569338 132.168945,296.100586 C132.168945,295.321285 132.498532,294.662112 133.157715,294.123047 C133.816898,293.583982 134.659175,293.314453 135.68457,293.314453 C136.762701,293.314453 137.637204,293.592771 138.308105,294.149414 C138.979007,294.706057 139.314453,295.417964 139.314453,296.285156 L137.679688,296.285156 C137.679688,295.839842 137.490725,295.456056 137.112793,295.133789 C136.734861,294.811522 136.258792,294.650391 135.68457,294.650391 C135.09277,294.650391 134.629884,294.779296 134.295898,295.037109 C133.961912,295.294923 133.794922,295.631834 133.794922,296.047852 C133.794922,296.440432 133.950194,296.736327 134.260742,296.935547 C134.571291,297.134767 135.13232,297.325194 135.943848,297.506836 C136.755375,297.688477 137.413083,297.905272 137.916992,298.157227 C138.420901,298.409181 138.794432,298.712401 139.037598,299.066895 C139.280763,299.421388 139.402344,299.853513 139.402344,300.363281 C139.402344,301.212895 139.062503,301.89404 138.382812,302.406738 C137.703122,302.919436 136.821294,303.175781 135.737305,303.175781 C134.975582,303.175781 134.301761,303.041017 133.71582,302.771484 C133.12988,302.501952 132.671388,302.125491 132.340332,301.64209 C132.009276,301.158689 131.84375,300.635745 131.84375,300.073242 L133.469727,300.073242 C133.499024,300.618167 133.717283,301.050291 134.124512,301.369629 C134.53174,301.688966 135.069333,301.848633 135.737305,301.848633 C136.352542,301.848633 136.84619,301.724122 137.218262,301.475098 C137.590334,301.226073 137.776367,300.893557 137.776367,300.477539 Z M145.466797,303.175781 C144.177728,303.175781 143.12891,302.752446 142.320312,301.905762 C141.511715,301.059078 141.107422,299.926765 141.107422,298.508789 L141.107422,298.209961 C141.107422,297.266597 141.287596,296.42432 141.647949,295.683105 C142.008303,294.941891 142.512204,294.361819 143.159668,293.942871 C143.807132,293.523924 144.508785,293.314453 145.264648,293.314453 C146.500983,293.314453 147.461911,293.721676 148.147461,294.536133 C148.833011,295.35059 149.175781,296.516594 149.175781,298.03418 L149.175781,298.710938 L142.733398,298.710938 C142.756836,299.648442 143.030759,300.405759 143.555176,300.98291 C144.079592,301.560061 144.74609,301.848633 145.554688,301.848633 C146.128909,301.848633 146.615232,301.731446 147.013672,301.49707 C147.412111,301.262694 147.760741,300.95215 148.05957,300.56543 L149.052734,301.338867 C148.255855,302.563483 147.060555,303.175781 145.466797,303.175781 Z M145.264648,294.650391 C144.608395,294.650391 144.057619,294.889158 143.612305,295.366699 C143.16699,295.844241 142.891602,296.513668 142.786133,297.375 L147.549805,297.375 L147.549805,297.251953 C147.502929,296.425777 147.280275,295.785647 146.881836,295.331543 C146.483396,294.877439 145.944339,294.650391 145.264648,294.650391 Z M150.661133,298.166016 C150.661133,296.707024 151.006832,295.533696 151.698242,294.645996 C152.389652,293.758296 153.294916,293.314453 154.414062,293.314453 C155.527349,293.314453 156.409176,293.695309 157.05957,294.457031 L157.05957,289.5 L158.685547,289.5 L158.685547,303 L157.191406,303 L157.112305,301.980469 C156.461911,302.777348 155.556646,303.175781 154.396484,303.175781 C153.294916,303.175781 152.396976,302.724614 151.702637,301.822266 C151.008297,300.919917 150.661133,299.742195 150.661133,298.289062 L150.661133,298.166016 Z M152.287109,298.350586 C152.287109,299.428716 152.509763,300.272458 152.955078,300.881836 C153.400393,301.491214 154.015621,301.795898 154.800781,301.795898 C155.832036,301.795898 156.584959,301.333012 157.05957,300.407227 L157.05957,296.039062 C156.57324,295.142574 155.826177,294.694336 154.818359,294.694336 C154.02148,294.694336 153.400393,295.00195 152.955078,295.617188 C152.509763,296.232425 152.287109,297.143549 152.287109,298.350586 Z M174.40918,291.591797 L170.295898,291.591797 L170.295898,303 L168.617188,303 L168.617188,291.591797 L164.512695,291.591797 L164.512695,290.203125 L174.40918,290.203125 L174.40918,291.591797 Z M179.128906,303.175781 C177.839837,303.175781 176.79102,302.752446 175.982422,301.905762 C175.173824,301.059078 174.769531,299.926765 174.769531,298.508789 L174.769531,298.209961 C174.769531,297.266597 174.949705,296.42432 175.310059,295.683105 C175.670412,294.941891 176.174313,294.361819 176.821777,293.942871 C177.469242,293.523924 178.170895,293.314453 178.926758,293.314453 C180.163092,293.314453 181.12402,293.721676 181.80957,294.536133 C182.495121,295.35059 182.837891,296.516594 182.837891,298.03418 L182.837891,298.710938 L176.395508,298.710938 C176.418945,299.648442 176.692868,300.405759 177.217285,300.98291 C177.741702,301.560061 178.408199,301.848633 179.216797,301.848633 C179.791018,301.848633 180.277342,301.731446 180.675781,301.49707 C181.074221,301.262694 181.42285,300.95215 181.72168,300.56543 L182.714844,301.338867 C181.917965,302.563483 180.722664,303.175781 179.128906,303.175781 Z M178.926758,294.650391 C178.270505,294.650391 177.719729,294.889158 177.274414,295.366699 C176.829099,295.844241 176.553711,296.513668 176.448242,297.375 L181.211914,297.375 L181.211914,297.251953 C181.165039,296.425777 180.942385,295.785647 180.543945,295.331543 C180.145506,294.877439 179.606449,294.650391 178.926758,294.650391 Z M188.533203,301.848633 C189.113284,301.848633 189.620115,301.672853 190.053711,301.321289 C190.487307,300.969725 190.727539,300.530276 190.774414,300.00293 L192.3125,300.00293 C192.283203,300.547854 192.095705,301.066404 191.75,301.558594 C191.404295,302.050784 190.942874,302.443358 190.365723,302.736328 C189.788571,303.029298 189.177738,303.175781 188.533203,303.175781 C187.238275,303.175781 186.2085,302.743657 185.443848,301.879395 C184.679195,301.015132 184.296875,299.833015 184.296875,298.333008 L184.296875,298.060547 C184.296875,297.134761 184.466795,296.311527 184.806641,295.59082 C185.146486,294.870114 185.634274,294.310549 186.27002,293.912109 C186.905765,293.51367 187.657222,293.314453 188.524414,293.314453 C189.590826,293.314453 190.477047,293.633786 191.183105,294.272461 C191.889164,294.911136 192.265625,295.740229 192.3125,296.759766 L190.774414,296.759766 C190.727539,296.144528 190.494631,295.639162 190.075684,295.243652 C189.656736,294.848143 189.139652,294.650391 188.524414,294.650391 C187.698238,294.650391 187.058108,294.947751 186.604004,295.54248 C186.1499,296.13721 185.922852,296.997065 185.922852,298.12207 L185.922852,298.429688 C185.922852,299.525396 186.148435,300.369138 186.599609,300.960938 C187.050784,301.552737 187.695308,301.848633 188.533203,301.848633 Z M195.766602,294.641602 C196.487308,293.756832 197.424799,293.314453 198.579102,293.314453 C200.588877,293.314453 201.602539,294.448231 201.620117,296.71582 L201.620117,303 L199.994141,303 L199.994141,296.707031 C199.988281,296.021481 199.831545,295.51465 199.523926,295.186523 C199.216307,294.858397 198.737308,294.694336 198.086914,294.694336 C197.559568,294.694336 197.096682,294.83496 196.698242,295.116211 C196.299803,295.397462 195.989259,295.766599 195.766602,296.223633 L195.766602,303 L194.140625,303 L194.140625,289.5 L195.766602,289.5 L195.766602,294.641602 Z M205.592773,293.490234 L205.645508,294.685547 C206.372074,293.77148 207.321283,293.314453 208.493164,293.314453 C210.50294,293.314453 211.516601,294.448231 211.53418,296.71582 L211.53418,303 L209.908203,303 L209.908203,296.707031 C209.902344,296.021481 209.745607,295.51465 209.437988,295.186523 C209.13037,294.858397 208.65137,294.694336 208.000977,294.694336 C207.47363,294.694336 207.010744,294.83496 206.612305,295.116211 C206.213865,295.397462 205.903321,295.766599 205.680664,296.223633 L205.680664,303 L204.054688,303 L204.054688,293.490234 L205.592773,293.490234 Z M213.555664,298.157227 C213.555664,297.225581 213.738768,296.387699 214.10498,295.643555 C214.471193,294.89941 214.980954,294.325197 215.634277,293.920898 C216.287601,293.5166 217.033199,293.314453 217.871094,293.314453 C219.166022,293.314453 220.213375,293.762691 221.013184,294.65918 C221.812992,295.555669 222.212891,296.748039 222.212891,298.236328 L222.212891,298.350586 C222.212891,299.276372 222.035646,300.10693 221.681152,300.842285 C221.326658,301.57764 220.819828,302.150389 220.160645,302.560547 C219.501462,302.970705 218.744145,303.175781 217.888672,303.175781 C216.599603,303.175781 215.55518,302.727544 214.755371,301.831055 C213.955562,300.934566 213.555664,299.748054 213.555664,298.271484 L213.555664,298.157227 Z M215.19043,298.350586 C215.19043,299.405279 215.435056,300.25195 215.924316,300.890625 C216.413577,301.5293 217.068355,301.848633 217.888672,301.848633 C218.714848,301.848633 219.371091,301.524906 219.857422,300.877441 C220.343752,300.229977 220.586914,299.323248 220.586914,298.157227 C220.586914,297.114253 220.339358,296.269046 219.844238,295.621582 C219.349119,294.974118 218.69141,294.650391 217.871094,294.650391 C217.068355,294.650391 216.420901,294.969723 215.928711,295.608398 C215.436521,296.247074 215.19043,297.161127 215.19043,298.350586 Z M226.018555,303 L224.392578,303 L224.392578,289.5 L226.018555,289.5 L226.018555,303 Z M228.189453,298.157227 C228.189453,297.225581 228.372557,296.387699 228.73877,295.643555 C229.104982,294.89941 229.614743,294.325197 230.268066,293.920898 C230.92139,293.5166 231.666988,293.314453 232.504883,293.314453 C233.799811,293.314453 234.847164,293.762691 235.646973,294.65918 C236.446781,295.555669 236.84668,296.748039 236.84668,298.236328 L236.84668,298.350586 C236.84668,299.276372 236.669435,300.10693 236.314941,300.842285 C235.960447,301.57764 235.453617,302.150389 234.794434,302.560547 C234.135251,302.970705 233.377934,303.175781 232.522461,303.175781 C231.233392,303.175781 230.188969,302.727544 229.38916,301.831055 C228.589351,300.934566 228.189453,299.748054 228.189453,298.271484 L228.189453,298.157227 Z M229.824219,298.350586 C229.824219,299.405279 230.068845,300.25195 230.558105,300.890625 C231.047366,301.5293 231.702144,301.848633 232.522461,301.848633 C233.348637,301.848633 234.00488,301.524906 234.491211,300.877441 C234.977541,300.229977 235.220703,299.323248 235.220703,298.157227 C235.220703,297.114253 234.973147,296.269046 234.478027,295.621582 C233.982908,294.974118 233.325199,294.650391 232.504883,294.650391 C231.702144,294.650391 231.05469,294.969723 230.5625,295.608398 C230.07031,296.247074 229.824219,297.161127 229.824219,298.350586 Z M238.499023,298.166016 C238.499023,296.683586 238.841793,295.504399 239.527344,294.628418 C240.212894,293.752437 241.121088,293.314453 242.251953,293.314453 C243.412115,293.314453 244.31738,293.724605 244.967773,294.544922 L245.046875,293.490234 L246.532227,293.490234 L246.532227,302.771484 C246.532227,304.001959 246.167484,304.971676 245.437988,305.680664 C244.708492,306.389652 243.728522,306.744141 242.498047,306.744141 C241.812497,306.744141 241.141605,306.597658 240.485352,306.304688 C239.829098,306.011717 239.328127,305.610354 238.982422,305.100586 L239.826172,304.125 C240.523441,304.986332 241.375972,305.416992 242.383789,305.416992 C243.174809,305.416992 243.791502,305.194338 244.233887,304.749023 C244.676272,304.303709 244.897461,303.676762 244.897461,302.868164 L244.897461,302.050781 C244.247067,302.800785 243.359381,303.175781 242.234375,303.175781 C241.121088,303.175781 240.220218,302.727544 239.531738,301.831055 C238.843258,300.934566 238.499023,299.712898 238.499023,298.166016 Z M240.133789,298.350586 C240.133789,299.422857 240.353513,300.265134 240.792969,300.877441 C241.232424,301.489749 241.847652,301.795898 242.638672,301.795898 C243.664068,301.795898 244.41699,301.330083 244.897461,300.398438 L244.897461,296.056641 C244.399412,295.148433 243.652349,294.694336 242.65625,294.694336 C241.86523,294.694336 241.247073,295.00195 240.801758,295.617188 C240.356443,296.232425 240.133789,297.143549 240.133789,298.350586 Z M252.095703,300.618164 L254.310547,293.490234 L256.050781,293.490234 L252.227539,304.467773 C251.635739,306.049813 250.695319,306.84082 249.40625,306.84082 L249.098633,306.814453 L248.492188,306.700195 L248.492188,305.381836 L248.931641,305.416992 C249.482425,305.416992 249.91162,305.305665 250.219238,305.083008 C250.526857,304.86035 250.780272,304.453128 250.979492,303.861328 L251.339844,302.894531 L247.947266,293.490234 L249.722656,293.490234 L252.095703,300.618164 Z" id="Cloud-basedTechnology" fill="#505050" fill-rule="nonzero"></path>
                <path d="M60.2788086,406.295898 C58.8315357,405.879881 57.7783236,405.368655 57.1191406,404.762207 C56.4599576,404.155759 56.1303711,403.407231 56.1303711,402.516602 C56.1303711,401.508784 56.5331991,400.675296 57.3388672,400.016113 C58.1445353,399.35693 59.1918881,399.027344 60.480957,399.027344 C61.3598677,399.027344 62.1435512,399.197264 62.8320312,399.537109 C63.5205113,399.876955 64.053709,400.3457 64.4316406,400.943359 C64.8095722,401.541019 64.9985352,402.194332 64.9985352,402.90332 L63.3022461,402.90332 C63.3022461,402.129879 63.0561548,401.521975 62.5639648,401.07959 C62.0717749,400.637205 61.3774459,400.416016 60.480957,400.416016 C59.6489216,400.416016 59.0000023,400.599119 58.5341797,400.965332 C58.068357,401.331545 57.8354492,401.83984 57.8354492,402.490234 C57.8354492,403.011721 58.0566384,403.452635 58.4990234,403.812988 C58.9414085,404.173342 59.6943306,404.502928 60.7578125,404.801758 C61.8212944,405.100587 62.6533173,405.430174 63.2539062,405.790527 C63.8544952,406.150881 64.2998032,406.571287 64.5898438,407.051758 C64.8798843,407.532229 65.0249023,408.097653 65.0249023,408.748047 C65.0249023,409.785161 64.6206095,410.61572 63.8120117,411.239746 C63.0034139,411.863773 61.92237,412.175781 60.5688477,412.175781 C59.689937,412.175781 58.8696327,412.007326 58.1079102,411.67041 C57.3461876,411.333494 56.7587911,410.872073 56.3457031,410.286133 C55.9326151,409.700192 55.7260742,409.03516 55.7260742,408.291016 L57.4223633,408.291016 C57.4223633,409.064457 57.708005,409.675291 58.2792969,410.123535 C58.8505888,410.57178 59.6137648,410.795898 60.5688477,410.795898 C61.4594771,410.795898 62.1420875,410.61426 62.6166992,410.250977 C63.091311,409.887693 63.3286133,409.392581 63.3286133,408.765625 C63.3286133,408.138669 63.1088889,407.65381 62.6694336,407.311035 C62.2299783,406.96826 61.4331112,406.629884 60.2788086,406.295898 Z M70.878418,412.175781 C69.589349,412.175781 68.5405314,411.752446 67.7319336,410.905762 C66.9233358,410.059078 66.519043,408.926765 66.519043,407.508789 L66.519043,407.209961 C66.519043,406.266597 66.6992169,405.42432 67.0595703,404.683105 C67.4199237,403.941891 67.9238249,403.361819 68.5712891,402.942871 C69.2187532,402.523924 69.9204064,402.314453 70.6762695,402.314453 C71.9126038,402.314453 72.8735317,402.721676 73.559082,403.536133 C74.2446323,404.35059 74.5874023,405.516594 74.5874023,407.03418 L74.5874023,407.710938 L68.1450195,407.710938 C68.1684571,408.648442 68.4423802,409.405759 68.9667969,409.98291 C69.4912136,410.560061 70.1577108,410.848633 70.9663086,410.848633 C71.5405302,410.848633 72.0268535,410.731446 72.425293,410.49707 C72.8237325,410.262694 73.1723618,409.95215 73.4711914,409.56543 L74.4643555,410.338867 C73.6674765,411.563483 72.4721759,412.175781 70.878418,412.175781 Z M70.6762695,403.650391 C70.0200163,403.650391 69.4692405,403.889158 69.0239258,404.366699 C68.5786111,404.844241 68.3032232,405.513668 68.1977539,406.375 L72.9614258,406.375 L72.9614258,406.251953 C72.9145505,405.425777 72.6918965,404.785647 72.293457,404.331543 C71.8950175,403.877439 71.3559604,403.650391 70.6762695,403.650391 Z M80.2827148,410.848633 C80.8627959,410.848633 81.3696267,410.672853 81.8032227,410.321289 C82.2368186,409.969725 82.4770505,409.530276 82.5239258,409.00293 L84.0620117,409.00293 C84.0327147,409.547854 83.8452166,410.066404 83.4995117,410.558594 C83.1538069,411.050784 82.6923857,411.443358 82.1152344,411.736328 C81.5380831,412.029298 80.9272493,412.175781 80.2827148,412.175781 C78.9877865,412.175781 77.9580116,411.743657 77.1933594,410.879395 C76.4287071,410.015132 76.0463867,408.833015 76.0463867,407.333008 L76.0463867,407.060547 C76.0463867,406.134761 76.2163069,405.311527 76.5561523,404.59082 C76.8959978,403.870114 77.3837859,403.310549 78.0195312,402.912109 C78.6552766,402.51367 79.4067339,402.314453 80.2739258,402.314453 C81.3403374,402.314453 82.226559,402.633786 82.9326172,403.272461 C83.6386754,403.911136 84.0151365,404.740229 84.0620117,405.759766 L82.5239258,405.759766 C82.4770505,405.144528 82.2441427,404.639162 81.8251953,404.243652 C81.4062479,403.848143 80.8891632,403.650391 80.2739258,403.650391 C79.4477498,403.650391 78.8076195,403.947751 78.3535156,404.54248 C77.8994118,405.13721 77.6723633,405.997065 77.6723633,407.12207 L77.6723633,407.429688 C77.6723633,408.525396 77.897947,409.369138 78.3491211,409.960938 C78.8002952,410.552737 79.44482,410.848633 80.2827148,410.848633 Z M91.7612305,411.05957 C91.1284148,411.803715 90.1997132,412.175781 88.9750977,412.175781 C87.9614207,412.175781 87.1894558,411.881351 86.6591797,411.29248 C86.1289036,410.70361 85.8608399,409.832037 85.8549805,408.677734 L85.8549805,402.490234 L87.480957,402.490234 L87.480957,408.633789 C87.480957,410.075203 88.0668887,410.795898 89.2387695,410.795898 C90.4809632,410.795898 91.3071269,410.333012 91.7172852,409.407227 L91.7172852,402.490234 L93.3432617,402.490234 L93.3432617,412 L91.7963867,412 L91.7612305,411.05957 Z M100.409668,403.949219 C100.163573,403.908203 99.8969741,403.887695 99.6098633,403.887695 C98.5434517,403.887695 97.8198261,404.341792 97.4389648,405.25 L97.4389648,412 L95.8129883,412 L95.8129883,402.490234 L97.3950195,402.490234 L97.4213867,403.588867 C97.9545925,402.739254 98.7104443,402.314453 99.6889648,402.314453 C100.005373,402.314453 100.245605,402.355468 100.409668,402.4375 L100.409668,403.949219 Z M105.683105,412.175781 C104.394037,412.175781 103.345219,411.752446 102.536621,410.905762 C101.728023,410.059078 101.32373,408.926765 101.32373,407.508789 L101.32373,407.209961 C101.32373,406.266597 101.503904,405.42432 101.864258,404.683105 C102.224611,403.941891 102.728512,403.361819 103.375977,402.942871 C104.023441,402.523924 104.725094,402.314453 105.480957,402.314453 C106.717291,402.314453 107.678219,402.721676 108.36377,403.536133 C109.04932,404.35059 109.39209,405.516594 109.39209,407.03418 L109.39209,407.710938 L102.949707,407.710938 C102.973145,408.648442 103.247068,409.405759 103.771484,409.98291 C104.295901,410.560061 104.962398,410.848633 105.770996,410.848633 C106.345218,410.848633 106.831541,410.731446 107.22998,410.49707 C107.62842,410.262694 107.977049,409.95215 108.275879,409.56543 L109.269043,410.338867 C108.472164,411.563483 107.276863,412.175781 105.683105,412.175781 Z M105.480957,403.650391 C104.824704,403.650391 104.273928,403.889158 103.828613,404.366699 C103.383299,404.844241 103.107911,405.513668 103.002441,406.375 L107.766113,406.375 L107.766113,406.251953 C107.719238,405.425777 107.496584,404.785647 107.098145,404.331543 C106.699705,403.877439 106.160648,403.650391 105.480957,403.650391 Z M110.877441,407.166016 C110.877441,405.707024 111.223141,404.533696 111.914551,403.645996 C112.60596,402.758296 113.511225,402.314453 114.630371,402.314453 C115.743658,402.314453 116.625485,402.695309 117.275879,403.457031 L117.275879,398.5 L118.901855,398.5 L118.901855,412 L117.407715,412 L117.328613,410.980469 C116.678219,411.777348 115.772955,412.175781 114.612793,412.175781 C113.511225,412.175781 112.613285,411.724614 111.918945,410.822266 C111.224606,409.919917 110.877441,408.742195 110.877441,407.289062 L110.877441,407.166016 Z M112.503418,407.350586 C112.503418,408.428716 112.726072,409.272458 113.171387,409.881836 C113.616701,410.491214 114.23193,410.795898 115.01709,410.795898 C116.048345,410.795898 116.801267,410.333012 117.275879,409.407227 L117.275879,405.039062 C116.789548,404.142574 116.042486,403.694336 115.034668,403.694336 C114.237789,403.694336 113.616701,404.00195 113.171387,404.617188 C112.726072,405.232425 112.503418,406.143549 112.503418,407.350586 Z M127.822754,406.990234 L127.822754,412 L126.135254,412 L126.135254,399.203125 L130.85498,399.203125 C132.255378,399.203125 133.352535,399.560543 134.146484,400.275391 C134.940434,400.990238 135.337402,401.936518 135.337402,403.114258 C135.337402,404.356452 134.949223,405.312985 134.172852,405.983887 C133.39648,406.654789 132.284675,406.990234 130.837402,406.990234 L127.822754,406.990234 Z M127.822754,405.610352 L130.85498,405.610352 C131.757329,405.610352 132.448728,405.397951 132.929199,404.973145 C133.40967,404.548338 133.649902,403.934574 133.649902,403.131836 C133.649902,402.370113 133.40967,401.760744 132.929199,401.303711 C132.448728,400.846677 131.789555,400.609375 130.95166,400.591797 L127.822754,400.591797 L127.822754,405.610352 Z M141.067871,412.175781 C139.778802,412.175781 138.729985,411.752446 137.921387,410.905762 C137.112789,410.059078 136.708496,408.926765 136.708496,407.508789 L136.708496,407.209961 C136.708496,406.266597 136.88867,405.42432 137.249023,404.683105 C137.609377,403.941891 138.113278,403.361819 138.760742,402.942871 C139.408206,402.523924 140.10986,402.314453 140.865723,402.314453 C142.102057,402.314453 143.062985,402.721676 143.748535,403.536133 C144.434085,404.35059 144.776855,405.516594 144.776855,407.03418 L144.776855,407.710938 L138.334473,407.710938 C138.35791,408.648442 138.631833,409.405759 139.15625,409.98291 C139.680667,410.560061 140.347164,410.848633 141.155762,410.848633 C141.729983,410.848633 142.216307,410.731446 142.614746,410.49707 C143.013186,410.262694 143.361815,409.95215 143.660645,409.56543 L144.653809,410.338867 C143.85693,411.563483 142.661629,412.175781 141.067871,412.175781 Z M140.865723,403.650391 C140.209469,403.650391 139.658694,403.889158 139.213379,404.366699 C138.768064,404.844241 138.492676,405.513668 138.387207,406.375 L143.150879,406.375 L143.150879,406.251953 C143.104004,405.425777 142.88135,404.785647 142.48291,404.331543 C142.084471,403.877439 141.545414,403.650391 140.865723,403.650391 Z M148.86377,400.1875 L148.86377,402.490234 L150.63916,402.490234 L150.63916,403.74707 L148.86377,403.74707 L148.86377,409.644531 C148.86377,410.025393 148.94287,410.311034 149.101074,410.501465 C149.259278,410.691895 149.528807,410.787109 149.909668,410.787109 C150.097169,410.787109 150.354979,410.751953 150.683105,410.681641 L150.683105,412 C150.255369,412.117188 149.839357,412.175781 149.435059,412.175781 C148.708492,412.175781 148.160646,411.956057 147.791504,411.516602 C147.422361,411.077146 147.237793,410.453129 147.237793,409.644531 L147.237793,403.74707 L145.506348,403.74707 L145.506348,402.490234 L147.237793,402.490234 L147.237793,400.1875 L148.86377,400.1875 Z M167.092285,406.014648 C167.092285,407.268561 166.88135,408.362788 166.459473,409.297363 C166.037596,410.231938 165.439945,410.94531 164.666504,411.4375 C163.893063,411.92969 162.990728,412.175781 161.959473,412.175781 C160.951655,412.175781 160.058109,411.928225 159.278809,411.433105 C158.499508,410.937986 157.894533,410.231938 157.463867,409.314941 C157.033201,408.397945 156.812012,407.335944 156.800293,406.128906 L156.800293,405.206055 C156.800293,403.97558 157.014158,402.888677 157.441895,401.945312 C157.869631,401.001948 158.474605,400.279788 159.256836,399.778809 C160.039066,399.27783 160.934077,399.027344 161.941895,399.027344 C162.96729,399.027344 163.87109,399.2749 164.65332,399.77002 C165.435551,400.265139 166.037596,400.982905 166.459473,401.92334 C166.88135,402.863774 167.092285,403.958002 167.092285,405.206055 L167.092285,406.014648 Z M165.413574,405.188477 C165.413574,403.670891 165.10889,402.506352 164.499512,401.694824 C163.890134,400.883297 163.037603,400.477539 161.941895,400.477539 C160.875483,400.477539 160.036136,400.883297 159.423828,401.694824 C158.81152,402.506352 158.496582,403.632805 158.479004,405.074219 L158.479004,406.014648 C158.479004,407.485359 158.788083,408.641109 159.40625,409.481934 C160.024417,410.322758 160.875483,410.743164 161.959473,410.743164 C163.049322,410.743164 163.893063,410.346195 164.490723,409.552246 C165.088382,408.758297 165.395996,407.620125 165.413574,406.137695 L165.413574,405.188477 Z M177.788574,409.758789 L179.616699,402.490234 L181.242676,402.490234 L178.474121,412 L177.155762,412 L174.844238,404.792969 L172.594238,412 L171.275879,412 L168.516113,402.490234 L170.133301,402.490234 L172.005371,409.609375 L174.220215,402.490234 L175.529785,402.490234 L177.788574,409.758789 Z M184.433105,402.490234 L184.48584,403.685547 C185.212406,402.77148 186.161615,402.314453 187.333496,402.314453 C189.343272,402.314453 190.356934,403.448231 190.374512,405.71582 L190.374512,412 L188.748535,412 L188.748535,405.707031 C188.742676,405.021481 188.585939,404.51465 188.27832,404.186523 C187.970702,403.858397 187.491702,403.694336 186.841309,403.694336 C186.313962,403.694336 185.851076,403.83496 185.452637,404.116211 C185.054197,404.397462 184.743653,404.766599 184.520996,405.223633 L184.520996,412 L182.89502,412 L182.89502,402.490234 L184.433105,402.490234 Z M196.772949,412.175781 C195.48388,412.175781 194.435063,411.752446 193.626465,410.905762 C192.817867,410.059078 192.413574,408.926765 192.413574,407.508789 L192.413574,407.209961 C192.413574,406.266597 192.593748,405.42432 192.954102,404.683105 C193.314455,403.941891 193.818356,403.361819 194.46582,402.942871 C195.113284,402.523924 195.814938,402.314453 196.570801,402.314453 C197.807135,402.314453 198.768063,402.721676 199.453613,403.536133 C200.139164,404.35059 200.481934,405.516594 200.481934,407.03418 L200.481934,407.710938 L194.039551,407.710938 C194.062988,408.648442 194.336911,409.405759 194.861328,409.98291 C195.385745,410.560061 196.052242,410.848633 196.86084,410.848633 C197.435061,410.848633 197.921385,410.731446 198.319824,410.49707 C198.718264,410.262694 199.066893,409.95215 199.365723,409.56543 L200.358887,410.338867 C199.562008,411.563483 198.366707,412.175781 196.772949,412.175781 Z M196.570801,403.650391 C195.914548,403.650391 195.363772,403.889158 194.918457,404.366699 C194.473142,404.844241 194.197754,405.513668 194.092285,406.375 L198.855957,406.375 L198.855957,406.251953 C198.809082,405.425777 198.586428,404.785647 198.187988,404.331543 C197.789549,403.877439 197.250492,403.650391 196.570801,403.650391 Z M206.959473,403.949219 C206.713378,403.908203 206.446779,403.887695 206.159668,403.887695 C205.093256,403.887695 204.369631,404.341792 203.98877,405.25 L203.98877,412 L202.362793,412 L202.362793,402.490234 L203.944824,402.490234 L203.971191,403.588867 C204.504397,402.739254 205.260249,402.314453 206.23877,402.314453 C206.555177,402.314453 206.795409,402.355468 206.959473,402.4375 L206.959473,403.949219 Z M208.708496,402.806641 L207.785645,402.173828 C208.330569,401.412106 208.611816,400.609379 208.629395,399.765625 L208.629395,398.5 L210.237793,398.5 L210.237793,399.642578 C210.231934,400.228519 210.086915,400.812985 209.802734,401.395996 C209.518553,401.979007 209.153811,402.449217 208.708496,402.806641 Z M216.741699,409.477539 C216.741699,409.038084 216.576174,408.696779 216.245117,408.453613 C215.914061,408.210448 215.336918,408.000977 214.513672,407.825195 C213.690426,407.649413 213.037112,407.438478 212.553711,407.192383 C212.07031,406.946288 211.712892,406.653322 211.481445,406.313477 C211.249999,405.973631 211.134277,405.569338 211.134277,405.100586 C211.134277,404.321285 211.463864,403.662112 212.123047,403.123047 C212.78223,402.583982 213.624507,402.314453 214.649902,402.314453 C215.728033,402.314453 216.602536,402.592771 217.273438,403.149414 C217.944339,403.706057 218.279785,404.417964 218.279785,405.285156 L216.64502,405.285156 C216.64502,404.839842 216.456057,404.456056 216.078125,404.133789 C215.700193,403.811522 215.224124,403.650391 214.649902,403.650391 C214.058103,403.650391 213.595217,403.779296 213.26123,404.037109 C212.927244,404.294923 212.760254,404.631834 212.760254,405.047852 C212.760254,405.440432 212.915526,405.736327 213.226074,405.935547 C213.536623,406.134767 214.097652,406.325194 214.90918,406.506836 C215.720707,406.688477 216.378415,406.905272 216.882324,407.157227 C217.386233,407.409181 217.759764,407.712401 218.00293,408.066895 C218.246095,408.421388 218.367676,408.853513 218.367676,409.363281 C218.367676,410.212895 218.027835,410.89404 217.348145,411.406738 C216.668454,411.919436 215.786627,412.175781 214.702637,412.175781 C213.940914,412.175781 213.267093,412.041017 212.681152,411.771484 C212.095212,411.501952 211.63672,411.125491 211.305664,410.64209 C210.974608,410.158689 210.809082,409.635745 210.809082,409.073242 L212.435059,409.073242 C212.464356,409.618167 212.682615,410.050291 213.089844,410.369629 C213.497072,410.688966 214.034665,410.848633 214.702637,410.848633 C215.317874,410.848633 215.811522,410.724122 216.183594,410.475098 C216.555666,410.226073 216.741699,409.893557 216.741699,409.477539 Z M225.196777,412 L225.196777,399.203125 L228.809082,399.203125 C229.922369,399.203125 230.906734,399.449216 231.762207,399.941406 C232.61768,400.433596 233.278318,401.133785 233.744141,402.041992 C234.209963,402.9502 234.445801,403.993158 234.45166,405.170898 L234.45166,405.988281 C234.45166,407.195319 234.218752,408.252925 233.75293,409.161133 C233.287107,410.06934 232.622075,410.766599 231.757812,411.25293 C230.89355,411.73926 229.887213,411.988281 228.73877,412 L225.196777,412 Z M226.884277,400.591797 L226.884277,410.620117 L228.659668,410.620117 C229.960456,410.620117 230.972653,410.215824 231.696289,409.407227 C232.419925,408.598629 232.781738,407.447273 232.781738,405.953125 L232.781738,405.206055 C232.781738,403.752922 232.440433,402.623539 231.757812,401.817871 C231.075192,401.012203 230.10694,400.603516 228.853027,400.591797 L226.884277,400.591797 Z M242.616699,412 C242.522949,411.812499 242.446778,411.478518 242.388184,410.998047 C241.63232,411.783207 240.729986,412.175781 239.681152,412.175781 C238.743648,412.175781 237.974612,411.910647 237.374023,411.380371 C236.773434,410.850095 236.473145,410.177738 236.473145,409.363281 C236.473145,408.373042 236.849606,407.604007 237.602539,407.056152 C238.355473,406.508298 239.414544,406.234375 240.779785,406.234375 L242.361816,406.234375 L242.361816,405.487305 C242.361816,404.918942 242.191896,404.46631 241.852051,404.129395 C241.512205,403.792479 241.011234,403.624023 240.349121,403.624023 C239.76904,403.624023 239.282717,403.770506 238.890137,404.063477 C238.497557,404.356447 238.30127,404.710935 238.30127,405.126953 L236.666504,405.126953 C236.666504,404.652341 236.834959,404.19385 237.171875,403.751465 C237.508791,403.30908 237.965817,402.958986 238.542969,402.701172 C239.12012,402.443358 239.754391,402.314453 240.445801,402.314453 C241.541509,402.314453 242.399899,402.588376 243.020996,403.13623 C243.642093,403.684085 243.964355,404.438472 243.987793,405.399414 L243.987793,409.776367 C243.987793,410.649418 244.09912,411.343747 244.321777,411.859375 L244.321777,412 L242.616699,412 Z M239.918457,410.760742 C240.428225,410.760742 240.911619,410.628908 241.368652,410.365234 C241.825686,410.101561 242.156737,409.758791 242.361816,409.336914 L242.361816,407.385742 L241.087402,407.385742 C239.095205,407.385742 238.099121,407.968744 238.099121,409.134766 C238.099121,409.644534 238.269041,410.042967 238.608887,410.330078 C238.948732,410.617189 239.385251,410.760742 239.918457,410.760742 Z M248.742676,400.1875 L248.742676,402.490234 L250.518066,402.490234 L250.518066,403.74707 L248.742676,403.74707 L248.742676,409.644531 C248.742676,410.025393 248.821777,410.311034 248.97998,410.501465 C249.138184,410.691895 249.407713,410.787109 249.788574,410.787109 C249.976075,410.787109 250.233885,410.751953 250.562012,410.681641 L250.562012,412 C250.134275,412.117188 249.718264,412.175781 249.313965,412.175781 C248.587399,412.175781 248.039553,411.956057 247.67041,411.516602 C247.301268,411.077146 247.116699,410.453129 247.116699,409.644531 L247.116699,403.74707 L245.385254,403.74707 L245.385254,402.490234 L247.116699,402.490234 L247.116699,400.1875 L248.742676,400.1875 Z M258.287598,412 C258.193847,411.812499 258.117676,411.478518 258.059082,410.998047 C257.303219,411.783207 256.400884,412.175781 255.352051,412.175781 C254.414546,412.175781 253.645511,411.910647 253.044922,411.380371 C252.444333,410.850095 252.144043,410.177738 252.144043,409.363281 C252.144043,408.373042 252.520504,407.604007 253.273438,407.056152 C254.026371,406.508298 255.085442,406.234375 256.450684,406.234375 L258.032715,406.234375 L258.032715,405.487305 C258.032715,404.918942 257.862795,404.46631 257.522949,404.129395 C257.183104,403.792479 256.682132,403.624023 256.02002,403.624023 C255.439939,403.624023 254.953615,403.770506 254.561035,404.063477 C254.168455,404.356447 253.972168,404.710935 253.972168,405.126953 L252.337402,405.126953 C252.337402,404.652341 252.505858,404.19385 252.842773,403.751465 C253.179689,403.30908 253.636716,402.958986 254.213867,402.701172 C254.791019,402.443358 255.42529,402.314453 256.116699,402.314453 C257.212408,402.314453 258.070798,402.588376 258.691895,403.13623 C259.312991,403.684085 259.635254,404.438472 259.658691,405.399414 L259.658691,409.776367 C259.658691,410.649418 259.770018,411.343747 259.992676,411.859375 L259.992676,412 L258.287598,412 Z M255.589355,410.760742 C256.099124,410.760742 256.582517,410.628908 257.039551,410.365234 C257.496584,410.101561 257.827636,409.758791 258.032715,409.336914 L258.032715,407.385742 L256.758301,407.385742 C254.766103,407.385742 253.77002,407.968744 253.77002,409.134766 C253.77002,409.644534 253.93994,410.042967 254.279785,410.330078 C254.619631,410.617189 255.05615,410.760742 255.589355,410.760742 Z M132.107422,432.990234 L132.107422,438 L130.419922,438 L130.419922,425.203125 L135.139648,425.203125 C136.540046,425.203125 137.637203,425.560543 138.431152,426.275391 C139.225102,426.990238 139.62207,427.936518 139.62207,429.114258 C139.62207,430.356452 139.233891,431.312985 138.45752,431.983887 C137.681148,432.654789 136.569343,432.990234 135.12207,432.990234 L132.107422,432.990234 Z M132.107422,431.610352 L135.139648,431.610352 C136.041997,431.610352 136.733396,431.397951 137.213867,430.973145 C137.694338,430.548338 137.93457,429.934574 137.93457,429.131836 C137.93457,428.370113 137.694338,427.760744 137.213867,427.303711 C136.733396,426.846677 136.074223,426.609375 135.236328,426.591797 L132.107422,426.591797 L132.107422,431.610352 Z M146.117188,429.949219 C145.871093,429.908203 145.604494,429.887695 145.317383,429.887695 C144.250971,429.887695 143.527346,430.341792 143.146484,431.25 L143.146484,438 L141.520508,438 L141.520508,428.490234 L143.102539,428.490234 L143.128906,429.588867 C143.662112,428.739254 144.417964,428.314453 145.396484,428.314453 C145.712892,428.314453 145.953124,428.355468 146.117188,428.4375 L146.117188,429.949219 Z M149.37793,438 L147.751953,438 L147.751953,428.490234 L149.37793,428.490234 L149.37793,438 Z M147.620117,425.967773 C147.620117,425.7041 147.700683,425.481446 147.861816,425.299805 C148.02295,425.118163 148.261717,425.027344 148.578125,425.027344 C148.894533,425.027344 149.134765,425.118163 149.298828,425.299805 C149.462891,425.481446 149.544922,425.7041 149.544922,425.967773 C149.544922,426.231447 149.462891,426.451171 149.298828,426.626953 C149.134765,426.802735 148.894533,426.890625 148.578125,426.890625 C148.261717,426.890625 148.02295,426.802735 147.861816,426.626953 C147.700683,426.451171 147.620117,426.231447 147.620117,425.967773 Z M155.117188,435.793945 L157.472656,428.490234 L159.133789,428.490234 L155.723633,438 L154.484375,438 L151.039062,428.490234 L152.700195,428.490234 L155.117188,435.793945 Z M166.4375,438 C166.34375,437.812499 166.267578,437.478518 166.208984,436.998047 C165.453121,437.783207 164.550786,438.175781 163.501953,438.175781 C162.564448,438.175781 161.795413,437.910647 161.194824,437.380371 C160.594235,436.850095 160.293945,436.177738 160.293945,435.363281 C160.293945,434.373042 160.670406,433.604007 161.42334,433.056152 C162.176273,432.508298 163.235345,432.234375 164.600586,432.234375 L166.182617,432.234375 L166.182617,431.487305 C166.182617,430.918942 166.012697,430.46631 165.672852,430.129395 C165.333006,429.792479 164.832035,429.624023 164.169922,429.624023 C163.589841,429.624023 163.103518,429.770506 162.710938,430.063477 C162.318357,430.356447 162.12207,430.710935 162.12207,431.126953 L160.487305,431.126953 C160.487305,430.652341 160.65576,430.19385 160.992676,429.751465 C161.329592,429.30908 161.786618,428.958986 162.36377,428.701172 C162.940921,428.443358 163.575192,428.314453 164.266602,428.314453 C165.36231,428.314453 166.2207,428.588376 166.841797,429.13623 C167.462894,429.684085 167.785156,430.438472 167.808594,431.399414 L167.808594,435.776367 C167.808594,436.649418 167.919921,437.343747 168.142578,437.859375 L168.142578,438 L166.4375,438 Z M163.739258,436.760742 C164.249026,436.760742 164.73242,436.628908 165.189453,436.365234 C165.646487,436.101561 165.977538,435.758791 166.182617,435.336914 L166.182617,433.385742 L164.908203,433.385742 C162.916006,433.385742 161.919922,433.968744 161.919922,435.134766 C161.919922,435.644534 162.089842,436.042967 162.429688,436.330078 C162.769533,436.617189 163.206052,436.760742 163.739258,436.760742 Z M174.171875,436.848633 C174.751956,436.848633 175.258787,436.672853 175.692383,436.321289 C176.125979,435.969725 176.366211,435.530276 176.413086,435.00293 L177.951172,435.00293 C177.921875,435.547854 177.734377,436.066404 177.388672,436.558594 C177.042967,437.050784 176.581546,437.443358 176.004395,437.736328 C175.427243,438.029298 174.816409,438.175781 174.171875,438.175781 C172.876947,438.175781 171.847172,437.743657 171.08252,436.879395 C170.317867,436.015132 169.935547,434.833015 169.935547,433.333008 L169.935547,433.060547 C169.935547,432.134761 170.105467,431.311527 170.445312,430.59082 C170.785158,429.870114 171.272946,429.310549 171.908691,428.912109 C172.544437,428.51367 173.295894,428.314453 174.163086,428.314453 C175.229498,428.314453 176.115719,428.633786 176.821777,429.272461 C177.527836,429.911136 177.904297,430.740229 177.951172,431.759766 L176.413086,431.759766 C176.366211,431.144528 176.133303,430.639162 175.714355,430.243652 C175.295408,429.848143 174.778323,429.650391 174.163086,429.650391 C173.33691,429.650391 172.69678,429.947751 172.242676,430.54248 C171.788572,431.13721 171.561523,431.997065 171.561523,433.12207 L171.561523,433.429688 C171.561523,434.525396 171.787107,435.369138 172.238281,435.960938 C172.689455,436.552737 173.33398,436.848633 174.171875,436.848633 Z M182.890625,435.618164 L185.105469,428.490234 L186.845703,428.490234 L183.022461,439.467773 C182.430661,441.049813 181.490241,441.84082 180.201172,441.84082 L179.893555,441.814453 L179.287109,441.700195 L179.287109,440.381836 L179.726562,440.416992 C180.277347,440.416992 180.706541,440.305665 181.01416,440.083008 C181.321779,439.86035 181.575194,439.453128 181.774414,438.861328 L182.134766,437.894531 L178.742188,428.490234 L180.517578,428.490234 L182.890625,435.618164 Z" id="SecuredPetOwner’sDataPrivacy" fill="#505050" fill-rule="nonzero"></path>
                <path d="M108.108887,527.295898 C106.661614,526.879881 105.608402,526.368655 104.949219,525.762207 C104.290036,525.155759 103.960449,524.407231 103.960449,523.516602 C103.960449,522.508784 104.363277,521.675296 105.168945,521.016113 C105.974613,520.35693 107.021966,520.027344 108.311035,520.027344 C109.189946,520.027344 109.973629,520.197264 110.662109,520.537109 C111.350589,520.876955 111.883787,521.3457 112.261719,521.943359 C112.63965,522.541019 112.828613,523.194332 112.828613,523.90332 L111.132324,523.90332 C111.132324,523.129879 110.886233,522.521975 110.394043,522.07959 C109.901853,521.637205 109.207524,521.416016 108.311035,521.416016 C107.479,521.416016 106.83008,521.599119 106.364258,521.965332 C105.898435,522.331545 105.665527,522.83984 105.665527,523.490234 C105.665527,524.011721 105.886717,524.452635 106.329102,524.812988 C106.771487,525.173342 107.524409,525.502928 108.587891,525.801758 C109.651373,526.100587 110.483395,526.430174 111.083984,526.790527 C111.684573,527.150881 112.129881,527.571287 112.419922,528.051758 C112.709962,528.532229 112.85498,529.097653 112.85498,529.748047 C112.85498,530.785161 112.450688,531.61572 111.64209,532.239746 C110.833492,532.863773 109.752448,533.175781 108.398926,533.175781 C107.520015,533.175781 106.699711,533.007326 105.937988,532.67041 C105.176266,532.333494 104.588869,531.872073 104.175781,531.286133 C103.762693,530.700192 103.556152,530.03516 103.556152,529.291016 L105.252441,529.291016 C105.252441,530.064457 105.538083,530.675291 106.109375,531.123535 C106.680667,531.57178 107.443843,531.795898 108.398926,531.795898 C109.289555,531.795898 109.972166,531.61426 110.446777,531.250977 C110.921389,530.887693 111.158691,530.392581 111.158691,529.765625 C111.158691,529.138669 110.938967,528.65381 110.499512,528.311035 C110.060056,527.96826 109.263189,527.629884 108.108887,527.295898 Z M118.787598,527.295898 C117.340325,526.879881 116.287113,526.368655 115.62793,525.762207 C114.968747,525.155759 114.63916,524.407231 114.63916,523.516602 C114.63916,522.508784 115.041988,521.675296 115.847656,521.016113 C116.653324,520.35693 117.700677,520.027344 118.989746,520.027344 C119.868657,520.027344 120.65234,520.197264 121.34082,520.537109 C122.0293,520.876955 122.562498,521.3457 122.94043,521.943359 C123.318361,522.541019 123.507324,523.194332 123.507324,523.90332 L121.811035,523.90332 C121.811035,523.129879 121.564944,522.521975 121.072754,522.07959 C120.580564,521.637205 119.886235,521.416016 118.989746,521.416016 C118.157711,521.416016 117.508791,521.599119 117.042969,521.965332 C116.577146,522.331545 116.344238,522.83984 116.344238,523.490234 C116.344238,524.011721 116.565427,524.452635 117.007812,524.812988 C117.450198,525.173342 118.20312,525.502928 119.266602,525.801758 C120.330083,526.100587 121.162106,526.430174 121.762695,526.790527 C122.363284,527.150881 122.808592,527.571287 123.098633,528.051758 C123.388673,528.532229 123.533691,529.097653 123.533691,529.748047 C123.533691,530.785161 123.129399,531.61572 122.320801,532.239746 C121.512203,532.863773 120.431159,533.175781 119.077637,533.175781 C118.198726,533.175781 117.378422,533.007326 116.616699,532.67041 C115.854977,532.333494 115.26758,531.872073 114.854492,531.286133 C114.441404,530.700192 114.234863,530.03516 114.234863,529.291016 L115.931152,529.291016 C115.931152,530.064457 116.216794,530.675291 116.788086,531.123535 C117.359378,531.57178 118.122554,531.795898 119.077637,531.795898 C119.968266,531.795898 120.650877,531.61426 121.125488,531.250977 C121.6001,530.887693 121.837402,530.392581 121.837402,529.765625 C121.837402,529.138669 121.617678,528.65381 121.178223,528.311035 C120.738767,527.96826 119.9419,527.629884 118.787598,527.295898 Z M127.39209,531.620117 L133.456543,531.620117 L133.456543,533 L125.695801,533 L125.695801,520.203125 L127.39209,520.203125 L127.39209,531.620117 Z M147.070801,527.084961 L141.524902,527.084961 L141.524902,531.620117 L147.967285,531.620117 L147.967285,533 L139.837402,533 L139.837402,520.203125 L147.879395,520.203125 L147.879395,521.591797 L141.524902,521.591797 L141.524902,525.705078 L147.070801,525.705078 L147.070801,527.084961 Z M153.460449,531.848633 C154.04053,531.848633 154.547361,531.672853 154.980957,531.321289 C155.414553,530.969725 155.654785,530.530276 155.70166,530.00293 L157.239746,530.00293 C157.210449,530.547854 157.022951,531.066404 156.677246,531.558594 C156.331541,532.050784 155.87012,532.443358 155.292969,532.736328 C154.715817,533.029298 154.104984,533.175781 153.460449,533.175781 C152.165521,533.175781 151.135746,532.743657 150.371094,531.879395 C149.606441,531.015132 149.224121,529.833015 149.224121,528.333008 L149.224121,528.060547 C149.224121,527.134761 149.394041,526.311527 149.733887,525.59082 C150.073732,524.870114 150.56152,524.310549 151.197266,523.912109 C151.833011,523.51367 152.584468,523.314453 153.45166,523.314453 C154.518072,523.314453 155.404293,523.633786 156.110352,524.272461 C156.81641,524.911136 157.192871,525.740229 157.239746,526.759766 L155.70166,526.759766 C155.654785,526.144528 155.421877,525.639162 155.00293,525.243652 C154.583982,524.848143 154.066898,524.650391 153.45166,524.650391 C152.625484,524.650391 151.985354,524.947751 151.53125,525.54248 C151.077146,526.13721 150.850098,526.997065 150.850098,528.12207 L150.850098,528.429688 C150.850098,529.525396 151.075681,530.369138 151.526855,530.960938 C151.97803,531.552737 152.622554,531.848633 153.460449,531.848633 Z M163.664551,524.949219 C163.418456,524.908203 163.151857,524.887695 162.864746,524.887695 C161.798335,524.887695 161.074709,525.341792 160.693848,526.25 L160.693848,533 L159.067871,533 L159.067871,523.490234 L160.649902,523.490234 L160.67627,524.588867 C161.209475,523.739254 161.965327,523.314453 162.943848,523.314453 C163.260255,523.314453 163.500487,523.355468 163.664551,523.4375 L163.664551,524.949219 Z M168.428223,530.618164 L170.643066,523.490234 L172.383301,523.490234 L168.560059,534.467773 C167.968259,536.049813 167.027838,536.84082 165.73877,536.84082 L165.431152,536.814453 L164.824707,536.700195 L164.824707,535.381836 L165.26416,535.416992 C165.814944,535.416992 166.244139,535.305665 166.551758,535.083008 C166.859377,534.86035 167.112792,534.453128 167.312012,533.861328 L167.672363,532.894531 L164.279785,523.490234 L166.055176,523.490234 L168.428223,530.618164 Z M181.866699,528.350586 C181.866699,529.797859 181.535648,530.963863 180.873535,531.848633 C180.211422,532.733403 179.314947,533.175781 178.184082,533.175781 C177.029779,533.175781 176.121585,532.809574 175.459473,532.077148 L175.459473,536.65625 L173.833496,536.65625 L173.833496,523.490234 L175.318848,523.490234 L175.397949,524.544922 C176.060062,523.724605 176.979975,523.314453 178.157715,523.314453 C179.300299,523.314453 180.204098,523.745113 180.869141,524.606445 C181.534183,525.467778 181.866699,526.666008 181.866699,528.201172 L181.866699,528.350586 Z M180.240723,528.166016 C180.240723,527.093745 180.012209,526.247073 179.555176,525.625977 C179.098142,525.00488 178.471195,524.694336 177.674316,524.694336 C176.689936,524.694336 175.951663,525.130855 175.459473,526.003906 L175.459473,530.547852 C175.945803,531.415043 176.689936,531.848633 177.691895,531.848633 C178.471195,531.848633 179.090818,531.539554 179.550781,530.921387 C180.010744,530.30322 180.240723,529.384772 180.240723,528.166016 Z M186.138184,521.1875 L186.138184,523.490234 L187.913574,523.490234 L187.913574,524.74707 L186.138184,524.74707 L186.138184,530.644531 C186.138184,531.025393 186.217284,531.311034 186.375488,531.501465 C186.533692,531.691895 186.803221,531.787109 187.184082,531.787109 C187.371583,531.787109 187.629393,531.751953 187.95752,531.681641 L187.95752,533 C187.529783,533.117188 187.113772,533.175781 186.709473,533.175781 C185.982907,533.175781 185.43506,532.956057 185.065918,532.516602 C184.696775,532.077146 184.512207,531.453129 184.512207,530.644531 L184.512207,524.74707 L182.780762,524.74707 L182.780762,523.490234 L184.512207,523.490234 L184.512207,521.1875 L186.138184,521.1875 Z M191.578613,533 L189.952637,533 L189.952637,523.490234 L191.578613,523.490234 L191.578613,533 Z M189.820801,520.967773 C189.820801,520.7041 189.901366,520.481446 190.0625,520.299805 C190.223634,520.118163 190.462401,520.027344 190.778809,520.027344 C191.095216,520.027344 191.335448,520.118163 191.499512,520.299805 C191.663575,520.481446 191.745605,520.7041 191.745605,520.967773 C191.745605,521.231447 191.663575,521.451171 191.499512,521.626953 C191.335448,521.802735 191.095216,521.890625 190.778809,521.890625 C190.462401,521.890625 190.223634,521.802735 190.0625,521.626953 C189.901366,521.451171 189.820801,521.231447 189.820801,520.967773 Z M193.749512,528.157227 C193.749512,527.225581 193.932615,526.387699 194.298828,525.643555 C194.665041,524.89941 195.174801,524.325197 195.828125,523.920898 C196.481449,523.5166 197.227047,523.314453 198.064941,523.314453 C199.35987,523.314453 200.407223,523.762691 201.207031,524.65918 C202.00684,525.555669 202.406738,526.748039 202.406738,528.236328 L202.406738,528.350586 C202.406738,529.276372 202.229494,530.10693 201.875,530.842285 C201.520506,531.57764 201.013675,532.150389 200.354492,532.560547 C199.695309,532.970705 198.937993,533.175781 198.08252,533.175781 C196.793451,533.175781 195.749027,532.727544 194.949219,531.831055 C194.14941,530.934566 193.749512,529.748054 193.749512,528.271484 L193.749512,528.157227 Z M195.384277,528.350586 C195.384277,529.405279 195.628904,530.25195 196.118164,530.890625 C196.607424,531.5293 197.262203,531.848633 198.08252,531.848633 C198.908696,531.848633 199.564939,531.524906 200.05127,530.877441 C200.5376,530.229977 200.780762,529.323248 200.780762,528.157227 C200.780762,527.114253 200.533206,526.269046 200.038086,525.621582 C199.542966,524.974118 198.885258,524.650391 198.064941,524.650391 C197.262203,524.650391 196.614749,524.969723 196.122559,525.608398 C195.630369,526.247074 195.384277,527.161127 195.384277,528.350586 Z M205.983887,523.490234 L206.036621,524.685547 C206.763187,523.77148 207.712396,523.314453 208.884277,523.314453 C210.894053,523.314453 211.907715,524.448231 211.925293,526.71582 L211.925293,533 L210.299316,533 L210.299316,526.707031 C210.293457,526.021481 210.13672,525.51465 209.829102,525.186523 C209.521483,524.858397 209.042484,524.694336 208.39209,524.694336 C207.864743,524.694336 207.401857,524.83496 207.003418,525.116211 C206.604978,525.397462 206.294435,525.766599 206.071777,526.223633 L206.071777,533 L204.445801,533 L204.445801,523.490234 L205.983887,523.490234 Z" id="SSLEcryption" fill="#505050" fill-rule="nonzero"></path>
                <g id="shield-(1)" transform="translate(139.000000, 79.000000)" fill="#FFFFFF">
                    <g id="Shape">
                        <path d="M36.9153287,7.44858594 L19.674588,0.137371094 C19.2426898,-0.0457304687 18.7572222,-0.0458203125 18.325412,0.137371094 L1.0846713,7.44858594 C0.428027778,7.72710156 0,8.38188281 0,9.10808984 L0,17.9958828 C0,30.2337695 7.24190278,41.2420547 18.3351759,45.8667617 C18.7612685,46.0443828 19.2386435,46.0443828 19.6648241,45.8667617 C30.7579213,41.2421445 38,30.2338594 38,17.9958828 L38,9.10808984 C38,8.38188281 37.5720602,7.72710156 36.9153287,7.44858594 Z M34.4814815,17.9958828 C34.4814815,28.3993398 28.5,37.9764141 19,42.2513594 C9.75386111,38.0906055 3.51851852,28.6812695 3.51851852,17.9958828 L3.51851852,10.3076836 L19,3.74244141 L34.4814815,10.3076836 L34.4814815,17.9958828 Z M17.0554907,24.0526094 L24.6171389,16.3293711 C25.3041296,15.6276914 26.4180046,15.6276016 27.1050833,16.3293711 C27.792162,17.0311406 27.7920741,18.168832 27.1049954,18.8705117 L18.299463,27.8643203 C17.6122963,28.5661797 16.4984213,28.5659102 15.8115185,27.8643203 L10.8949167,22.8425938 C10.207838,22.1408242 10.207838,21.0031328 10.8949167,20.3014531 C11.5819954,19.5997734 12.6958704,19.5996836 13.3828611,20.3014531 L17.0554907,24.0526094 Z" fill-rule="nonzero"></path>
                    </g>
                </g>
            </g>
        </g>
    </g>
</svg>