<?xml version="1.0" encoding="UTF-8"?>
<svg width="299px" height="572px" viewBox="0 0 299 572" version="1.1" xmlns="http://www.w3.org/2000/svg" xmlns:xlink="http://www.w3.org/1999/xlink">
    <!-- Generator: Sketch 57.1 (83088) - https://sketch.com -->
    <title>Group 8</title>
    <desc>Created with Sketch.</desc>
    <g id="Page-1" stroke="none" stroke-width="1" fill="none" fill-rule="evenodd">
        <g id="Desktop-HD" transform="translate(-309.000000, -1537.000000)">
            <g id="Group-8" transform="translate(299.000000, 1537.000000)">
                <path d="M56.9603611,157.550285 C91.1114771,161.102128 125.12469,162.878049 159,162.878049 C193.339905,162.878049 227.538098,161.053081 261.594579,157.403144 L261.594579,157.403145 C284.65846,154.931318 305.359241,171.624477 307.831067,194.688358 C308.185195,197.99262 308.145909,201.327234 307.714034,204.622236 C300.571345,259.117604 297,312.410192 297,364.5 C297,418.804901 300.444813,471.949636 307.334439,523.934207 L307.334439,523.934207 C310.382001,546.929095 294.211498,568.040673 271.216609,571.088235 C267.77312,571.544608 264.286314,571.572035 260.836072,571.169888 C222.756016,566.731426 185.977325,564.512195 150.5,564.512195 C118.392447,564.512195 87.324251,566.284618 57.2954106,569.829465 L57.2954106,569.829465 C34.2594033,572.548821 13.3805559,556.078921 10.6611997,533.042914 C10.2055899,529.183386 10.2878649,525.279299 10.9056698,521.442392 C19.6352233,467.227088 24,413.034909 24,358.865854 C24,307.981205 19.7318217,257.119169 11.195465,206.279746 L11.1954658,206.279746 C7.35444271,183.404015 22.7851222,161.745807 45.660853,157.904784 C49.3941679,157.27793 53.1950942,157.158683 56.9603611,157.550285 Z" id="Rectangle" fill="#E5F5CB"></path>
                <g id="Group-2-Copy-3" transform="translate(136.000000, 233.000000)">
                    <rect id="Rectangle" fill="#FFFFFF" x="0" y="0" width="46" height="46" rx="23"></rect>
                    <polygon id="" fill="#77B11B" fill-rule="nonzero" points="18.557377 28.6046512 34.8237705 12 37 14.216458 18.557377 33 10 24.2844365 12.1393443 22.0679785"></polygon>
                </g>
                <g id="Group-2-Copy-6" transform="translate(136.000000, 341.000000)">
                    <rect id="Rectangle" fill="#FFFFFF" x="0" y="0" width="46" height="46" rx="23"></rect>
                    <polygon id="" fill="#77B11B" fill-rule="nonzero" points="18.557377 28.6046512 34.8237705 12 37 14.216458 18.557377 33 10 24.2844365 12.1393443 22.0679785"></polygon>
                </g>
                <g id="Group-2-Copy-7" transform="translate(136.000000, 455.000000)">
                    <rect id="Rectangle" fill="#FFFFFF" x="0" y="0" width="46" height="46" rx="23"></rect>
                    <polygon id="" fill="#77B11B" fill-rule="nonzero" points="18.557377 28.6046512 34.8237705 12 37 14.216458 18.557377 33 10 24.2844365 12.1393443 22.0679785"></polygon>
                </g>
                <g id="38337-O1YXZF-Copy-2" transform="translate(68.000000, 0.000000)" fill="#8AC831" fill-rule="nonzero">
                    <path d="M92,28.5107571 C92,43.9751007 83.4964095,56.5107571 73.002851,56.5107571 C62.5064414,56.5107571 54,43.9751007 54,28.5107571 C54,13.0472239 62.5068487,0.510757126 73.002851,0.510757126 C83.4964095,0.510757126 92,13.0472239 92,28.5107571 Z M120.001425,0.510757126 C109.505761,0.510757126 101,13.0472239 101,28.5107571 C101,43.9751007 109.505761,56.5107571 120.001425,56.5107571 C130.494239,56.5107571 139,43.9751007 139,28.5107571 C139,13.0472239 130.494239,0.510757126 120.001425,0.510757126 Z M170.839568,37.3707015 C161.221976,33.6512356 149.021745,42.3424052 143.590855,56.7789694 C138.158368,71.2155335 141.545435,85.9290232 151.165024,89.6513232 C160.77982,93.3695745 172.979651,84.6780001 178.409343,70.2418408 C183.841431,55.8048717 180.453965,41.0877383 170.839568,37.3707015 Z M15.592536,70.2418502 C21.0217784,84.6780028 33.2198997,93.3695732 42.8346076,89.6513236 C52.4541084,85.9290254 55.8427417,71.2155425 50.4079074,56.778985 C44.9774668,42.3420227 32.7797449,33.651262 23.1602441,37.3707262 C13.5451368,41.0877612 10.1577017,55.8048878 15.592536,70.2418502 Z M144.941246,108.629198 C136.443714,91.419797 123.375959,59.9471013 96.7646004,59.9471013 C70.1542761,59.9471013 55.5772514,88.1606307 44.6327159,109.768547 C32.1437388,134.42553 0.411827121,124.178703 0.411827121,166.318426 C0.411827121,193.201321 21.9828031,215 48.5874379,215 C65.6704303,215 81.683796,206.190426 97.3873424,206.190426 C113.091406,206.190426 127.859288,215 144.940728,215 C171.546398,215 193.116856,193.201321 193.116856,166.318426 C193.116856,127.333342 153.245334,125.447144 144.941246,108.629198 Z" id="Shape"></path>
                </g>
                <path d="M55.5634766,294.823242 L52.5576172,294.823242 L52.5576172,300 L50.8613281,300 L50.8613281,287.203125 L55.0976562,287.203125 C56.5390697,287.203125 57.6479453,287.531247 58.4243164,288.1875 C59.2006875,288.843753 59.5888672,289.798822 59.5888672,291.052734 C59.5888672,291.849613 59.3735373,292.543942 58.9428711,293.135742 C58.5122049,293.727542 57.9130898,294.16992 57.1455078,294.462891 L60.1513672,299.894531 L60.1513672,300 L58.3408203,300 L55.5634766,294.823242 Z M52.5576172,293.443359 L55.1503906,293.443359 C55.9882854,293.443359 56.6547827,293.226565 57.1499023,292.792969 C57.645022,292.359373 57.8925781,291.779301 57.8925781,291.052734 C57.8925781,290.261715 57.6567406,289.655276 57.1850586,289.233398 C56.7133765,288.811521 56.032231,288.597656 55.1416016,288.591797 L52.5576172,288.591797 L52.5576172,293.443359 Z M65.6445312,300.175781 C64.3554623,300.175781 63.3066447,299.752446 62.4980469,298.905762 C61.6894491,298.059078 61.2851562,296.926765 61.2851562,295.508789 L61.2851562,295.209961 C61.2851562,294.266597 61.4653302,293.42432 61.8256836,292.683105 C62.186037,291.941891 62.6899382,291.361819 63.3374023,290.942871 C63.9848665,290.523924 64.6865197,290.314453 65.4423828,290.314453 C66.6787171,290.314453 67.639645,290.721676 68.3251953,291.536133 C69.0107456,292.35059 69.3535156,293.516594 69.3535156,295.03418 L69.3535156,295.710938 L62.9111328,295.710938 C62.9345704,296.648442 63.2084935,297.405759 63.7329102,297.98291 C64.2573268,298.560061 64.9238241,298.848633 65.7324219,298.848633 C66.3066435,298.848633 66.7929668,298.731446 67.1914062,298.49707 C67.5898457,298.262694 67.9384751,297.95215 68.2373047,297.56543 L69.2304688,298.338867 C68.4335898,299.563483 67.2382892,300.175781 65.6445312,300.175781 Z M65.4423828,291.650391 C64.7861295,291.650391 64.2353538,291.889158 63.7900391,292.366699 C63.3447243,292.844241 63.0693365,293.513668 62.9638672,294.375 L67.7275391,294.375 L67.7275391,294.251953 C67.6806638,293.425777 67.4580098,292.785647 67.0595703,292.331543 C66.6611308,291.877439 66.1220737,291.650391 65.4423828,291.650391 Z M77.1054688,300 C77.0117183,299.812499 76.9355472,299.478518 76.8769531,298.998047 C76.12109,299.783207 75.2187552,300.175781 74.1699219,300.175781 C73.2324172,300.175781 72.4633819,299.910647 71.862793,299.380371 C71.262204,298.850095 70.9619141,298.177738 70.9619141,297.363281 C70.9619141,296.373042 71.3383751,295.604007 72.0913086,295.056152 C72.844242,294.508298 73.9033135,294.234375 75.2685547,294.234375 L76.8505859,294.234375 L76.8505859,293.487305 C76.8505859,292.918942 76.6806658,292.46631 76.3408203,292.129395 C76.0009749,291.792479 75.5000033,291.624023 74.8378906,291.624023 C74.2578096,291.624023 73.7714863,291.770506 73.3789062,292.063477 C72.9863262,292.356447 72.7900391,292.710935 72.7900391,293.126953 L71.1552734,293.126953 C71.1552734,292.652341 71.3237288,292.19385 71.6606445,291.751465 C71.9975603,291.30908 72.454587,290.958986 73.0317383,290.701172 C73.6088896,290.443358 74.2431606,290.314453 74.9345703,290.314453 C76.0302789,290.314453 76.8886688,290.588376 77.5097656,291.13623 C78.1308625,291.684085 78.4531249,292.438472 78.4765625,293.399414 L78.4765625,297.776367 C78.4765625,298.649418 78.5878895,299.343747 78.8105469,299.859375 L78.8105469,300 L77.1054688,300 Z M74.4072266,298.760742 C74.9169947,298.760742 75.4003883,298.628908 75.8574219,298.365234 C76.3144554,298.101561 76.6455068,297.758791 76.8505859,297.336914 L76.8505859,295.385742 L75.5761719,295.385742 C73.5839744,295.385742 72.5878906,295.968744 72.5878906,297.134766 C72.5878906,297.644534 72.7578108,298.042967 73.0976562,298.330078 C73.4375017,298.617189 73.8740208,298.760742 74.4072266,298.760742 Z M82.7919922,300 L81.1660156,300 L81.1660156,286.5 L82.7919922,286.5 L82.7919922,300 Z M98.5947266,288.591797 L94.4814453,288.591797 L94.4814453,300 L92.8027344,300 L92.8027344,288.591797 L88.6982422,288.591797 L88.6982422,287.203125 L98.5947266,287.203125 L98.5947266,288.591797 Z M102.004883,300 L100.378906,300 L100.378906,290.490234 L102.004883,290.490234 L102.004883,300 Z M100.24707,287.967773 C100.24707,287.7041 100.327636,287.481446 100.48877,287.299805 C100.649903,287.118163 100.88867,287.027344 101.205078,287.027344 C101.521486,287.027344 101.761718,287.118163 101.925781,287.299805 C102.089845,287.481446 102.171875,287.7041 102.171875,287.967773 C102.171875,288.231447 102.089845,288.451171 101.925781,288.626953 C101.761718,288.802735 101.521486,288.890625 101.205078,288.890625 C100.88867,288.890625 100.649903,288.802735 100.48877,288.626953 C100.327636,288.451171 100.24707,288.231447 100.24707,287.967773 Z M106.135742,290.490234 L106.179688,291.544922 C106.876957,290.724605 107.817377,290.314453 109.000977,290.314453 C110.331061,290.314453 111.236326,290.824214 111.716797,291.84375 C112.033205,291.386716 112.444822,291.01758 112.95166,290.736328 C113.458499,290.455077 114.057614,290.314453 114.749023,290.314453 C116.834971,290.314453 117.895508,291.418934 117.930664,293.62793 L117.930664,300 L116.304688,300 L116.304688,293.724609 C116.304688,293.044918 116.149416,292.536623 115.838867,292.199707 C115.528319,291.862791 115.00684,291.694336 114.274414,291.694336 C113.670895,291.694336 113.169924,291.87451 112.771484,292.234863 C112.373045,292.595217 112.141602,293.080075 112.077148,293.689453 L112.077148,300 L110.442383,300 L110.442383,293.768555 C110.442383,292.385735 109.765632,291.694336 108.412109,291.694336 C107.345698,291.694336 106.616213,292.148433 106.223633,293.056641 L106.223633,300 L104.597656,300 L104.597656,290.490234 L106.135742,290.490234 Z M124.329102,300.175781 C123.040033,300.175781 121.991215,299.752446 121.182617,298.905762 C120.374019,298.059078 119.969727,296.926765 119.969727,295.508789 L119.969727,295.209961 C119.969727,294.266597 120.149901,293.42432 120.510254,292.683105 C120.870607,291.941891 121.374508,291.361819 122.021973,290.942871 C122.669437,290.523924 123.37109,290.314453 124.126953,290.314453 C125.363287,290.314453 126.324215,290.721676 127.009766,291.536133 C127.695316,292.35059 128.038086,293.516594 128.038086,295.03418 L128.038086,295.710938 L121.595703,295.710938 C121.619141,296.648442 121.893064,297.405759 122.41748,297.98291 C122.941897,298.560061 123.608394,298.848633 124.416992,298.848633 C124.991214,298.848633 125.477537,298.731446 125.875977,298.49707 C126.274416,298.262694 126.623045,297.95215 126.921875,297.56543 L127.915039,298.338867 C127.11816,299.563483 125.92286,300.175781 124.329102,300.175781 Z M124.126953,291.650391 C123.4707,291.650391 122.919924,291.889158 122.474609,292.366699 C122.029295,292.844241 121.753907,293.513668 121.648438,294.375 L126.412109,294.375 L126.412109,294.251953 C126.365234,293.425777 126.14258,292.785647 125.744141,292.331543 C125.345701,291.877439 124.806644,291.650391 124.126953,291.650391 Z M136.80957,287.203125 L140.993164,297.644531 L145.176758,287.203125 L147.365234,287.203125 L147.365234,300 L145.677734,300 L145.677734,295.016602 L145.835938,289.637695 L141.634766,300 L140.342773,300 L136.150391,289.664062 L136.317383,295.016602 L136.317383,300 L134.629883,300 L134.629883,287.203125 L136.80957,287.203125 Z M154.036133,300.175781 C152.747064,300.175781 151.698246,299.752446 150.889648,298.905762 C150.081051,298.059078 149.676758,296.926765 149.676758,295.508789 L149.676758,295.209961 C149.676758,294.266597 149.856932,293.42432 150.217285,292.683105 C150.577639,291.941891 151.08154,291.361819 151.729004,290.942871 C152.376468,290.523924 153.078121,290.314453 153.833984,290.314453 C155.070319,290.314453 156.031247,290.721676 156.716797,291.536133 C157.402347,292.35059 157.745117,293.516594 157.745117,295.03418 L157.745117,295.710938 L151.302734,295.710938 C151.326172,296.648442 151.600095,297.405759 152.124512,297.98291 C152.648928,298.560061 153.315426,298.848633 154.124023,298.848633 C154.698245,298.848633 155.184568,298.731446 155.583008,298.49707 C155.981447,298.262694 156.330077,297.95215 156.628906,297.56543 L157.62207,298.338867 C156.825191,299.563483 155.629891,300.175781 154.036133,300.175781 Z M153.833984,291.650391 C153.177731,291.650391 152.626955,291.889158 152.181641,292.366699 C151.736326,292.844241 151.460938,293.513668 151.355469,294.375 L156.119141,294.375 L156.119141,294.251953 C156.072265,293.425777 155.849611,292.785647 155.451172,292.331543 C155.052732,291.877439 154.513675,291.650391 153.833984,291.650391 Z M159.230469,295.166016 C159.230469,293.707024 159.576168,292.533696 160.267578,291.645996 C160.958988,290.758296 161.864252,290.314453 162.983398,290.314453 C164.096685,290.314453 164.978512,290.695309 165.628906,291.457031 L165.628906,286.5 L167.254883,286.5 L167.254883,300 L165.760742,300 L165.681641,298.980469 C165.031247,299.777348 164.125982,300.175781 162.96582,300.175781 C161.864252,300.175781 160.966312,299.724614 160.271973,298.822266 C159.577633,297.919917 159.230469,296.742195 159.230469,295.289062 L159.230469,295.166016 Z M160.856445,295.350586 C160.856445,296.428716 161.079099,297.272458 161.524414,297.881836 C161.969729,298.491214 162.584957,298.795898 163.370117,298.795898 C164.401372,298.795898 165.154295,298.333012 165.628906,297.407227 L165.628906,293.039062 C165.142576,292.142574 164.395513,291.694336 163.387695,291.694336 C162.590816,291.694336 161.969729,292.00195 161.524414,292.617188 C161.079099,293.232425 160.856445,294.143549 160.856445,295.350586 Z M171.543945,300 L169.917969,300 L169.917969,290.490234 L171.543945,290.490234 L171.543945,300 Z M169.786133,287.967773 C169.786133,287.7041 169.866698,287.481446 170.027832,287.299805 C170.188966,287.118163 170.427733,287.027344 170.744141,287.027344 C171.060548,287.027344 171.30078,287.118163 171.464844,287.299805 C171.628907,287.481446 171.710938,287.7041 171.710938,287.967773 C171.710938,288.231447 171.628907,288.451171 171.464844,288.626953 C171.30078,288.802735 171.060548,288.890625 170.744141,288.890625 C170.427733,288.890625 170.188966,288.802735 170.027832,288.626953 C169.866698,288.451171 169.786133,288.231447 169.786133,287.967773 Z M177.959961,298.848633 C178.540042,298.848633 179.046873,298.672853 179.480469,298.321289 C179.914065,297.969725 180.154297,297.530276 180.201172,297.00293 L181.739258,297.00293 C181.709961,297.547854 181.522463,298.066404 181.176758,298.558594 C180.831053,299.050784 180.369632,299.443358 179.79248,299.736328 C179.215329,300.029298 178.604495,300.175781 177.959961,300.175781 C176.665033,300.175781 175.635258,299.743657 174.870605,298.879395 C174.105953,298.015132 173.723633,296.833015 173.723633,295.333008 L173.723633,295.060547 C173.723633,294.134761 173.893553,293.311527 174.233398,292.59082 C174.573244,291.870114 175.061032,291.310549 175.696777,290.912109 C176.332523,290.51367 177.08398,290.314453 177.951172,290.314453 C179.017583,290.314453 179.903805,290.633786 180.609863,291.272461 C181.315921,291.911136 181.692383,292.740229 181.739258,293.759766 L180.201172,293.759766 C180.154297,293.144528 179.921389,292.639162 179.502441,292.243652 C179.083494,291.848143 178.566409,291.650391 177.951172,291.650391 C177.124996,291.650391 176.484866,291.947751 176.030762,292.54248 C175.576658,293.13721 175.349609,293.997065 175.349609,295.12207 L175.349609,295.429688 C175.349609,296.525396 175.575193,297.369138 176.026367,297.960938 C176.477541,298.552737 177.122066,298.848633 177.959961,298.848633 Z M189.438477,300 C189.344726,299.812499 189.268555,299.478518 189.209961,298.998047 C188.454098,299.783207 187.551763,300.175781 186.50293,300.175781 C185.565425,300.175781 184.79639,299.910647 184.195801,299.380371 C183.595212,298.850095 183.294922,298.177738 183.294922,297.363281 C183.294922,296.373042 183.671383,295.604007 184.424316,295.056152 C185.17725,294.508298 186.236321,294.234375 187.601562,294.234375 L189.183594,294.234375 L189.183594,293.487305 C189.183594,292.918942 189.013674,292.46631 188.673828,292.129395 C188.333983,291.792479 187.833011,291.624023 187.170898,291.624023 C186.590817,291.624023 186.104494,291.770506 185.711914,292.063477 C185.319334,292.356447 185.123047,292.710935 185.123047,293.126953 L183.488281,293.126953 C183.488281,292.652341 183.656737,292.19385 183.993652,291.751465 C184.330568,291.30908 184.787595,290.958986 185.364746,290.701172 C185.941897,290.443358 186.576168,290.314453 187.267578,290.314453 C188.363287,290.314453 189.221677,290.588376 189.842773,291.13623 C190.46387,291.684085 190.786133,292.438472 190.80957,293.399414 L190.80957,297.776367 C190.80957,298.649418 190.920897,299.343747 191.143555,299.859375 L191.143555,300 L189.438477,300 Z M186.740234,298.760742 C187.250003,298.760742 187.733396,298.628908 188.19043,298.365234 C188.647463,298.101561 188.978515,297.758791 189.183594,297.336914 L189.183594,295.385742 L187.90918,295.385742 C185.916982,295.385742 184.920898,295.968744 184.920898,297.134766 C184.920898,297.644534 185.090819,298.042967 185.430664,298.330078 C185.77051,298.617189 186.207029,298.760742 186.740234,298.760742 Z M195.125,300 L193.499023,300 L193.499023,286.5 L195.125,286.5 L195.125,300 Z M207.130859,294.823242 L204.125,294.823242 L204.125,300 L202.428711,300 L202.428711,287.203125 L206.665039,287.203125 C208.106453,287.203125 209.215328,287.531247 209.991699,288.1875 C210.76807,288.843753 211.15625,289.798822 211.15625,291.052734 C211.15625,291.849613 210.94092,292.543942 210.510254,293.135742 C210.079588,293.727542 209.480473,294.16992 208.712891,294.462891 L211.71875,299.894531 L211.71875,300 L209.908203,300 L207.130859,294.823242 Z M204.125,293.443359 L206.717773,293.443359 C207.555668,293.443359 208.222165,293.226565 208.717285,292.792969 C209.212405,292.359373 209.459961,291.779301 209.459961,291.052734 C209.459961,290.261715 209.224123,289.655276 208.752441,289.233398 C208.280759,288.811521 207.599614,288.597656 206.708984,288.591797 L204.125,288.591797 L204.125,293.443359 Z M217.211914,300.175781 C215.922845,300.175781 214.874027,299.752446 214.06543,298.905762 C213.256832,298.059078 212.852539,296.926765 212.852539,295.508789 L212.852539,295.209961 C212.852539,294.266597 213.032713,293.42432 213.393066,292.683105 C213.75342,291.941891 214.257321,291.361819 214.904785,290.942871 C215.552249,290.523924 216.253902,290.314453 217.009766,290.314453 C218.2461,290.314453 219.207028,290.721676 219.892578,291.536133 C220.578128,292.35059 220.920898,293.516594 220.920898,295.03418 L220.920898,295.710938 L214.478516,295.710938 C214.501953,296.648442 214.775876,297.405759 215.300293,297.98291 C215.82471,298.560061 216.491207,298.848633 217.299805,298.848633 C217.874026,298.848633 218.36035,298.731446 218.758789,298.49707 C219.157229,298.262694 219.505858,297.95215 219.804688,297.56543 L220.797852,298.338867 C220.000973,299.563483 218.805672,300.175781 217.211914,300.175781 Z M217.009766,291.650391 C216.353512,291.650391 215.802737,291.889158 215.357422,292.366699 C214.912107,292.844241 214.636719,293.513668 214.53125,294.375 L219.294922,294.375 L219.294922,294.251953 C219.248047,293.425777 219.025393,292.785647 218.626953,292.331543 C218.228514,291.877439 217.689457,291.650391 217.009766,291.650391 Z M226.616211,298.848633 C227.196292,298.848633 227.703123,298.672853 228.136719,298.321289 C228.570315,297.969725 228.810547,297.530276 228.857422,297.00293 L230.395508,297.00293 C230.366211,297.547854 230.178713,298.066404 229.833008,298.558594 C229.487303,299.050784 229.025882,299.443358 228.44873,299.736328 C227.871579,300.029298 227.260745,300.175781 226.616211,300.175781 C225.321283,300.175781 224.291508,299.743657 223.526855,298.879395 C222.762203,298.015132 222.379883,296.833015 222.379883,295.333008 L222.379883,295.060547 C222.379883,294.134761 222.549803,293.311527 222.889648,292.59082 C223.229494,291.870114 223.717282,291.310549 224.353027,290.912109 C224.988773,290.51367 225.74023,290.314453 226.607422,290.314453 C227.673833,290.314453 228.560055,290.633786 229.266113,291.272461 C229.972171,291.911136 230.348633,292.740229 230.395508,293.759766 L228.857422,293.759766 C228.810547,293.144528 228.577639,292.639162 228.158691,292.243652 C227.739744,291.848143 227.222659,291.650391 226.607422,291.650391 C225.781246,291.650391 225.141116,291.947751 224.687012,292.54248 C224.232908,293.13721 224.005859,293.997065 224.005859,295.12207 L224.005859,295.429688 C224.005859,296.525396 224.231443,297.369138 224.682617,297.960938 C225.133791,298.552737 225.778316,298.848633 226.616211,298.848633 Z M231.792969,295.157227 C231.792969,294.225581 231.976072,293.387699 232.342285,292.643555 C232.708498,291.89941 233.218258,291.325197 233.871582,290.920898 C234.524906,290.5166 235.270504,290.314453 236.108398,290.314453 C237.403327,290.314453 238.45068,290.762691 239.250488,291.65918 C240.050297,292.555669 240.450195,293.748039 240.450195,295.236328 L240.450195,295.350586 C240.450195,296.276372 240.272951,297.10693 239.918457,297.842285 C239.563963,298.57764 239.057132,299.150389 238.397949,299.560547 C237.738766,299.970705 236.98145,300.175781 236.125977,300.175781 C234.836908,300.175781 233.792484,299.727544 232.992676,298.831055 C232.192867,297.934566 231.792969,296.748054 231.792969,295.271484 L231.792969,295.157227 Z M233.427734,295.350586 C233.427734,296.405279 233.672361,297.25195 234.161621,297.890625 C234.650881,298.5293 235.30566,298.848633 236.125977,298.848633 C236.952153,298.848633 237.608396,298.524906 238.094727,297.877441 C238.581057,297.229977 238.824219,296.323248 238.824219,295.157227 C238.824219,294.114253 238.576663,293.269046 238.081543,292.621582 C237.586423,291.974118 236.928715,291.650391 236.108398,291.650391 C235.30566,291.650391 234.658206,291.969723 234.166016,292.608398 C233.673826,293.247074 233.427734,294.161127 233.427734,295.350586 Z M247.085938,291.949219 C246.839843,291.908203 246.573244,291.887695 246.286133,291.887695 C245.219721,291.887695 244.496096,292.341792 244.115234,293.25 L244.115234,300 L242.489258,300 L242.489258,290.490234 L244.071289,290.490234 L244.097656,291.588867 C244.630862,290.739254 245.386714,290.314453 246.365234,290.314453 C246.681642,290.314453 246.921874,290.355468 247.085938,290.4375 L247.085938,291.949219 Z M248.017578,295.166016 C248.017578,293.707024 248.363278,292.533696 249.054688,291.645996 C249.746097,290.758296 250.651362,290.314453 251.770508,290.314453 C252.883795,290.314453 253.765622,290.695309 254.416016,291.457031 L254.416016,286.5 L256.041992,286.5 L256.041992,300 L254.547852,300 L254.46875,298.980469 C253.818356,299.777348 252.913092,300.175781 251.75293,300.175781 C250.651362,300.175781 249.753421,299.724614 249.059082,298.822266 C248.364743,297.919917 248.017578,296.742195 248.017578,295.289062 L248.017578,295.166016 Z M249.643555,295.350586 C249.643555,296.428716 249.866209,297.272458 250.311523,297.881836 C250.756838,298.491214 251.372066,298.795898 252.157227,298.795898 C253.188482,298.795898 253.941404,298.333012 254.416016,297.407227 L254.416016,293.039062 C253.929685,292.142574 253.182622,291.694336 252.174805,291.694336 C251.377926,291.694336 250.756838,292.00195 250.311523,292.617188 C249.866209,293.232425 249.643555,294.143549 249.643555,295.350586 Z M264.101562,297.477539 C264.101562,297.038084 263.936037,296.696779 263.60498,296.453613 C263.273924,296.210448 262.696781,296.000977 261.873535,295.825195 C261.050289,295.649413 260.396975,295.438478 259.913574,295.192383 C259.430173,294.946288 259.072755,294.653322 258.841309,294.313477 C258.609862,293.973631 258.494141,293.569338 258.494141,293.100586 C258.494141,292.321285 258.823727,291.662112 259.48291,291.123047 C260.142093,290.583982 260.98437,290.314453 262.009766,290.314453 C263.087896,290.314453 263.962399,290.592771 264.633301,291.149414 C265.304203,291.706057 265.639648,292.417964 265.639648,293.285156 L264.004883,293.285156 C264.004883,292.839842 263.81592,292.456056 263.437988,292.133789 C263.060057,291.811522 262.583987,291.650391 262.009766,291.650391 C261.417966,291.650391 260.95508,291.779296 260.621094,292.037109 C260.287108,292.294923 260.120117,292.631834 260.120117,293.047852 C260.120117,293.440432 260.275389,293.736327 260.585938,293.935547 C260.896486,294.134767 261.457515,294.325194 262.269043,294.506836 C263.08057,294.688477 263.738279,294.905272 264.242188,295.157227 C264.746096,295.409181 265.119628,295.712401 265.362793,296.066895 C265.605958,296.421388 265.727539,296.853513 265.727539,297.363281 C265.727539,298.212895 265.387699,298.89404 264.708008,299.406738 C264.028317,299.919436 263.14649,300.175781 262.0625,300.175781 C261.300777,300.175781 260.626956,300.041017 260.041016,299.771484 C259.455075,299.501952 258.996584,299.125491 258.665527,298.64209 C258.334471,298.158689 258.168945,297.635745 258.168945,297.073242 L259.794922,297.073242 C259.824219,297.618167 260.042478,298.050291 260.449707,298.369629 C260.856936,298.688966 261.394528,298.848633 262.0625,298.848633 C262.677737,298.848633 263.171385,298.724122 263.543457,298.475098 C263.915529,298.226073 264.101562,297.893557 264.101562,297.477539 Z M105.300781,321.96582 L105.546875,323.65332 L105.907227,322.132812 L108.438477,313.203125 L109.862305,313.203125 L112.332031,322.132812 L112.683594,323.679688 L112.956055,321.957031 L114.942383,313.203125 L116.638672,313.203125 L113.536133,326 L111.998047,326 L109.361328,316.674805 L109.15918,315.699219 L108.957031,316.674805 L106.223633,326 L104.685547,326 L101.591797,313.203125 L103.279297,313.203125 L105.300781,321.96582 Z M120.022461,326 L118.396484,326 L118.396484,316.490234 L120.022461,316.490234 L120.022461,326 Z M118.264648,313.967773 C118.264648,313.7041 118.345214,313.481446 118.506348,313.299805 C118.667481,313.118163 118.906248,313.027344 119.222656,313.027344 C119.539064,313.027344 119.779296,313.118163 119.943359,313.299805 C120.107423,313.481446 120.189453,313.7041 120.189453,313.967773 C120.189453,314.231447 120.107423,314.451171 119.943359,314.626953 C119.779296,314.802735 119.539064,314.890625 119.222656,314.890625 C118.906248,314.890625 118.667481,314.802735 118.506348,314.626953 C118.345214,314.451171 118.264648,314.231447 118.264648,313.967773 Z M124.830078,314.1875 L124.830078,316.490234 L126.605469,316.490234 L126.605469,317.74707 L124.830078,317.74707 L124.830078,323.644531 C124.830078,324.025393 124.909179,324.311034 125.067383,324.501465 C125.225587,324.691895 125.495115,324.787109 125.875977,324.787109 C126.063477,324.787109 126.321287,324.751953 126.649414,324.681641 L126.649414,326 C126.221678,326.117188 125.805666,326.175781 125.401367,326.175781 C124.674801,326.175781 124.126955,325.956057 123.757812,325.516602 C123.38867,325.077146 123.204102,324.453129 123.204102,323.644531 L123.204102,317.74707 L121.472656,317.74707 L121.472656,316.490234 L123.204102,316.490234 L123.204102,314.1875 L124.830078,314.1875 Z M130.129883,317.641602 C130.85059,316.756832 131.78808,316.314453 132.942383,316.314453 C134.952158,316.314453 135.96582,317.448231 135.983398,319.71582 L135.983398,326 L134.357422,326 L134.357422,319.707031 C134.351562,319.021481 134.194826,318.51465 133.887207,318.186523 C133.579588,317.858397 133.100589,317.694336 132.450195,317.694336 C131.922849,317.694336 131.459963,317.83496 131.061523,318.116211 C130.663084,318.397462 130.35254,318.766599 130.129883,319.223633 L130.129883,326 L128.503906,326 L128.503906,312.5 L130.129883,312.5 L130.129883,317.641602 Z M150.195312,322.660156 L144.833984,322.660156 L143.629883,326 L141.889648,326 L146.776367,313.203125 L148.25293,313.203125 L153.148438,326 L151.416992,326 L150.195312,322.660156 Z M145.34375,321.271484 L149.694336,321.271484 L147.514648,315.286133 L145.34375,321.271484 Z M156.154297,316.490234 L156.207031,317.685547 C156.933597,316.77148 157.882807,316.314453 159.054688,316.314453 C161.064463,316.314453 162.078125,317.448231 162.095703,319.71582 L162.095703,326 L160.469727,326 L160.469727,319.707031 C160.463867,319.021481 160.30713,318.51465 159.999512,318.186523 C159.691893,317.858397 159.212894,317.694336 158.5625,317.694336 C158.035154,317.694336 157.572268,317.83496 157.173828,318.116211 C156.775389,318.397462 156.464845,318.766599 156.242188,319.223633 L156.242188,326 L154.616211,326 L154.616211,316.490234 L156.154297,316.490234 Z M170.418945,326 C170.325195,325.812499 170.249024,325.478518 170.19043,324.998047 C169.434567,325.783207 168.532232,326.175781 167.483398,326.175781 C166.545894,326.175781 165.776858,325.910647 165.17627,325.380371 C164.575681,324.850095 164.275391,324.177738 164.275391,323.363281 C164.275391,322.373042 164.651852,321.604007 165.404785,321.056152 C166.157719,320.508298 167.21679,320.234375 168.582031,320.234375 L170.164062,320.234375 L170.164062,319.487305 C170.164062,318.918942 169.994142,318.46631 169.654297,318.129395 C169.314451,317.792479 168.81348,317.624023 168.151367,317.624023 C167.571286,317.624023 167.084963,317.770506 166.692383,318.063477 C166.299803,318.356447 166.103516,318.710935 166.103516,319.126953 L164.46875,319.126953 C164.46875,318.652341 164.637205,318.19385 164.974121,317.751465 C165.311037,317.30908 165.768064,316.958986 166.345215,316.701172 C166.922366,316.443358 167.556637,316.314453 168.248047,316.314453 C169.343755,316.314453 170.202145,316.588376 170.823242,317.13623 C171.444339,317.684085 171.766601,318.438472 171.790039,319.399414 L171.790039,323.776367 C171.790039,324.649418 171.901366,325.343747 172.124023,325.859375 L172.124023,326 L170.418945,326 Z M167.720703,324.760742 C168.230471,324.760742 168.713865,324.628908 169.170898,324.365234 C169.627932,324.101561 169.958983,323.758791 170.164062,323.336914 L170.164062,321.385742 L168.889648,321.385742 C166.897451,321.385742 165.901367,321.968744 165.901367,323.134766 C165.901367,323.644534 166.071287,324.042967 166.411133,324.330078 C166.750978,324.617189 167.187497,324.760742 167.720703,324.760742 Z M176.105469,326 L174.479492,326 L174.479492,312.5 L176.105469,312.5 L176.105469,326 Z M181.818359,323.618164 L184.033203,316.490234 L185.773438,316.490234 L181.950195,327.467773 C181.358395,329.049813 180.417975,329.84082 179.128906,329.84082 L178.821289,329.814453 L178.214844,329.700195 L178.214844,328.381836 L178.654297,328.416992 C179.205081,328.416992 179.634276,328.305665 179.941895,328.083008 C180.249513,327.86035 180.502929,327.453128 180.702148,326.861328 L181.0625,325.894531 L177.669922,316.490234 L179.445312,316.490234 L181.818359,323.618164 Z M189.429688,314.1875 L189.429688,316.490234 L191.205078,316.490234 L191.205078,317.74707 L189.429688,317.74707 L189.429688,323.644531 C189.429688,324.025393 189.508788,324.311034 189.666992,324.501465 C189.825196,324.691895 190.094725,324.787109 190.475586,324.787109 C190.663087,324.787109 190.920897,324.751953 191.249023,324.681641 L191.249023,326 C190.821287,326.117188 190.405275,326.175781 190.000977,326.175781 C189.27441,326.175781 188.726564,325.956057 188.357422,325.516602 C187.988279,325.077146 187.803711,324.453129 187.803711,323.644531 L187.803711,317.74707 L186.072266,317.74707 L186.072266,316.490234 L187.803711,316.490234 L187.803711,314.1875 L189.429688,314.1875 Z M194.870117,326 L193.244141,326 L193.244141,316.490234 L194.870117,316.490234 L194.870117,326 Z M193.112305,313.967773 C193.112305,313.7041 193.19287,313.481446 193.354004,313.299805 C193.515138,313.118163 193.753905,313.027344 194.070312,313.027344 C194.38672,313.027344 194.626952,313.118163 194.791016,313.299805 C194.955079,313.481446 195.037109,313.7041 195.037109,313.967773 C195.037109,314.231447 194.955079,314.451171 194.791016,314.626953 C194.626952,314.802735 194.38672,314.890625 194.070312,314.890625 C193.753905,314.890625 193.515138,314.802735 193.354004,314.626953 C193.19287,314.451171 193.112305,314.231447 193.112305,313.967773 Z M201.286133,324.848633 C201.866214,324.848633 202.373045,324.672853 202.806641,324.321289 C203.240237,323.969725 203.480469,323.530276 203.527344,323.00293 L205.06543,323.00293 C205.036133,323.547854 204.848635,324.066404 204.50293,324.558594 C204.157225,325.050784 203.695804,325.443358 203.118652,325.736328 C202.541501,326.029298 201.930667,326.175781 201.286133,326.175781 C199.991204,326.175781 198.96143,325.743657 198.196777,324.879395 C197.432125,324.015132 197.049805,322.833015 197.049805,321.333008 L197.049805,321.060547 C197.049805,320.134761 197.219725,319.311527 197.55957,318.59082 C197.899416,317.870114 198.387204,317.310549 199.022949,316.912109 C199.658695,316.51367 200.410152,316.314453 201.277344,316.314453 C202.343755,316.314453 203.229977,316.633786 203.936035,317.272461 C204.642093,317.911136 205.018554,318.740229 205.06543,319.759766 L203.527344,319.759766 C203.480469,319.144528 203.247561,318.639162 202.828613,318.243652 C202.409666,317.848143 201.892581,317.650391 201.277344,317.650391 C200.451168,317.650391 199.811037,317.947751 199.356934,318.54248 C198.90283,319.13721 198.675781,319.997065 198.675781,321.12207 L198.675781,321.429688 C198.675781,322.525396 198.901365,323.369138 199.352539,323.960938 C199.803713,324.552737 200.448238,324.848633 201.286133,324.848633 Z M212.430664,323.477539 C212.430664,323.038084 212.265138,322.696779 211.934082,322.453613 C211.603026,322.210448 211.025883,322.000977 210.202637,321.825195 C209.37939,321.649413 208.726077,321.438478 208.242676,321.192383 C207.759275,320.946288 207.401857,320.653322 207.17041,320.313477 C206.938964,319.973631 206.823242,319.569338 206.823242,319.100586 C206.823242,318.321285 207.152829,317.662112 207.812012,317.123047 C208.471195,316.583982 209.313471,316.314453 210.338867,316.314453 C211.416998,316.314453 212.291501,316.592771 212.962402,317.149414 C213.633304,317.706057 213.96875,318.417964 213.96875,319.285156 L212.333984,319.285156 C212.333984,318.839842 212.145021,318.456056 211.76709,318.133789 C211.389158,317.811522 210.913089,317.650391 210.338867,317.650391 C209.747067,317.650391 209.284181,317.779296 208.950195,318.037109 C208.616209,318.294923 208.449219,318.631834 208.449219,319.047852 C208.449219,319.440432 208.604491,319.736327 208.915039,319.935547 C209.225587,320.134767 209.786617,320.325194 210.598145,320.506836 C211.409672,320.688477 212.06738,320.905272 212.571289,321.157227 C213.075198,321.409181 213.448729,321.712401 213.691895,322.066895 C213.93506,322.421388 214.056641,322.853513 214.056641,323.363281 C214.056641,324.212895 213.7168,324.89404 213.037109,325.406738 C212.357418,325.919436 211.475591,326.175781 210.391602,326.175781 C209.629879,326.175781 208.956058,326.041017 208.370117,325.771484 C207.784177,325.501952 207.325685,325.125491 206.994629,324.64209 C206.663573,324.158689 206.498047,323.635745 206.498047,323.073242 L208.124023,323.073242 C208.15332,323.618167 208.37158,324.050291 208.778809,324.369629 C209.186037,324.688966 209.723629,324.848633 210.391602,324.848633 C211.006839,324.848633 211.500486,324.724122 211.872559,324.475098 C212.244631,324.226073 212.430664,323.893557 212.430664,323.477539 Z" id="RealTimeMedicalRecordsWithAnalytics" fill="#505050" fill-rule="nonzero"></path>
                <path d="M91.1855469,404.939453 C91.027343,406.292976 90.5278362,407.337399 89.6870117,408.072754 C88.8461872,408.808109 87.7285226,409.175781 86.3339844,409.175781 C84.8222581,409.175781 83.6108444,408.633794 82.699707,407.549805 C81.7885697,406.465815 81.3330078,405.015634 81.3330078,403.199219 L81.3330078,401.96875 C81.3330078,400.779291 81.545408,399.733403 81.9702148,398.831055 C82.3950217,397.928706 82.9970664,397.235842 83.7763672,396.752441 C84.555668,396.269041 85.4580027,396.027344 86.4833984,396.027344 C87.8427802,396.027344 88.9326131,396.406734 89.7529297,397.165527 C90.5732463,397.92432 91.0507806,398.974603 91.1855469,400.316406 L89.4892578,400.316406 C89.3427727,399.29687 89.0249048,398.558596 88.5356445,398.101562 C88.0463843,397.644529 87.3623091,397.416016 86.4833984,397.416016 C85.405268,397.416016 84.5600617,397.814449 83.9477539,398.611328 C83.3354462,399.408207 83.0292969,400.541985 83.0292969,402.012695 L83.0292969,403.251953 C83.0292969,404.640632 83.319333,405.745113 83.8994141,406.56543 C84.4794951,407.385746 85.2910104,407.795898 86.3339844,407.795898 C87.2714891,407.795898 87.9907202,407.583498 88.4916992,407.158691 C88.9926783,406.733885 89.3251945,405.994146 89.4892578,404.939453 L91.1855469,404.939453 Z M92.8027344,404.157227 C92.8027344,403.225581 92.985838,402.387699 93.3520508,401.643555 C93.7182635,400.89941 94.2280241,400.325197 94.8813477,399.920898 C95.5346712,399.5166 96.2802692,399.314453 97.1181641,399.314453 C98.4130924,399.314453 99.4604452,399.762691 100.260254,400.65918 C101.060063,401.555669 101.459961,402.748039 101.459961,404.236328 L101.459961,404.350586 C101.459961,405.276372 101.282717,406.10693 100.928223,406.842285 C100.573729,407.57764 100.066898,408.150389 99.4077148,408.560547 C98.7485319,408.970705 97.9912152,409.175781 97.1357422,409.175781 C95.8466732,409.175781 94.8022501,408.727544 94.0024414,407.831055 C93.2026327,406.934566 92.8027344,405.748054 92.8027344,404.271484 L92.8027344,404.157227 Z M94.4375,404.350586 C94.4375,405.405279 94.6821265,406.25195 95.1713867,406.890625 C95.660647,407.5293 96.3154256,407.848633 97.1357422,407.848633 C97.9619182,407.848633 98.6181616,407.524906 99.1044922,406.877441 C99.5908227,406.229977 99.8339844,405.323248 99.8339844,404.157227 C99.8339844,403.114253 99.5864283,402.269046 99.0913086,401.621582 C98.5961889,400.974118 97.9384807,400.650391 97.1181641,400.650391 C96.3154257,400.650391 95.6679712,400.969723 95.1757812,401.608398 C94.6835913,402.247074 94.4375,403.161127 94.4375,404.350586 Z M105.02832,399.490234 L105.072266,400.544922 C105.769535,399.724605 106.709955,399.314453 107.893555,399.314453 C109.223639,399.314453 110.128904,399.824214 110.609375,400.84375 C110.925783,400.386716 111.3374,400.01758 111.844238,399.736328 C112.351077,399.455077 112.950192,399.314453 113.641602,399.314453 C115.727549,399.314453 116.788086,400.418934 116.823242,402.62793 L116.823242,409 L115.197266,409 L115.197266,402.724609 C115.197266,402.044918 115.041994,401.536623 114.731445,401.199707 C114.420897,400.862791 113.899418,400.694336 113.166992,400.694336 C112.563474,400.694336 112.062502,400.87451 111.664062,401.234863 C111.265623,401.595217 111.03418,402.080075 110.969727,402.689453 L110.969727,409 L109.334961,409 L109.334961,402.768555 C109.334961,401.385735 108.65821,400.694336 107.304688,400.694336 C106.238276,400.694336 105.508791,401.148433 105.116211,402.056641 L105.116211,409 L103.490234,409 L103.490234,399.490234 L105.02832,399.490234 Z M127.308594,404.350586 C127.308594,405.797859 126.977542,406.963863 126.31543,407.848633 C125.653317,408.733403 124.756842,409.175781 123.625977,409.175781 C122.471674,409.175781 121.56348,408.809574 120.901367,408.077148 L120.901367,412.65625 L119.275391,412.65625 L119.275391,399.490234 L120.760742,399.490234 L120.839844,400.544922 C121.501956,399.724605 122.421869,399.314453 123.599609,399.314453 C124.742193,399.314453 125.645993,399.745113 126.311035,400.606445 C126.976078,401.467778 127.308594,402.666008 127.308594,404.201172 L127.308594,404.350586 Z M125.682617,404.166016 C125.682617,403.093745 125.454104,402.247073 124.99707,401.625977 C124.540037,401.00488 123.91309,400.694336 123.116211,400.694336 C122.131831,400.694336 121.393557,401.130855 120.901367,402.003906 L120.901367,406.547852 C121.387698,407.415043 122.131831,407.848633 123.133789,407.848633 C123.91309,407.848633 124.532713,407.539554 124.992676,406.921387 C125.452639,406.30322 125.682617,405.384772 125.682617,404.166016 Z M133.970703,400.949219 C133.724608,400.908203 133.458009,400.887695 133.170898,400.887695 C132.104487,400.887695 131.380861,401.341792 131,402.25 L131,409 L129.374023,409 L129.374023,399.490234 L130.956055,399.490234 L130.982422,400.588867 C131.515628,399.739254 132.271479,399.314453 133.25,399.314453 C133.566408,399.314453 133.80664,399.355468 133.970703,399.4375 L133.970703,400.949219 Z M139.244141,409.175781 C137.955072,409.175781 136.906254,408.752446 136.097656,407.905762 C135.289058,407.059078 134.884766,405.926765 134.884766,404.508789 L134.884766,404.209961 C134.884766,403.266597 135.06494,402.42432 135.425293,401.683105 C135.785646,400.941891 136.289548,400.361819 136.937012,399.942871 C137.584476,399.523924 138.286129,399.314453 139.041992,399.314453 C140.278326,399.314453 141.239254,399.721676 141.924805,400.536133 C142.610355,401.35059 142.953125,402.516594 142.953125,404.03418 L142.953125,404.710938 L136.510742,404.710938 C136.53418,405.648442 136.808103,406.405759 137.33252,406.98291 C137.856936,407.560061 138.523433,407.848633 139.332031,407.848633 C139.906253,407.848633 140.392576,407.731446 140.791016,407.49707 C141.189455,407.262694 141.538084,406.95215 141.836914,406.56543 L142.830078,407.338867 C142.033199,408.563483 140.837899,409.175781 139.244141,409.175781 Z M139.041992,400.650391 C138.385739,400.650391 137.834963,400.889158 137.389648,401.366699 C136.944334,401.844241 136.668946,402.513668 136.563477,403.375 L141.327148,403.375 L141.327148,403.251953 C141.280273,402.425777 141.057619,401.785647 140.65918,401.331543 C140.26074,400.877439 139.721683,400.650391 139.041992,400.650391 Z M146.459961,400.641602 C147.180668,399.756832 148.118158,399.314453 149.272461,399.314453 C151.282237,399.314453 152.295898,400.448231 152.313477,402.71582 L152.313477,409 L150.6875,409 L150.6875,402.707031 C150.681641,402.021481 150.524904,401.51465 150.217285,401.186523 C149.909666,400.858397 149.430667,400.694336 148.780273,400.694336 C148.252927,400.694336 147.790041,400.83496 147.391602,401.116211 C146.993162,401.397462 146.682618,401.766599 146.459961,402.223633 L146.459961,409 L144.833984,409 L144.833984,395.5 L146.459961,395.5 L146.459961,400.641602 Z M158.694336,409.175781 C157.405267,409.175781 156.356449,408.752446 155.547852,407.905762 C154.739254,407.059078 154.334961,405.926765 154.334961,404.508789 L154.334961,404.209961 C154.334961,403.266597 154.515135,402.42432 154.875488,401.683105 C155.235842,400.941891 155.739743,400.361819 156.387207,399.942871 C157.034671,399.523924 157.736324,399.314453 158.492188,399.314453 C159.728522,399.314453 160.68945,399.721676 161.375,400.536133 C162.06055,401.35059 162.40332,402.516594 162.40332,404.03418 L162.40332,404.710938 L155.960938,404.710938 C155.984375,405.648442 156.258298,406.405759 156.782715,406.98291 C157.307132,407.560061 157.973629,407.848633 158.782227,407.848633 C159.356448,407.848633 159.842771,407.731446 160.241211,407.49707 C160.63965,407.262694 160.98828,406.95215 161.287109,406.56543 L162.280273,407.338867 C161.483394,408.563483 160.288094,409.175781 158.694336,409.175781 Z M158.492188,400.650391 C157.835934,400.650391 157.285158,400.889158 156.839844,401.366699 C156.394529,401.844241 156.119141,402.513668 156.013672,403.375 L160.777344,403.375 L160.777344,403.251953 C160.730469,402.425777 160.507814,401.785647 160.109375,401.331543 C159.710936,400.877439 159.171878,400.650391 158.492188,400.650391 Z M165.822266,399.490234 L165.875,400.685547 C166.601566,399.77148 167.550775,399.314453 168.722656,399.314453 C170.732432,399.314453 171.746094,400.448231 171.763672,402.71582 L171.763672,409 L170.137695,409 L170.137695,402.707031 C170.131836,402.021481 169.975099,401.51465 169.66748,401.186523 C169.359862,400.858397 168.880863,400.694336 168.230469,400.694336 C167.703122,400.694336 167.240236,400.83496 166.841797,401.116211 C166.443357,401.397462 166.132814,401.766599 165.910156,402.223633 L165.910156,409 L164.28418,409 L164.28418,399.490234 L165.822266,399.490234 Z M179.75293,406.477539 C179.75293,406.038084 179.587404,405.696779 179.256348,405.453613 C178.925291,405.210448 178.348149,405.000977 177.524902,404.825195 C176.701656,404.649413 176.048342,404.438478 175.564941,404.192383 C175.081541,403.946288 174.724122,403.653322 174.492676,403.313477 C174.261229,402.973631 174.145508,402.569338 174.145508,402.100586 C174.145508,401.321285 174.475094,400.662112 175.134277,400.123047 C175.79346,399.583982 176.635737,399.314453 177.661133,399.314453 C178.739263,399.314453 179.613766,399.592771 180.284668,400.149414 C180.95557,400.706057 181.291016,401.417964 181.291016,402.285156 L179.65625,402.285156 C179.65625,401.839842 179.467287,401.456056 179.089355,401.133789 C178.711424,400.811522 178.235354,400.650391 177.661133,400.650391 C177.069333,400.650391 176.606447,400.779296 176.272461,401.037109 C175.938475,401.294923 175.771484,401.631834 175.771484,402.047852 C175.771484,402.440432 175.926756,402.736327 176.237305,402.935547 C176.547853,403.134767 177.108883,403.325194 177.92041,403.506836 C178.731938,403.688477 179.389646,403.905272 179.893555,404.157227 C180.397463,404.409181 180.770995,404.712401 181.01416,405.066895 C181.257325,405.421388 181.378906,405.853513 181.378906,406.363281 C181.378906,407.212895 181.039066,407.89404 180.359375,408.406738 C179.679684,408.919436 178.797857,409.175781 177.713867,409.175781 C176.952145,409.175781 176.278323,409.041017 175.692383,408.771484 C175.106442,408.501952 174.647951,408.125491 174.316895,407.64209 C173.985838,407.158689 173.820312,406.635745 173.820312,406.073242 L175.446289,406.073242 C175.475586,406.618167 175.693846,407.050291 176.101074,407.369629 C176.508303,407.688966 177.045895,407.848633 177.713867,407.848633 C178.329105,407.848633 178.822752,407.724122 179.194824,407.475098 C179.566896,407.226073 179.75293,406.893557 179.75293,406.477539 Z M185.263672,409 L183.637695,409 L183.637695,399.490234 L185.263672,399.490234 L185.263672,409 Z M183.505859,396.967773 C183.505859,396.7041 183.586425,396.481446 183.747559,396.299805 C183.908692,396.118163 184.147459,396.027344 184.463867,396.027344 C184.780275,396.027344 185.020507,396.118163 185.18457,396.299805 C185.348634,396.481446 185.430664,396.7041 185.430664,396.967773 C185.430664,397.231447 185.348634,397.451171 185.18457,397.626953 C185.020507,397.802735 184.780275,397.890625 184.463867,397.890625 C184.147459,397.890625 183.908692,397.802735 183.747559,397.626953 C183.586425,397.451171 183.505859,397.231447 183.505859,396.967773 Z M191.00293,406.793945 L193.358398,399.490234 L195.019531,399.490234 L191.609375,409 L190.370117,409 L186.924805,399.490234 L188.585938,399.490234 L191.00293,406.793945 Z M200.416016,409.175781 C199.126947,409.175781 198.078129,408.752446 197.269531,407.905762 C196.460933,407.059078 196.056641,405.926765 196.056641,404.508789 L196.056641,404.209961 C196.056641,403.266597 196.236815,402.42432 196.597168,401.683105 C196.957521,400.941891 197.461423,400.361819 198.108887,399.942871 C198.756351,399.523924 199.458004,399.314453 200.213867,399.314453 C201.450201,399.314453 202.411129,399.721676 203.09668,400.536133 C203.78223,401.35059 204.125,402.516594 204.125,404.03418 L204.125,404.710938 L197.682617,404.710938 C197.706055,405.648442 197.979978,406.405759 198.504395,406.98291 C199.028811,407.560061 199.695308,407.848633 200.503906,407.848633 C201.078128,407.848633 201.564451,407.731446 201.962891,407.49707 C202.36133,407.262694 202.709959,406.95215 203.008789,406.56543 L204.001953,407.338867 C203.205074,408.563483 202.009774,409.175781 200.416016,409.175781 Z M200.213867,400.650391 C199.557614,400.650391 199.006838,400.889158 198.561523,401.366699 C198.116209,401.844241 197.840821,402.513668 197.735352,403.375 L202.499023,403.375 L202.499023,403.251953 C202.452148,402.425777 202.229494,401.785647 201.831055,401.331543 C201.432615,400.877439 200.893558,400.650391 200.213867,400.650391 Z M214.953125,406.758789 L218.609375,396.203125 L220.455078,396.203125 L215.708984,409 L214.214844,409 L209.477539,396.203125 L211.314453,396.203125 L214.953125,406.758789 Z M225.473633,409.175781 C224.184564,409.175781 223.135746,408.752446 222.327148,407.905762 C221.518551,407.059078 221.114258,405.926765 221.114258,404.508789 L221.114258,404.209961 C221.114258,403.266597 221.294432,402.42432 221.654785,401.683105 C222.015139,400.941891 222.51904,400.361819 223.166504,399.942871 C223.813968,399.523924 224.515621,399.314453 225.271484,399.314453 C226.507819,399.314453 227.468747,399.721676 228.154297,400.536133 C228.839847,401.35059 229.182617,402.516594 229.182617,404.03418 L229.182617,404.710938 L222.740234,404.710938 C222.763672,405.648442 223.037595,406.405759 223.562012,406.98291 C224.086428,407.560061 224.752926,407.848633 225.561523,407.848633 C226.135745,407.848633 226.622068,407.731446 227.020508,407.49707 C227.418947,407.262694 227.767577,406.95215 228.066406,406.56543 L229.05957,407.338867 C228.262691,408.563483 227.067391,409.175781 225.473633,409.175781 Z M225.271484,400.650391 C224.615231,400.650391 224.064455,400.889158 223.619141,401.366699 C223.173826,401.844241 222.898438,402.513668 222.792969,403.375 L227.556641,403.375 L227.556641,403.251953 C227.509765,402.425777 227.287111,401.785647 226.888672,401.331543 C226.490232,400.877439 225.951175,400.650391 225.271484,400.650391 Z M233.269531,397.1875 L233.269531,399.490234 L235.044922,399.490234 L235.044922,400.74707 L233.269531,400.74707 L233.269531,406.644531 C233.269531,407.025393 233.348632,407.311034 233.506836,407.501465 C233.66504,407.691895 233.934568,407.787109 234.31543,407.787109 C234.502931,407.787109 234.760741,407.751953 235.088867,407.681641 L235.088867,409 C234.661131,409.117188 234.245119,409.175781 233.84082,409.175781 C233.114254,409.175781 232.566408,408.956057 232.197266,408.516602 C231.828123,408.077146 231.643555,407.453129 231.643555,406.644531 L231.643555,400.74707 L229.912109,400.74707 L229.912109,399.490234 L231.643555,399.490234 L231.643555,397.1875 L233.269531,397.1875 Z M135.693359,435 L133.99707,435 L127.554688,425.138672 L127.554688,435 L125.858398,435 L125.858398,422.203125 L127.554688,422.203125 L134.014648,432.108398 L134.014648,422.203125 L135.693359,422.203125 L135.693359,435 Z M142.381836,435.175781 C141.092767,435.175781 140.043949,434.752446 139.235352,433.905762 C138.426754,433.059078 138.022461,431.926765 138.022461,430.508789 L138.022461,430.209961 C138.022461,429.266597 138.202635,428.42432 138.562988,427.683105 C138.923342,426.941891 139.427243,426.361819 140.074707,425.942871 C140.722171,425.523924 141.423824,425.314453 142.179688,425.314453 C143.416022,425.314453 144.37695,425.721676 145.0625,426.536133 C145.74805,427.35059 146.09082,428.516594 146.09082,430.03418 L146.09082,430.710938 L139.648438,430.710938 C139.671875,431.648442 139.945798,432.405759 140.470215,432.98291 C140.994632,433.560061 141.661129,433.848633 142.469727,433.848633 C143.043948,433.848633 143.530271,433.731446 143.928711,433.49707 C144.32715,433.262694 144.67578,432.95215 144.974609,432.56543 L145.967773,433.338867 C145.170894,434.563483 143.975594,435.175781 142.381836,435.175781 Z M142.179688,426.650391 C141.523434,426.650391 140.972658,426.889158 140.527344,427.366699 C140.082029,427.844241 139.806641,428.513668 139.701172,429.375 L144.464844,429.375 L144.464844,429.251953 C144.417969,428.425777 144.195314,427.785647 143.796875,427.331543 C143.398436,426.877439 142.859378,426.650391 142.179688,426.650391 Z M150.177734,423.1875 L150.177734,425.490234 L151.953125,425.490234 L151.953125,426.74707 L150.177734,426.74707 L150.177734,432.644531 C150.177734,433.025393 150.256835,433.311034 150.415039,433.501465 C150.573243,433.691895 150.842772,433.787109 151.223633,433.787109 C151.411134,433.787109 151.668944,433.751953 151.99707,433.681641 L151.99707,435 C151.569334,435.117188 151.153322,435.175781 150.749023,435.175781 C150.022457,435.175781 149.474611,434.956057 149.105469,434.516602 C148.736326,434.077146 148.551758,433.453129 148.551758,432.644531 L148.551758,426.74707 L146.820312,426.74707 L146.820312,425.490234 L148.551758,425.490234 L148.551758,423.1875 L150.177734,423.1875 Z M162.271484,432.758789 L164.099609,425.490234 L165.725586,425.490234 L162.957031,435 L161.638672,435 L159.327148,427.792969 L157.077148,435 L155.758789,435 L152.999023,425.490234 L154.616211,425.490234 L156.488281,432.609375 L158.703125,425.490234 L160.012695,425.490234 L162.271484,432.758789 Z M166.947266,430.157227 C166.947266,429.225581 167.130369,428.387699 167.496582,427.643555 C167.862795,426.89941 168.372555,426.325197 169.025879,425.920898 C169.679202,425.5166 170.4248,425.314453 171.262695,425.314453 C172.557624,425.314453 173.604976,425.762691 174.404785,426.65918 C175.204594,427.555669 175.604492,428.748039 175.604492,430.236328 L175.604492,430.350586 C175.604492,431.276372 175.427248,432.10693 175.072754,432.842285 C174.71826,433.57764 174.211429,434.150389 173.552246,434.560547 C172.893063,434.970705 172.135746,435.175781 171.280273,435.175781 C169.991204,435.175781 168.946781,434.727544 168.146973,433.831055 C167.347164,432.934566 166.947266,431.748054 166.947266,430.271484 L166.947266,430.157227 Z M168.582031,430.350586 C168.582031,431.405279 168.826658,432.25195 169.315918,432.890625 C169.805178,433.5293 170.459957,433.848633 171.280273,433.848633 C172.106449,433.848633 172.762693,433.524906 173.249023,432.877441 C173.735354,432.229977 173.978516,431.323248 173.978516,430.157227 C173.978516,429.114253 173.73096,428.269046 173.23584,427.621582 C172.74072,426.974118 172.083012,426.650391 171.262695,426.650391 C170.459957,426.650391 169.812502,426.969723 169.320312,427.608398 C168.828123,428.247074 168.582031,429.161127 168.582031,430.350586 Z M182.240234,426.949219 C181.994139,426.908203 181.72754,426.887695 181.44043,426.887695 C180.374018,426.887695 179.650393,427.341792 179.269531,428.25 L179.269531,435 L177.643555,435 L177.643555,425.490234 L179.225586,425.490234 L179.251953,426.588867 C179.785159,425.739254 180.541011,425.314453 181.519531,425.314453 C181.835939,425.314453 182.076171,425.355468 182.240234,425.4375 L182.240234,426.949219 Z M186.388672,430.59668 L185.369141,431.660156 L185.369141,435 L183.743164,435 L183.743164,421.5 L185.369141,421.5 L185.369141,429.665039 L186.239258,428.619141 L189.201172,425.490234 L191.178711,425.490234 L187.478516,429.462891 L191.609375,435 L189.702148,435 L186.388672,430.59668 Z" id="ComprehensiveVetNetwork" fill="#505050" fill-rule="nonzero"></path>
                <path d="M63.9042969,524 L55.5195312,524 L55.5195312,522.831055 L59.9492188,517.90918 C60.605472,517.165035 61.0581042,516.560061 61.3071289,516.094238 C61.5561536,515.628416 61.6806641,515.146487 61.6806641,514.648438 C61.6806641,513.980465 61.4785176,513.432619 61.0742188,513.004883 C60.6699199,512.577146 60.1308627,512.363281 59.4570312,512.363281 C58.6484335,512.363281 58.0200218,512.593259 57.5717773,513.053223 C57.1235329,513.513186 56.8994141,514.153316 56.8994141,514.973633 L55.2734375,514.973633 C55.2734375,513.795893 55.6528282,512.843754 56.4116211,512.117188 C57.170414,511.390621 58.1855405,511.027344 59.4570312,511.027344 C60.6464903,511.027344 61.5869106,511.339352 62.2783203,511.963379 C62.96973,512.587405 63.3154297,513.417964 63.3154297,514.455078 C63.3154297,515.71485 62.5127033,517.214835 60.9072266,518.955078 L57.4794922,522.672852 L63.9042969,522.672852 L63.9042969,524 Z M72.4912109,519.702148 L74.2666016,519.702148 L74.2666016,521.029297 L72.4912109,521.029297 L72.4912109,524 L70.8564453,524 L70.8564453,521.029297 L65.0292969,521.029297 L65.0292969,520.071289 L70.7597656,511.203125 L72.4912109,511.203125 L72.4912109,519.702148 Z M66.875,519.702148 L70.8564453,519.702148 L70.8564453,513.426758 L70.6630859,513.77832 L66.875,519.702148 Z M79.2851562,519.227539 L74.9960938,519.227539 L74.9960938,517.900391 L79.2851562,517.900391 L79.2851562,519.227539 Z M82.4931641,515.641602 C83.2138708,514.756832 84.1513614,514.314453 85.3056641,514.314453 C87.3154397,514.314453 88.3291015,515.448231 88.3466797,517.71582 L88.3466797,524 L86.7207031,524 L86.7207031,517.707031 C86.7148437,517.021481 86.558107,516.51465 86.2504883,516.186523 C85.9428696,515.858397 85.4638704,515.694336 84.8134766,515.694336 C84.2861302,515.694336 83.8232442,515.83496 83.4248047,516.116211 C83.0263652,516.397462 82.7158214,516.766599 82.4931641,517.223633 L82.4931641,524 L80.8671875,524 L80.8671875,510.5 L82.4931641,510.5 L82.4931641,515.641602 Z M90.3505859,519.157227 C90.3505859,518.225581 90.5336896,517.387699 90.8999023,516.643555 C91.2661151,515.89941 91.7758756,515.325197 92.4291992,514.920898 C93.0825228,514.5166 93.8281208,514.314453 94.6660156,514.314453 C95.960944,514.314453 97.0082968,514.762691 97.8081055,515.65918 C98.6079142,516.555669 99.0078125,517.748039 99.0078125,519.236328 L99.0078125,519.350586 C99.0078125,520.276372 98.8305682,521.10693 98.4760742,521.842285 C98.1215803,522.57764 97.6147494,523.150389 96.9555664,523.560547 C96.2963834,523.970705 95.5390668,524.175781 94.6835938,524.175781 C93.3945248,524.175781 92.3501017,523.727544 91.550293,522.831055 C90.7504843,521.934566 90.3505859,520.748054 90.3505859,519.271484 L90.3505859,519.157227 Z M91.9853516,519.350586 C91.9853516,520.405279 92.229978,521.25195 92.7192383,521.890625 C93.2084985,522.5293 93.8632771,522.848633 94.6835938,522.848633 C95.5097698,522.848633 96.1660132,522.524906 96.6523438,521.877441 C97.1386743,521.229977 97.3818359,520.323248 97.3818359,519.157227 C97.3818359,518.114253 97.1342798,517.269046 96.6391602,516.621582 C96.1440405,515.974118 95.4863322,515.650391 94.6660156,515.650391 C93.8632772,515.650391 93.2158228,515.969723 92.7236328,516.608398 C92.2314429,517.247074 91.9853516,518.161127 91.9853516,519.350586 Z M106.917969,523.05957 C106.285153,523.803715 105.356451,524.175781 104.131836,524.175781 C103.118159,524.175781 102.346194,523.881351 101.815918,523.29248 C101.285642,522.70361 101.017578,521.832037 101.011719,520.677734 L101.011719,514.490234 L102.637695,514.490234 L102.637695,520.633789 C102.637695,522.075203 103.223627,522.795898 104.395508,522.795898 C105.637702,522.795898 106.463865,522.333012 106.874023,521.407227 L106.874023,514.490234 L108.5,514.490234 L108.5,524 L106.953125,524 L106.917969,523.05957 Z M115.566406,515.949219 C115.320311,515.908203 115.053712,515.887695 114.766602,515.887695 C113.70019,515.887695 112.976564,516.341792 112.595703,517.25 L112.595703,524 L110.969727,524 L110.969727,514.490234 L112.551758,514.490234 L112.578125,515.588867 C113.111331,514.739254 113.867183,514.314453 114.845703,514.314453 C115.162111,514.314453 115.402343,514.355468 115.566406,514.4375 L115.566406,515.949219 Z M131.18457,519.939453 C131.026366,521.292976 130.52686,522.337399 129.686035,523.072754 C128.845211,523.808109 127.727546,524.175781 126.333008,524.175781 C124.821282,524.175781 123.609868,523.633794 122.69873,522.549805 C121.787593,521.465815 121.332031,520.015634 121.332031,518.199219 L121.332031,516.96875 C121.332031,515.779291 121.544431,514.733403 121.969238,513.831055 C122.394045,512.928706 122.99609,512.235842 123.775391,511.752441 C124.554691,511.269041 125.457026,511.027344 126.482422,511.027344 C127.841804,511.027344 128.931637,511.406734 129.751953,512.165527 C130.57227,512.92432 131.049804,513.974603 131.18457,515.316406 L129.488281,515.316406 C129.341796,514.29687 129.023928,513.558596 128.534668,513.101562 C128.045408,512.644529 127.361333,512.416016 126.482422,512.416016 C125.404291,512.416016 124.559085,512.814449 123.946777,513.611328 C123.33447,514.408207 123.02832,515.541985 123.02832,517.012695 L123.02832,518.251953 C123.02832,519.640632 123.318356,520.745113 123.898438,521.56543 C124.478519,522.385746 125.290034,522.795898 126.333008,522.795898 C127.270512,522.795898 127.989744,522.583498 128.490723,522.158691 C128.991702,521.733885 129.324218,520.994146 129.488281,519.939453 L131.18457,519.939453 Z M139.103516,523.05957 C138.4707,523.803715 137.541998,524.175781 136.317383,524.175781 C135.303706,524.175781 134.531741,523.881351 134.001465,523.29248 C133.471189,522.70361 133.203125,521.832037 133.197266,520.677734 L133.197266,514.490234 L134.823242,514.490234 L134.823242,520.633789 C134.823242,522.075203 135.409174,522.795898 136.581055,522.795898 C137.823248,522.795898 138.649412,522.333012 139.05957,521.407227 L139.05957,514.490234 L140.685547,514.490234 L140.685547,524 L139.138672,524 L139.103516,523.05957 Z M148.692383,521.477539 C148.692383,521.038084 148.526857,520.696779 148.195801,520.453613 C147.864744,520.210448 147.287602,520.000977 146.464355,519.825195 C145.641109,519.649413 144.987795,519.438478 144.504395,519.192383 C144.020994,518.946288 143.663575,518.653322 143.432129,518.313477 C143.200682,517.973631 143.084961,517.569338 143.084961,517.100586 C143.084961,516.321285 143.414547,515.662112 144.07373,515.123047 C144.732913,514.583982 145.57519,514.314453 146.600586,514.314453 C147.678716,514.314453 148.553219,514.592771 149.224121,515.149414 C149.895023,515.706057 150.230469,516.417964 150.230469,517.285156 L148.595703,517.285156 C148.595703,516.839842 148.40674,516.456056 148.028809,516.133789 C147.650877,515.811522 147.174808,515.650391 146.600586,515.650391 C146.008786,515.650391 145.5459,515.779296 145.211914,516.037109 C144.877928,516.294923 144.710938,516.631834 144.710938,517.047852 C144.710938,517.440432 144.866209,517.736327 145.176758,517.935547 C145.487306,518.134767 146.048336,518.325194 146.859863,518.506836 C147.671391,518.688477 148.329099,518.905272 148.833008,519.157227 C149.336917,519.409181 149.710448,519.712401 149.953613,520.066895 C150.196779,520.421388 150.318359,520.853513 150.318359,521.363281 C150.318359,522.212895 149.978519,522.89404 149.298828,523.406738 C148.619137,523.919436 147.73731,524.175781 146.65332,524.175781 C145.891598,524.175781 145.217776,524.041017 144.631836,523.771484 C144.045896,523.501952 143.587404,523.125491 143.256348,522.64209 C142.925291,522.158689 142.759766,521.635745 142.759766,521.073242 L144.385742,521.073242 C144.415039,521.618167 144.633299,522.050291 145.040527,522.369629 C145.447756,522.688966 145.985348,522.848633 146.65332,522.848633 C147.268558,522.848633 147.762205,522.724122 148.134277,522.475098 C148.50635,522.226073 148.692383,521.893557 148.692383,521.477539 Z M154.642578,512.1875 L154.642578,514.490234 L156.417969,514.490234 L156.417969,515.74707 L154.642578,515.74707 L154.642578,521.644531 C154.642578,522.025393 154.721679,522.311034 154.879883,522.501465 C155.038087,522.691895 155.307615,522.787109 155.688477,522.787109 C155.875977,522.787109 156.133787,522.751953 156.461914,522.681641 L156.461914,524 C156.034178,524.117188 155.618166,524.175781 155.213867,524.175781 C154.487301,524.175781 153.939455,523.956057 153.570312,523.516602 C153.20117,523.077146 153.016602,522.453129 153.016602,521.644531 L153.016602,515.74707 L151.285156,515.74707 L151.285156,514.490234 L153.016602,514.490234 L153.016602,512.1875 L154.642578,512.1875 Z M157.709961,519.157227 C157.709961,518.225581 157.893065,517.387699 158.259277,516.643555 C158.62549,515.89941 159.135251,515.325197 159.788574,514.920898 C160.441898,514.5166 161.187496,514.314453 162.025391,514.314453 C163.320319,514.314453 164.367672,514.762691 165.16748,515.65918 C165.967289,516.555669 166.367188,517.748039 166.367188,519.236328 L166.367188,519.350586 C166.367188,520.276372 166.189943,521.10693 165.835449,521.842285 C165.480955,522.57764 164.974124,523.150389 164.314941,523.560547 C163.655758,523.970705 162.898442,524.175781 162.042969,524.175781 C160.7539,524.175781 159.709477,523.727544 158.909668,522.831055 C158.109859,521.934566 157.709961,520.748054 157.709961,519.271484 L157.709961,519.157227 Z M159.344727,519.350586 C159.344727,520.405279 159.589353,521.25195 160.078613,521.890625 C160.567874,522.5293 161.222652,522.848633 162.042969,522.848633 C162.869145,522.848633 163.525388,522.524906 164.011719,521.877441 C164.498049,521.229977 164.741211,520.323248 164.741211,519.157227 C164.741211,518.114253 164.493655,517.269046 163.998535,516.621582 C163.503415,515.974118 162.845707,515.650391 162.025391,515.650391 C161.222652,515.650391 160.575198,515.969723 160.083008,516.608398 C159.590818,517.247074 159.344727,518.161127 159.344727,519.350586 Z M169.935547,514.490234 L169.979492,515.544922 C170.676761,514.724605 171.617182,514.314453 172.800781,514.314453 C174.130866,514.314453 175.03613,514.824214 175.516602,515.84375 C175.833009,515.386716 176.244626,515.01758 176.751465,514.736328 C177.258303,514.455077 177.857418,514.314453 178.548828,514.314453 C180.634776,514.314453 181.695312,515.418934 181.730469,517.62793 L181.730469,524 L180.104492,524 L180.104492,517.724609 C180.104492,517.044918 179.94922,516.536623 179.638672,516.199707 C179.328123,515.862791 178.806644,515.694336 178.074219,515.694336 C177.4707,515.694336 176.969729,515.87451 176.571289,516.234863 C176.17285,516.595217 175.941407,517.080075 175.876953,517.689453 L175.876953,524 L174.242188,524 L174.242188,517.768555 C174.242188,516.385735 173.565436,515.694336 172.211914,515.694336 C171.145502,515.694336 170.416018,516.148433 170.023438,517.056641 L170.023438,524 L168.397461,524 L168.397461,514.490234 L169.935547,514.490234 Z M188.128906,524.175781 C186.839837,524.175781 185.79102,523.752446 184.982422,522.905762 C184.173824,522.059078 183.769531,520.926765 183.769531,519.508789 L183.769531,519.209961 C183.769531,518.266597 183.949705,517.42432 184.310059,516.683105 C184.670412,515.941891 185.174313,515.361819 185.821777,514.942871 C186.469242,514.523924 187.170895,514.314453 187.926758,514.314453 C189.163092,514.314453 190.12402,514.721676 190.80957,515.536133 C191.495121,516.35059 191.837891,517.516594 191.837891,519.03418 L191.837891,519.710938 L185.395508,519.710938 C185.418945,520.648442 185.692868,521.405759 186.217285,521.98291 C186.741702,522.560061 187.408199,522.848633 188.216797,522.848633 C188.791018,522.848633 189.277342,522.731446 189.675781,522.49707 C190.074221,522.262694 190.42285,521.95215 190.72168,521.56543 L191.714844,522.338867 C190.917965,523.563483 189.722664,524.175781 188.128906,524.175781 Z M187.926758,515.650391 C187.270505,515.650391 186.719729,515.889158 186.274414,516.366699 C185.829099,516.844241 185.553711,517.513668 185.448242,518.375 L190.211914,518.375 L190.211914,518.251953 C190.165039,517.425777 189.942385,516.785647 189.543945,516.331543 C189.145506,515.877439 188.606449,515.650391 187.926758,515.650391 Z M198.31543,515.949219 C198.069335,515.908203 197.802736,515.887695 197.515625,515.887695 C196.449213,515.887695 195.725588,516.341792 195.344727,517.25 L195.344727,524 L193.71875,524 L193.71875,514.490234 L195.300781,514.490234 L195.327148,515.588867 C195.860354,514.739254 196.616206,514.314453 197.594727,514.314453 C197.911134,514.314453 198.151366,514.355468 198.31543,514.4375 L198.31543,515.949219 Z M208.291016,518.295898 C206.843743,517.879881 205.790531,517.368655 205.131348,516.762207 C204.472165,516.155759 204.142578,515.407231 204.142578,514.516602 C204.142578,513.508784 204.545406,512.675296 205.351074,512.016113 C206.156742,511.35693 207.204095,511.027344 208.493164,511.027344 C209.372075,511.027344 210.155758,511.197264 210.844238,511.537109 C211.532718,511.876955 212.065916,512.3457 212.443848,512.943359 C212.821779,513.541019 213.010742,514.194332 213.010742,514.90332 L211.314453,514.90332 C211.314453,514.129879 211.068362,513.521975 210.576172,513.07959 C210.083982,512.637205 209.389653,512.416016 208.493164,512.416016 C207.661129,512.416016 207.012209,512.599119 206.546387,512.965332 C206.080564,513.331545 205.847656,513.83984 205.847656,514.490234 C205.847656,515.011721 206.068845,515.452635 206.51123,515.812988 C206.953615,516.173342 207.706538,516.502928 208.77002,516.801758 C209.833501,517.100587 210.665524,517.430174 211.266113,517.790527 C211.866702,518.150881 212.31201,518.571287 212.602051,519.051758 C212.892091,519.532229 213.037109,520.097653 213.037109,520.748047 C213.037109,521.785161 212.632817,522.61572 211.824219,523.239746 C211.015621,523.863773 209.934577,524.175781 208.581055,524.175781 C207.702144,524.175781 206.88184,524.007326 206.120117,523.67041 C205.358395,523.333494 204.770998,522.872073 204.35791,522.286133 C203.944822,521.700192 203.738281,521.03516 203.738281,520.291016 L205.43457,520.291016 C205.43457,521.064457 205.720212,521.675291 206.291504,522.123535 C206.862796,522.57178 207.625972,522.795898 208.581055,522.795898 C209.471684,522.795898 210.154295,522.61426 210.628906,522.250977 C211.103518,521.887693 211.34082,521.392581 211.34082,520.765625 C211.34082,520.138669 211.121096,519.65381 210.681641,519.311035 C210.242185,518.96826 209.445318,518.629884 208.291016,518.295898 Z M218.890625,524.175781 C217.601556,524.175781 216.552738,523.752446 215.744141,522.905762 C214.935543,522.059078 214.53125,520.926765 214.53125,519.508789 L214.53125,519.209961 C214.53125,518.266597 214.711424,517.42432 215.071777,516.683105 C215.432131,515.941891 215.936032,515.361819 216.583496,514.942871 C217.23096,514.523924 217.932613,514.314453 218.688477,514.314453 C219.924811,514.314453 220.885739,514.721676 221.571289,515.536133 C222.256839,516.35059 222.599609,517.516594 222.599609,519.03418 L222.599609,519.710938 L216.157227,519.710938 C216.180664,520.648442 216.454587,521.405759 216.979004,521.98291 C217.503421,522.560061 218.169918,522.848633 218.978516,522.848633 C219.552737,522.848633 220.039061,522.731446 220.4375,522.49707 C220.835939,522.262694 221.184569,521.95215 221.483398,521.56543 L222.476562,522.338867 C221.679684,523.563483 220.484383,524.175781 218.890625,524.175781 Z M218.688477,515.650391 C218.032223,515.650391 217.481448,515.889158 217.036133,516.366699 C216.590818,516.844241 216.31543,517.513668 216.209961,518.375 L220.973633,518.375 L220.973633,518.251953 C220.926758,517.425777 220.704104,516.785647 220.305664,516.331543 C219.907225,515.877439 219.368167,515.650391 218.688477,515.650391 Z M229.077148,515.949219 C228.831053,515.908203 228.564455,515.887695 228.277344,515.887695 C227.210932,515.887695 226.487307,516.341792 226.106445,517.25 L226.106445,524 L224.480469,524 L224.480469,514.490234 L226.0625,514.490234 L226.088867,515.588867 C226.622073,514.739254 227.377925,514.314453 228.356445,514.314453 C228.672853,514.314453 228.913085,514.355468 229.077148,514.4375 L229.077148,515.949219 Z M233.867188,521.793945 L236.222656,514.490234 L237.883789,514.490234 L234.473633,524 L233.234375,524 L229.789062,514.490234 L231.450195,514.490234 L233.867188,521.793945 Z M241.214844,524 L239.588867,524 L239.588867,514.490234 L241.214844,514.490234 L241.214844,524 Z M239.457031,511.967773 C239.457031,511.7041 239.537597,511.481446 239.69873,511.299805 C239.859864,511.118163 240.098631,511.027344 240.415039,511.027344 C240.731447,511.027344 240.971679,511.118163 241.135742,511.299805 C241.299806,511.481446 241.381836,511.7041 241.381836,511.967773 C241.381836,512.231447 241.299806,512.451171 241.135742,512.626953 C240.971679,512.802735 240.731447,512.890625 240.415039,512.890625 C240.098631,512.890625 239.859864,512.802735 239.69873,512.626953 C239.537597,512.451171 239.457031,512.231447 239.457031,511.967773 Z M247.630859,522.848633 C248.21094,522.848633 248.717771,522.672853 249.151367,522.321289 C249.584963,521.969725 249.825195,521.530276 249.87207,521.00293 L251.410156,521.00293 C251.380859,521.547854 251.193361,522.066404 250.847656,522.558594 C250.501951,523.050784 250.04053,523.443358 249.463379,523.736328 C248.886228,524.029298 248.275394,524.175781 247.630859,524.175781 C246.335931,524.175781 245.306156,523.743657 244.541504,522.879395 C243.776852,522.015132 243.394531,520.833015 243.394531,519.333008 L243.394531,519.060547 C243.394531,518.134761 243.564451,517.311527 243.904297,516.59082 C244.244142,515.870114 244.73193,515.310549 245.367676,514.912109 C246.003421,514.51367 246.754878,514.314453 247.62207,514.314453 C248.688482,514.314453 249.574704,514.633786 250.280762,515.272461 C250.98682,515.911136 251.363281,516.740229 251.410156,517.759766 L249.87207,517.759766 C249.825195,517.144528 249.592287,516.639162 249.17334,516.243652 C248.754392,515.848143 248.237308,515.650391 247.62207,515.650391 C246.795894,515.650391 246.155764,515.947751 245.70166,516.54248 C245.247556,517.13721 245.020508,517.997065 245.020508,519.12207 L245.020508,519.429688 C245.020508,520.525396 245.246091,521.369138 245.697266,521.960938 C246.14844,522.552737 246.792965,522.848633 247.630859,522.848633 Z M257.18457,524.175781 C255.895501,524.175781 254.846684,523.752446 254.038086,522.905762 C253.229488,522.059078 252.825195,520.926765 252.825195,519.508789 L252.825195,519.209961 C252.825195,518.266597 253.005369,517.42432 253.365723,516.683105 C253.726076,515.941891 254.229977,515.361819 254.877441,514.942871 C255.524906,514.523924 256.226559,514.314453 256.982422,514.314453 C258.218756,514.314453 259.179684,514.721676 259.865234,515.536133 C260.550785,516.35059 260.893555,517.516594 260.893555,519.03418 L260.893555,519.710938 L254.451172,519.710938 C254.474609,520.648442 254.748533,521.405759 255.272949,521.98291 C255.797366,522.560061 256.463863,522.848633 257.272461,522.848633 C257.846683,522.848633 258.333006,522.731446 258.731445,522.49707 C259.129885,522.262694 259.478514,521.95215 259.777344,521.56543 L260.770508,522.338867 C259.973629,523.563483 258.778328,524.175781 257.18457,524.175781 Z M256.982422,515.650391 C256.326169,515.650391 255.775393,515.889158 255.330078,516.366699 C254.884763,516.844241 254.609376,517.513668 254.503906,518.375 L259.267578,518.375 L259.267578,518.251953 C259.220703,517.425777 258.998049,516.785647 258.599609,516.331543 C258.20117,515.877439 257.662113,515.650391 256.982422,515.650391 Z" id="24-hourCustomerService" fill="#505050" fill-rule="nonzero"></path>
                <path d="M138.032227,145.189453 L132.407227,145.189453 L132.407227,151 L129.477539,151 L129.477539,136.78125 L138.735352,136.78125 L138.735352,139.154297 L132.407227,139.154297 L132.407227,142.826172 L138.032227,142.826172 L138.032227,145.189453 Z M146.040039,151 C145.90983,150.746092 145.81543,150.43034 145.756836,150.052734 C145.073239,150.814457 144.184576,151.195312 143.09082,151.195312 C142.055659,151.195312 141.19792,150.895836 140.517578,150.296875 C139.837236,149.697914 139.49707,148.942713 139.49707,148.03125 C139.49707,146.911453 139.912105,146.052086 140.742188,145.453125 C141.57227,144.854164 142.771802,144.551432 144.34082,144.544922 L145.639648,144.544922 L145.639648,143.939453 C145.639648,143.451169 145.514324,143.060548 145.263672,142.767578 C145.01302,142.474608 144.617516,142.328125 144.077148,142.328125 C143.601886,142.328125 143.229168,142.442056 142.958984,142.669922 C142.688801,142.897788 142.553711,143.210284 142.553711,143.607422 L139.731445,143.607422 C139.731445,142.99544 139.920246,142.429039 140.297852,141.908203 C140.675458,141.387367 141.209306,140.978843 141.899414,140.682617 C142.589522,140.386392 143.364254,140.238281 144.223633,140.238281 C145.525723,140.238281 146.559241,140.565426 147.324219,141.219727 C148.089197,141.874027 148.47168,142.793614 148.47168,143.978516 L148.47168,148.558594 C148.47819,149.561203 148.618163,150.319659 148.891602,150.833984 L148.891602,151 L146.040039,151 Z M143.706055,149.037109 C144.122723,149.037109 144.506834,148.944337 144.858398,148.758789 C145.209963,148.573241 145.470377,148.32422 145.639648,148.011719 L145.639648,146.195312 L144.584961,146.195312 C143.172193,146.195312 142.420248,146.683589 142.329102,147.660156 L142.319336,147.826172 C142.319336,148.177736 142.443033,148.467447 142.69043,148.695312 C142.937827,148.923178 143.276365,149.037109 143.706055,149.037109 Z M156.362305,148.080078 C156.362305,147.735024 156.191408,147.463217 155.849609,147.264648 C155.507811,147.06608 154.959314,146.888673 154.204102,146.732422 C151.691068,146.205075 150.43457,145.137378 150.43457,143.529297 C150.43457,142.591792 150.823564,141.808922 151.601562,141.180664 C152.379561,140.552406 153.396804,140.238281 154.65332,140.238281 C155.994473,140.238281 157.067053,140.554033 157.871094,141.185547 C158.675134,141.81706 159.077148,142.637365 159.077148,143.646484 L156.254883,143.646484 C156.254883,143.242837 156.124676,142.909181 155.864258,142.645508 C155.60384,142.381835 155.196943,142.25 154.643555,142.25 C154.168292,142.25 153.800457,142.357421 153.540039,142.572266 C153.279621,142.78711 153.149414,143.060545 153.149414,143.392578 C153.149414,143.70508 153.297525,143.957356 153.59375,144.149414 C153.889975,144.341472 154.389645,144.507486 155.092773,144.647461 C155.795902,144.787436 156.388344,144.945312 156.870117,145.121094 C158.36101,145.667971 159.106445,146.615228 159.106445,147.962891 C159.106445,148.926437 158.693038,149.706052 157.866211,150.301758 C157.039384,150.897464 155.971686,151.195312 154.663086,151.195312 C153.777665,151.195312 152.99154,151.037436 152.304688,150.72168 C151.617835,150.405923 151.079104,149.972985 150.688477,149.422852 C150.29785,148.872719 150.102539,148.278649 150.102539,147.640625 L152.77832,147.640625 C152.804362,148.14193 152.989907,148.52604 153.334961,148.792969 C153.680015,149.059897 154.14225,149.193359 154.72168,149.193359 C155.262047,149.193359 155.670572,149.090821 155.947266,148.885742 C156.22396,148.680663 156.362305,148.412111 156.362305,148.080078 Z M164.301758,137.835938 L164.301758,140.433594 L166.108398,140.433594 L166.108398,142.503906 L164.301758,142.503906 L164.301758,147.777344 C164.301758,148.167971 164.376627,148.447916 164.526367,148.617188 C164.676108,148.786459 164.962563,148.871094 165.385742,148.871094 C165.698244,148.871094 165.974934,148.848308 166.21582,148.802734 L166.21582,150.941406 C165.662432,151.110678 165.092776,151.195312 164.506836,151.195312 C162.527659,151.195312 161.518555,150.195974 161.479492,148.197266 L161.479492,142.503906 L159.936523,142.503906 L159.936523,140.433594 L161.479492,140.433594 L161.479492,137.835938 L164.301758,137.835938 Z M178.100586,147.474609 L181.323242,136.78125 L184.584961,136.78125 L179.633789,151 L176.577148,151 L171.645508,136.78125 L174.897461,136.78125 L178.100586,147.474609 Z M190.170898,151.195312 C188.621412,151.195312 187.360031,150.720057 186.386719,149.769531 C185.413407,148.819006 184.926758,147.552742 184.926758,145.970703 L184.926758,145.697266 C184.926758,144.636062 185.131834,143.687179 185.541992,142.850586 C185.95215,142.013993 186.533199,141.369468 187.285156,140.916992 C188.037113,140.464516 188.894852,140.238281 189.858398,140.238281 C191.303718,140.238281 192.441402,140.694006 193.271484,141.605469 C194.101567,142.516932 194.516602,143.809236 194.516602,145.482422 L194.516602,146.634766 L187.788086,146.634766 C187.879232,147.324873 188.154295,147.878253 188.613281,148.294922 C189.072268,148.711591 189.653317,148.919922 190.356445,148.919922 C191.44369,148.919922 192.293291,148.526046 192.905273,147.738281 L194.291992,149.291016 C193.868813,149.889977 193.295902,150.357095 192.573242,150.692383 C191.850582,151.027671 191.049809,151.195312 190.170898,151.195312 Z M189.848633,142.523438 C189.288734,142.523438 188.834637,142.712238 188.486328,143.089844 C188.138019,143.46745 187.91504,144.007809 187.817383,144.710938 L191.743164,144.710938 L191.743164,144.486328 C191.730143,143.861325 191.560874,143.377931 191.235352,143.036133 C190.909829,142.694334 190.447594,142.523438 189.848633,142.523438 Z M199.49707,137.835938 L199.49707,140.433594 L201.303711,140.433594 L201.303711,142.503906 L199.49707,142.503906 L199.49707,147.777344 C199.49707,148.167971 199.571939,148.447916 199.72168,148.617188 C199.87142,148.786459 200.157875,148.871094 200.581055,148.871094 C200.893556,148.871094 201.170246,148.848308 201.411133,148.802734 L201.411133,150.941406 C200.857745,151.110678 200.288089,151.195312 199.702148,151.195312 C197.722972,151.195312 196.713867,150.195974 196.674805,148.197266 L196.674805,142.503906 L195.131836,142.503906 L195.131836,140.433594 L196.674805,140.433594 L196.674805,137.835938 L199.49707,137.835938 Z M117.900391,170.263672 C117.789713,171.793627 117.22494,172.998042 116.206055,173.876953 C115.187169,174.755864 113.844409,175.195312 112.177734,175.195312 C110.354809,175.195312 108.920904,174.581712 107.875977,173.354492 C106.831049,172.127273 106.308594,170.442719 106.308594,168.300781 L106.308594,167.431641 C106.308594,166.064446 106.549477,164.860031 107.03125,163.818359 C107.513023,162.776687 108.201493,161.977542 109.09668,161.420898 C109.991866,160.864255 111.031895,160.585938 112.216797,160.585938 C113.85743,160.585938 115.179031,161.025386 116.181641,161.904297 C117.18425,162.783208 117.763671,164.016919 117.919922,165.605469 L114.990234,165.605469 C114.918619,164.687495 114.663088,164.021812 114.223633,163.608398 C113.784177,163.194985 113.115239,162.988281 112.216797,162.988281 C111.240229,162.988281 110.509443,163.338213 110.024414,164.038086 C109.539386,164.737959 109.290365,165.82356 109.277344,167.294922 L109.277344,168.369141 C109.277344,169.905607 109.510089,171.028642 109.975586,171.738281 C110.441083,172.44792 111.175125,172.802734 112.177734,172.802734 C113.082687,172.802734 113.758136,172.596031 114.204102,172.182617 C114.650067,171.769204 114.905599,171.129562 114.970703,170.263672 L117.900391,170.263672 Z M119.199219,169.619141 C119.199219,168.570958 119.40104,167.636723 119.804688,166.816406 C120.208335,165.99609 120.789384,165.36133 121.547852,164.912109 C122.306319,164.462888 123.186844,164.238281 124.189453,164.238281 C125.615242,164.238281 126.778967,164.674475 127.680664,165.546875 C128.582361,166.419275 129.085286,167.604159 129.189453,169.101562 L129.208984,169.824219 C129.208984,171.445321 128.756515,172.745763 127.851562,173.725586 C126.94661,174.705409 125.732429,175.195312 124.208984,175.195312 C122.685539,175.195312 121.469731,174.707036 120.561523,173.730469 C119.653316,172.753901 119.199219,171.42579 119.199219,169.746094 L119.199219,169.619141 Z M122.021484,169.824219 C122.021484,170.826828 122.210285,171.593422 122.587891,172.124023 C122.965497,172.654625 123.505856,172.919922 124.208984,172.919922 C124.892582,172.919922 125.42643,172.65788 125.810547,172.133789 C126.194663,171.609698 126.386719,170.77149 126.386719,169.619141 C126.386719,168.636063 126.194663,167.874352 125.810547,167.333984 C125.42643,166.793617 124.886071,166.523438 124.189453,166.523438 C123.499346,166.523438 122.965497,166.79199 122.587891,167.329102 C122.210285,167.866214 122.021484,168.697911 122.021484,169.824219 Z M133.544922,164.433594 L133.632812,165.654297 C134.388025,164.710282 135.400384,164.238281 136.669922,164.238281 C137.789719,164.238281 138.623044,164.567054 139.169922,165.224609 C139.7168,165.882165 139.996745,166.865228 140.009766,168.173828 L140.009766,175 L137.1875,175 L137.1875,168.242188 C137.1875,167.643226 137.057293,167.20866 136.796875,166.938477 C136.536457,166.668293 136.103519,166.533203 135.498047,166.533203 C134.703772,166.533203 134.108075,166.871741 133.710938,167.548828 L133.710938,175 L130.888672,175 L130.888672,164.433594 L133.544922,164.433594 Z M144.746094,164.433594 L144.833984,165.654297 C145.589196,164.710282 146.601556,164.238281 147.871094,164.238281 C148.990891,164.238281 149.824216,164.567054 150.371094,165.224609 C150.917971,165.882165 151.197917,166.865228 151.210938,168.173828 L151.210938,175 L148.388672,175 L148.388672,168.242188 C148.388672,167.643226 148.258465,167.20866 147.998047,166.938477 C147.737629,166.668293 147.304691,166.533203 146.699219,166.533203 C145.904944,166.533203 145.309247,166.871741 144.912109,167.548828 L144.912109,175 L142.089844,175 L142.089844,164.433594 L144.746094,164.433594 Z M158.212891,175.195312 C156.663404,175.195312 155.402023,174.720057 154.428711,173.769531 C153.455399,172.819006 152.96875,171.552742 152.96875,169.970703 L152.96875,169.697266 C152.96875,168.636062 153.173826,167.687179 153.583984,166.850586 C153.994143,166.013993 154.575192,165.369468 155.327148,164.916992 C156.079105,164.464516 156.936844,164.238281 157.900391,164.238281 C159.34571,164.238281 160.483394,164.694006 161.313477,165.605469 C162.143559,166.516932 162.558594,167.809236 162.558594,169.482422 L162.558594,170.634766 L155.830078,170.634766 C155.921224,171.324873 156.196287,171.878253 156.655273,172.294922 C157.11426,172.711591 157.695309,172.919922 158.398438,172.919922 C159.485683,172.919922 160.335283,172.526046 160.947266,171.738281 L162.333984,173.291016 C161.910805,173.889977 161.337894,174.357095 160.615234,174.692383 C159.892575,175.027671 159.091801,175.195312 158.212891,175.195312 Z M157.890625,166.523438 C157.330726,166.523438 156.876629,166.712238 156.52832,167.089844 C156.180011,167.46745 155.957032,168.007809 155.859375,168.710938 L159.785156,168.710938 L159.785156,168.486328 C159.772135,167.861325 159.602866,167.377931 159.277344,167.036133 C158.951821,166.694334 158.489586,166.523438 157.890625,166.523438 Z M168.554688,172.919922 C169.075523,172.919922 169.498696,172.776694 169.824219,172.490234 C170.149741,172.203775 170.31901,171.822919 170.332031,171.347656 L172.978516,171.347656 C172.972005,172.063806 172.776695,172.719724 172.392578,173.31543 C172.008462,173.911136 171.482751,174.373371 170.81543,174.702148 C170.148109,175.030926 169.410811,175.195312 168.603516,175.195312 C167.093091,175.195312 165.901697,174.715174 165.029297,173.754883 C164.156897,172.794592 163.720703,171.468107 163.720703,169.775391 L163.720703,169.589844 C163.720703,167.962231 164.153642,166.663416 165.019531,165.693359 C165.885421,164.723302 167.07356,164.238281 168.583984,164.238281 C169.905606,164.238281 170.965165,164.614254 171.762695,165.366211 C172.560225,166.118168 172.965495,167.119134 172.978516,168.369141 L170.332031,168.369141 C170.31901,167.822263 170.149741,167.377931 169.824219,167.036133 C169.498696,166.694334 169.069013,166.523438 168.535156,166.523438 C167.877601,166.523438 167.381187,166.762693 167.045898,167.241211 C166.71061,167.719729 166.542969,168.496088 166.542969,169.570312 L166.542969,169.863281 C166.542969,170.950526 166.708983,171.731768 167.041016,172.207031 C167.373049,172.682294 167.877601,172.919922 168.554688,172.919922 Z M177.96875,161.835938 L177.96875,164.433594 L179.775391,164.433594 L179.775391,166.503906 L177.96875,166.503906 L177.96875,171.777344 C177.96875,172.167971 178.043619,172.447916 178.193359,172.617188 C178.3431,172.786459 178.629555,172.871094 179.052734,172.871094 C179.365236,172.871094 179.641926,172.848308 179.882812,172.802734 L179.882812,174.941406 C179.329424,175.110678 178.759769,175.195312 178.173828,175.195312 C176.194652,175.195312 175.185547,174.195974 175.146484,172.197266 L175.146484,166.503906 L173.603516,166.503906 L173.603516,164.433594 L175.146484,164.433594 L175.146484,161.835938 L177.96875,161.835938 Z M184.326172,175 L181.494141,175 L181.494141,164.433594 L184.326172,164.433594 L184.326172,175 Z M181.328125,161.699219 C181.328125,161.27604 181.469725,160.927736 181.75293,160.654297 C182.036134,160.380858 182.421873,160.244141 182.910156,160.244141 C183.391929,160.244141 183.77604,160.380858 184.0625,160.654297 C184.34896,160.927736 184.492188,161.27604 184.492188,161.699219 C184.492188,162.128908 184.347332,162.480467 184.057617,162.753906 C183.767902,163.027345 183.385419,163.164062 182.910156,163.164062 C182.434893,163.164062 182.05241,163.027345 181.762695,162.753906 C181.47298,162.480467 181.328125,162.128908 181.328125,161.699219 Z M190.029297,161.835938 L190.029297,164.433594 L191.835938,164.433594 L191.835938,166.503906 L190.029297,166.503906 L190.029297,171.777344 C190.029297,172.167971 190.104166,172.447916 190.253906,172.617188 C190.403647,172.786459 190.690102,172.871094 191.113281,172.871094 C191.425783,172.871094 191.702473,172.848308 191.943359,172.802734 L191.943359,174.941406 C191.389971,175.110678 190.820315,175.195312 190.234375,175.195312 C188.255198,175.195312 187.246094,174.195974 187.207031,172.197266 L187.207031,166.503906 L185.664062,166.503906 L185.664062,164.433594 L187.207031,164.433594 L187.207031,161.835938 L190.029297,161.835938 Z M197.363281,171.552734 L199.326172,164.433594 L202.275391,164.433594 L198.710938,175 L196.015625,175 L192.451172,164.433594 L195.400391,164.433594 L197.363281,171.552734 Z M206.494141,175 L203.662109,175 L203.662109,164.433594 L206.494141,164.433594 L206.494141,175 Z M203.496094,161.699219 C203.496094,161.27604 203.637694,160.927736 203.920898,160.654297 C204.204103,160.380858 204.589841,160.244141 205.078125,160.244141 C205.559898,160.244141 205.944009,160.380858 206.230469,160.654297 C206.516929,160.927736 206.660156,161.27604 206.660156,161.699219 C206.660156,162.128908 206.515301,162.480467 206.225586,162.753906 C205.935871,163.027345 205.553388,163.164062 205.078125,163.164062 C204.602862,163.164062 204.220379,163.027345 203.930664,162.753906 C203.640949,162.480467 203.496094,162.128908 203.496094,161.699219 Z M212.197266,161.835938 L212.197266,164.433594 L214.003906,164.433594 L214.003906,166.503906 L212.197266,166.503906 L212.197266,171.777344 C212.197266,172.167971 212.272135,172.447916 212.421875,172.617188 C212.571615,172.786459 212.858071,172.871094 213.28125,172.871094 C213.593752,172.871094 213.870442,172.848308 214.111328,172.802734 L214.111328,174.941406 C213.55794,175.110678 212.988284,175.195312 212.402344,175.195312 C210.423167,175.195312 209.414063,174.195974 209.375,172.197266 L209.375,166.503906 L207.832031,166.503906 L207.832031,164.433594 L209.375,164.433594 L209.375,161.835938 L212.197266,161.835938 Z M219.521484,171.005859 L221.474609,164.433594 L224.501953,164.433594 L220.253906,176.640625 L220.019531,177.197266 C219.388018,178.577481 218.346361,179.267578 216.894531,179.267578 C216.484373,179.267578 216.06771,179.20573 215.644531,179.082031 L215.644531,176.943359 L216.074219,176.953125 C216.608076,176.953125 217.006835,176.871746 217.270508,176.708984 C217.534181,176.546223 217.740885,176.276044 217.890625,175.898438 L218.222656,175.029297 L214.521484,164.433594 L217.558594,164.433594 L219.521484,171.005859 Z" id="FastVetConnectitvity" fill="#FFFFFF" fill-rule="nonzero"></path>
                <g id="online" transform="translate(141.000000, 77.000000)" fill="#FFFFFF">
                    <g id="Shape">
                        <path d="M43.4880588,14.2657471 L30.6074466,14.2657471 L30.6074466,11.7576523 L34.105271,10.3385544 C34.8239715,11.1124038 35.8456537,11.5972748 36.9774773,11.5972748 C39.1491545,11.5972748 40.9154964,9.81555176 40.9154964,7.62559514 C40.9154964,5.43563843 39.1491545,3.65354154 36.9774773,3.65354154 C34.8061709,3.65354154 33.0394581,5.43563843 33.0394581,7.62559514 C33.0394581,7.64241793 33.0405706,7.65886691 33.0405706,7.67531588 L28.6519729,9.45629122 C28.1127621,9.67498779 27.7593454,10.2021026 27.7593454,10.7879104 L27.7593454,14.2657471 L23.9036541,14.2657471 L23.9036541,7.67382052 C25.3733188,7.09661105 26.4176226,5.65545654 26.4176226,3.97167969 C26.4176226,1.78172307 24.6509098,0 22.4796034,0 C20.308297,0 18.5415843,1.78172307 18.5415843,3.97167969 C18.5415843,5.65545654 19.5862589,7.09661105 21.0555528,7.67382052 L21.0555528,14.2657471 L17.1998616,14.2657471 L17.1998616,10.7879104 C17.1998616,10.2021026 16.8468157,9.67498779 16.3076049,9.45629122 L11.9186363,7.67531588 C11.9190071,7.65886691 11.9201197,7.64241793 11.9201197,7.62559514 C11.9201197,5.43563843 10.1534069,3.65354154 7.98172965,3.65354154 C5.81042326,3.65354154 4.04371044,5.43563843 4.04371044,7.62559514 C4.04371044,9.81555176 5.81042326,11.5972748 7.98172965,11.5972748 C9.11392405,11.5972748 10.1352353,11.1124038 10.8543067,10.3385544 L14.3517603,11.7576523 L14.3517603,14.2657471 L1.47151899,14.2657471 C0.684953544,14.2657471 0.0474683544,14.9087524 0.0474683544,15.7012939 L0.0474683544,33.2983322 C0.0474683544,34.0912476 0.684953544,34.7338791 1.47151899,34.7338791 L14.3517603,34.7338791 L14.3517603,37.2423477 L10.8543067,38.6614456 C10.1352353,37.8875962 9.11392405,37.4027252 7.98172965,37.4027252 C5.81042326,37.4027252 4.04371044,39.1844482 4.04371044,41.3744049 C4.04371044,43.5643616 5.81042326,45.3460845 7.98172965,45.3460845 C10.1530359,45.3460845 11.9197489,43.5643616 11.9197489,41.3744049 C11.9197489,41.3575821 11.9186363,41.3411331 11.9186363,41.3243103 L16.3076049,39.5437088 C16.8468157,39.3246384 17.1998616,38.7978974 17.1998616,38.2117157 L17.1998616,34.7338791 L21.0555528,34.7338791 L21.0555528,41.3261795 C19.5862589,41.9030151 18.5415843,43.3445435 18.5415843,45.0279465 C18.5415843,47.2182769 20.308297,49 22.4796034,49 C24.6509098,49 26.4176226,47.2182769 26.4176226,45.0279465 C26.4176226,43.3445435 25.3733188,41.9030151 23.9036541,41.3261795 L23.9036541,34.7338791 L27.7593454,34.7338791 L27.7593454,38.2117157 C27.7593454,38.7978974 28.1127621,39.3246384 28.6519729,39.5437088 L33.0405706,41.3243103 C33.0405706,41.3411331 33.0394581,41.3575821 33.0394581,41.3744049 C33.0394581,43.5643616 34.8061709,45.3460845 36.9774773,45.3460845 C39.1487837,45.3460845 40.9154964,43.5643616 40.9154964,41.3744049 C40.9154964,39.1844482 39.1491545,37.4027252 36.9774773,37.4027252 C35.8456537,37.4027252 34.8239715,37.8875962 34.105271,38.6614456 L30.6074466,37.2423477 L30.6074466,34.7338791 L43.4880588,34.7338791 C44.2742534,34.7338791 44.9121094,34.0912476 44.9121094,33.2983322 L44.9121094,15.7012939 C44.9121094,14.9087524 44.2742534,14.2657471 43.4880588,14.2657471 Z M36.9774773,6.5250092 C37.5786195,6.5250092 38.0673951,7.01885226 38.0673951,7.62559514 C38.0673951,8.23271184 37.5786195,8.72655489 36.9774773,8.72655489 C36.376335,8.72655489 35.8875593,8.23271184 35.8875593,7.62559514 C35.8875593,7.01885226 36.376335,6.5250092 36.9774773,6.5250092 L36.9774773,6.5250092 Z M22.4796034,2.87109375 C23.0807457,2.87109375 23.5695214,3.3649368 23.5695214,3.97167969 C23.5695214,4.57879639 23.0807457,5.07263944 22.4796034,5.07263944 C21.8788321,5.07263944 21.3896856,4.57879639 21.3896856,3.97167969 C21.3896856,3.3649368 21.8784612,2.87109375 22.4796034,2.87109375 Z M7.98172965,8.72655489 C7.38095829,8.72655489 6.89181171,8.23271184 6.89181171,7.62559514 C6.89181171,7.01885226 7.38095829,6.5250092 7.98172965,6.5250092 C8.58287184,6.5250092 9.07201842,7.01885226 9.07201842,7.62559514 C9.07201842,8.23271184 8.58287184,8.72655489 7.98172965,8.72655489 Z M7.98172965,42.4749908 C7.38095829,42.4749908 6.89181171,41.9811477 6.89181171,41.3744049 C6.89181171,40.7672882 7.38095829,40.2738189 7.98172965,40.2738189 C8.58287184,40.2738189 9.07201842,40.7672882 9.07201842,41.3744049 C9.07201842,41.9811477 8.58287184,42.4749908 7.98172965,42.4749908 Z M22.4796034,46.1289063 C21.8784612,46.1289063 21.3896856,45.6350632 21.3896856,45.0283203 C21.3896856,44.4212036 21.8788321,43.9273606 22.4796034,43.9273606 C23.0807457,43.9273606 23.5695214,44.4212036 23.5695214,45.0283203 C23.5695214,45.6350632 23.0807457,46.1289063 22.4796034,46.1289063 L22.4796034,46.1289063 Z M36.9774773,40.2738189 C37.5786195,40.2738189 38.0673951,40.7672882 38.0673951,41.3744049 C38.0673951,41.9811477 37.5786195,42.4749908 36.9774773,42.4749908 C36.376335,42.4749908 35.8875593,41.9811477 35.8875593,41.3744049 C35.8875593,40.7672882 36.376335,40.2738189 36.9774773,40.2738189 L36.9774773,40.2738189 Z M22.4796034,30.5932236 C19.9367089,30.5932236 17.8677561,27.8597031 17.8677561,24.5 C17.8677561,21.1402969 19.9367089,18.4067764 22.4796034,18.4067764 C25.022498,18.4067764 27.0914507,21.1402969 27.0914507,24.5 C27.0914507,27.8597031 25.022498,30.5932236 22.4796034,30.5932236 Z M2.89556962,17.1368408 L18.2107891,17.1368408 C17.8162084,17.4680634 17.4457328,17.8478852 17.1041831,18.2740631 C15.7598645,19.950737 15.0196548,22.1616287 15.0196548,24.5 C15.0196548,26.8383713 15.7598645,29.049263 17.1041831,30.7259369 C17.4457328,31.1521148 17.8165793,31.5319366 18.2107891,31.8631592 L2.89556962,31.8631592 L2.89556962,17.1368408 Z M42.0640081,31.8631592 L26.7487885,31.8631592 C27.1429984,31.5319366 27.5134741,31.1521148 27.8553946,30.7259369 C29.1993423,29.049263 29.939552,26.8383713 29.939552,24.5 C29.939552,22.1616287 29.1993423,19.950737 27.8553946,18.2740631 C27.5134741,17.8478852 27.1429984,17.4680634 26.7487885,17.1368408 L42.0640081,17.1368408 L42.0640081,31.8631592 Z" fill-rule="nonzero"></path>
                        <path d="M36.0399773,29.0664597 C38.536516,29.0664597 40.5672716,27.0178147 40.5672716,24.5 C40.5672716,21.9821853 38.536516,19.9335403 36.0399773,19.9335403 C33.5438093,19.9335403 31.512683,21.9821853 31.512683,24.5 C31.512683,27.0178147 33.5438093,29.0664597 36.0399773,29.0664597 L36.0399773,29.0664597 Z M36.0399773,22.8046341 C36.965981,22.8046341 37.7191703,23.5653992 37.7191703,24.5 C37.7191703,25.4346008 36.965981,26.1953659 36.0399773,26.1953659 C35.1139735,26.1953659 34.3607842,25.4346008 34.3607842,24.5 C34.3607842,23.5653992 35.1139735,22.8046341 36.0399773,22.8046341 L36.0399773,22.8046341 Z" fill-rule="nonzero"></path>
                        <path d="M8.91922965,19.9335403 C6.42306171,19.9335403 4.39193535,21.9821853 4.39193535,24.5 C4.39193535,27.0178147 6.42306171,29.0664597 8.91922965,29.0664597 C11.4157684,29.0664597 13.446524,27.0178147 13.446524,24.5 C13.446524,21.9821853 11.4157684,19.9335403 8.91922965,19.9335403 L8.91922965,19.9335403 Z M8.91922965,26.1953659 C7.99359674,26.1953659 7.24003661,25.4346008 7.24003661,24.5 C7.24003661,23.5653992 7.99359674,22.8046341 8.91922965,22.8046341 C9.84523339,22.8046341 10.5984227,23.5653992 10.5984227,24.5 C10.5984227,25.4346008 9.84523339,26.1953659 8.91922965,26.1953659 Z" fill-rule="nonzero"></path>
                    </g>
                </g>
            </g>
        </g>
    </g>
</svg>