<svg xmlns="http://www.w3.org/2000/svg" width="146" height="134" viewBox="0 0 146 134">
    <defs>
        <style>
            .cls-1{fill:#fff;stroke:#707070}.cls-2{clip-path:url(#clip-path)}.cls-3{fill-rule:evenodd}.cls-4{fill:rgba(12,177,189,.2)}
        </style>
        <clipPath id="clip-path">
            <path id="Rectangle_41" d="M0 0h146v134H0z" class="cls-1" data-name="Rectangle 41" transform="translate(1080 1863)"/>
        </clipPath>
    </defs>
    <g id="ic_Check_Symptoms" class="cls-2" data-name="ic_Check Symptoms" transform="translate(-1080 -1863)">
        <g id="Check_Symptoms" data-name="Check Symptoms" transform="translate(1080 1866.173)">
            <g id="Group_925" data-name="Group 925">
                <path id="Path_3459" d="M121.8 17.141h-9.34a70.9 70.9 0 0 1-19.449-2.622 39.776 39.776 0 0 0-29.941 3.327 40.672 40.672 0 0 0-11.8-4.181 1.865 1.865 0 0 0-.676 3.669 36.973 36.973 0 0 1 10.617 3.743v68.979a9.836 9.836 0 0 0-5.041 2.655 39.587 39.587 0 0 0-23.047-.394A70.867 70.867 0 0 1 13.67 94.94H4.33a.621.621 0 0 1-.618-.621v-7.434a1.856 1.856 0 1 0-3.711 0v11.423a5.588 5.588 0 0 0 5.567 5.6h49.79a1.886 1.886 0 0 0 1.789-2.383 6.158 6.158 0 1 1 11.831 0 1.876 1.876 0 0 0 1.783 2.383H86.8v8.438a6.866 6.866 0 1 0 13.732 0V103.9h20.027a5.588 5.588 0 0 0 5.566-5.6V21.495a4.346 4.346 0 0 0-4.33-4.353zM5.567 100.174a1.86 1.86 0 0 1-1.827-1.547c.193.027 9.93.046 9.93.046a74.589 74.589 0 0 0 20.463-2.765 35.885 35.885 0 0 1 19.838.032 9.913 9.913 0 0 0-.771 4.235H5.567zm59.352-10.117V21.079a36.1 36.1 0 0 1 27.073-2.971 74.573 74.573 0 0 0 20.464 2.765h9.34a.62.62 0 0 1 .618.621v72.824a.621.621 0 0 1-.619.621h-9.339c-2.23 0-4.441-.1-6.618-.288a20.825 20.825 0 0 0 7.91-21.529 1.856 1.856 0 1 0-3.612.858 17.2 17.2 0 0 1 .454 3.931 16.975 16.975 0 1 1-3.923-10.893 1.85 1.85 0 0 0 2.614.237 1.873 1.873 0 0 0 .235-2.627A20.675 20.675 0 0 0 77.7 91.042a39.8 39.8 0 0 0-7.743 1.669 9.838 9.838 0 0 0-5.041-2.655zm8.007 10.118a9.913 9.913 0 0 0-.771-4.235 35.91 35.91 0 0 1 9.178-1.4 20.577 20.577 0 0 0 5.467 2.934v2.7H72.927zm20.74 15.341a3.168 3.168 0 0 1-3.155-3.172V98.418a20.611 20.611 0 0 0 6.309 0v13.926a3.167 3.167 0 0 1-3.154 3.172zm26.892-15.341h-20.024v-2.4a78.25 78.25 0 0 0 11.923.9s9.736-.018 9.93-.045a1.86 1.86 0 0 1-1.827 1.547z" data-name="Path 3459"/>
                <path id="Path_3460" d="M1.861 80.262a1.864 1.864 0 0 0 1.86-1.862V21.464a.622.622 0 0 1 .62-.622H13.7a74.889 74.889 0 0 0 20.516-2.766 36.152 36.152 0 0 1 8.333-1.349 1.867 1.867 0 0 0-.16-3.73 39.882 39.882 0 0 0-9.19 1.488 71.2 71.2 0 0 1-19.5 2.624H4.342A4.356 4.356 0 0 0 0 21.466V78.4a1.864 1.864 0 0 0 1.861 1.862z" class="cls-3" data-name="Path 3460"/>
                <path id="Path_3461" d="M10.384 54.153a1.9 1.9 0 0 0 2.425-1.043l1.72-4.333H26l1.7 4.323a1.88 1.88 0 0 0 1.759 1.168 1.959 1.959 0 0 0 .663-.117 1.784 1.784 0 0 0 1.095-2.325l-8.675-22.062-.02-.049a2.4 2.4 0 0 0-2.222-1.432 2.4 2.4 0 0 0-2.226 1.436l-.017.041L9.3 51.825a1.782 1.782 0 0 0 1.084 2.328zm9.907-19.9l4.291 10.915H15.96l4.33-10.916z" data-name="Path 3461"/>
                <path id="Path_3462" d="M50.45 66.5a1.737 1.737 0 0 0-1.888-1.529h-37.5a1.563 1.563 0 1 0 0 3.058h37.5A1.737 1.737 0 0 0 50.45 66.5zm-1.825-38.22H33.166a1.7 1.7 0 0 0-1.825 1.529 1.7 1.7 0 0 0 1.825 1.529h15.459a1.7 1.7 0 0 0 1.825-1.529 1.7 1.7 0 0 0-1.825-1.526zm.689 9.173H36.3a1.745 1.745 0 0 0-1.9 1.529 1.745 1.745 0 0 0 1.9 1.529h13.014a1.745 1.745 0 0 0 1.9-1.529 1.745 1.745 0 0 0-1.9-1.527zm-.737 9.173h-9.249a1.56 1.56 0 1 0 0 3.058h9.249a1.56 1.56 0 1 0 0-3.058zm.139 9.937h-5.705a1.541 1.541 0 1 0 0 3.058h5.705a1.541 1.541 0 1 0 0-3.058zM76.762 31.34h29.931a1.713 1.713 0 0 0 1.851-1.529 1.713 1.713 0 0 0-1.851-1.529H76.762a1.713 1.713 0 0 0-1.851 1.529 1.713 1.713 0 0 0 1.851 1.529zm0 9.173h29.931a1.557 1.557 0 1 0 0-3.058H76.762a1.557 1.557 0 1 0 0 3.058zm0 9.173h29.931a1.557 1.557 0 1 0 0-3.058H76.762a1.557 1.557 0 1 0 0 3.058zM11.053 74.911a1.562 1.562 0 1 0 0 3.058h16.878a1.562 1.562 0 1 0 0-3.058z" class="cls-3" data-name="Path 3462"/>
            </g>
            <circle id="Ellipse_116" cx="63.827" cy="63.827" r="63.827" class="cls-4" data-name="Ellipse 116" transform="translate(18.346)"/>
        </g>
    </g>
</svg>
